M48
; DRILL file {KiCad (5.1.10-1-10_14)} date Wednesday, September 22, 2021 at 02:39:33 PM
; FORMAT={-:-/ absolute / metric / decimal}
; #@! TF.CreationDate,2021-09-22T14:39:33-04:00
; #@! TF.GenerationSoftware,Kicad,Pcbnew,(5.1.10-1-10_14)
; #@! TF.FileFunction,NonPlated,1,2,NPTH
FMAT,2
METRIC
T1C0.500
T2C0.550
T3C0.900
T4C3.200
%
G90
G05
T1
X9.2Y54.875
X9.2Y52.625
X9.2Y27.375
X9.2Y25.125
X10.0Y54.875
X10.0Y52.625
X10.0Y27.375
X10.0Y25.125
X10.8Y54.862
X10.8Y52.625
X10.8Y27.362
X10.8Y25.125
X37.2Y54.875
X37.2Y52.625
X37.2Y27.375
X37.2Y25.125
X38.0Y54.875
X38.0Y52.625
X38.0Y27.375
X38.0Y25.125
X38.8Y54.862
X38.8Y52.625
X38.8Y27.362
X38.8Y25.125
X48.125Y75.25
X48.125Y74.45
X48.125Y60.25
X48.125Y59.45
X48.125Y47.75
X48.125Y46.95
X48.125Y32.75
X48.125Y31.95
X48.125Y20.25
X48.125Y19.45
X48.125Y5.25
X48.125Y4.45
X48.137Y76.05
X48.137Y61.05
X48.137Y48.55
X48.137Y33.55
X48.137Y21.05
X48.137Y6.05
X50.375Y76.05
X50.375Y75.25
X50.375Y74.45
X50.375Y61.05
X50.375Y60.25
X50.375Y59.45
X50.375Y48.55
X50.375Y47.75
X50.375Y46.95
X50.375Y33.55
X50.375Y32.75
X50.375Y31.95
X50.375Y21.05
X50.375Y20.25
X50.375Y19.45
X50.375Y6.05
X50.375Y5.25
X50.375Y4.45
X59.7Y54.875
X59.7Y52.625
X59.7Y27.375
X59.7Y25.125
X60.5Y54.875
X60.5Y52.625
X60.5Y27.375
X60.5Y25.125
X61.3Y54.862
X61.3Y52.625
X61.3Y27.362
X61.3Y25.125
X87.7Y54.875
X87.7Y52.625
X87.7Y27.375
X87.7Y25.125
X88.5Y54.875
X88.5Y52.625
X88.5Y27.375
X88.5Y25.125
X89.3Y54.862
X89.3Y52.625
X89.3Y27.362
X89.3Y25.125
T2
X4.78Y69.5
X4.78Y65.5
X4.78Y42.0
X4.78Y38.0
X4.78Y14.5
X4.78Y10.5
X55.28Y69.5
X55.28Y65.5
X55.28Y42.0
X55.28Y38.0
X55.28Y14.5
X55.28Y10.5
T3
X8.5Y78.241
X8.5Y50.741
X8.5Y23.241
X11.5Y78.241
X11.5Y50.741
X11.5Y23.241
X36.5Y78.241
X36.5Y50.741
X36.5Y23.241
X39.5Y78.241
X39.5Y50.741
X39.5Y23.241
X59.0Y78.241
X59.0Y50.741
X59.0Y23.241
X62.0Y78.241
X62.0Y50.741
X62.0Y23.241
X87.0Y78.241
X87.0Y50.741
X87.0Y23.241
X90.0Y78.241
X90.0Y50.741
X90.0Y23.241
T4
X2.5Y77.5
X2.5Y50.0
X2.5Y22.5
X45.5Y57.5
X45.5Y30.0
X45.5Y2.5
X53.0Y77.5
X53.0Y50.0
X53.0Y22.5
X96.0Y57.5
X96.0Y30.0
X96.0Y2.5
T0
M30
