M48
; DRILL file {KiCad (5.1.10-1-10_14)} date Saturday, September 25, 2021 at 05:02:56 PM
; FORMAT={-:-/ absolute / metric / decimal}
; #@! TF.CreationDate,2021-09-25T17:02:56-04:00
; #@! TF.GenerationSoftware,Kicad,Pcbnew,(5.1.10-1-10_14)
; #@! TF.FileFunction,Plated,1,2,PTH
FMAT,2
METRIC
T1C0.400
T2C0.650
T3C1.000
%
G90
G05
T1
X1.0Y72.5
X1.0Y71.5
X1.0Y70.5
X1.0Y67.5
X1.0Y64.5
X1.0Y63.5
X1.0Y62.5
X1.0Y45.0
X1.0Y44.0
X1.0Y43.0
X1.0Y40.0
X1.0Y37.0
X1.0Y36.0
X1.0Y35.0
X1.0Y17.5
X1.0Y16.5
X1.0Y15.5
X1.0Y12.5
X1.0Y9.5
X1.0Y8.5
X1.0Y7.5
X4.5Y72.5
X4.5Y62.5
X4.5Y45.0
X4.5Y35.0
X4.5Y17.5
X4.5Y7.5
X5.5Y72.5
X5.5Y62.5
X5.5Y45.0
X5.5Y35.0
X5.5Y17.5
X5.5Y7.5
X6.5Y72.5
X6.5Y62.5
X6.5Y45.0
X6.5Y35.0
X6.5Y17.5
X6.5Y7.5
X8.763Y56.048
X8.763Y28.548
X8.763Y1.048
X8.826Y57.382
X8.826Y29.882
X8.826Y2.382
X9.017Y73.923
X9.017Y46.423
X9.017Y18.923
X10.058Y78.165
X10.058Y50.665
X10.058Y23.165
X11.049Y74.812
X11.049Y47.312
X11.049Y19.812
X11.675Y68.25
X11.675Y40.75
X11.675Y13.25
X15.037Y63.23
X15.037Y35.73
X15.037Y8.23
X15.494Y66.024
X15.494Y38.524
X15.494Y11.024
X15.684Y76.422
X15.684Y48.922
X15.684Y21.422
X16.256Y63.214
X16.256Y35.714
X16.256Y8.214
X16.383Y65.347
X16.383Y37.847
X16.383Y10.347
X17.438Y63.128
X17.438Y35.628
X17.438Y8.128
X19.431Y74.685
X19.431Y47.185
X19.431Y19.685
X19.456Y58.708
X19.456Y31.208
X19.456Y3.708
X19.574Y66.243
X19.574Y38.743
X19.574Y11.243
X20.819Y75.051
X20.819Y47.551
X20.819Y20.051
X20.98Y67.04
X20.98Y39.54
X20.98Y12.04
X21.399Y63.445
X21.399Y35.945
X21.399Y8.445
X22.225Y68.208
X22.225Y40.708
X22.225Y13.208
X22.23Y74.498
X22.23Y46.998
X22.23Y19.498
X22.962Y67.04
X22.962Y39.54
X22.962Y12.04
X22.987Y65.922
X22.987Y38.422
X22.987Y10.922
X23.978Y56.88
X23.978Y29.38
X23.978Y1.88
X25.273Y62.429
X25.273Y34.929
X25.273Y7.429
X25.866Y63.489
X25.866Y35.989
X25.866Y8.489
X27.94Y71.764
X27.94Y44.264
X27.94Y16.764
X29.567Y64.738
X29.567Y37.238
X29.567Y9.738
X29.591Y66.874
X29.591Y39.374
X29.591Y11.874
X33.718Y70.43
X33.718Y42.93
X33.718Y15.43
X33.91Y66.817
X33.91Y39.317
X33.91Y11.817
X34.389Y65.757
X34.389Y38.257
X34.389Y10.757
X37.338Y64.721
X37.338Y37.221
X37.338Y9.721
X38.0Y78.241
X38.0Y50.741
X38.0Y23.241
X51.5Y72.5
X51.5Y71.5
X51.5Y70.5
X51.5Y67.5
X51.5Y64.5
X51.5Y63.5
X51.5Y62.5
X51.5Y45.0
X51.5Y44.0
X51.5Y43.0
X51.5Y40.0
X51.5Y37.0
X51.5Y36.0
X51.5Y35.0
X51.5Y17.5
X51.5Y16.5
X51.5Y15.5
X51.5Y12.5
X51.5Y9.5
X51.5Y8.5
X51.5Y7.5
X55.0Y72.5
X55.0Y62.5
X55.0Y45.0
X55.0Y35.0
X55.0Y17.5
X55.0Y7.5
X56.0Y72.5
X56.0Y62.5
X56.0Y45.0
X56.0Y35.0
X56.0Y17.5
X56.0Y7.5
X57.0Y72.5
X57.0Y62.5
X57.0Y45.0
X57.0Y35.0
X57.0Y17.5
X57.0Y7.5
X59.263Y56.048
X59.263Y28.548
X59.263Y1.048
X59.326Y57.382
X59.326Y29.882
X59.326Y2.382
X59.517Y73.923
X59.517Y46.423
X59.517Y18.923
X60.558Y78.165
X60.558Y50.665
X60.558Y23.165
X61.549Y74.812
X61.549Y47.312
X61.549Y19.812
X62.175Y68.25
X62.175Y40.75
X62.175Y13.25
X65.537Y63.23
X65.537Y35.73
X65.537Y8.23
X65.994Y66.024
X65.994Y38.524
X65.994Y11.024
X66.184Y76.422
X66.184Y48.922
X66.184Y21.422
X66.756Y63.214
X66.756Y35.714
X66.756Y8.214
X66.883Y65.347
X66.883Y37.847
X66.883Y10.347
X67.938Y63.128
X67.938Y35.628
X67.938Y8.128
X69.931Y74.685
X69.931Y47.185
X69.931Y19.685
X69.956Y58.708
X69.956Y31.208
X69.956Y3.708
X70.074Y66.243
X70.074Y38.743
X70.074Y11.243
X71.319Y75.051
X71.319Y47.551
X71.319Y20.051
X71.48Y67.04
X71.48Y39.54
X71.48Y12.04
X71.9Y63.445
X71.9Y35.945
X71.9Y8.445
X72.725Y68.208
X72.725Y40.708
X72.725Y13.208
X72.73Y74.498
X72.73Y46.998
X72.73Y19.498
X73.462Y67.04
X73.462Y39.54
X73.462Y12.04
X73.487Y65.922
X73.487Y38.422
X73.487Y10.922
X74.478Y56.88
X74.478Y29.38
X74.478Y1.88
X75.773Y62.429
X75.773Y34.929
X75.773Y7.429
X76.366Y63.489
X76.366Y35.989
X76.366Y8.489
X78.44Y71.764
X78.44Y44.264
X78.44Y16.764
X80.067Y64.738
X80.067Y37.238
X80.067Y9.738
X80.091Y66.874
X80.091Y39.374
X80.091Y11.874
X84.218Y70.43
X84.218Y42.93
X84.218Y15.43
X84.41Y66.817
X84.41Y39.317
X84.41Y11.817
X84.889Y65.757
X84.889Y38.257
X84.889Y10.757
X87.838Y64.721
X87.838Y37.221
X87.838Y9.721
X88.5Y78.241
X88.5Y50.741
X88.5Y23.241
T2
X18.923Y77.225
X18.923Y75.955
X18.923Y49.725
X18.923Y48.455
X18.923Y22.225
X18.923Y20.955
X20.193Y77.225
X20.193Y75.955
X20.193Y49.725
X20.193Y48.455
X20.193Y22.225
X20.193Y20.955
X21.463Y77.225
X21.463Y75.955
X21.463Y49.725
X21.463Y48.455
X21.463Y22.225
X21.463Y20.955
X22.733Y77.225
X22.733Y75.955
X22.733Y49.725
X22.733Y48.455
X22.733Y22.225
X22.733Y20.955
X24.003Y77.225
X24.003Y75.955
X24.003Y49.725
X24.003Y48.455
X24.003Y22.225
X24.003Y20.955
X69.423Y77.225
X69.423Y75.955
X69.423Y49.725
X69.423Y48.455
X69.423Y22.225
X69.423Y20.955
X70.693Y77.225
X70.693Y75.955
X70.693Y49.725
X70.693Y48.455
X70.693Y22.225
X70.693Y20.955
X71.963Y77.225
X71.963Y75.955
X71.963Y49.725
X71.963Y48.455
X71.963Y22.225
X71.963Y20.955
X73.233Y77.225
X73.233Y75.955
X73.233Y49.725
X73.233Y48.455
X73.233Y22.225
X73.233Y20.955
X74.503Y77.225
X74.503Y75.955
X74.503Y49.725
X74.503Y48.455
X74.503Y22.225
X74.503Y20.955
T3
X28.5Y57.25
X28.5Y29.75
X28.5Y2.25
X31.04Y57.25
X31.04Y29.75
X31.04Y2.25
X33.58Y57.25
X33.58Y29.75
X33.58Y2.25
X43.21Y70.08
X43.21Y67.54
X43.21Y65.0
X43.21Y42.58
X43.21Y40.04
X43.21Y37.5
X43.21Y15.08
X43.21Y12.54
X43.21Y10.0
X45.75Y70.08
X45.75Y67.54
X45.75Y65.0
X45.75Y42.58
X45.75Y40.04
X45.75Y37.5
X45.75Y15.08
X45.75Y12.54
X45.75Y10.0
X79.0Y57.25
X79.0Y29.75
X79.0Y2.25
X81.54Y57.25
X81.54Y29.75
X81.54Y2.25
X84.08Y57.25
X84.08Y29.75
X84.08Y2.25
X93.71Y70.08
X93.71Y67.54
X93.71Y65.0
X93.71Y42.58
X93.71Y40.04
X93.71Y37.5
X93.71Y15.08
X93.71Y12.54
X93.71Y10.0
X96.25Y70.08
X96.25Y67.54
X96.25Y65.0
X96.25Y42.58
X96.25Y40.04
X96.25Y37.5
X96.25Y15.08
X96.25Y12.54
X96.25Y10.0
T0
M30
