%FSLAX45Y45*%
G04 Gerber Fmt 4.5, Leading zero omitted, Abs format (unit mm)*
G04 Created by KiCad (PCBNEW (5.1.10-1-10_14)) date 2021-09-22 14:39:33*
%MOMM*%
%LPD*%
G01*
G04 APERTURE LIST*
%TA.AperFunction,Profile*%
%ADD10C,0.050000*%
%TD*%
%ADD11C,0.200000*%
%ADD12C,0.300000*%
G04 APERTURE END LIST*
D10*
X0Y7800000D02*
X0Y5700000D01*
X4800000Y5700000D02*
G75*
G02*
X4600000Y5500000I-200000J0D01*
G01*
X4600000Y8000000D02*
G75*
G02*
X4800000Y7800000I0J-200000D01*
G01*
X0Y7800000D02*
G75*
G02*
X200000Y8000000I200000J0D01*
G01*
X200000Y5500000D02*
G75*
G02*
X0Y5700000I0J200000D01*
G01*
X5250000Y5500000D02*
G75*
G02*
X5050000Y5700000I0J200000D01*
G01*
X9850000Y5700000D02*
X9850000Y7800000D01*
X4800000Y5750000D02*
X4800000Y5775000D01*
X3550000Y5500000D02*
X1250000Y5500000D01*
X5800000Y8000000D02*
X5250000Y8000000D01*
X750000Y5500000D02*
X200000Y5500000D01*
X4225000Y8000000D02*
X4600000Y8000000D01*
X200000Y8000000D02*
X750000Y8000000D01*
X1250000Y8000000D02*
X3725000Y8000000D01*
X4800000Y5750000D02*
X4800000Y5700000D01*
X5050000Y5700000D02*
X5050000Y5775000D01*
X5050000Y6275000D02*
X5050000Y7275000D01*
X9850000Y5700000D02*
G75*
G02*
X9650000Y5500000I-200000J0D01*
G01*
X9650000Y8000000D02*
G75*
G02*
X9850000Y7800000I0J-200000D01*
G01*
X5050000Y7800000D02*
G75*
G02*
X5250000Y8000000I200000J0D01*
G01*
X5800000Y5500000D02*
X5250000Y5500000D01*
X9100000Y5500000D02*
X9650000Y5500000D01*
X4800000Y7250000D02*
X4800000Y6275000D01*
X9100000Y5250000D02*
G75*
G02*
X9100000Y5500000I0J125000D01*
G01*
X5800000Y5500000D02*
G75*
G02*
X5800000Y5250000I0J-125000D01*
G01*
X6300000Y5250000D02*
G75*
G02*
X6300000Y5500000I0J125000D01*
G01*
X4800000Y7275000D02*
G75*
G02*
X5050000Y7275000I125000J0D01*
G01*
X5050000Y7775000D02*
G75*
G02*
X4800000Y7775000I-125000J0D01*
G01*
X5050000Y6275000D02*
G75*
G02*
X4800000Y6275000I-125000J0D01*
G01*
X4800000Y5775000D02*
G75*
G02*
X5050000Y5775000I125000J0D01*
G01*
X5050000Y5025000D02*
G75*
G02*
X4800000Y5025000I-125000J0D01*
G01*
X4800000Y4525000D02*
G75*
G02*
X5050000Y4525000I125000J0D01*
G01*
X4800000Y3025000D02*
G75*
G02*
X5050000Y3025000I125000J0D01*
G01*
X5050000Y3525000D02*
G75*
G02*
X4800000Y3525000I-125000J0D01*
G01*
X5050000Y775000D02*
G75*
G02*
X4800000Y775000I-125000J0D01*
G01*
X4800000Y275000D02*
G75*
G02*
X5050000Y275000I125000J0D01*
G01*
X4800000Y1775000D02*
G75*
G02*
X5050000Y1775000I125000J0D01*
G01*
X5050000Y2275000D02*
G75*
G02*
X4800000Y2275000I-125000J0D01*
G01*
X1250000Y8000000D02*
X750000Y8000000D01*
X4225000Y8000000D02*
X3725000Y8000000D01*
X6300000Y8000000D02*
X5800000Y8000000D01*
X8775000Y0D02*
X9275000Y0D01*
X5800000Y0D02*
X6300000Y0D01*
X3725000Y0D02*
X4225000Y0D01*
X1250000Y0D02*
X750000Y0D01*
X4050000Y5500000D02*
X4600000Y5500000D01*
X5050000Y7775000D02*
X5050000Y7800000D01*
X4800000Y7250000D02*
X4800000Y7275000D01*
X4800000Y7775000D02*
X4800000Y7800000D01*
X9275000Y8000000D02*
X9650000Y8000000D01*
X8600000Y5500000D02*
X6300000Y5500000D01*
X5800000Y0D02*
X5250000Y0D01*
X750000Y0D02*
X200000Y0D01*
X3725000Y0D02*
X1250000Y0D01*
X4225000Y0D02*
X4600000Y0D01*
X4800000Y250000D02*
X4800000Y275000D01*
X4800000Y1750000D02*
X4800000Y1775000D01*
X5050000Y775000D02*
X5050000Y1775000D01*
X5050000Y200000D02*
X5050000Y275000D01*
X4800000Y250000D02*
X4800000Y200000D01*
X4800000Y1750000D02*
X4800000Y775000D01*
X9850000Y200000D02*
G75*
G02*
X9650000Y0I-200000J0D01*
G01*
X5250000Y0D02*
G75*
G02*
X5050000Y200000I0J200000D01*
G01*
X9850000Y200000D02*
X9850000Y2300000D01*
X0Y2300000D02*
X0Y200000D01*
X4800000Y200000D02*
G75*
G02*
X4600000Y0I-200000J0D01*
G01*
X200000Y0D02*
G75*
G02*
X0Y200000I0J200000D01*
G01*
X9275000Y8000000D02*
X6300000Y8000000D01*
X8600000Y5500000D02*
G75*
G02*
X8600000Y5250000I0J-125000D01*
G01*
X4800000Y5025000D02*
X4800000Y5050000D01*
X9100000Y5250000D02*
X9650000Y5250000D01*
X4800000Y4500000D02*
X4800000Y3525000D01*
X5050000Y3525000D02*
X5050000Y4525000D01*
X9650000Y5250000D02*
G75*
G02*
X9850000Y5050000I0J-200000D01*
G01*
X5050000Y5050000D02*
G75*
G02*
X5250000Y5250000I200000J0D01*
G01*
X9850000Y2950000D02*
X9850000Y5050000D01*
X5800000Y5250000D02*
X5250000Y5250000D01*
X4050000Y5250000D02*
X4600000Y5250000D01*
X1250000Y5250000D02*
G75*
G02*
X1250000Y5500000I0J125000D01*
G01*
X200000Y5250000D02*
X750000Y5250000D01*
X3550000Y5500000D02*
G75*
G02*
X3550000Y5250000I0J-125000D01*
G01*
X750000Y5500000D02*
G75*
G02*
X750000Y5250000I0J-125000D01*
G01*
X4050000Y5250000D02*
G75*
G02*
X4050000Y5500000I0J125000D01*
G01*
X1250000Y5250000D02*
X3550000Y5250000D01*
X6300000Y5250000D02*
X8600000Y5250000D01*
X0Y5050000D02*
X0Y2950000D01*
X4600000Y5250000D02*
G75*
G02*
X4800000Y5050000I0J-200000D01*
G01*
X0Y5050000D02*
G75*
G02*
X200000Y5250000I200000J0D01*
G01*
X9275000Y0D02*
X9650000Y0D01*
X8775000Y0D02*
X6300000Y0D01*
X5050000Y5025000D02*
X5050000Y5050000D01*
X4800000Y4500000D02*
X4800000Y4525000D01*
X4050000Y2500000D02*
X4600000Y2500000D01*
X5800000Y2500000D02*
X5250000Y2500000D01*
X5050000Y2300000D02*
G75*
G02*
X5250000Y2500000I200000J0D01*
G01*
X9650000Y2500000D02*
G75*
G02*
X9850000Y2300000I0J-200000D01*
G01*
X9100000Y2500000D02*
X9650000Y2500000D01*
X3550000Y2750000D02*
G75*
G02*
X3550000Y2500000I0J-125000D01*
G01*
X200000Y2500000D02*
X750000Y2500000D01*
X1250000Y2500000D02*
G75*
G02*
X1250000Y2750000I0J125000D01*
G01*
X8600000Y2750000D02*
X6300000Y2750000D01*
X4050000Y2750000D02*
X4600000Y2750000D01*
X6300000Y2500000D02*
G75*
G02*
X6300000Y2750000I0J125000D01*
G01*
X5800000Y2750000D02*
G75*
G02*
X5800000Y2500000I0J-125000D01*
G01*
X9100000Y2500000D02*
G75*
G02*
X9100000Y2750000I0J125000D01*
G01*
X8600000Y2750000D02*
G75*
G02*
X8600000Y2500000I0J-125000D01*
G01*
X0Y2300000D02*
G75*
G02*
X200000Y2500000I200000J0D01*
G01*
X4600000Y2500000D02*
G75*
G02*
X4800000Y2300000I0J-200000D01*
G01*
X6300000Y2500000D02*
X8600000Y2500000D01*
X1250000Y2500000D02*
X3550000Y2500000D01*
X4050000Y2500000D02*
G75*
G02*
X4050000Y2750000I0J125000D01*
G01*
X750000Y2750000D02*
G75*
G02*
X750000Y2500000I0J-125000D01*
G01*
X4800000Y3000000D02*
X4800000Y3025000D01*
X5050000Y2950000D02*
X5050000Y3025000D01*
X5050000Y2275000D02*
X5050000Y2300000D01*
X4800000Y2300000D02*
X4800000Y2275000D01*
X200000Y2750000D02*
G75*
G02*
X0Y2950000I0J200000D01*
G01*
X4800000Y2950000D02*
G75*
G02*
X4600000Y2750000I-200000J0D01*
G01*
X4800000Y3000000D02*
X4800000Y2950000D01*
X750000Y2750000D02*
X200000Y2750000D01*
X3550000Y2750000D02*
X1250000Y2750000D01*
X5250000Y2750000D02*
G75*
G02*
X5050000Y2950000I0J200000D01*
G01*
X9850000Y2950000D02*
G75*
G02*
X9650000Y2750000I-200000J0D01*
G01*
X9100000Y2750000D02*
X9650000Y2750000D01*
X5800000Y2750000D02*
X5250000Y2750000D01*
D11*
X80000Y7270000D02*
X120000Y7230000D01*
X120000Y7270000D02*
X80000Y7230000D01*
X80000Y7170000D02*
X120000Y7130000D01*
X120000Y7170000D02*
X80000Y7130000D01*
X80000Y7070000D02*
X120000Y7030000D01*
X120000Y7070000D02*
X80000Y7030000D01*
X80000Y6770000D02*
X120000Y6730000D01*
X120000Y6770000D02*
X80000Y6730000D01*
X80000Y6470000D02*
X120000Y6430000D01*
X120000Y6470000D02*
X80000Y6430000D01*
X80000Y6370000D02*
X120000Y6330000D01*
X120000Y6370000D02*
X80000Y6330000D01*
X80000Y6270000D02*
X120000Y6230000D01*
X120000Y6270000D02*
X80000Y6230000D01*
X80000Y4520000D02*
X120000Y4480000D01*
X120000Y4520000D02*
X80000Y4480000D01*
X80000Y4420000D02*
X120000Y4380000D01*
X120000Y4420000D02*
X80000Y4380000D01*
X80000Y4320000D02*
X120000Y4280000D01*
X120000Y4320000D02*
X80000Y4280000D01*
X80000Y4020000D02*
X120000Y3980000D01*
X120000Y4020000D02*
X80000Y3980000D01*
X80000Y3720000D02*
X120000Y3680000D01*
X120000Y3720000D02*
X80000Y3680000D01*
X80000Y3620000D02*
X120000Y3580000D01*
X120000Y3620000D02*
X80000Y3580000D01*
X80000Y3520000D02*
X120000Y3480000D01*
X120000Y3520000D02*
X80000Y3480000D01*
X80000Y1770000D02*
X120000Y1730000D01*
X120000Y1770000D02*
X80000Y1730000D01*
X80000Y1670000D02*
X120000Y1630000D01*
X120000Y1670000D02*
X80000Y1630000D01*
X80000Y1570000D02*
X120000Y1530000D01*
X120000Y1570000D02*
X80000Y1530000D01*
X80000Y1270000D02*
X120000Y1230000D01*
X120000Y1270000D02*
X80000Y1230000D01*
X80000Y970000D02*
X120000Y930000D01*
X120000Y970000D02*
X80000Y930000D01*
X80000Y870000D02*
X120000Y830000D01*
X120000Y870000D02*
X80000Y830000D01*
X80000Y770000D02*
X120000Y730000D01*
X120000Y770000D02*
X80000Y730000D01*
X430000Y7270000D02*
X470000Y7230000D01*
X470000Y7270000D02*
X430000Y7230000D01*
X430000Y6270000D02*
X470000Y6230000D01*
X470000Y6270000D02*
X430000Y6230000D01*
X430000Y4520000D02*
X470000Y4480000D01*
X470000Y4520000D02*
X430000Y4480000D01*
X430000Y3520000D02*
X470000Y3480000D01*
X470000Y3520000D02*
X430000Y3480000D01*
X430000Y1770000D02*
X470000Y1730000D01*
X470000Y1770000D02*
X430000Y1730000D01*
X430000Y770000D02*
X470000Y730000D01*
X470000Y770000D02*
X430000Y730000D01*
X530000Y7270000D02*
X570000Y7230000D01*
X570000Y7270000D02*
X530000Y7230000D01*
X530000Y6270000D02*
X570000Y6230000D01*
X570000Y6270000D02*
X530000Y6230000D01*
X530000Y4520000D02*
X570000Y4480000D01*
X570000Y4520000D02*
X530000Y4480000D01*
X530000Y3520000D02*
X570000Y3480000D01*
X570000Y3520000D02*
X530000Y3480000D01*
X530000Y1770000D02*
X570000Y1730000D01*
X570000Y1770000D02*
X530000Y1730000D01*
X530000Y770000D02*
X570000Y730000D01*
X570000Y770000D02*
X530000Y730000D01*
X630000Y7270000D02*
X670000Y7230000D01*
X670000Y7270000D02*
X630000Y7230000D01*
X630000Y6270000D02*
X670000Y6230000D01*
X670000Y6270000D02*
X630000Y6230000D01*
X630000Y4520000D02*
X670000Y4480000D01*
X670000Y4520000D02*
X630000Y4480000D01*
X630000Y3520000D02*
X670000Y3480000D01*
X670000Y3520000D02*
X630000Y3480000D01*
X630000Y1770000D02*
X670000Y1730000D01*
X670000Y1770000D02*
X630000Y1730000D01*
X630000Y770000D02*
X670000Y730000D01*
X670000Y770000D02*
X630000Y730000D01*
X856300Y5624850D02*
X896300Y5584850D01*
X896300Y5624850D02*
X856300Y5584850D01*
X856300Y2874850D02*
X896300Y2834850D01*
X896300Y2874850D02*
X856300Y2834850D01*
X856300Y124850D02*
X896300Y84850D01*
X896300Y124850D02*
X856300Y84850D01*
X862650Y5758200D02*
X902650Y5718200D01*
X902650Y5758200D02*
X862650Y5718200D01*
X862650Y3008200D02*
X902650Y2968200D01*
X902650Y3008200D02*
X862650Y2968200D01*
X862650Y258200D02*
X902650Y218200D01*
X902650Y258200D02*
X862650Y218200D01*
X881700Y7412300D02*
X921700Y7372300D01*
X921700Y7412300D02*
X881700Y7372300D01*
X881700Y4662300D02*
X921700Y4622300D01*
X921700Y4662300D02*
X881700Y4622300D01*
X881700Y1912300D02*
X921700Y1872300D01*
X921700Y1912300D02*
X881700Y1872300D01*
X985840Y7836480D02*
X1025840Y7796480D01*
X1025840Y7836480D02*
X985840Y7796480D01*
X985840Y5086480D02*
X1025840Y5046480D01*
X1025840Y5086480D02*
X985840Y5046480D01*
X985840Y2336480D02*
X1025840Y2296480D01*
X1025840Y2336480D02*
X985840Y2296480D01*
X1084900Y7501200D02*
X1124900Y7461200D01*
X1124900Y7501200D02*
X1084900Y7461200D01*
X1084900Y4751200D02*
X1124900Y4711200D01*
X1124900Y4751200D02*
X1084900Y4711200D01*
X1084900Y2001200D02*
X1124900Y1961200D01*
X1124900Y2001200D02*
X1084900Y1961200D01*
X1147500Y6845000D02*
X1187500Y6805000D01*
X1187500Y6845000D02*
X1147500Y6805000D01*
X1147500Y4095000D02*
X1187500Y4055000D01*
X1187500Y4095000D02*
X1147500Y4055000D01*
X1147500Y1345000D02*
X1187500Y1305000D01*
X1187500Y1345000D02*
X1147500Y1305000D01*
X1483680Y6342960D02*
X1523680Y6302960D01*
X1523680Y6342960D02*
X1483680Y6302960D01*
X1483680Y3592960D02*
X1523680Y3552960D01*
X1523680Y3592960D02*
X1483680Y3552960D01*
X1483680Y842960D02*
X1523680Y802960D01*
X1523680Y842960D02*
X1483680Y802960D01*
X1529400Y6622360D02*
X1569400Y6582360D01*
X1569400Y6622360D02*
X1529400Y6582360D01*
X1529400Y3872360D02*
X1569400Y3832360D01*
X1569400Y3872360D02*
X1529400Y3832360D01*
X1529400Y1122360D02*
X1569400Y1082360D01*
X1569400Y1122360D02*
X1529400Y1082360D01*
X1548450Y7662179D02*
X1588450Y7622179D01*
X1588450Y7662179D02*
X1548450Y7622179D01*
X1548450Y4912179D02*
X1588450Y4872179D01*
X1588450Y4912179D02*
X1548450Y4872179D01*
X1548450Y2162179D02*
X1588450Y2122179D01*
X1588450Y2162179D02*
X1548450Y2122179D01*
X1605600Y6341379D02*
X1645600Y6301379D01*
X1645600Y6341379D02*
X1605600Y6301379D01*
X1605600Y3591379D02*
X1645600Y3551379D01*
X1645600Y3591379D02*
X1605600Y3551379D01*
X1605600Y841379D02*
X1645600Y801379D01*
X1645600Y841379D02*
X1605600Y801379D01*
X1618300Y6554739D02*
X1658300Y6514739D01*
X1658300Y6554739D02*
X1618300Y6514739D01*
X1618300Y3804739D02*
X1658300Y3764739D01*
X1658300Y3804739D02*
X1618300Y3764739D01*
X1618300Y1054739D02*
X1658300Y1014739D01*
X1658300Y1054739D02*
X1618300Y1014739D01*
X1723839Y6332778D02*
X1763839Y6292778D01*
X1763839Y6332778D02*
X1723839Y6292778D01*
X1723839Y3582778D02*
X1763839Y3542778D01*
X1763839Y3582778D02*
X1723839Y3542778D01*
X1723839Y832778D02*
X1763839Y792778D01*
X1763839Y832778D02*
X1723839Y792778D01*
X1923100Y7488500D02*
X1963100Y7448500D01*
X1963100Y7488500D02*
X1923100Y7448500D01*
X1923100Y4738500D02*
X1963100Y4698500D01*
X1963100Y4738500D02*
X1923100Y4698500D01*
X1923100Y1988500D02*
X1963100Y1948500D01*
X1963100Y1988500D02*
X1923100Y1948500D01*
X1925640Y5890840D02*
X1965640Y5850840D01*
X1965640Y5890840D02*
X1925640Y5850840D01*
X1925640Y3140840D02*
X1965640Y3100840D01*
X1965640Y3140840D02*
X1925640Y3100840D01*
X1925640Y390840D02*
X1965640Y350840D01*
X1965640Y390840D02*
X1925640Y350840D01*
X1937356Y6644261D02*
X1977356Y6604261D01*
X1977356Y6644261D02*
X1937356Y6604261D01*
X1937356Y3894261D02*
X1977356Y3854261D01*
X1977356Y3894261D02*
X1937356Y3854261D01*
X1937356Y1144261D02*
X1977356Y1104261D01*
X1977356Y1144261D02*
X1937356Y1104261D01*
X2061913Y7525059D02*
X2101913Y7485059D01*
X2101913Y7525059D02*
X2061913Y7485059D01*
X2061913Y4775059D02*
X2101913Y4735059D01*
X2101913Y4775059D02*
X2061913Y4735059D01*
X2061913Y2025059D02*
X2101913Y1985059D01*
X2101913Y2025059D02*
X2061913Y1985059D01*
X2078040Y6723960D02*
X2118040Y6683960D01*
X2118040Y6723960D02*
X2078040Y6683960D01*
X2078040Y3973960D02*
X2118040Y3933960D01*
X2118040Y3973960D02*
X2078040Y3933960D01*
X2078040Y1223960D02*
X2118040Y1183960D01*
X2118040Y1223960D02*
X2078040Y1183960D01*
X2119950Y6364550D02*
X2159950Y6324550D01*
X2159950Y6364550D02*
X2119950Y6324550D01*
X2119950Y3614550D02*
X2159950Y3574550D01*
X2159950Y3614550D02*
X2119950Y3574550D01*
X2119950Y864550D02*
X2159950Y824550D01*
X2159950Y864550D02*
X2119950Y824550D01*
X2202500Y6840800D02*
X2242500Y6800800D01*
X2242500Y6840800D02*
X2202500Y6800800D01*
X2202500Y4090800D02*
X2242500Y4050800D01*
X2242500Y4090800D02*
X2202500Y4050800D01*
X2202500Y1340800D02*
X2242500Y1300800D01*
X2242500Y1340800D02*
X2202500Y1300800D01*
X2203028Y7469783D02*
X2243028Y7429783D01*
X2243028Y7469783D02*
X2203028Y7429783D01*
X2203028Y4719783D02*
X2243028Y4679783D01*
X2243028Y4719783D02*
X2203028Y4679783D01*
X2203028Y1969783D02*
X2243028Y1929783D01*
X2243028Y1969783D02*
X2203028Y1929783D01*
X2276160Y6723960D02*
X2316160Y6683960D01*
X2316160Y6723960D02*
X2276160Y6683960D01*
X2276160Y3973960D02*
X2316160Y3933960D01*
X2316160Y3973960D02*
X2276160Y3933960D01*
X2276160Y1223960D02*
X2316160Y1183960D01*
X2316160Y1223960D02*
X2276160Y1183960D01*
X2278700Y6612200D02*
X2318700Y6572200D01*
X2318700Y6612200D02*
X2278700Y6572200D01*
X2278700Y3862200D02*
X2318700Y3822200D01*
X2318700Y3862200D02*
X2278700Y3822200D01*
X2278700Y1112200D02*
X2318700Y1072200D01*
X2318700Y1112200D02*
X2278700Y1072200D01*
X2377760Y5707960D02*
X2417760Y5667960D01*
X2417760Y5707960D02*
X2377760Y5667960D01*
X2377760Y2957960D02*
X2417760Y2917960D01*
X2417760Y2957960D02*
X2377760Y2917960D01*
X2377760Y207960D02*
X2417760Y167960D01*
X2417760Y207960D02*
X2377760Y167960D01*
X2507300Y6262950D02*
X2547300Y6222950D01*
X2547300Y6262950D02*
X2507300Y6222950D01*
X2507300Y3512950D02*
X2547300Y3472950D01*
X2547300Y3512950D02*
X2507300Y3472950D01*
X2507300Y762950D02*
X2547300Y722950D01*
X2547300Y762950D02*
X2507300Y722950D01*
X2566584Y6368941D02*
X2606584Y6328941D01*
X2606584Y6368941D02*
X2566584Y6328941D01*
X2566584Y3618941D02*
X2606584Y3578941D01*
X2606584Y3618941D02*
X2566584Y3578941D01*
X2566584Y868941D02*
X2606584Y828941D01*
X2606584Y868941D02*
X2566584Y828941D01*
X2774000Y7196400D02*
X2814000Y7156400D01*
X2814000Y7196400D02*
X2774000Y7156400D01*
X2774000Y4446400D02*
X2814000Y4406400D01*
X2814000Y4446400D02*
X2774000Y4406400D01*
X2774000Y1696400D02*
X2814000Y1656400D01*
X2814000Y1696400D02*
X2774000Y1656400D01*
X2936706Y6493779D02*
X2976706Y6453779D01*
X2976706Y6493779D02*
X2936706Y6453779D01*
X2936706Y3743779D02*
X2976706Y3703779D01*
X2976706Y3743779D02*
X2936706Y3703779D01*
X2936706Y993779D02*
X2976706Y953779D01*
X2976706Y993779D02*
X2936706Y953779D01*
X2939100Y6707450D02*
X2979100Y6667450D01*
X2979100Y6707450D02*
X2939100Y6667450D01*
X2939100Y3957450D02*
X2979100Y3917450D01*
X2979100Y3957450D02*
X2939100Y3917450D01*
X2939100Y1207450D02*
X2979100Y1167450D01*
X2979100Y1207450D02*
X2939100Y1167450D01*
X3351850Y7063050D02*
X3391850Y7023050D01*
X3391850Y7063050D02*
X3351850Y7023050D01*
X3351850Y4313050D02*
X3391850Y4273050D01*
X3391850Y4313050D02*
X3351850Y4273050D01*
X3351850Y1563050D02*
X3391850Y1523050D01*
X3391850Y1563050D02*
X3351850Y1523050D01*
X3370956Y6701746D02*
X3410956Y6661746D01*
X3410956Y6701746D02*
X3370956Y6661746D01*
X3370956Y3951746D02*
X3410956Y3911746D01*
X3410956Y3951746D02*
X3370956Y3911746D01*
X3370956Y1201746D02*
X3410956Y1161746D01*
X3410956Y1201746D02*
X3370956Y1161746D01*
X3418876Y6595714D02*
X3458876Y6555714D01*
X3458876Y6595714D02*
X3418876Y6555714D01*
X3418876Y3845714D02*
X3458876Y3805714D01*
X3458876Y3845714D02*
X3418876Y3805714D01*
X3418876Y1095714D02*
X3458876Y1055714D01*
X3458876Y1095714D02*
X3418876Y1055714D01*
X3713800Y6492127D02*
X3753800Y6452127D01*
X3753800Y6492127D02*
X3713800Y6452127D01*
X3713800Y3742127D02*
X3753800Y3702127D01*
X3753800Y3742127D02*
X3713800Y3702127D01*
X3713800Y992127D02*
X3753800Y952127D01*
X3753800Y992127D02*
X3713800Y952127D01*
X3780000Y7844100D02*
X3820000Y7804100D01*
X3820000Y7844100D02*
X3780000Y7804100D01*
X3780000Y5094100D02*
X3820000Y5054100D01*
X3820000Y5094100D02*
X3780000Y5054100D01*
X3780000Y2344100D02*
X3820000Y2304100D01*
X3820000Y2344100D02*
X3780000Y2304100D01*
X5130000Y7270000D02*
X5170000Y7230000D01*
X5170000Y7270000D02*
X5130000Y7230000D01*
X5130000Y7170000D02*
X5170000Y7130000D01*
X5170000Y7170000D02*
X5130000Y7130000D01*
X5130000Y7070000D02*
X5170000Y7030000D01*
X5170000Y7070000D02*
X5130000Y7030000D01*
X5130000Y6770000D02*
X5170000Y6730000D01*
X5170000Y6770000D02*
X5130000Y6730000D01*
X5130000Y6470000D02*
X5170000Y6430000D01*
X5170000Y6470000D02*
X5130000Y6430000D01*
X5130000Y6370000D02*
X5170000Y6330000D01*
X5170000Y6370000D02*
X5130000Y6330000D01*
X5130000Y6270000D02*
X5170000Y6230000D01*
X5170000Y6270000D02*
X5130000Y6230000D01*
X5130000Y4520000D02*
X5170000Y4480000D01*
X5170000Y4520000D02*
X5130000Y4480000D01*
X5130000Y4420000D02*
X5170000Y4380000D01*
X5170000Y4420000D02*
X5130000Y4380000D01*
X5130000Y4320000D02*
X5170000Y4280000D01*
X5170000Y4320000D02*
X5130000Y4280000D01*
X5130000Y4020000D02*
X5170000Y3980000D01*
X5170000Y4020000D02*
X5130000Y3980000D01*
X5130000Y3720000D02*
X5170000Y3680000D01*
X5170000Y3720000D02*
X5130000Y3680000D01*
X5130000Y3620000D02*
X5170000Y3580000D01*
X5170000Y3620000D02*
X5130000Y3580000D01*
X5130000Y3520000D02*
X5170000Y3480000D01*
X5170000Y3520000D02*
X5130000Y3480000D01*
X5130000Y1770000D02*
X5170000Y1730000D01*
X5170000Y1770000D02*
X5130000Y1730000D01*
X5130000Y1670000D02*
X5170000Y1630000D01*
X5170000Y1670000D02*
X5130000Y1630000D01*
X5130000Y1570000D02*
X5170000Y1530000D01*
X5170000Y1570000D02*
X5130000Y1530000D01*
X5130000Y1270000D02*
X5170000Y1230000D01*
X5170000Y1270000D02*
X5130000Y1230000D01*
X5130000Y970000D02*
X5170000Y930000D01*
X5170000Y970000D02*
X5130000Y930000D01*
X5130000Y870000D02*
X5170000Y830000D01*
X5170000Y870000D02*
X5130000Y830000D01*
X5130000Y770000D02*
X5170000Y730000D01*
X5170000Y770000D02*
X5130000Y730000D01*
X5480000Y7270000D02*
X5520000Y7230000D01*
X5520000Y7270000D02*
X5480000Y7230000D01*
X5480000Y6270000D02*
X5520000Y6230000D01*
X5520000Y6270000D02*
X5480000Y6230000D01*
X5480000Y4520000D02*
X5520000Y4480000D01*
X5520000Y4520000D02*
X5480000Y4480000D01*
X5480000Y3520000D02*
X5520000Y3480000D01*
X5520000Y3520000D02*
X5480000Y3480000D01*
X5480000Y1770000D02*
X5520000Y1730000D01*
X5520000Y1770000D02*
X5480000Y1730000D01*
X5480000Y770000D02*
X5520000Y730000D01*
X5520000Y770000D02*
X5480000Y730000D01*
X5580000Y7270000D02*
X5620000Y7230000D01*
X5620000Y7270000D02*
X5580000Y7230000D01*
X5580000Y6270000D02*
X5620000Y6230000D01*
X5620000Y6270000D02*
X5580000Y6230000D01*
X5580000Y4520000D02*
X5620000Y4480000D01*
X5620000Y4520000D02*
X5580000Y4480000D01*
X5580000Y3520000D02*
X5620000Y3480000D01*
X5620000Y3520000D02*
X5580000Y3480000D01*
X5580000Y1770000D02*
X5620000Y1730000D01*
X5620000Y1770000D02*
X5580000Y1730000D01*
X5580000Y770000D02*
X5620000Y730000D01*
X5620000Y770000D02*
X5580000Y730000D01*
X5680000Y7270000D02*
X5720000Y7230000D01*
X5720000Y7270000D02*
X5680000Y7230000D01*
X5680000Y6270000D02*
X5720000Y6230000D01*
X5720000Y6270000D02*
X5680000Y6230000D01*
X5680000Y4520000D02*
X5720000Y4480000D01*
X5720000Y4520000D02*
X5680000Y4480000D01*
X5680000Y3520000D02*
X5720000Y3480000D01*
X5720000Y3520000D02*
X5680000Y3480000D01*
X5680000Y1770000D02*
X5720000Y1730000D01*
X5720000Y1770000D02*
X5680000Y1730000D01*
X5680000Y770000D02*
X5720000Y730000D01*
X5720000Y770000D02*
X5680000Y730000D01*
X5906300Y5624850D02*
X5946300Y5584850D01*
X5946300Y5624850D02*
X5906300Y5584850D01*
X5906300Y2874850D02*
X5946300Y2834850D01*
X5946300Y2874850D02*
X5906300Y2834850D01*
X5906300Y124850D02*
X5946300Y84850D01*
X5946300Y124850D02*
X5906300Y84850D01*
X5912650Y5758200D02*
X5952650Y5718200D01*
X5952650Y5758200D02*
X5912650Y5718200D01*
X5912650Y3008200D02*
X5952650Y2968200D01*
X5952650Y3008200D02*
X5912650Y2968200D01*
X5912650Y258200D02*
X5952650Y218200D01*
X5952650Y258200D02*
X5912650Y218200D01*
X5931700Y7412300D02*
X5971700Y7372300D01*
X5971700Y7412300D02*
X5931700Y7372300D01*
X5931700Y4662300D02*
X5971700Y4622300D01*
X5971700Y4662300D02*
X5931700Y4622300D01*
X5931700Y1912300D02*
X5971700Y1872300D01*
X5971700Y1912300D02*
X5931700Y1872300D01*
X6035840Y7836480D02*
X6075840Y7796480D01*
X6075840Y7836480D02*
X6035840Y7796480D01*
X6035840Y5086480D02*
X6075840Y5046480D01*
X6075840Y5086480D02*
X6035840Y5046480D01*
X6035840Y2336480D02*
X6075840Y2296480D01*
X6075840Y2336480D02*
X6035840Y2296480D01*
X6134900Y7501200D02*
X6174900Y7461200D01*
X6174900Y7501200D02*
X6134900Y7461200D01*
X6134900Y4751200D02*
X6174900Y4711200D01*
X6174900Y4751200D02*
X6134900Y4711200D01*
X6134900Y2001200D02*
X6174900Y1961200D01*
X6174900Y2001200D02*
X6134900Y1961200D01*
X6197500Y6845000D02*
X6237500Y6805000D01*
X6237500Y6845000D02*
X6197500Y6805000D01*
X6197500Y4095000D02*
X6237500Y4055000D01*
X6237500Y4095000D02*
X6197500Y4055000D01*
X6197500Y1345000D02*
X6237500Y1305000D01*
X6237500Y1345000D02*
X6197500Y1305000D01*
X6533680Y6342960D02*
X6573680Y6302960D01*
X6573680Y6342960D02*
X6533680Y6302960D01*
X6533680Y3592960D02*
X6573680Y3552960D01*
X6573680Y3592960D02*
X6533680Y3552960D01*
X6533680Y842960D02*
X6573680Y802960D01*
X6573680Y842960D02*
X6533680Y802960D01*
X6579400Y6622360D02*
X6619400Y6582360D01*
X6619400Y6622360D02*
X6579400Y6582360D01*
X6579400Y3872360D02*
X6619400Y3832360D01*
X6619400Y3872360D02*
X6579400Y3832360D01*
X6579400Y1122360D02*
X6619400Y1082360D01*
X6619400Y1122360D02*
X6579400Y1082360D01*
X6598450Y7662179D02*
X6638450Y7622179D01*
X6638450Y7662179D02*
X6598450Y7622179D01*
X6598450Y4912179D02*
X6638450Y4872179D01*
X6638450Y4912179D02*
X6598450Y4872179D01*
X6598450Y2162179D02*
X6638450Y2122179D01*
X6638450Y2162179D02*
X6598450Y2122179D01*
X6655600Y6341379D02*
X6695600Y6301379D01*
X6695600Y6341379D02*
X6655600Y6301379D01*
X6655600Y3591379D02*
X6695600Y3551379D01*
X6695600Y3591379D02*
X6655600Y3551379D01*
X6655600Y841379D02*
X6695600Y801379D01*
X6695600Y841379D02*
X6655600Y801379D01*
X6668300Y6554739D02*
X6708300Y6514739D01*
X6708300Y6554739D02*
X6668300Y6514739D01*
X6668300Y3804739D02*
X6708300Y3764739D01*
X6708300Y3804739D02*
X6668300Y3764739D01*
X6668300Y1054739D02*
X6708300Y1014739D01*
X6708300Y1054739D02*
X6668300Y1014739D01*
X6773839Y6332778D02*
X6813839Y6292778D01*
X6813839Y6332778D02*
X6773839Y6292778D01*
X6773839Y3582778D02*
X6813839Y3542778D01*
X6813839Y3582778D02*
X6773839Y3542778D01*
X6773839Y832778D02*
X6813839Y792778D01*
X6813839Y832778D02*
X6773839Y792778D01*
X6973100Y7488500D02*
X7013100Y7448500D01*
X7013100Y7488500D02*
X6973100Y7448500D01*
X6973100Y4738500D02*
X7013100Y4698500D01*
X7013100Y4738500D02*
X6973100Y4698500D01*
X6973100Y1988500D02*
X7013100Y1948500D01*
X7013100Y1988500D02*
X6973100Y1948500D01*
X6975640Y5890840D02*
X7015640Y5850840D01*
X7015640Y5890840D02*
X6975640Y5850840D01*
X6975640Y3140840D02*
X7015640Y3100840D01*
X7015640Y3140840D02*
X6975640Y3100840D01*
X6975640Y390840D02*
X7015640Y350840D01*
X7015640Y390840D02*
X6975640Y350840D01*
X6987356Y6644261D02*
X7027356Y6604261D01*
X7027356Y6644261D02*
X6987356Y6604261D01*
X6987356Y3894261D02*
X7027356Y3854261D01*
X7027356Y3894261D02*
X6987356Y3854261D01*
X6987356Y1144261D02*
X7027356Y1104261D01*
X7027356Y1144261D02*
X6987356Y1104261D01*
X7111913Y7525059D02*
X7151913Y7485059D01*
X7151913Y7525059D02*
X7111913Y7485059D01*
X7111913Y4775059D02*
X7151913Y4735059D01*
X7151913Y4775059D02*
X7111913Y4735059D01*
X7111913Y2025059D02*
X7151913Y1985059D01*
X7151913Y2025059D02*
X7111913Y1985059D01*
X7128040Y6723960D02*
X7168040Y6683960D01*
X7168040Y6723960D02*
X7128040Y6683960D01*
X7128040Y3973960D02*
X7168040Y3933960D01*
X7168040Y3973960D02*
X7128040Y3933960D01*
X7128040Y1223960D02*
X7168040Y1183960D01*
X7168040Y1223960D02*
X7128040Y1183960D01*
X7169950Y6364550D02*
X7209950Y6324550D01*
X7209950Y6364550D02*
X7169950Y6324550D01*
X7169950Y3614550D02*
X7209950Y3574550D01*
X7209950Y3614550D02*
X7169950Y3574550D01*
X7169950Y864550D02*
X7209950Y824550D01*
X7209950Y864550D02*
X7169950Y824550D01*
X7252500Y6840800D02*
X7292500Y6800800D01*
X7292500Y6840800D02*
X7252500Y6800800D01*
X7252500Y4090800D02*
X7292500Y4050800D01*
X7292500Y4090800D02*
X7252500Y4050800D01*
X7252500Y1340800D02*
X7292500Y1300800D01*
X7292500Y1340800D02*
X7252500Y1300800D01*
X7253028Y7469783D02*
X7293028Y7429783D01*
X7293028Y7469783D02*
X7253028Y7429783D01*
X7253028Y4719783D02*
X7293028Y4679783D01*
X7293028Y4719783D02*
X7253028Y4679783D01*
X7253028Y1969783D02*
X7293028Y1929783D01*
X7293028Y1969783D02*
X7253028Y1929783D01*
X7326160Y6723960D02*
X7366160Y6683960D01*
X7366160Y6723960D02*
X7326160Y6683960D01*
X7326160Y3973960D02*
X7366160Y3933960D01*
X7366160Y3973960D02*
X7326160Y3933960D01*
X7326160Y1223960D02*
X7366160Y1183960D01*
X7366160Y1223960D02*
X7326160Y1183960D01*
X7328700Y6612200D02*
X7368700Y6572200D01*
X7368700Y6612200D02*
X7328700Y6572200D01*
X7328700Y3862200D02*
X7368700Y3822200D01*
X7368700Y3862200D02*
X7328700Y3822200D01*
X7328700Y1112200D02*
X7368700Y1072200D01*
X7368700Y1112200D02*
X7328700Y1072200D01*
X7427760Y5707960D02*
X7467760Y5667960D01*
X7467760Y5707960D02*
X7427760Y5667960D01*
X7427760Y2957960D02*
X7467760Y2917960D01*
X7467760Y2957960D02*
X7427760Y2917960D01*
X7427760Y207960D02*
X7467760Y167960D01*
X7467760Y207960D02*
X7427760Y167960D01*
X7557300Y6262950D02*
X7597300Y6222950D01*
X7597300Y6262950D02*
X7557300Y6222950D01*
X7557300Y3512950D02*
X7597300Y3472950D01*
X7597300Y3512950D02*
X7557300Y3472950D01*
X7557300Y762950D02*
X7597300Y722950D01*
X7597300Y762950D02*
X7557300Y722950D01*
X7616583Y6368941D02*
X7656583Y6328941D01*
X7656583Y6368941D02*
X7616583Y6328941D01*
X7616583Y3618941D02*
X7656583Y3578941D01*
X7656583Y3618941D02*
X7616583Y3578941D01*
X7616583Y868941D02*
X7656583Y828941D01*
X7656583Y868941D02*
X7616583Y828941D01*
X7824000Y7196400D02*
X7864000Y7156400D01*
X7864000Y7196400D02*
X7824000Y7156400D01*
X7824000Y4446400D02*
X7864000Y4406400D01*
X7864000Y4446400D02*
X7824000Y4406400D01*
X7824000Y1696400D02*
X7864000Y1656400D01*
X7864000Y1696400D02*
X7824000Y1656400D01*
X7986706Y6493779D02*
X8026706Y6453779D01*
X8026706Y6493779D02*
X7986706Y6453779D01*
X7986706Y3743779D02*
X8026706Y3703779D01*
X8026706Y3743779D02*
X7986706Y3703779D01*
X7986706Y993779D02*
X8026706Y953779D01*
X8026706Y993779D02*
X7986706Y953779D01*
X7989100Y6707450D02*
X8029100Y6667450D01*
X8029100Y6707450D02*
X7989100Y6667450D01*
X7989100Y3957450D02*
X8029100Y3917450D01*
X8029100Y3957450D02*
X7989100Y3917450D01*
X7989100Y1207450D02*
X8029100Y1167450D01*
X8029100Y1207450D02*
X7989100Y1167450D01*
X8401850Y7063050D02*
X8441850Y7023050D01*
X8441850Y7063050D02*
X8401850Y7023050D01*
X8401850Y4313050D02*
X8441850Y4273050D01*
X8441850Y4313050D02*
X8401850Y4273050D01*
X8401850Y1563050D02*
X8441850Y1523050D01*
X8441850Y1563050D02*
X8401850Y1523050D01*
X8420956Y6701746D02*
X8460956Y6661746D01*
X8460956Y6701746D02*
X8420956Y6661746D01*
X8420956Y3951746D02*
X8460956Y3911746D01*
X8460956Y3951746D02*
X8420956Y3911746D01*
X8420956Y1201746D02*
X8460956Y1161746D01*
X8460956Y1201746D02*
X8420956Y1161746D01*
X8468876Y6595714D02*
X8508876Y6555714D01*
X8508876Y6595714D02*
X8468876Y6555714D01*
X8468876Y3845714D02*
X8508876Y3805714D01*
X8508876Y3845714D02*
X8468876Y3805714D01*
X8468876Y1095714D02*
X8508876Y1055714D01*
X8508876Y1095714D02*
X8468876Y1055714D01*
X8763800Y6492127D02*
X8803800Y6452127D01*
X8803800Y6492127D02*
X8763800Y6452127D01*
X8763800Y3742127D02*
X8803800Y3702127D01*
X8803800Y3742127D02*
X8763800Y3702127D01*
X8763800Y992127D02*
X8803800Y952127D01*
X8803800Y992127D02*
X8763800Y952127D01*
X8830000Y7844100D02*
X8870000Y7804100D01*
X8870000Y7844100D02*
X8830000Y7804100D01*
X8830000Y5094100D02*
X8870000Y5054100D01*
X8870000Y5094100D02*
X8830000Y5054100D01*
X8830000Y2344100D02*
X8870000Y2304100D01*
X8870000Y2344100D02*
X8830000Y2304100D01*
X1924800Y7722500D02*
G75*
G03*
X1924800Y7722500I-32500J0D01*
G01*
X1924800Y7595500D02*
G75*
G03*
X1924800Y7595500I-32500J0D01*
G01*
X1924800Y4972500D02*
G75*
G03*
X1924800Y4972500I-32500J0D01*
G01*
X1924800Y4845500D02*
G75*
G03*
X1924800Y4845500I-32500J0D01*
G01*
X1924800Y2222500D02*
G75*
G03*
X1924800Y2222500I-32500J0D01*
G01*
X1924800Y2095500D02*
G75*
G03*
X1924800Y2095500I-32500J0D01*
G01*
X2051800Y7722500D02*
G75*
G03*
X2051800Y7722500I-32500J0D01*
G01*
X2051800Y7595500D02*
G75*
G03*
X2051800Y7595500I-32500J0D01*
G01*
X2051800Y4972500D02*
G75*
G03*
X2051800Y4972500I-32500J0D01*
G01*
X2051800Y4845500D02*
G75*
G03*
X2051800Y4845500I-32500J0D01*
G01*
X2051800Y2222500D02*
G75*
G03*
X2051800Y2222500I-32500J0D01*
G01*
X2051800Y2095500D02*
G75*
G03*
X2051800Y2095500I-32500J0D01*
G01*
X2178800Y7722500D02*
G75*
G03*
X2178800Y7722500I-32500J0D01*
G01*
X2178800Y7595500D02*
G75*
G03*
X2178800Y7595500I-32500J0D01*
G01*
X2178800Y4972500D02*
G75*
G03*
X2178800Y4972500I-32500J0D01*
G01*
X2178800Y4845500D02*
G75*
G03*
X2178800Y4845500I-32500J0D01*
G01*
X2178800Y2222500D02*
G75*
G03*
X2178800Y2222500I-32500J0D01*
G01*
X2178800Y2095500D02*
G75*
G03*
X2178800Y2095500I-32500J0D01*
G01*
X2305800Y7722500D02*
G75*
G03*
X2305800Y7722500I-32500J0D01*
G01*
X2305800Y7595500D02*
G75*
G03*
X2305800Y7595500I-32500J0D01*
G01*
X2305800Y4972500D02*
G75*
G03*
X2305800Y4972500I-32500J0D01*
G01*
X2305800Y4845500D02*
G75*
G03*
X2305800Y4845500I-32500J0D01*
G01*
X2305800Y2222500D02*
G75*
G03*
X2305800Y2222500I-32500J0D01*
G01*
X2305800Y2095500D02*
G75*
G03*
X2305800Y2095500I-32500J0D01*
G01*
X2432800Y7722500D02*
G75*
G03*
X2432800Y7722500I-32500J0D01*
G01*
X2432800Y7595500D02*
G75*
G03*
X2432800Y7595500I-32500J0D01*
G01*
X2432800Y4972500D02*
G75*
G03*
X2432800Y4972500I-32500J0D01*
G01*
X2432800Y4845500D02*
G75*
G03*
X2432800Y4845500I-32500J0D01*
G01*
X2432800Y2222500D02*
G75*
G03*
X2432800Y2222500I-32500J0D01*
G01*
X2432800Y2095500D02*
G75*
G03*
X2432800Y2095500I-32500J0D01*
G01*
X6974800Y7722500D02*
G75*
G03*
X6974800Y7722500I-32500J0D01*
G01*
X6974800Y7595500D02*
G75*
G03*
X6974800Y7595500I-32500J0D01*
G01*
X6974800Y4972500D02*
G75*
G03*
X6974800Y4972500I-32500J0D01*
G01*
X6974800Y4845500D02*
G75*
G03*
X6974800Y4845500I-32500J0D01*
G01*
X6974800Y2222500D02*
G75*
G03*
X6974800Y2222500I-32500J0D01*
G01*
X6974800Y2095500D02*
G75*
G03*
X6974800Y2095500I-32500J0D01*
G01*
X7101800Y7722500D02*
G75*
G03*
X7101800Y7722500I-32500J0D01*
G01*
X7101800Y7595500D02*
G75*
G03*
X7101800Y7595500I-32500J0D01*
G01*
X7101800Y4972500D02*
G75*
G03*
X7101800Y4972500I-32500J0D01*
G01*
X7101800Y4845500D02*
G75*
G03*
X7101800Y4845500I-32500J0D01*
G01*
X7101800Y2222500D02*
G75*
G03*
X7101800Y2222500I-32500J0D01*
G01*
X7101800Y2095500D02*
G75*
G03*
X7101800Y2095500I-32500J0D01*
G01*
X7228800Y7722500D02*
G75*
G03*
X7228800Y7722500I-32500J0D01*
G01*
X7228800Y7595500D02*
G75*
G03*
X7228800Y7595500I-32500J0D01*
G01*
X7228800Y4972500D02*
G75*
G03*
X7228800Y4972500I-32500J0D01*
G01*
X7228800Y4845500D02*
G75*
G03*
X7228800Y4845500I-32500J0D01*
G01*
X7228800Y2222500D02*
G75*
G03*
X7228800Y2222500I-32500J0D01*
G01*
X7228800Y2095500D02*
G75*
G03*
X7228800Y2095500I-32500J0D01*
G01*
X7355800Y7722500D02*
G75*
G03*
X7355800Y7722500I-32500J0D01*
G01*
X7355800Y7595500D02*
G75*
G03*
X7355800Y7595500I-32500J0D01*
G01*
X7355800Y4972500D02*
G75*
G03*
X7355800Y4972500I-32500J0D01*
G01*
X7355800Y4845500D02*
G75*
G03*
X7355800Y4845500I-32500J0D01*
G01*
X7355800Y2222500D02*
G75*
G03*
X7355800Y2222500I-32500J0D01*
G01*
X7355800Y2095500D02*
G75*
G03*
X7355800Y2095500I-32500J0D01*
G01*
X7482800Y7722500D02*
G75*
G03*
X7482800Y7722500I-32500J0D01*
G01*
X7482800Y7595500D02*
G75*
G03*
X7482800Y7595500I-32500J0D01*
G01*
X7482800Y4972500D02*
G75*
G03*
X7482800Y4972500I-32500J0D01*
G01*
X7482800Y4845500D02*
G75*
G03*
X7482800Y4845500I-32500J0D01*
G01*
X7482800Y2222500D02*
G75*
G03*
X7482800Y2222500I-32500J0D01*
G01*
X7482800Y2095500D02*
G75*
G03*
X7482800Y2095500I-32500J0D01*
G01*
X2850000Y5775000D02*
X2850000Y5675000D01*
X2800000Y5725000D02*
X2900000Y5725000D01*
X2850000Y3025000D02*
X2850000Y2925000D01*
X2800000Y2975000D02*
X2900000Y2975000D01*
X2850000Y275000D02*
X2850000Y175000D01*
X2800000Y225000D02*
X2900000Y225000D01*
X3104000Y5775000D02*
X3104000Y5675000D01*
X3054000Y5725000D02*
X3154000Y5725000D01*
X3104000Y3025000D02*
X3104000Y2925000D01*
X3054000Y2975000D02*
X3154000Y2975000D01*
X3104000Y275000D02*
X3104000Y175000D01*
X3054000Y225000D02*
X3154000Y225000D01*
X3358000Y5775000D02*
X3358000Y5675000D01*
X3308000Y5725000D02*
X3408000Y5725000D01*
X3358000Y3025000D02*
X3358000Y2925000D01*
X3308000Y2975000D02*
X3408000Y2975000D01*
X3358000Y275000D02*
X3358000Y175000D01*
X3308000Y225000D02*
X3408000Y225000D01*
X4321000Y7058000D02*
X4321000Y6958000D01*
X4271000Y7008000D02*
X4371000Y7008000D01*
X4321000Y6804000D02*
X4321000Y6704000D01*
X4271000Y6754000D02*
X4371000Y6754000D01*
X4321000Y6550000D02*
X4321000Y6450000D01*
X4271000Y6500000D02*
X4371000Y6500000D01*
X4321000Y4308000D02*
X4321000Y4208000D01*
X4271000Y4258000D02*
X4371000Y4258000D01*
X4321000Y4054000D02*
X4321000Y3954000D01*
X4271000Y4004000D02*
X4371000Y4004000D01*
X4321000Y3800000D02*
X4321000Y3700000D01*
X4271000Y3750000D02*
X4371000Y3750000D01*
X4321000Y1558000D02*
X4321000Y1458000D01*
X4271000Y1508000D02*
X4371000Y1508000D01*
X4321000Y1304000D02*
X4321000Y1204000D01*
X4271000Y1254000D02*
X4371000Y1254000D01*
X4321000Y1050000D02*
X4321000Y950000D01*
X4271000Y1000000D02*
X4371000Y1000000D01*
X4575000Y7058000D02*
X4575000Y6958000D01*
X4525000Y7008000D02*
X4625000Y7008000D01*
X4575000Y6804000D02*
X4575000Y6704000D01*
X4525000Y6754000D02*
X4625000Y6754000D01*
X4575000Y6550000D02*
X4575000Y6450000D01*
X4525000Y6500000D02*
X4625000Y6500000D01*
X4575000Y4308000D02*
X4575000Y4208000D01*
X4525000Y4258000D02*
X4625000Y4258000D01*
X4575000Y4054000D02*
X4575000Y3954000D01*
X4525000Y4004000D02*
X4625000Y4004000D01*
X4575000Y3800000D02*
X4575000Y3700000D01*
X4525000Y3750000D02*
X4625000Y3750000D01*
X4575000Y1558000D02*
X4575000Y1458000D01*
X4525000Y1508000D02*
X4625000Y1508000D01*
X4575000Y1304000D02*
X4575000Y1204000D01*
X4525000Y1254000D02*
X4625000Y1254000D01*
X4575000Y1050000D02*
X4575000Y950000D01*
X4525000Y1000000D02*
X4625000Y1000000D01*
X7900000Y5775000D02*
X7900000Y5675000D01*
X7850000Y5725000D02*
X7950000Y5725000D01*
X7900000Y3025000D02*
X7900000Y2925000D01*
X7850000Y2975000D02*
X7950000Y2975000D01*
X7900000Y275000D02*
X7900000Y175000D01*
X7850000Y225000D02*
X7950000Y225000D01*
X8154000Y5775000D02*
X8154000Y5675000D01*
X8104000Y5725000D02*
X8204000Y5725000D01*
X8154000Y3025000D02*
X8154000Y2925000D01*
X8104000Y2975000D02*
X8204000Y2975000D01*
X8154000Y275000D02*
X8154000Y175000D01*
X8104000Y225000D02*
X8204000Y225000D01*
X8408000Y5775000D02*
X8408000Y5675000D01*
X8358000Y5725000D02*
X8458000Y5725000D01*
X8408000Y3025000D02*
X8408000Y2925000D01*
X8358000Y2975000D02*
X8458000Y2975000D01*
X8408000Y275000D02*
X8408000Y175000D01*
X8358000Y225000D02*
X8458000Y225000D01*
X9371000Y7058000D02*
X9371000Y6958000D01*
X9321000Y7008000D02*
X9421000Y7008000D01*
X9371000Y6804000D02*
X9371000Y6704000D01*
X9321000Y6754000D02*
X9421000Y6754000D01*
X9371000Y6550000D02*
X9371000Y6450000D01*
X9321000Y6500000D02*
X9421000Y6500000D01*
X9371000Y4308000D02*
X9371000Y4208000D01*
X9321000Y4258000D02*
X9421000Y4258000D01*
X9371000Y4054000D02*
X9371000Y3954000D01*
X9321000Y4004000D02*
X9421000Y4004000D01*
X9371000Y3800000D02*
X9371000Y3700000D01*
X9321000Y3750000D02*
X9421000Y3750000D01*
X9371000Y1558000D02*
X9371000Y1458000D01*
X9321000Y1508000D02*
X9421000Y1508000D01*
X9371000Y1304000D02*
X9371000Y1204000D01*
X9321000Y1254000D02*
X9421000Y1254000D01*
X9371000Y1050000D02*
X9371000Y950000D01*
X9321000Y1000000D02*
X9421000Y1000000D01*
X9625000Y7058000D02*
X9625000Y6958000D01*
X9575000Y7008000D02*
X9675000Y7008000D01*
X9625000Y6804000D02*
X9625000Y6704000D01*
X9575000Y6754000D02*
X9675000Y6754000D01*
X9625000Y6550000D02*
X9625000Y6450000D01*
X9575000Y6500000D02*
X9675000Y6500000D01*
X9625000Y4308000D02*
X9625000Y4208000D01*
X9575000Y4258000D02*
X9675000Y4258000D01*
X9625000Y4054000D02*
X9625000Y3954000D01*
X9575000Y4004000D02*
X9675000Y4004000D01*
X9625000Y3800000D02*
X9625000Y3700000D01*
X9575000Y3750000D02*
X9675000Y3750000D01*
X9625000Y1558000D02*
X9625000Y1458000D01*
X9575000Y1508000D02*
X9675000Y1508000D01*
X9625000Y1304000D02*
X9625000Y1204000D01*
X9575000Y1254000D02*
X9675000Y1254000D01*
X9625000Y1050000D02*
X9625000Y950000D01*
X9575000Y1000000D02*
X9675000Y1000000D01*
D12*
X283928Y-468214D02*
X283928Y-168214D01*
X355357Y-168214D01*
X398214Y-182500D01*
X426786Y-211071D01*
X441071Y-239643D01*
X455357Y-296786D01*
X455357Y-339643D01*
X441071Y-396786D01*
X426786Y-425357D01*
X398214Y-453929D01*
X355357Y-468214D01*
X283928Y-468214D01*
X583928Y-468214D02*
X583928Y-268214D01*
X583928Y-325357D02*
X598214Y-296786D01*
X612500Y-282500D01*
X641071Y-268214D01*
X669643Y-268214D01*
X769643Y-468214D02*
X769643Y-268214D01*
X769643Y-168214D02*
X755357Y-182500D01*
X769643Y-196786D01*
X783928Y-182500D01*
X769643Y-168214D01*
X769643Y-196786D01*
X955357Y-468214D02*
X926786Y-453929D01*
X912500Y-425357D01*
X912500Y-168214D01*
X1112500Y-468214D02*
X1083928Y-453929D01*
X1069643Y-425357D01*
X1069643Y-168214D01*
X1455357Y-468214D02*
X1455357Y-168214D01*
X1555357Y-382500D01*
X1655357Y-168214D01*
X1655357Y-468214D01*
X1926786Y-468214D02*
X1926786Y-311072D01*
X1912500Y-282500D01*
X1883928Y-268214D01*
X1826786Y-268214D01*
X1798214Y-282500D01*
X1926786Y-453929D02*
X1898214Y-468214D01*
X1826786Y-468214D01*
X1798214Y-453929D01*
X1783928Y-425357D01*
X1783928Y-396786D01*
X1798214Y-368214D01*
X1826786Y-353929D01*
X1898214Y-353929D01*
X1926786Y-339643D01*
X2069643Y-268214D02*
X2069643Y-568214D01*
X2069643Y-282500D02*
X2098214Y-268214D01*
X2155357Y-268214D01*
X2183928Y-282500D01*
X2198214Y-296786D01*
X2212500Y-325357D01*
X2212500Y-411071D01*
X2198214Y-439643D01*
X2183928Y-453929D01*
X2155357Y-468214D01*
X2098214Y-468214D01*
X2069643Y-453929D01*
X2341071Y-439643D02*
X2355357Y-453929D01*
X2341071Y-468214D01*
X2326786Y-453929D01*
X2341071Y-439643D01*
X2341071Y-468214D01*
X2341071Y-282500D02*
X2355357Y-296786D01*
X2341071Y-311072D01*
X2326786Y-296786D01*
X2341071Y-282500D01*
X2341071Y-311072D01*
X-42500Y-942500D02*
X-2500Y-982500D01*
X-2500Y-942500D02*
X-42500Y-982500D01*
X341071Y-798214D02*
X369643Y-798214D01*
X398214Y-812500D01*
X412500Y-826786D01*
X426786Y-855357D01*
X441071Y-912500D01*
X441071Y-983929D01*
X426786Y-1041071D01*
X412500Y-1069643D01*
X398214Y-1083929D01*
X369643Y-1098214D01*
X341071Y-1098214D01*
X312500Y-1083929D01*
X298214Y-1069643D01*
X283928Y-1041071D01*
X269643Y-983929D01*
X269643Y-912500D01*
X283928Y-855357D01*
X298214Y-826786D01*
X312500Y-812500D01*
X341071Y-798214D01*
X569643Y-1069643D02*
X583928Y-1083929D01*
X569643Y-1098214D01*
X555357Y-1083929D01*
X569643Y-1069643D01*
X569643Y-1098214D01*
X841071Y-898214D02*
X841071Y-1098214D01*
X769643Y-783929D02*
X698214Y-998214D01*
X883928Y-998214D01*
X1055357Y-798214D02*
X1083928Y-798214D01*
X1112500Y-812500D01*
X1126786Y-826786D01*
X1141071Y-855357D01*
X1155357Y-912500D01*
X1155357Y-983929D01*
X1141071Y-1041071D01*
X1126786Y-1069643D01*
X1112500Y-1083929D01*
X1083928Y-1098214D01*
X1055357Y-1098214D01*
X1026786Y-1083929D01*
X1012500Y-1069643D01*
X998214Y-1041071D01*
X983928Y-983929D01*
X983928Y-912500D01*
X998214Y-855357D01*
X1012500Y-826786D01*
X1026786Y-812500D01*
X1055357Y-798214D01*
X1341071Y-798214D02*
X1369643Y-798214D01*
X1398214Y-812500D01*
X1412500Y-826786D01*
X1426786Y-855357D01*
X1441071Y-912500D01*
X1441071Y-983929D01*
X1426786Y-1041071D01*
X1412500Y-1069643D01*
X1398214Y-1083929D01*
X1369643Y-1098214D01*
X1341071Y-1098214D01*
X1312500Y-1083929D01*
X1298214Y-1069643D01*
X1283928Y-1041071D01*
X1269643Y-983929D01*
X1269643Y-912500D01*
X1283928Y-855357D01*
X1298214Y-826786D01*
X1312500Y-812500D01*
X1341071Y-798214D01*
X1569643Y-1098214D02*
X1569643Y-898214D01*
X1569643Y-926786D02*
X1583928Y-912500D01*
X1612500Y-898214D01*
X1655357Y-898214D01*
X1683928Y-912500D01*
X1698214Y-941071D01*
X1698214Y-1098214D01*
X1698214Y-941071D02*
X1712500Y-912500D01*
X1741071Y-898214D01*
X1783928Y-898214D01*
X1812500Y-912500D01*
X1826786Y-941071D01*
X1826786Y-1098214D01*
X1969643Y-1098214D02*
X1969643Y-898214D01*
X1969643Y-926786D02*
X1983928Y-912500D01*
X2012500Y-898214D01*
X2055357Y-898214D01*
X2083928Y-912500D01*
X2098214Y-941071D01*
X2098214Y-1098214D01*
X2098214Y-941071D02*
X2112500Y-912500D01*
X2141071Y-898214D01*
X2183928Y-898214D01*
X2212500Y-912500D01*
X2226786Y-941071D01*
X2226786Y-1098214D01*
X2812500Y-783929D02*
X2555357Y-1169643D01*
X3198214Y-798214D02*
X3226786Y-798214D01*
X3255357Y-812500D01*
X3269643Y-826786D01*
X3283928Y-855357D01*
X3298214Y-912500D01*
X3298214Y-983929D01*
X3283928Y-1041071D01*
X3269643Y-1069643D01*
X3255357Y-1083929D01*
X3226786Y-1098214D01*
X3198214Y-1098214D01*
X3169643Y-1083929D01*
X3155357Y-1069643D01*
X3141071Y-1041071D01*
X3126786Y-983929D01*
X3126786Y-912500D01*
X3141071Y-855357D01*
X3155357Y-826786D01*
X3169643Y-812500D01*
X3198214Y-798214D01*
X3426786Y-1069643D02*
X3441071Y-1083929D01*
X3426786Y-1098214D01*
X3412500Y-1083929D01*
X3426786Y-1069643D01*
X3426786Y-1098214D01*
X3626786Y-798214D02*
X3655357Y-798214D01*
X3683928Y-812500D01*
X3698214Y-826786D01*
X3712500Y-855357D01*
X3726786Y-912500D01*
X3726786Y-983929D01*
X3712500Y-1041071D01*
X3698214Y-1069643D01*
X3683928Y-1083929D01*
X3655357Y-1098214D01*
X3626786Y-1098214D01*
X3598214Y-1083929D01*
X3583928Y-1069643D01*
X3569643Y-1041071D01*
X3555357Y-983929D01*
X3555357Y-912500D01*
X3569643Y-855357D01*
X3583928Y-826786D01*
X3598214Y-812500D01*
X3626786Y-798214D01*
X4012500Y-1098214D02*
X3841071Y-1098214D01*
X3926786Y-1098214D02*
X3926786Y-798214D01*
X3898214Y-841071D01*
X3869643Y-869643D01*
X3841071Y-883929D01*
X4283928Y-798214D02*
X4141071Y-798214D01*
X4126786Y-941071D01*
X4141071Y-926786D01*
X4169643Y-912500D01*
X4241071Y-912500D01*
X4269643Y-926786D01*
X4283928Y-941071D01*
X4298214Y-969643D01*
X4298214Y-1041071D01*
X4283928Y-1069643D01*
X4269643Y-1083929D01*
X4241071Y-1098214D01*
X4169643Y-1098214D01*
X4141071Y-1083929D01*
X4126786Y-1069643D01*
X4398214Y-798214D02*
X4598214Y-798214D01*
X4469643Y-1098214D01*
X4698214Y-798214D02*
X4698214Y-855357D01*
X4812500Y-798214D02*
X4812500Y-855357D01*
X5255357Y-1212500D02*
X5241071Y-1198214D01*
X5212500Y-1155357D01*
X5198214Y-1126786D01*
X5183928Y-1083929D01*
X5169643Y-1012500D01*
X5169643Y-955357D01*
X5183928Y-883929D01*
X5198214Y-841071D01*
X5212500Y-812500D01*
X5241071Y-769643D01*
X5255357Y-755357D01*
X5355357Y-826786D02*
X5369643Y-812500D01*
X5398214Y-798214D01*
X5469643Y-798214D01*
X5498214Y-812500D01*
X5512500Y-826786D01*
X5526786Y-855357D01*
X5526786Y-883929D01*
X5512500Y-926786D01*
X5341071Y-1098214D01*
X5526786Y-1098214D01*
X5626786Y-798214D02*
X5826786Y-798214D01*
X5698214Y-1098214D01*
X6069643Y-798214D02*
X6012500Y-798214D01*
X5983928Y-812500D01*
X5969643Y-826786D01*
X5941071Y-869643D01*
X5926786Y-926786D01*
X5926786Y-1041071D01*
X5941071Y-1069643D01*
X5955357Y-1083929D01*
X5983928Y-1098214D01*
X6041071Y-1098214D01*
X6069643Y-1083929D01*
X6083928Y-1069643D01*
X6098214Y-1041071D01*
X6098214Y-969643D01*
X6083928Y-941071D01*
X6069643Y-926786D01*
X6041071Y-912500D01*
X5983928Y-912500D01*
X5955357Y-926786D01*
X5941071Y-941071D01*
X5926786Y-969643D01*
X6455357Y-1098214D02*
X6455357Y-798214D01*
X6583928Y-1098214D02*
X6583928Y-941071D01*
X6569643Y-912500D01*
X6541071Y-898214D01*
X6498214Y-898214D01*
X6469643Y-912500D01*
X6455357Y-926786D01*
X6769643Y-1098214D02*
X6741071Y-1083929D01*
X6726786Y-1069643D01*
X6712500Y-1041071D01*
X6712500Y-955357D01*
X6726786Y-926786D01*
X6741071Y-912500D01*
X6769643Y-898214D01*
X6812500Y-898214D01*
X6841071Y-912500D01*
X6855357Y-926786D01*
X6869643Y-955357D01*
X6869643Y-1041071D01*
X6855357Y-1069643D01*
X6841071Y-1083929D01*
X6812500Y-1098214D01*
X6769643Y-1098214D01*
X7041071Y-1098214D02*
X7012500Y-1083929D01*
X6998214Y-1055357D01*
X6998214Y-798214D01*
X7269643Y-1083929D02*
X7241071Y-1098214D01*
X7183928Y-1098214D01*
X7155357Y-1083929D01*
X7141071Y-1055357D01*
X7141071Y-941071D01*
X7155357Y-912500D01*
X7183928Y-898214D01*
X7241071Y-898214D01*
X7269643Y-912500D01*
X7283928Y-941071D01*
X7283928Y-969643D01*
X7141071Y-998214D01*
X7398214Y-1083929D02*
X7426786Y-1098214D01*
X7483928Y-1098214D01*
X7512500Y-1083929D01*
X7526786Y-1055357D01*
X7526786Y-1041071D01*
X7512500Y-1012500D01*
X7483928Y-998214D01*
X7441071Y-998214D01*
X7412500Y-983929D01*
X7398214Y-955357D01*
X7398214Y-941071D01*
X7412500Y-912500D01*
X7441071Y-898214D01*
X7483928Y-898214D01*
X7512500Y-912500D01*
X7626786Y-1212500D02*
X7641071Y-1198214D01*
X7669643Y-1155357D01*
X7683928Y-1126786D01*
X7698214Y-1083929D01*
X7712500Y-1012500D01*
X7712500Y-955357D01*
X7698214Y-883929D01*
X7683928Y-841071D01*
X7669643Y-812500D01*
X7641071Y-769643D01*
X7626786Y-755357D01*
X-2500Y-1358500D02*
G75*
G03*
X-2500Y-1358500I-32500J0D01*
G01*
X341071Y-1194214D02*
X369643Y-1194214D01*
X398214Y-1208500D01*
X412500Y-1222786D01*
X426786Y-1251357D01*
X441071Y-1308500D01*
X441071Y-1379929D01*
X426786Y-1437071D01*
X412500Y-1465643D01*
X398214Y-1479929D01*
X369643Y-1494214D01*
X341071Y-1494214D01*
X312500Y-1479929D01*
X298214Y-1465643D01*
X283928Y-1437071D01*
X269643Y-1379929D01*
X269643Y-1308500D01*
X283928Y-1251357D01*
X298214Y-1222786D01*
X312500Y-1208500D01*
X341071Y-1194214D01*
X569643Y-1465643D02*
X583928Y-1479929D01*
X569643Y-1494214D01*
X555357Y-1479929D01*
X569643Y-1465643D01*
X569643Y-1494214D01*
X841071Y-1194214D02*
X783928Y-1194214D01*
X755357Y-1208500D01*
X741071Y-1222786D01*
X712500Y-1265643D01*
X698214Y-1322786D01*
X698214Y-1437071D01*
X712500Y-1465643D01*
X726786Y-1479929D01*
X755357Y-1494214D01*
X812500Y-1494214D01*
X841071Y-1479929D01*
X855357Y-1465643D01*
X869643Y-1437071D01*
X869643Y-1365643D01*
X855357Y-1337072D01*
X841071Y-1322786D01*
X812500Y-1308500D01*
X755357Y-1308500D01*
X726786Y-1322786D01*
X712500Y-1337072D01*
X698214Y-1365643D01*
X1141071Y-1194214D02*
X998214Y-1194214D01*
X983928Y-1337072D01*
X998214Y-1322786D01*
X1026786Y-1308500D01*
X1098214Y-1308500D01*
X1126786Y-1322786D01*
X1141071Y-1337072D01*
X1155357Y-1365643D01*
X1155357Y-1437071D01*
X1141071Y-1465643D01*
X1126786Y-1479929D01*
X1098214Y-1494214D01*
X1026786Y-1494214D01*
X998214Y-1479929D01*
X983928Y-1465643D01*
X1341071Y-1194214D02*
X1369643Y-1194214D01*
X1398214Y-1208500D01*
X1412500Y-1222786D01*
X1426786Y-1251357D01*
X1441071Y-1308500D01*
X1441071Y-1379929D01*
X1426786Y-1437071D01*
X1412500Y-1465643D01*
X1398214Y-1479929D01*
X1369643Y-1494214D01*
X1341071Y-1494214D01*
X1312500Y-1479929D01*
X1298214Y-1465643D01*
X1283928Y-1437071D01*
X1269643Y-1379929D01*
X1269643Y-1308500D01*
X1283928Y-1251357D01*
X1298214Y-1222786D01*
X1312500Y-1208500D01*
X1341071Y-1194214D01*
X1569643Y-1494214D02*
X1569643Y-1294214D01*
X1569643Y-1322786D02*
X1583928Y-1308500D01*
X1612500Y-1294214D01*
X1655357Y-1294214D01*
X1683928Y-1308500D01*
X1698214Y-1337072D01*
X1698214Y-1494214D01*
X1698214Y-1337072D02*
X1712500Y-1308500D01*
X1741071Y-1294214D01*
X1783928Y-1294214D01*
X1812500Y-1308500D01*
X1826786Y-1337072D01*
X1826786Y-1494214D01*
X1969643Y-1494214D02*
X1969643Y-1294214D01*
X1969643Y-1322786D02*
X1983928Y-1308500D01*
X2012500Y-1294214D01*
X2055357Y-1294214D01*
X2083928Y-1308500D01*
X2098214Y-1337072D01*
X2098214Y-1494214D01*
X2098214Y-1337072D02*
X2112500Y-1308500D01*
X2141071Y-1294214D01*
X2183928Y-1294214D01*
X2212500Y-1308500D01*
X2226786Y-1337072D01*
X2226786Y-1494214D01*
X2812500Y-1179929D02*
X2555357Y-1565643D01*
X3198214Y-1194214D02*
X3226786Y-1194214D01*
X3255357Y-1208500D01*
X3269643Y-1222786D01*
X3283928Y-1251357D01*
X3298214Y-1308500D01*
X3298214Y-1379929D01*
X3283928Y-1437071D01*
X3269643Y-1465643D01*
X3255357Y-1479929D01*
X3226786Y-1494214D01*
X3198214Y-1494214D01*
X3169643Y-1479929D01*
X3155357Y-1465643D01*
X3141071Y-1437071D01*
X3126786Y-1379929D01*
X3126786Y-1308500D01*
X3141071Y-1251357D01*
X3155357Y-1222786D01*
X3169643Y-1208500D01*
X3198214Y-1194214D01*
X3426786Y-1465643D02*
X3441071Y-1479929D01*
X3426786Y-1494214D01*
X3412500Y-1479929D01*
X3426786Y-1465643D01*
X3426786Y-1494214D01*
X3626786Y-1194214D02*
X3655357Y-1194214D01*
X3683928Y-1208500D01*
X3698214Y-1222786D01*
X3712500Y-1251357D01*
X3726786Y-1308500D01*
X3726786Y-1379929D01*
X3712500Y-1437071D01*
X3698214Y-1465643D01*
X3683928Y-1479929D01*
X3655357Y-1494214D01*
X3626786Y-1494214D01*
X3598214Y-1479929D01*
X3583928Y-1465643D01*
X3569643Y-1437071D01*
X3555357Y-1379929D01*
X3555357Y-1308500D01*
X3569643Y-1251357D01*
X3583928Y-1222786D01*
X3598214Y-1208500D01*
X3626786Y-1194214D01*
X3841071Y-1222786D02*
X3855357Y-1208500D01*
X3883928Y-1194214D01*
X3955357Y-1194214D01*
X3983928Y-1208500D01*
X3998214Y-1222786D01*
X4012500Y-1251357D01*
X4012500Y-1279929D01*
X3998214Y-1322786D01*
X3826786Y-1494214D01*
X4012500Y-1494214D01*
X4283928Y-1194214D02*
X4141071Y-1194214D01*
X4126786Y-1337072D01*
X4141071Y-1322786D01*
X4169643Y-1308500D01*
X4241071Y-1308500D01*
X4269643Y-1322786D01*
X4283928Y-1337072D01*
X4298214Y-1365643D01*
X4298214Y-1437071D01*
X4283928Y-1465643D01*
X4269643Y-1479929D01*
X4241071Y-1494214D01*
X4169643Y-1494214D01*
X4141071Y-1479929D01*
X4126786Y-1465643D01*
X4555357Y-1194214D02*
X4498214Y-1194214D01*
X4469643Y-1208500D01*
X4455357Y-1222786D01*
X4426786Y-1265643D01*
X4412500Y-1322786D01*
X4412500Y-1437071D01*
X4426786Y-1465643D01*
X4441071Y-1479929D01*
X4469643Y-1494214D01*
X4526786Y-1494214D01*
X4555357Y-1479929D01*
X4569643Y-1465643D01*
X4583928Y-1437071D01*
X4583928Y-1365643D01*
X4569643Y-1337072D01*
X4555357Y-1322786D01*
X4526786Y-1308500D01*
X4469643Y-1308500D01*
X4441071Y-1322786D01*
X4426786Y-1337072D01*
X4412500Y-1365643D01*
X4698214Y-1194214D02*
X4698214Y-1251357D01*
X4812500Y-1194214D02*
X4812500Y-1251357D01*
X5255357Y-1608500D02*
X5241071Y-1594214D01*
X5212500Y-1551357D01*
X5198214Y-1522786D01*
X5183928Y-1479929D01*
X5169643Y-1408500D01*
X5169643Y-1351357D01*
X5183928Y-1279929D01*
X5198214Y-1237072D01*
X5212500Y-1208500D01*
X5241071Y-1165643D01*
X5255357Y-1151357D01*
X5498214Y-1194214D02*
X5441071Y-1194214D01*
X5412500Y-1208500D01*
X5398214Y-1222786D01*
X5369643Y-1265643D01*
X5355357Y-1322786D01*
X5355357Y-1437071D01*
X5369643Y-1465643D01*
X5383928Y-1479929D01*
X5412500Y-1494214D01*
X5469643Y-1494214D01*
X5498214Y-1479929D01*
X5512500Y-1465643D01*
X5526786Y-1437071D01*
X5526786Y-1365643D01*
X5512500Y-1337072D01*
X5498214Y-1322786D01*
X5469643Y-1308500D01*
X5412500Y-1308500D01*
X5383928Y-1322786D01*
X5369643Y-1337072D01*
X5355357Y-1365643D01*
X5712500Y-1194214D02*
X5741071Y-1194214D01*
X5769643Y-1208500D01*
X5783928Y-1222786D01*
X5798214Y-1251357D01*
X5812500Y-1308500D01*
X5812500Y-1379929D01*
X5798214Y-1437071D01*
X5783928Y-1465643D01*
X5769643Y-1479929D01*
X5741071Y-1494214D01*
X5712500Y-1494214D01*
X5683928Y-1479929D01*
X5669643Y-1465643D01*
X5655357Y-1437071D01*
X5641071Y-1379929D01*
X5641071Y-1308500D01*
X5655357Y-1251357D01*
X5669643Y-1222786D01*
X5683928Y-1208500D01*
X5712500Y-1194214D01*
X6169643Y-1494214D02*
X6169643Y-1194214D01*
X6298214Y-1494214D02*
X6298214Y-1337072D01*
X6283928Y-1308500D01*
X6255357Y-1294214D01*
X6212500Y-1294214D01*
X6183928Y-1308500D01*
X6169643Y-1322786D01*
X6483928Y-1494214D02*
X6455357Y-1479929D01*
X6441071Y-1465643D01*
X6426786Y-1437071D01*
X6426786Y-1351357D01*
X6441071Y-1322786D01*
X6455357Y-1308500D01*
X6483928Y-1294214D01*
X6526786Y-1294214D01*
X6555357Y-1308500D01*
X6569643Y-1322786D01*
X6583928Y-1351357D01*
X6583928Y-1437071D01*
X6569643Y-1465643D01*
X6555357Y-1479929D01*
X6526786Y-1494214D01*
X6483928Y-1494214D01*
X6755357Y-1494214D02*
X6726786Y-1479929D01*
X6712500Y-1451357D01*
X6712500Y-1194214D01*
X6983928Y-1479929D02*
X6955357Y-1494214D01*
X6898214Y-1494214D01*
X6869643Y-1479929D01*
X6855357Y-1451357D01*
X6855357Y-1337072D01*
X6869643Y-1308500D01*
X6898214Y-1294214D01*
X6955357Y-1294214D01*
X6983928Y-1308500D01*
X6998214Y-1337072D01*
X6998214Y-1365643D01*
X6855357Y-1394214D01*
X7112500Y-1479929D02*
X7141071Y-1494214D01*
X7198214Y-1494214D01*
X7226786Y-1479929D01*
X7241071Y-1451357D01*
X7241071Y-1437071D01*
X7226786Y-1408500D01*
X7198214Y-1394214D01*
X7155357Y-1394214D01*
X7126786Y-1379929D01*
X7112500Y-1351357D01*
X7112500Y-1337072D01*
X7126786Y-1308500D01*
X7155357Y-1294214D01*
X7198214Y-1294214D01*
X7226786Y-1308500D01*
X7341071Y-1608500D02*
X7355357Y-1594214D01*
X7383928Y-1551357D01*
X7398214Y-1522786D01*
X7412500Y-1479929D01*
X7426786Y-1408500D01*
X7426786Y-1351357D01*
X7412500Y-1279929D01*
X7398214Y-1237072D01*
X7383928Y-1208500D01*
X7355357Y-1165643D01*
X7341071Y-1151357D01*
X-52500Y-1704500D02*
X-52500Y-1804500D01*
X-102500Y-1754500D02*
X-2500Y-1754500D01*
X441071Y-1890214D02*
X269643Y-1890214D01*
X355357Y-1890214D02*
X355357Y-1590214D01*
X326786Y-1633071D01*
X298214Y-1661643D01*
X269643Y-1675929D01*
X569643Y-1861643D02*
X583928Y-1875929D01*
X569643Y-1890214D01*
X555357Y-1875929D01*
X569643Y-1861643D01*
X569643Y-1890214D01*
X769643Y-1590214D02*
X798214Y-1590214D01*
X826786Y-1604500D01*
X841071Y-1618786D01*
X855357Y-1647357D01*
X869643Y-1704500D01*
X869643Y-1775929D01*
X855357Y-1833071D01*
X841071Y-1861643D01*
X826786Y-1875929D01*
X798214Y-1890214D01*
X769643Y-1890214D01*
X741071Y-1875929D01*
X726786Y-1861643D01*
X712500Y-1833071D01*
X698214Y-1775929D01*
X698214Y-1704500D01*
X712500Y-1647357D01*
X726786Y-1618786D01*
X741071Y-1604500D01*
X769643Y-1590214D01*
X1055357Y-1590214D02*
X1083928Y-1590214D01*
X1112500Y-1604500D01*
X1126786Y-1618786D01*
X1141071Y-1647357D01*
X1155357Y-1704500D01*
X1155357Y-1775929D01*
X1141071Y-1833071D01*
X1126786Y-1861643D01*
X1112500Y-1875929D01*
X1083928Y-1890214D01*
X1055357Y-1890214D01*
X1026786Y-1875929D01*
X1012500Y-1861643D01*
X998214Y-1833071D01*
X983928Y-1775929D01*
X983928Y-1704500D01*
X998214Y-1647357D01*
X1012500Y-1618786D01*
X1026786Y-1604500D01*
X1055357Y-1590214D01*
X1341071Y-1590214D02*
X1369643Y-1590214D01*
X1398214Y-1604500D01*
X1412500Y-1618786D01*
X1426786Y-1647357D01*
X1441071Y-1704500D01*
X1441071Y-1775929D01*
X1426786Y-1833071D01*
X1412500Y-1861643D01*
X1398214Y-1875929D01*
X1369643Y-1890214D01*
X1341071Y-1890214D01*
X1312500Y-1875929D01*
X1298214Y-1861643D01*
X1283928Y-1833071D01*
X1269643Y-1775929D01*
X1269643Y-1704500D01*
X1283928Y-1647357D01*
X1298214Y-1618786D01*
X1312500Y-1604500D01*
X1341071Y-1590214D01*
X1569643Y-1890214D02*
X1569643Y-1690214D01*
X1569643Y-1718786D02*
X1583928Y-1704500D01*
X1612500Y-1690214D01*
X1655357Y-1690214D01*
X1683928Y-1704500D01*
X1698214Y-1733071D01*
X1698214Y-1890214D01*
X1698214Y-1733071D02*
X1712500Y-1704500D01*
X1741071Y-1690214D01*
X1783928Y-1690214D01*
X1812500Y-1704500D01*
X1826786Y-1733071D01*
X1826786Y-1890214D01*
X1969643Y-1890214D02*
X1969643Y-1690214D01*
X1969643Y-1718786D02*
X1983928Y-1704500D01*
X2012500Y-1690214D01*
X2055357Y-1690214D01*
X2083928Y-1704500D01*
X2098214Y-1733071D01*
X2098214Y-1890214D01*
X2098214Y-1733071D02*
X2112500Y-1704500D01*
X2141071Y-1690214D01*
X2183928Y-1690214D01*
X2212500Y-1704500D01*
X2226786Y-1733071D01*
X2226786Y-1890214D01*
X2812500Y-1575929D02*
X2555357Y-1961643D01*
X3198214Y-1590214D02*
X3226786Y-1590214D01*
X3255357Y-1604500D01*
X3269643Y-1618786D01*
X3283928Y-1647357D01*
X3298214Y-1704500D01*
X3298214Y-1775929D01*
X3283928Y-1833071D01*
X3269643Y-1861643D01*
X3255357Y-1875929D01*
X3226786Y-1890214D01*
X3198214Y-1890214D01*
X3169643Y-1875929D01*
X3155357Y-1861643D01*
X3141071Y-1833071D01*
X3126786Y-1775929D01*
X3126786Y-1704500D01*
X3141071Y-1647357D01*
X3155357Y-1618786D01*
X3169643Y-1604500D01*
X3198214Y-1590214D01*
X3426786Y-1861643D02*
X3441071Y-1875929D01*
X3426786Y-1890214D01*
X3412500Y-1875929D01*
X3426786Y-1861643D01*
X3426786Y-1890214D01*
X3626786Y-1590214D02*
X3655357Y-1590214D01*
X3683928Y-1604500D01*
X3698214Y-1618786D01*
X3712500Y-1647357D01*
X3726786Y-1704500D01*
X3726786Y-1775929D01*
X3712500Y-1833071D01*
X3698214Y-1861643D01*
X3683928Y-1875929D01*
X3655357Y-1890214D01*
X3626786Y-1890214D01*
X3598214Y-1875929D01*
X3583928Y-1861643D01*
X3569643Y-1833071D01*
X3555357Y-1775929D01*
X3555357Y-1704500D01*
X3569643Y-1647357D01*
X3583928Y-1618786D01*
X3598214Y-1604500D01*
X3626786Y-1590214D01*
X3826786Y-1590214D02*
X4012500Y-1590214D01*
X3912500Y-1704500D01*
X3955357Y-1704500D01*
X3983928Y-1718786D01*
X3998214Y-1733071D01*
X4012500Y-1761643D01*
X4012500Y-1833071D01*
X3998214Y-1861643D01*
X3983928Y-1875929D01*
X3955357Y-1890214D01*
X3869643Y-1890214D01*
X3841071Y-1875929D01*
X3826786Y-1861643D01*
X4155357Y-1890214D02*
X4212500Y-1890214D01*
X4241071Y-1875929D01*
X4255357Y-1861643D01*
X4283928Y-1818786D01*
X4298214Y-1761643D01*
X4298214Y-1647357D01*
X4283928Y-1618786D01*
X4269643Y-1604500D01*
X4241071Y-1590214D01*
X4183928Y-1590214D01*
X4155357Y-1604500D01*
X4141071Y-1618786D01*
X4126786Y-1647357D01*
X4126786Y-1718786D01*
X4141071Y-1747357D01*
X4155357Y-1761643D01*
X4183928Y-1775929D01*
X4241071Y-1775929D01*
X4269643Y-1761643D01*
X4283928Y-1747357D01*
X4298214Y-1718786D01*
X4555357Y-1690214D02*
X4555357Y-1890214D01*
X4483928Y-1575929D02*
X4412500Y-1790214D01*
X4598214Y-1790214D01*
X4698214Y-1590214D02*
X4698214Y-1647357D01*
X4812500Y-1590214D02*
X4812500Y-1647357D01*
X5255357Y-2004500D02*
X5241071Y-1990214D01*
X5212500Y-1947357D01*
X5198214Y-1918786D01*
X5183928Y-1875929D01*
X5169643Y-1804500D01*
X5169643Y-1747357D01*
X5183928Y-1675929D01*
X5198214Y-1633071D01*
X5212500Y-1604500D01*
X5241071Y-1561643D01*
X5255357Y-1547357D01*
X5512500Y-1590214D02*
X5369643Y-1590214D01*
X5355357Y-1733071D01*
X5369643Y-1718786D01*
X5398214Y-1704500D01*
X5469643Y-1704500D01*
X5498214Y-1718786D01*
X5512500Y-1733071D01*
X5526786Y-1761643D01*
X5526786Y-1833071D01*
X5512500Y-1861643D01*
X5498214Y-1875929D01*
X5469643Y-1890214D01*
X5398214Y-1890214D01*
X5369643Y-1875929D01*
X5355357Y-1861643D01*
X5783928Y-1690214D02*
X5783928Y-1890214D01*
X5712500Y-1575929D02*
X5641071Y-1790214D01*
X5826786Y-1790214D01*
X6169643Y-1890214D02*
X6169643Y-1590214D01*
X6298214Y-1890214D02*
X6298214Y-1733071D01*
X6283928Y-1704500D01*
X6255357Y-1690214D01*
X6212500Y-1690214D01*
X6183928Y-1704500D01*
X6169643Y-1718786D01*
X6483928Y-1890214D02*
X6455357Y-1875929D01*
X6441071Y-1861643D01*
X6426786Y-1833071D01*
X6426786Y-1747357D01*
X6441071Y-1718786D01*
X6455357Y-1704500D01*
X6483928Y-1690214D01*
X6526786Y-1690214D01*
X6555357Y-1704500D01*
X6569643Y-1718786D01*
X6583928Y-1747357D01*
X6583928Y-1833071D01*
X6569643Y-1861643D01*
X6555357Y-1875929D01*
X6526786Y-1890214D01*
X6483928Y-1890214D01*
X6755357Y-1890214D02*
X6726786Y-1875929D01*
X6712500Y-1847357D01*
X6712500Y-1590214D01*
X6983928Y-1875929D02*
X6955357Y-1890214D01*
X6898214Y-1890214D01*
X6869643Y-1875929D01*
X6855357Y-1847357D01*
X6855357Y-1733071D01*
X6869643Y-1704500D01*
X6898214Y-1690214D01*
X6955357Y-1690214D01*
X6983928Y-1704500D01*
X6998214Y-1733071D01*
X6998214Y-1761643D01*
X6855357Y-1790214D01*
X7112500Y-1875929D02*
X7141071Y-1890214D01*
X7198214Y-1890214D01*
X7226786Y-1875929D01*
X7241071Y-1847357D01*
X7241071Y-1833071D01*
X7226786Y-1804500D01*
X7198214Y-1790214D01*
X7155357Y-1790214D01*
X7126786Y-1775929D01*
X7112500Y-1747357D01*
X7112500Y-1733071D01*
X7126786Y-1704500D01*
X7155357Y-1690214D01*
X7198214Y-1690214D01*
X7226786Y-1704500D01*
X7341071Y-2004500D02*
X7355357Y-1990214D01*
X7383928Y-1947357D01*
X7398214Y-1918786D01*
X7412500Y-1875929D01*
X7426786Y-1804500D01*
X7426786Y-1747357D01*
X7412500Y-1675929D01*
X7398214Y-1633071D01*
X7383928Y-1604500D01*
X7355357Y-1561643D01*
X7341071Y-1547357D01*
M02*
