%TF.GenerationSoftware,KiCad,Pcbnew,(5.1.10-1-10_14)*%
%TF.CreationDate,2021-09-22T14:39:30-04:00*%
%TF.ProjectId,pannel,70616e6e-656c-42e6-9b69-6361645f7063,rev?*%
%TF.SameCoordinates,Original*%
%TF.FileFunction,Profile,NP*%
%FSLAX46Y46*%
G04 Gerber Fmt 4.6, Leading zero omitted, Abs format (unit mm)*
G04 Created by KiCad (PCBNEW (5.1.10-1-10_14)) date 2021-09-22 14:39:30*
%MOMM*%
%LPD*%
G01*
G04 APERTURE LIST*
%TA.AperFunction,Profile*%
%ADD10C,0.050000*%
%TD*%
G04 APERTURE END LIST*
D10*
X0Y78000000D02*
X0Y57000000D01*
X48000000Y57000000D02*
G75*
G02*
X46000000Y55000000I-2000000J0D01*
G01*
X46000000Y80000000D02*
G75*
G02*
X48000000Y78000000I0J-2000000D01*
G01*
X0Y78000000D02*
G75*
G02*
X2000000Y80000000I2000000J0D01*
G01*
X2000000Y55000000D02*
G75*
G02*
X0Y57000000I0J2000000D01*
G01*
X52500000Y55000000D02*
G75*
G02*
X50500000Y57000000I0J2000000D01*
G01*
X98500000Y57000000D02*
X98500000Y78000000D01*
X48000000Y57500000D02*
X48000000Y57750000D01*
X35500000Y55000000D02*
X12500000Y55000000D01*
X58000000Y80000000D02*
X52500000Y80000000D01*
X7500000Y55000000D02*
X2000000Y55000000D01*
X42250000Y80000000D02*
X46000000Y80000000D01*
X2000000Y80000000D02*
X7500000Y80000000D01*
X12500000Y80000000D02*
X37250000Y80000000D01*
X48000000Y57500000D02*
X48000000Y57000000D01*
X50500000Y57000000D02*
X50500000Y57750000D01*
X50500000Y62750000D02*
X50500000Y72750000D01*
X98500000Y57000000D02*
G75*
G02*
X96500000Y55000000I-2000000J0D01*
G01*
X96500000Y80000000D02*
G75*
G02*
X98500000Y78000000I0J-2000000D01*
G01*
X50500000Y78000000D02*
G75*
G02*
X52500000Y80000000I2000000J0D01*
G01*
X58000000Y55000000D02*
X52500000Y55000000D01*
X91000000Y55000000D02*
X96500000Y55000000D01*
X48000000Y72500000D02*
X48000000Y62750000D01*
X91000000Y52500000D02*
G75*
G02*
X91000000Y55000000I0J1250000D01*
G01*
X58000000Y55000000D02*
G75*
G02*
X58000000Y52500000I0J-1250000D01*
G01*
X63000000Y52500000D02*
G75*
G02*
X63000000Y55000000I0J1250000D01*
G01*
X48000000Y72750000D02*
G75*
G02*
X50500000Y72750000I1250000J0D01*
G01*
X50500000Y77750000D02*
G75*
G02*
X48000000Y77750000I-1250000J0D01*
G01*
X50500000Y62750000D02*
G75*
G02*
X48000000Y62750000I-1250000J0D01*
G01*
X48000000Y57750000D02*
G75*
G02*
X50500000Y57750000I1250000J0D01*
G01*
X50500000Y50250000D02*
G75*
G02*
X48000000Y50250000I-1250000J0D01*
G01*
X48000000Y45250000D02*
G75*
G02*
X50500000Y45250000I1250000J0D01*
G01*
X48000000Y30250000D02*
G75*
G02*
X50500000Y30250000I1250000J0D01*
G01*
X50500000Y35250000D02*
G75*
G02*
X48000000Y35250000I-1250000J0D01*
G01*
X50500000Y7750000D02*
G75*
G02*
X48000000Y7750000I-1250000J0D01*
G01*
X48000000Y2750000D02*
G75*
G02*
X50500000Y2750000I1250000J0D01*
G01*
X48000000Y17750000D02*
G75*
G02*
X50500000Y17750000I1250000J0D01*
G01*
X50500000Y22750000D02*
G75*
G02*
X48000000Y22750000I-1250000J0D01*
G01*
X12500000Y80000000D02*
X7500000Y80000000D01*
X42250000Y80000000D02*
X37250000Y80000000D01*
X63000000Y80000000D02*
X58000000Y80000000D01*
X87750000Y0D02*
X92750000Y0D01*
X58000000Y0D02*
X63000000Y0D01*
X37250000Y0D02*
X42250000Y0D01*
X12500000Y0D02*
X7500000Y0D01*
X40500000Y55000000D02*
X46000000Y55000000D01*
X50500000Y77750000D02*
X50500000Y78000000D01*
X48000000Y72500000D02*
X48000000Y72750000D01*
X48000000Y77750000D02*
X48000000Y78000000D01*
X92750000Y80000000D02*
X96500000Y80000000D01*
X86000000Y55000000D02*
X63000000Y55000000D01*
X58000000Y0D02*
X52500000Y0D01*
X7500000Y0D02*
X2000000Y0D01*
X37250000Y0D02*
X12500000Y0D01*
X42250000Y0D02*
X46000000Y0D01*
X48000000Y2500000D02*
X48000000Y2750000D01*
X48000000Y17500000D02*
X48000000Y17750000D01*
X50500000Y7750000D02*
X50500000Y17750000D01*
X50500000Y2000000D02*
X50500000Y2750000D01*
X48000000Y2500000D02*
X48000000Y2000000D01*
X48000000Y17500000D02*
X48000000Y7750000D01*
X98500000Y2000000D02*
G75*
G02*
X96500000Y0I-2000000J0D01*
G01*
X52500000Y0D02*
G75*
G02*
X50500000Y2000000I0J2000000D01*
G01*
X98500000Y2000000D02*
X98500000Y23000000D01*
X0Y23000000D02*
X0Y2000000D01*
X48000000Y2000000D02*
G75*
G02*
X46000000Y0I-2000000J0D01*
G01*
X2000000Y0D02*
G75*
G02*
X0Y2000000I0J2000000D01*
G01*
X92750000Y80000000D02*
X63000000Y80000000D01*
X86000000Y55000000D02*
G75*
G02*
X86000000Y52500000I0J-1250000D01*
G01*
X48000000Y50250000D02*
X48000000Y50500000D01*
X91000000Y52500000D02*
X96500000Y52500000D01*
X48000000Y45000000D02*
X48000000Y35250000D01*
X50500000Y35250000D02*
X50500000Y45250000D01*
X96500000Y52500000D02*
G75*
G02*
X98500000Y50500000I0J-2000000D01*
G01*
X50500000Y50500000D02*
G75*
G02*
X52500000Y52500000I2000000J0D01*
G01*
X98500000Y29500000D02*
X98500000Y50500000D01*
X58000000Y52500000D02*
X52500000Y52500000D01*
X40500000Y52500000D02*
X46000000Y52500000D01*
X12500000Y52500000D02*
G75*
G02*
X12500000Y55000000I0J1250000D01*
G01*
X2000000Y52500000D02*
X7500000Y52500000D01*
X35500000Y55000000D02*
G75*
G02*
X35500000Y52500000I0J-1250000D01*
G01*
X7500000Y55000000D02*
G75*
G02*
X7500000Y52500000I0J-1250000D01*
G01*
X40500000Y52500000D02*
G75*
G02*
X40500000Y55000000I0J1250000D01*
G01*
X12500000Y52500000D02*
X35500000Y52500000D01*
X63000000Y52500000D02*
X86000000Y52500000D01*
X0Y50500000D02*
X0Y29500000D01*
X46000000Y52500000D02*
G75*
G02*
X48000000Y50500000I0J-2000000D01*
G01*
X0Y50500000D02*
G75*
G02*
X2000000Y52500000I2000000J0D01*
G01*
X92750000Y0D02*
X96500000Y0D01*
X87750000Y0D02*
X63000000Y0D01*
X50500000Y50250000D02*
X50500000Y50500000D01*
X48000000Y45000000D02*
X48000000Y45250000D01*
X40500000Y25000000D02*
X46000000Y25000000D01*
X58000000Y25000000D02*
X52500000Y25000000D01*
X50500000Y23000000D02*
G75*
G02*
X52500000Y25000000I2000000J0D01*
G01*
X96500000Y25000000D02*
G75*
G02*
X98500000Y23000000I0J-2000000D01*
G01*
X91000000Y25000000D02*
X96500000Y25000000D01*
X35500000Y27500000D02*
G75*
G02*
X35500000Y25000000I0J-1250000D01*
G01*
X2000000Y25000000D02*
X7500000Y25000000D01*
X12500000Y25000000D02*
G75*
G02*
X12500000Y27500000I0J1250000D01*
G01*
X86000000Y27500000D02*
X63000000Y27500000D01*
X40500000Y27500000D02*
X46000000Y27500000D01*
X63000000Y25000000D02*
G75*
G02*
X63000000Y27500000I0J1250000D01*
G01*
X58000000Y27500000D02*
G75*
G02*
X58000000Y25000000I0J-1250000D01*
G01*
X91000000Y25000000D02*
G75*
G02*
X91000000Y27500000I0J1250000D01*
G01*
X86000000Y27500000D02*
G75*
G02*
X86000000Y25000000I0J-1250000D01*
G01*
X0Y23000000D02*
G75*
G02*
X2000000Y25000000I2000000J0D01*
G01*
X46000000Y25000000D02*
G75*
G02*
X48000000Y23000000I0J-2000000D01*
G01*
X63000000Y25000000D02*
X86000000Y25000000D01*
X12500000Y25000000D02*
X35500000Y25000000D01*
X40500000Y25000000D02*
G75*
G02*
X40500000Y27500000I0J1250000D01*
G01*
X7500000Y27500000D02*
G75*
G02*
X7500000Y25000000I0J-1250000D01*
G01*
X48000000Y30000000D02*
X48000000Y30250000D01*
X50500000Y29500000D02*
X50500000Y30250000D01*
X50500000Y22750000D02*
X50500000Y23000000D01*
X48000000Y23000000D02*
X48000000Y22750000D01*
X2000000Y27500000D02*
G75*
G02*
X0Y29500000I0J2000000D01*
G01*
X48000000Y29500000D02*
G75*
G02*
X46000000Y27500000I-2000000J0D01*
G01*
X48000000Y30000000D02*
X48000000Y29500000D01*
X7500000Y27500000D02*
X2000000Y27500000D01*
X35500000Y27500000D02*
X12500000Y27500000D01*
X52500000Y27500000D02*
G75*
G02*
X50500000Y29500000I0J2000000D01*
G01*
X98500000Y29500000D02*
G75*
G02*
X96500000Y27500000I-2000000J0D01*
G01*
X91000000Y27500000D02*
X96500000Y27500000D01*
X58000000Y27500000D02*
X52500000Y27500000D01*
M02*
