%TF.GenerationSoftware,KiCad,Pcbnew,(5.1.10-1-10_14)*%
%TF.CreationDate,2021-09-25T17:03:40-04:00*%
%TF.ProjectId,WetProgrammer,57657450-726f-4677-9261-6d6d65722e6b,rev?*%
%TF.SameCoordinates,Original*%
%TF.FileFunction,Legend,Top*%
%TF.FilePolarity,Positive*%
%FSLAX46Y46*%
G04 Gerber Fmt 4.6, Leading zero omitted, Abs format (unit mm)*
G04 Created by KiCad (PCBNEW (5.1.10-1-10_14)) date 2021-09-25 17:03:40*
%MOMM*%
%LPD*%
G01*
G04 APERTURE LIST*
%ADD10C,0.152400*%
%ADD11C,0.150000*%
%ADD12C,0.120000*%
%ADD13O,1.700000X1.700000*%
%ADD14R,1.700000X1.700000*%
%ADD15R,1.000000X1.000000*%
%ADD16O,1.000000X1.000000*%
%ADD17R,1.400000X1.200000*%
%ADD18R,2.000000X1.500000*%
%ADD19R,2.000000X3.800000*%
%ADD20R,0.900000X1.250000*%
%ADD21R,0.800000X0.900000*%
%ADD22C,0.900000*%
%ADD23R,1.800000X0.400000*%
%ADD24C,0.550000*%
%ADD25R,1.400000X1.500000*%
%ADD26R,1.500000X1.350000*%
%ADD27R,1.100000X1.000000*%
%ADD28C,3.200000*%
%ADD29C,2.000000*%
%ADD30R,1.500000X0.550000*%
%ADD31R,0.550000X1.500000*%
%ADD32C,1.500000*%
%ADD33R,1.500000X1.000000*%
%ADD34R,1.000000X1.500000*%
G04 APERTURE END LIST*
D10*
X43119752Y24728419D02*
X43310228Y24728419D01*
X43405466Y24680800D01*
X43500704Y24585561D01*
X43548323Y24395085D01*
X43548323Y24061752D01*
X43500704Y23871276D01*
X43405466Y23776038D01*
X43310228Y23728419D01*
X43119752Y23728419D01*
X43024514Y23776038D01*
X42929276Y23871276D01*
X42881657Y24061752D01*
X42881657Y24395085D01*
X42929276Y24585561D01*
X43024514Y24680800D01*
X43119752Y24728419D01*
X43976895Y23728419D02*
X43976895Y24728419D01*
X44548323Y23728419D01*
X44548323Y24728419D01*
X14559523Y24547619D02*
X15178571Y24547619D01*
X14845238Y24166666D01*
X14988095Y24166666D01*
X15083333Y24119047D01*
X15130952Y24071428D01*
X15178571Y23976190D01*
X15178571Y23738095D01*
X15130952Y23642857D01*
X15083333Y23595238D01*
X14988095Y23547619D01*
X14702380Y23547619D01*
X14607142Y23595238D01*
X14559523Y23642857D01*
X15511904Y24214285D02*
X15750000Y23547619D01*
X15988095Y24214285D01*
X16273809Y24547619D02*
X16892857Y24547619D01*
X16559523Y24166666D01*
X16702380Y24166666D01*
X16797619Y24119047D01*
X16845238Y24071428D01*
X16892857Y23976190D01*
X16892857Y23738095D01*
X16845238Y23642857D01*
X16797619Y23595238D01*
X16702380Y23547619D01*
X16416666Y23547619D01*
X16321428Y23595238D01*
X16273809Y23642857D01*
X4988095Y24797619D02*
X4511904Y24797619D01*
X4464285Y24321428D01*
X4511904Y24369047D01*
X4607142Y24416666D01*
X4845238Y24416666D01*
X4940476Y24369047D01*
X4988095Y24321428D01*
X5035714Y24226190D01*
X5035714Y23988095D01*
X4988095Y23892857D01*
X4940476Y23845238D01*
X4845238Y23797619D01*
X4607142Y23797619D01*
X4511904Y23845238D01*
X4464285Y23892857D01*
D11*
X36302380Y726190D02*
X36302380Y1297619D01*
X37302380Y1011904D02*
X36302380Y1011904D01*
X36921428Y1630952D02*
X36921428Y2392857D01*
X36635714Y2869047D02*
X36921428Y3630952D01*
X37207142Y2869047D01*
X38952380Y1321428D02*
X38476190Y988095D01*
X38952380Y750000D02*
X37952380Y750000D01*
X37952380Y1130952D01*
X38000000Y1226190D01*
X38047619Y1273809D01*
X38142857Y1321428D01*
X38285714Y1321428D01*
X38380952Y1273809D01*
X38428571Y1226190D01*
X38476190Y1130952D01*
X38476190Y750000D01*
X38285714Y2511904D02*
X38571428Y1750000D01*
X38857142Y2511904D01*
X38571428Y2988095D02*
X38571428Y3750000D01*
X39650000Y1607142D02*
X39602380Y1511904D01*
X39602380Y1369047D01*
X39650000Y1226190D01*
X39745238Y1130952D01*
X39840476Y1083333D01*
X40030952Y1035714D01*
X40173809Y1035714D01*
X40364285Y1083333D01*
X40459523Y1130952D01*
X40554761Y1226190D01*
X40602380Y1369047D01*
X40602380Y1464285D01*
X40554761Y1607142D01*
X40507142Y1654761D01*
X40173809Y1654761D01*
X40173809Y1464285D01*
X39935714Y2083333D02*
X40602380Y2083333D01*
X40030952Y2083333D02*
X39983333Y2130952D01*
X39935714Y2226190D01*
X39935714Y2369047D01*
X39983333Y2464285D01*
X40078571Y2511904D01*
X40602380Y2511904D01*
X40602380Y3416666D02*
X39602380Y3416666D01*
X40554761Y3416666D02*
X40602380Y3321428D01*
X40602380Y3130952D01*
X40554761Y3035714D01*
X40507142Y2988095D01*
X40411904Y2940476D01*
X40126190Y2940476D01*
X40030952Y2988095D01*
X39983333Y3035714D01*
X39935714Y3130952D01*
X39935714Y3321428D01*
X39983333Y3416666D01*
D10*
X42616714Y20614319D02*
X43188142Y20614319D01*
X42902428Y19614319D02*
X42902428Y20614319D01*
X43950047Y19614319D02*
X43950047Y20138128D01*
X43902428Y20233366D01*
X43807190Y20280985D01*
X43616714Y20280985D01*
X43521476Y20233366D01*
X43950047Y19661938D02*
X43854809Y19614319D01*
X43616714Y19614319D01*
X43521476Y19661938D01*
X43473857Y19757176D01*
X43473857Y19852414D01*
X43521476Y19947652D01*
X43616714Y19995271D01*
X43854809Y19995271D01*
X43950047Y20042890D01*
X44426238Y19614319D02*
X44426238Y20280985D01*
X44426238Y20090509D02*
X44473857Y20185747D01*
X44521476Y20233366D01*
X44616714Y20280985D01*
X44711952Y20280985D01*
X45473857Y20280985D02*
X45473857Y19471461D01*
X45426238Y19376223D01*
X45378619Y19328604D01*
X45283380Y19280985D01*
X45140523Y19280985D01*
X45045285Y19328604D01*
X45473857Y19661938D02*
X45378619Y19614319D01*
X45188142Y19614319D01*
X45092904Y19661938D01*
X45045285Y19709557D01*
X44997666Y19804795D01*
X44997666Y20090509D01*
X45045285Y20185747D01*
X45092904Y20233366D01*
X45188142Y20280985D01*
X45378619Y20280985D01*
X45473857Y20233366D01*
X46331000Y19661938D02*
X46235761Y19614319D01*
X46045285Y19614319D01*
X45950047Y19661938D01*
X45902428Y19757176D01*
X45902428Y20138128D01*
X45950047Y20233366D01*
X46045285Y20280985D01*
X46235761Y20280985D01*
X46331000Y20233366D01*
X46378619Y20138128D01*
X46378619Y20042890D01*
X45902428Y19947652D01*
X46664333Y20280985D02*
X47045285Y20280985D01*
X46807190Y20614319D02*
X46807190Y19757176D01*
X46854809Y19661938D01*
X46950047Y19614319D01*
X47045285Y19614319D01*
X42854809Y17961919D02*
X42854809Y18961919D01*
X43235761Y18961919D01*
X43331000Y18914300D01*
X43378619Y18866680D01*
X43426238Y18771442D01*
X43426238Y18628585D01*
X43378619Y18533347D01*
X43331000Y18485728D01*
X43235761Y18438109D01*
X42854809Y18438109D01*
X43997666Y17961919D02*
X43902428Y18009538D01*
X43854809Y18057157D01*
X43807190Y18152395D01*
X43807190Y18438109D01*
X43854809Y18533347D01*
X43902428Y18580966D01*
X43997666Y18628585D01*
X44140523Y18628585D01*
X44235761Y18580966D01*
X44283380Y18533347D01*
X44331000Y18438109D01*
X44331000Y18152395D01*
X44283380Y18057157D01*
X44235761Y18009538D01*
X44140523Y17961919D01*
X43997666Y17961919D01*
X44664333Y18628585D02*
X44854809Y17961919D01*
X45045285Y18438109D01*
X45235761Y17961919D01*
X45426238Y18628585D01*
X46188142Y18009538D02*
X46092904Y17961919D01*
X45902428Y17961919D01*
X45807190Y18009538D01*
X45759571Y18104776D01*
X45759571Y18485728D01*
X45807190Y18580966D01*
X45902428Y18628585D01*
X46092904Y18628585D01*
X46188142Y18580966D01*
X46235761Y18485728D01*
X46235761Y18390490D01*
X45759571Y18295252D01*
X46664333Y17961919D02*
X46664333Y18628585D01*
X46664333Y18438109D02*
X46711952Y18533347D01*
X46759571Y18580966D01*
X46854809Y18628585D01*
X46950047Y18628585D01*
D12*
%TO.C,J2*%
X41880000Y8670000D02*
X47080000Y8670000D01*
X41880000Y13810000D02*
X41880000Y8670000D01*
X47080000Y16410000D02*
X47080000Y8670000D01*
X41880000Y13810000D02*
X44480000Y13810000D01*
X44480000Y13810000D02*
X44480000Y16410000D01*
X44480000Y16410000D02*
X47080000Y16410000D01*
X41880000Y15080000D02*
X41880000Y16410000D01*
X41880000Y16410000D02*
X43210000Y16410000D01*
%TO.C,JPROG1*%
X18163000Y19825000D02*
X18163000Y20955000D01*
X18923000Y19825000D02*
X18163000Y19825000D01*
X18228000Y21715000D02*
X18228000Y21917470D01*
X18359529Y21715000D02*
X18228000Y21715000D01*
X19629529Y21715000D02*
X19486471Y21715000D01*
X19683000Y21518471D02*
X19683000Y21661529D01*
X19683000Y19825000D02*
X19683000Y20391529D01*
%TO.C,F1*%
X9852064Y18185000D02*
X9397936Y18185000D01*
X9852064Y16715000D02*
X9397936Y16715000D01*
%TO.C,C9*%
X27112900Y21608148D02*
X27112900Y22130652D01*
X25642900Y21608148D02*
X25642900Y22130652D01*
%TO.C,C2*%
X17819700Y3857852D02*
X17819700Y3335348D01*
X19289700Y3857852D02*
X19289700Y3335348D01*
%TO.C,Y1*%
X23793200Y5244100D02*
X19793200Y5244100D01*
X23793200Y1944100D02*
X23793200Y5244100D01*
%TO.C,R10*%
X28564564Y5735000D02*
X28110436Y5735000D01*
X28564564Y4265000D02*
X28110436Y4265000D01*
%TO.C,R11*%
X32227064Y5735000D02*
X31772936Y5735000D01*
X32227064Y4265000D02*
X31772936Y4265000D01*
%TO.C,C5*%
X15775000Y3685948D02*
X15775000Y4208452D01*
X17245000Y3685948D02*
X17245000Y4208452D01*
%TO.C,C1*%
X25893700Y3330348D02*
X25893700Y3852852D01*
X24423700Y3330348D02*
X24423700Y3852852D01*
%TO.C,U2*%
X5710000Y7379500D02*
X5710000Y6119500D01*
X5710000Y559500D02*
X5710000Y1819500D01*
X9470000Y7379500D02*
X5710000Y7379500D01*
X11720000Y559500D02*
X5710000Y559500D01*
%TO.C,D1*%
X31937200Y19044800D02*
X29252200Y19044800D01*
X29252200Y19044800D02*
X29252200Y17124800D01*
X29252200Y17124800D02*
X31937200Y17124800D01*
%TO.C,C8*%
X13505548Y3529000D02*
X14028052Y3529000D01*
X13505548Y2059000D02*
X14028052Y2059000D01*
%TO.C,C7*%
X13490348Y5510200D02*
X14012852Y5510200D01*
X13490348Y4040200D02*
X14012852Y4040200D01*
%TO.C,C3*%
X15679748Y21055000D02*
X16202252Y21055000D01*
X15679748Y19585000D02*
X16202252Y19585000D01*
%TO.C,J3*%
X27170000Y920000D02*
X27170000Y2250000D01*
X28500000Y920000D02*
X27170000Y920000D01*
X29770000Y920000D02*
X29770000Y3580000D01*
X29770000Y3580000D02*
X34910000Y3580000D01*
X29770000Y920000D02*
X34910000Y920000D01*
X34910000Y920000D02*
X34910000Y3580000D01*
D11*
%TO.C,U1*%
X13575000Y17100000D02*
X12300000Y17100000D01*
X23925000Y17675000D02*
X23250000Y17675000D01*
X23925000Y7325000D02*
X23250000Y7325000D01*
X13575000Y7325000D02*
X14250000Y7325000D01*
X13575000Y17675000D02*
X14250000Y17675000D01*
X13575000Y7325000D02*
X13575000Y8000000D01*
X23925000Y7325000D02*
X23925000Y8000000D01*
X23925000Y17675000D02*
X23925000Y17000000D01*
X13575000Y17675000D02*
X13575000Y17100000D01*
D12*
%TO.C,TP3*%
X32255500Y12827000D02*
G75*
G03*
X32255500Y12827000I-950000J0D01*
G01*
%TO.C,TP2*%
X32255500Y15430500D02*
G75*
G03*
X32255500Y15430500I-950000J0D01*
G01*
%TO.C,R9*%
X34390000Y8545564D02*
X34390000Y8091436D01*
X32920000Y8545564D02*
X32920000Y8091436D01*
%TO.C,R8*%
X36485500Y8522064D02*
X36485500Y8067936D01*
X35015500Y8522064D02*
X35015500Y8067936D01*
%TO.C,R7*%
X32294500Y8545564D02*
X32294500Y8091436D01*
X30824500Y8545564D02*
X30824500Y8091436D01*
%TO.C,R6*%
X27610164Y17349800D02*
X27156036Y17349800D01*
X27610164Y18819800D02*
X27156036Y18819800D01*
%TO.C,R5*%
X37565000Y15427064D02*
X37565000Y14972936D01*
X36095000Y15427064D02*
X36095000Y14972936D01*
%TO.C,R4*%
X27141500Y14337936D02*
X27141500Y14792064D01*
X28611500Y14337936D02*
X28611500Y14792064D01*
%TO.C,R3*%
X27662200Y21618836D02*
X27662200Y22072964D01*
X29132200Y21618836D02*
X29132200Y22072964D01*
%TO.C,R2*%
X9861064Y14695500D02*
X9406936Y14695500D01*
X9861064Y16165500D02*
X9406936Y16165500D01*
%TO.C,R1*%
X9861064Y12663500D02*
X9406936Y12663500D01*
X9861064Y14133500D02*
X9406936Y14133500D01*
%TO.C,JP3*%
X26876500Y12464000D02*
X28876500Y12464000D01*
X26876500Y9664000D02*
X26876500Y12464000D01*
X28876500Y9664000D02*
X26876500Y9664000D01*
X28876500Y12464000D02*
X28876500Y9664000D01*
%TO.C,JP2*%
X37610000Y13128500D02*
X37610000Y11128500D01*
X34810000Y13128500D02*
X37610000Y13128500D01*
X34810000Y11128500D02*
X34810000Y13128500D01*
X37610000Y11128500D02*
X34810000Y11128500D01*
%TO.C,C6*%
X28582252Y7583500D02*
X28059748Y7583500D01*
X28582252Y9053500D02*
X28059748Y9053500D01*
%TO.C,C4*%
X9921252Y10631500D02*
X9398748Y10631500D01*
X9921252Y12101500D02*
X9398748Y12101500D01*
%TO.C,F1*%
D11*
X7328571Y17116666D02*
X7328571Y16783333D01*
X7852380Y16783333D02*
X6852380Y16783333D01*
X6852380Y17259523D01*
X7852380Y18164285D02*
X7852380Y17592857D01*
X7852380Y17878571D02*
X6852380Y17878571D01*
X6995238Y17783333D01*
X7090476Y17688095D01*
X7138095Y17592857D01*
%TO.C,C9*%
X26198533Y23874457D02*
X26150914Y23826838D01*
X26008057Y23779219D01*
X25912819Y23779219D01*
X25769961Y23826838D01*
X25674723Y23922076D01*
X25627104Y24017314D01*
X25579485Y24207790D01*
X25579485Y24350647D01*
X25627104Y24541123D01*
X25674723Y24636361D01*
X25769961Y24731600D01*
X25912819Y24779219D01*
X26008057Y24779219D01*
X26150914Y24731600D01*
X26198533Y24683980D01*
X26674723Y23779219D02*
X26865200Y23779219D01*
X26960438Y23826838D01*
X27008057Y23874457D01*
X27103295Y24017314D01*
X27150914Y24207790D01*
X27150914Y24588742D01*
X27103295Y24683980D01*
X27055676Y24731600D01*
X26960438Y24779219D01*
X26769961Y24779219D01*
X26674723Y24731600D01*
X26627104Y24683980D01*
X26579485Y24588742D01*
X26579485Y24350647D01*
X26627104Y24255409D01*
X26674723Y24207790D01*
X26769961Y24160171D01*
X26960438Y24160171D01*
X27055676Y24207790D01*
X27103295Y24255409D01*
X27150914Y24350647D01*
%TO.C,C2*%
X18375333Y1014457D02*
X18327714Y966838D01*
X18184857Y919219D01*
X18089619Y919219D01*
X17946761Y966838D01*
X17851523Y1062076D01*
X17803904Y1157314D01*
X17756285Y1347790D01*
X17756285Y1490647D01*
X17803904Y1681123D01*
X17851523Y1776361D01*
X17946761Y1871600D01*
X18089619Y1919219D01*
X18184857Y1919219D01*
X18327714Y1871600D01*
X18375333Y1823980D01*
X18756285Y1823980D02*
X18803904Y1871600D01*
X18899142Y1919219D01*
X19137238Y1919219D01*
X19232476Y1871600D01*
X19280095Y1823980D01*
X19327714Y1728742D01*
X19327714Y1633504D01*
X19280095Y1490647D01*
X18708666Y919219D01*
X19327714Y919219D01*
%TO.C,Y1*%
X21317009Y1167909D02*
X21317009Y691719D01*
X20983676Y1691719D02*
X21317009Y1167909D01*
X21650342Y1691719D01*
X22507485Y691719D02*
X21936057Y691719D01*
X22221771Y691719D02*
X22221771Y1691719D01*
X22126533Y1548861D01*
X22031295Y1453623D01*
X21936057Y1406004D01*
%TO.C,R10*%
X27607142Y6047619D02*
X27273809Y6523809D01*
X27035714Y6047619D02*
X27035714Y7047619D01*
X27416666Y7047619D01*
X27511904Y7000000D01*
X27559523Y6952380D01*
X27607142Y6857142D01*
X27607142Y6714285D01*
X27559523Y6619047D01*
X27511904Y6571428D01*
X27416666Y6523809D01*
X27035714Y6523809D01*
X28559523Y6047619D02*
X27988095Y6047619D01*
X28273809Y6047619D02*
X28273809Y7047619D01*
X28178571Y6904761D01*
X28083333Y6809523D01*
X27988095Y6761904D01*
X29178571Y7047619D02*
X29273809Y7047619D01*
X29369047Y7000000D01*
X29416666Y6952380D01*
X29464285Y6857142D01*
X29511904Y6666666D01*
X29511904Y6428571D01*
X29464285Y6238095D01*
X29416666Y6142857D01*
X29369047Y6095238D01*
X29273809Y6047619D01*
X29178571Y6047619D01*
X29083333Y6095238D01*
X29035714Y6142857D01*
X28988095Y6238095D01*
X28940476Y6428571D01*
X28940476Y6666666D01*
X28988095Y6857142D01*
X29035714Y6952380D01*
X29083333Y7000000D01*
X29178571Y7047619D01*
%TO.C,R11*%
X34607142Y4547619D02*
X34273809Y5023809D01*
X34035714Y4547619D02*
X34035714Y5547619D01*
X34416666Y5547619D01*
X34511904Y5500000D01*
X34559523Y5452380D01*
X34607142Y5357142D01*
X34607142Y5214285D01*
X34559523Y5119047D01*
X34511904Y5071428D01*
X34416666Y5023809D01*
X34035714Y5023809D01*
X35559523Y4547619D02*
X34988095Y4547619D01*
X35273809Y4547619D02*
X35273809Y5547619D01*
X35178571Y5404761D01*
X35083333Y5309523D01*
X34988095Y5261904D01*
X36511904Y4547619D02*
X35940476Y4547619D01*
X36226190Y4547619D02*
X36226190Y5547619D01*
X36130952Y5404761D01*
X36035714Y5309523D01*
X35940476Y5261904D01*
%TO.C,C5*%
X16343333Y1177057D02*
X16295714Y1129438D01*
X16152857Y1081819D01*
X16057619Y1081819D01*
X15914761Y1129438D01*
X15819523Y1224676D01*
X15771904Y1319914D01*
X15724285Y1510390D01*
X15724285Y1653247D01*
X15771904Y1843723D01*
X15819523Y1938961D01*
X15914761Y2034200D01*
X16057619Y2081819D01*
X16152857Y2081819D01*
X16295714Y2034200D01*
X16343333Y1986580D01*
X17248095Y2081819D02*
X16771904Y2081819D01*
X16724285Y1605628D01*
X16771904Y1653247D01*
X16867142Y1700866D01*
X17105238Y1700866D01*
X17200476Y1653247D01*
X17248095Y1605628D01*
X17295714Y1510390D01*
X17295714Y1272295D01*
X17248095Y1177057D01*
X17200476Y1129438D01*
X17105238Y1081819D01*
X16867142Y1081819D01*
X16771904Y1129438D01*
X16724285Y1177057D01*
%TO.C,C1*%
X24992033Y5644957D02*
X24944414Y5597338D01*
X24801557Y5549719D01*
X24706319Y5549719D01*
X24563461Y5597338D01*
X24468223Y5692576D01*
X24420604Y5787814D01*
X24372985Y5978290D01*
X24372985Y6121147D01*
X24420604Y6311623D01*
X24468223Y6406861D01*
X24563461Y6502100D01*
X24706319Y6549719D01*
X24801557Y6549719D01*
X24944414Y6502100D01*
X24992033Y6454480D01*
X25944414Y5549719D02*
X25372985Y5549719D01*
X25658700Y5549719D02*
X25658700Y6549719D01*
X25563461Y6406861D01*
X25468223Y6311623D01*
X25372985Y6264004D01*
%TO.C,U2*%
X3619595Y7527619D02*
X3619595Y6718095D01*
X3667214Y6622857D01*
X3714833Y6575238D01*
X3810071Y6527619D01*
X4000547Y6527619D01*
X4095785Y6575238D01*
X4143404Y6622857D01*
X4191023Y6718095D01*
X4191023Y7527619D01*
X4619595Y7432380D02*
X4667214Y7480000D01*
X4762452Y7527619D01*
X5000547Y7527619D01*
X5095785Y7480000D01*
X5143404Y7432380D01*
X5191023Y7337142D01*
X5191023Y7241904D01*
X5143404Y7099047D01*
X4571976Y6527619D01*
X5191023Y6527619D01*
%TO.C,D1*%
X29894304Y19258019D02*
X29894304Y20258019D01*
X30132400Y20258019D01*
X30275257Y20210400D01*
X30370495Y20115161D01*
X30418114Y20019923D01*
X30465733Y19829447D01*
X30465733Y19686590D01*
X30418114Y19496114D01*
X30370495Y19400876D01*
X30275257Y19305638D01*
X30132400Y19258019D01*
X29894304Y19258019D01*
X31418114Y19258019D02*
X30846685Y19258019D01*
X31132400Y19258019D02*
X31132400Y20258019D01*
X31037161Y20115161D01*
X30941923Y20019923D01*
X30846685Y19972304D01*
%TO.C,C8*%
X13470633Y531857D02*
X13423014Y484238D01*
X13280157Y436619D01*
X13184919Y436619D01*
X13042061Y484238D01*
X12946823Y579476D01*
X12899204Y674714D01*
X12851585Y865190D01*
X12851585Y1008047D01*
X12899204Y1198523D01*
X12946823Y1293761D01*
X13042061Y1389000D01*
X13184919Y1436619D01*
X13280157Y1436619D01*
X13423014Y1389000D01*
X13470633Y1341380D01*
X14042061Y1008047D02*
X13946823Y1055666D01*
X13899204Y1103285D01*
X13851585Y1198523D01*
X13851585Y1246142D01*
X13899204Y1341380D01*
X13946823Y1389000D01*
X14042061Y1436619D01*
X14232538Y1436619D01*
X14327776Y1389000D01*
X14375395Y1341380D01*
X14423014Y1246142D01*
X14423014Y1198523D01*
X14375395Y1103285D01*
X14327776Y1055666D01*
X14232538Y1008047D01*
X14042061Y1008047D01*
X13946823Y960428D01*
X13899204Y912809D01*
X13851585Y817571D01*
X13851585Y627095D01*
X13899204Y531857D01*
X13946823Y484238D01*
X14042061Y436619D01*
X14232538Y436619D01*
X14327776Y484238D01*
X14375395Y531857D01*
X14423014Y627095D01*
X14423014Y817571D01*
X14375395Y912809D01*
X14327776Y960428D01*
X14232538Y1008047D01*
%TO.C,C7*%
X12888933Y6069057D02*
X12841314Y6021438D01*
X12698457Y5973819D01*
X12603219Y5973819D01*
X12460361Y6021438D01*
X12365123Y6116676D01*
X12317504Y6211914D01*
X12269885Y6402390D01*
X12269885Y6545247D01*
X12317504Y6735723D01*
X12365123Y6830961D01*
X12460361Y6926200D01*
X12603219Y6973819D01*
X12698457Y6973819D01*
X12841314Y6926200D01*
X12888933Y6878580D01*
X13222266Y6973819D02*
X13888933Y6973819D01*
X13460361Y5973819D01*
%TO.C,C3*%
X13236857Y20423166D02*
X13189238Y20470785D01*
X13141619Y20613642D01*
X13141619Y20708880D01*
X13189238Y20851738D01*
X13284476Y20946976D01*
X13379714Y20994595D01*
X13570190Y21042214D01*
X13713047Y21042214D01*
X13903523Y20994595D01*
X13998761Y20946976D01*
X14094000Y20851738D01*
X14141619Y20708880D01*
X14141619Y20613642D01*
X14094000Y20470785D01*
X14046380Y20423166D01*
X14141619Y20089833D02*
X14141619Y19470785D01*
X13760666Y19804119D01*
X13760666Y19661261D01*
X13713047Y19566023D01*
X13665428Y19518404D01*
X13570190Y19470785D01*
X13332095Y19470785D01*
X13236857Y19518404D01*
X13189238Y19566023D01*
X13141619Y19661261D01*
X13141619Y19946976D01*
X13189238Y20042214D01*
X13236857Y20089833D01*
%TO.C,J1*%
X2266666Y18647619D02*
X2266666Y17933333D01*
X2219047Y17790476D01*
X2123809Y17695238D01*
X1980952Y17647619D01*
X1885714Y17647619D01*
X3266666Y17647619D02*
X2695238Y17647619D01*
X2980952Y17647619D02*
X2980952Y18647619D01*
X2885714Y18504761D01*
X2790476Y18409523D01*
X2695238Y18361904D01*
%TO.C,U1*%
X11620595Y18518119D02*
X11620595Y17708595D01*
X11668214Y17613357D01*
X11715833Y17565738D01*
X11811071Y17518119D01*
X12001547Y17518119D01*
X12096785Y17565738D01*
X12144404Y17613357D01*
X12192023Y17708595D01*
X12192023Y18518119D01*
X13192023Y17518119D02*
X12620595Y17518119D01*
X12906309Y17518119D02*
X12906309Y18518119D01*
X12811071Y18375261D01*
X12715833Y18280023D01*
X12620595Y18232404D01*
%TO.C,TP3*%
X32452380Y11628595D02*
X32452380Y12200023D01*
X33452380Y11914309D02*
X32452380Y11914309D01*
X33452380Y12533357D02*
X32452380Y12533357D01*
X32452380Y12914309D01*
X32500000Y13009547D01*
X32547619Y13057166D01*
X32642857Y13104785D01*
X32785714Y13104785D01*
X32880952Y13057166D01*
X32928571Y13009547D01*
X32976190Y12914309D01*
X32976190Y12533357D01*
X32452380Y13438119D02*
X32452380Y14057166D01*
X32833333Y13723833D01*
X32833333Y13866690D01*
X32880952Y13961928D01*
X32928571Y14009547D01*
X33023809Y14057166D01*
X33261904Y14057166D01*
X33357142Y14009547D01*
X33404761Y13961928D01*
X33452380Y13866690D01*
X33452380Y13580976D01*
X33404761Y13485738D01*
X33357142Y13438119D01*
%TO.C,TP2*%
X29202380Y14238095D02*
X29202380Y14809523D01*
X30202380Y14523809D02*
X29202380Y14523809D01*
X30202380Y15142857D02*
X29202380Y15142857D01*
X29202380Y15523809D01*
X29250000Y15619047D01*
X29297619Y15666666D01*
X29392857Y15714285D01*
X29535714Y15714285D01*
X29630952Y15666666D01*
X29678571Y15619047D01*
X29726190Y15523809D01*
X29726190Y15142857D01*
X29297619Y16095238D02*
X29250000Y16142857D01*
X29202380Y16238095D01*
X29202380Y16476190D01*
X29250000Y16571428D01*
X29297619Y16619047D01*
X29392857Y16666666D01*
X29488095Y16666666D01*
X29630952Y16619047D01*
X30202380Y16047619D01*
X30202380Y16666666D01*
%TO.C,R9*%
X34183580Y10653733D02*
X33707390Y10320400D01*
X34183580Y10082304D02*
X33183580Y10082304D01*
X33183580Y10463257D01*
X33231200Y10558495D01*
X33278819Y10606114D01*
X33374057Y10653733D01*
X33516914Y10653733D01*
X33612152Y10606114D01*
X33659771Y10558495D01*
X33707390Y10463257D01*
X33707390Y10082304D01*
X34183580Y11129923D02*
X34183580Y11320400D01*
X34135961Y11415638D01*
X34088342Y11463257D01*
X33945485Y11558495D01*
X33755009Y11606114D01*
X33374057Y11606114D01*
X33278819Y11558495D01*
X33231200Y11510876D01*
X33183580Y11415638D01*
X33183580Y11225161D01*
X33231200Y11129923D01*
X33278819Y11082304D01*
X33374057Y11034685D01*
X33612152Y11034685D01*
X33707390Y11082304D01*
X33755009Y11129923D01*
X33802628Y11225161D01*
X33802628Y11415638D01*
X33755009Y11510876D01*
X33707390Y11558495D01*
X33612152Y11606114D01*
%TO.C,R8*%
X35647333Y10063219D02*
X35314000Y10539409D01*
X35075904Y10063219D02*
X35075904Y11063219D01*
X35456857Y11063219D01*
X35552095Y11015600D01*
X35599714Y10967980D01*
X35647333Y10872742D01*
X35647333Y10729885D01*
X35599714Y10634647D01*
X35552095Y10587028D01*
X35456857Y10539409D01*
X35075904Y10539409D01*
X36218761Y10634647D02*
X36123523Y10682266D01*
X36075904Y10729885D01*
X36028285Y10825123D01*
X36028285Y10872742D01*
X36075904Y10967980D01*
X36123523Y11015600D01*
X36218761Y11063219D01*
X36409238Y11063219D01*
X36504476Y11015600D01*
X36552095Y10967980D01*
X36599714Y10872742D01*
X36599714Y10825123D01*
X36552095Y10729885D01*
X36504476Y10682266D01*
X36409238Y10634647D01*
X36218761Y10634647D01*
X36123523Y10587028D01*
X36075904Y10539409D01*
X36028285Y10444171D01*
X36028285Y10253695D01*
X36075904Y10158457D01*
X36123523Y10110838D01*
X36218761Y10063219D01*
X36409238Y10063219D01*
X36504476Y10110838D01*
X36552095Y10158457D01*
X36599714Y10253695D01*
X36599714Y10444171D01*
X36552095Y10539409D01*
X36504476Y10587028D01*
X36409238Y10634647D01*
%TO.C,R7*%
X31999180Y10602933D02*
X31522990Y10269600D01*
X31999180Y10031504D02*
X30999180Y10031504D01*
X30999180Y10412457D01*
X31046800Y10507695D01*
X31094419Y10555314D01*
X31189657Y10602933D01*
X31332514Y10602933D01*
X31427752Y10555314D01*
X31475371Y10507695D01*
X31522990Y10412457D01*
X31522990Y10031504D01*
X30999180Y10936266D02*
X30999180Y11602933D01*
X31999180Y11174361D01*
%TO.C,R6*%
X24776133Y17632419D02*
X24442800Y18108609D01*
X24204704Y17632419D02*
X24204704Y18632419D01*
X24585657Y18632419D01*
X24680895Y18584800D01*
X24728514Y18537180D01*
X24776133Y18441942D01*
X24776133Y18299085D01*
X24728514Y18203847D01*
X24680895Y18156228D01*
X24585657Y18108609D01*
X24204704Y18108609D01*
X25633276Y18632419D02*
X25442800Y18632419D01*
X25347561Y18584800D01*
X25299942Y18537180D01*
X25204704Y18394323D01*
X25157085Y18203847D01*
X25157085Y17822895D01*
X25204704Y17727657D01*
X25252323Y17680038D01*
X25347561Y17632419D01*
X25538038Y17632419D01*
X25633276Y17680038D01*
X25680895Y17727657D01*
X25728514Y17822895D01*
X25728514Y18060990D01*
X25680895Y18156228D01*
X25633276Y18203847D01*
X25538038Y18251466D01*
X25347561Y18251466D01*
X25252323Y18203847D01*
X25204704Y18156228D01*
X25157085Y18060990D01*
%TO.C,R5*%
X35758380Y14184333D02*
X35282190Y13851000D01*
X35758380Y13612904D02*
X34758380Y13612904D01*
X34758380Y13993857D01*
X34806000Y14089095D01*
X34853619Y14136714D01*
X34948857Y14184333D01*
X35091714Y14184333D01*
X35186952Y14136714D01*
X35234571Y14089095D01*
X35282190Y13993857D01*
X35282190Y13612904D01*
X34758380Y15089095D02*
X34758380Y14612904D01*
X35234571Y14565285D01*
X35186952Y14612904D01*
X35139333Y14708142D01*
X35139333Y14946238D01*
X35186952Y15041476D01*
X35234571Y15089095D01*
X35329809Y15136714D01*
X35567904Y15136714D01*
X35663142Y15089095D01*
X35710761Y15041476D01*
X35758380Y14946238D01*
X35758380Y14708142D01*
X35710761Y14612904D01*
X35663142Y14565285D01*
%TO.C,R4*%
X26741380Y14438333D02*
X26265190Y14105000D01*
X26741380Y13866904D02*
X25741380Y13866904D01*
X25741380Y14247857D01*
X25789000Y14343095D01*
X25836619Y14390714D01*
X25931857Y14438333D01*
X26074714Y14438333D01*
X26169952Y14390714D01*
X26217571Y14343095D01*
X26265190Y14247857D01*
X26265190Y13866904D01*
X26074714Y15295476D02*
X26741380Y15295476D01*
X25693761Y15057380D02*
X26408047Y14819285D01*
X26408047Y15438333D01*
%TO.C,R3*%
X28294033Y23806519D02*
X27960700Y24282709D01*
X27722604Y23806519D02*
X27722604Y24806519D01*
X28103557Y24806519D01*
X28198795Y24758900D01*
X28246414Y24711280D01*
X28294033Y24616042D01*
X28294033Y24473185D01*
X28246414Y24377947D01*
X28198795Y24330328D01*
X28103557Y24282709D01*
X27722604Y24282709D01*
X28627366Y24806519D02*
X29246414Y24806519D01*
X28913080Y24425566D01*
X29055938Y24425566D01*
X29151176Y24377947D01*
X29198795Y24330328D01*
X29246414Y24235090D01*
X29246414Y23996995D01*
X29198795Y23901757D01*
X29151176Y23854138D01*
X29055938Y23806519D01*
X28770223Y23806519D01*
X28674985Y23854138D01*
X28627366Y23901757D01*
%TO.C,R2*%
X7802380Y15308333D02*
X7326190Y14975000D01*
X7802380Y14736904D02*
X6802380Y14736904D01*
X6802380Y15117857D01*
X6850000Y15213095D01*
X6897619Y15260714D01*
X6992857Y15308333D01*
X7135714Y15308333D01*
X7230952Y15260714D01*
X7278571Y15213095D01*
X7326190Y15117857D01*
X7326190Y14736904D01*
X6897619Y15689285D02*
X6850000Y15736904D01*
X6802380Y15832142D01*
X6802380Y16070238D01*
X6850000Y16165476D01*
X6897619Y16213095D01*
X6992857Y16260714D01*
X7088095Y16260714D01*
X7230952Y16213095D01*
X7802380Y15641666D01*
X7802380Y16260714D01*
%TO.C,R1*%
X7802380Y13333333D02*
X7326190Y13000000D01*
X7802380Y12761904D02*
X6802380Y12761904D01*
X6802380Y13142857D01*
X6850000Y13238095D01*
X6897619Y13285714D01*
X6992857Y13333333D01*
X7135714Y13333333D01*
X7230952Y13285714D01*
X7278571Y13238095D01*
X7326190Y13142857D01*
X7326190Y12761904D01*
X7802380Y14285714D02*
X7802380Y13714285D01*
X7802380Y14000000D02*
X6802380Y14000000D01*
X6945238Y13904761D01*
X7040476Y13809523D01*
X7088095Y13714285D01*
%TO.C,JP3*%
X29128880Y10230666D02*
X29843166Y10230666D01*
X29986023Y10183047D01*
X30081261Y10087809D01*
X30128880Y9944952D01*
X30128880Y9849714D01*
X30128880Y10706857D02*
X29128880Y10706857D01*
X29128880Y11087809D01*
X29176500Y11183047D01*
X29224119Y11230666D01*
X29319357Y11278285D01*
X29462214Y11278285D01*
X29557452Y11230666D01*
X29605071Y11183047D01*
X29652690Y11087809D01*
X29652690Y10706857D01*
X29128880Y11611619D02*
X29128880Y12230666D01*
X29509833Y11897333D01*
X29509833Y12040190D01*
X29557452Y12135428D01*
X29605071Y12183047D01*
X29700309Y12230666D01*
X29938404Y12230666D01*
X30033642Y12183047D01*
X30081261Y12135428D01*
X30128880Y12040190D01*
X30128880Y11754476D01*
X30081261Y11659238D01*
X30033642Y11611619D01*
%TO.C,JP2*%
X40202380Y14916666D02*
X40916666Y14916666D01*
X41059523Y14869047D01*
X41154761Y14773809D01*
X41202380Y14630952D01*
X41202380Y14535714D01*
X41202380Y15392857D02*
X40202380Y15392857D01*
X40202380Y15773809D01*
X40250000Y15869047D01*
X40297619Y15916666D01*
X40392857Y15964285D01*
X40535714Y15964285D01*
X40630952Y15916666D01*
X40678571Y15869047D01*
X40726190Y15773809D01*
X40726190Y15392857D01*
X40297619Y16345238D02*
X40250000Y16392857D01*
X40202380Y16488095D01*
X40202380Y16726190D01*
X40250000Y16821428D01*
X40297619Y16869047D01*
X40392857Y16916666D01*
X40488095Y16916666D01*
X40630952Y16869047D01*
X41202380Y16297619D01*
X41202380Y16916666D01*
%TO.C,C6*%
X25583333Y7142857D02*
X25535714Y7095238D01*
X25392857Y7047619D01*
X25297619Y7047619D01*
X25154761Y7095238D01*
X25059523Y7190476D01*
X25011904Y7285714D01*
X24964285Y7476190D01*
X24964285Y7619047D01*
X25011904Y7809523D01*
X25059523Y7904761D01*
X25154761Y8000000D01*
X25297619Y8047619D01*
X25392857Y8047619D01*
X25535714Y8000000D01*
X25583333Y7952380D01*
X26440476Y8047619D02*
X26250000Y8047619D01*
X26154761Y8000000D01*
X26107142Y7952380D01*
X26011904Y7809523D01*
X25964285Y7619047D01*
X25964285Y7238095D01*
X26011904Y7142857D01*
X26059523Y7095238D01*
X26154761Y7047619D01*
X26345238Y7047619D01*
X26440476Y7095238D01*
X26488095Y7142857D01*
X26535714Y7238095D01*
X26535714Y7476190D01*
X26488095Y7571428D01*
X26440476Y7619047D01*
X26345238Y7666666D01*
X26154761Y7666666D01*
X26059523Y7619047D01*
X26011904Y7571428D01*
X25964285Y7476190D01*
%TO.C,C4*%
X7711142Y10964333D02*
X7758761Y10916714D01*
X7806380Y10773857D01*
X7806380Y10678619D01*
X7758761Y10535761D01*
X7663523Y10440523D01*
X7568285Y10392904D01*
X7377809Y10345285D01*
X7234952Y10345285D01*
X7044476Y10392904D01*
X6949238Y10440523D01*
X6854000Y10535761D01*
X6806380Y10678619D01*
X6806380Y10773857D01*
X6854000Y10916714D01*
X6901619Y10964333D01*
X7139714Y11821476D02*
X7806380Y11821476D01*
X6758761Y11583380D02*
X7473047Y11345285D01*
X7473047Y11964333D01*
%TD*%
%LPC*%
D13*
%TO.C,J2*%
X45750000Y10000000D03*
X43210000Y10000000D03*
X45750000Y12540000D03*
X43210000Y12540000D03*
X45750000Y15080000D03*
D14*
X43210000Y15080000D03*
%TD*%
D15*
%TO.C,JPROG1*%
X18923000Y20955000D03*
D16*
X18923000Y22225000D03*
X20193000Y20955000D03*
X20193000Y22225000D03*
X21463000Y20955000D03*
X21463000Y22225000D03*
X22733000Y20955000D03*
X22733000Y22225000D03*
X24003000Y20955000D03*
X24003000Y22225000D03*
%TD*%
%TO.C,F1*%
G36*
G01*
X9225000Y17900001D02*
X9225000Y16999999D01*
G75*
G02*
X8975001Y16750000I-249999J0D01*
G01*
X8449999Y16750000D01*
G75*
G02*
X8200000Y16999999I0J249999D01*
G01*
X8200000Y17900001D01*
G75*
G02*
X8449999Y18150000I249999J0D01*
G01*
X8975001Y18150000D01*
G75*
G02*
X9225000Y17900001I0J-249999D01*
G01*
G37*
G36*
G01*
X11050000Y17900001D02*
X11050000Y16999999D01*
G75*
G02*
X10800001Y16750000I-249999J0D01*
G01*
X10274999Y16750000D01*
G75*
G02*
X10025000Y16999999I0J249999D01*
G01*
X10025000Y17900001D01*
G75*
G02*
X10274999Y18150000I249999J0D01*
G01*
X10800001Y18150000D01*
G75*
G02*
X11050000Y17900001I0J-249999D01*
G01*
G37*
%TD*%
%TO.C,C9*%
G36*
G01*
X26852900Y20419400D02*
X25902900Y20419400D01*
G75*
G02*
X25652900Y20669400I0J250000D01*
G01*
X25652900Y21169400D01*
G75*
G02*
X25902900Y21419400I250000J0D01*
G01*
X26852900Y21419400D01*
G75*
G02*
X27102900Y21169400I0J-250000D01*
G01*
X27102900Y20669400D01*
G75*
G02*
X26852900Y20419400I-250000J0D01*
G01*
G37*
G36*
G01*
X26852900Y22319400D02*
X25902900Y22319400D01*
G75*
G02*
X25652900Y22569400I0J250000D01*
G01*
X25652900Y23069400D01*
G75*
G02*
X25902900Y23319400I250000J0D01*
G01*
X26852900Y23319400D01*
G75*
G02*
X27102900Y23069400I0J-250000D01*
G01*
X27102900Y22569400D01*
G75*
G02*
X26852900Y22319400I-250000J0D01*
G01*
G37*
%TD*%
%TO.C,C2*%
G36*
G01*
X18079700Y5046600D02*
X19029700Y5046600D01*
G75*
G02*
X19279700Y4796600I0J-250000D01*
G01*
X19279700Y4296600D01*
G75*
G02*
X19029700Y4046600I-250000J0D01*
G01*
X18079700Y4046600D01*
G75*
G02*
X17829700Y4296600I0J250000D01*
G01*
X17829700Y4796600D01*
G75*
G02*
X18079700Y5046600I250000J0D01*
G01*
G37*
G36*
G01*
X18079700Y3146600D02*
X19029700Y3146600D01*
G75*
G02*
X19279700Y2896600I0J-250000D01*
G01*
X19279700Y2396600D01*
G75*
G02*
X19029700Y2146600I-250000J0D01*
G01*
X18079700Y2146600D01*
G75*
G02*
X17829700Y2396600I0J250000D01*
G01*
X17829700Y2896600D01*
G75*
G02*
X18079700Y3146600I250000J0D01*
G01*
G37*
%TD*%
D17*
%TO.C,Y1*%
X22893200Y4444100D03*
X20693200Y4444100D03*
X20693200Y2744100D03*
X22893200Y2744100D03*
%TD*%
%TO.C,R10*%
G36*
G01*
X27937500Y5450002D02*
X27937500Y4549998D01*
G75*
G02*
X27687502Y4300000I-249998J0D01*
G01*
X27162498Y4300000D01*
G75*
G02*
X26912500Y4549998I0J249998D01*
G01*
X26912500Y5450002D01*
G75*
G02*
X27162498Y5700000I249998J0D01*
G01*
X27687502Y5700000D01*
G75*
G02*
X27937500Y5450002I0J-249998D01*
G01*
G37*
G36*
G01*
X29762500Y5450002D02*
X29762500Y4549998D01*
G75*
G02*
X29512502Y4300000I-249998J0D01*
G01*
X28987498Y4300000D01*
G75*
G02*
X28737500Y4549998I0J249998D01*
G01*
X28737500Y5450002D01*
G75*
G02*
X28987498Y5700000I249998J0D01*
G01*
X29512502Y5700000D01*
G75*
G02*
X29762500Y5450002I0J-249998D01*
G01*
G37*
%TD*%
%TO.C,R11*%
G36*
G01*
X31600000Y5450002D02*
X31600000Y4549998D01*
G75*
G02*
X31350002Y4300000I-249998J0D01*
G01*
X30824998Y4300000D01*
G75*
G02*
X30575000Y4549998I0J249998D01*
G01*
X30575000Y5450002D01*
G75*
G02*
X30824998Y5700000I249998J0D01*
G01*
X31350002Y5700000D01*
G75*
G02*
X31600000Y5450002I0J-249998D01*
G01*
G37*
G36*
G01*
X33425000Y5450002D02*
X33425000Y4549998D01*
G75*
G02*
X33175002Y4300000I-249998J0D01*
G01*
X32649998Y4300000D01*
G75*
G02*
X32400000Y4549998I0J249998D01*
G01*
X32400000Y5450002D01*
G75*
G02*
X32649998Y5700000I249998J0D01*
G01*
X33175002Y5700000D01*
G75*
G02*
X33425000Y5450002I0J-249998D01*
G01*
G37*
%TD*%
%TO.C,C5*%
G36*
G01*
X16985000Y4397200D02*
X16035000Y4397200D01*
G75*
G02*
X15785000Y4647200I0J250000D01*
G01*
X15785000Y5147200D01*
G75*
G02*
X16035000Y5397200I250000J0D01*
G01*
X16985000Y5397200D01*
G75*
G02*
X17235000Y5147200I0J-250000D01*
G01*
X17235000Y4647200D01*
G75*
G02*
X16985000Y4397200I-250000J0D01*
G01*
G37*
G36*
G01*
X16985000Y2497200D02*
X16035000Y2497200D01*
G75*
G02*
X15785000Y2747200I0J250000D01*
G01*
X15785000Y3247200D01*
G75*
G02*
X16035000Y3497200I250000J0D01*
G01*
X16985000Y3497200D01*
G75*
G02*
X17235000Y3247200I0J-250000D01*
G01*
X17235000Y2747200D01*
G75*
G02*
X16985000Y2497200I-250000J0D01*
G01*
G37*
%TD*%
%TO.C,C1*%
G36*
G01*
X25633700Y2141600D02*
X24683700Y2141600D01*
G75*
G02*
X24433700Y2391600I0J250000D01*
G01*
X24433700Y2891600D01*
G75*
G02*
X24683700Y3141600I250000J0D01*
G01*
X25633700Y3141600D01*
G75*
G02*
X25883700Y2891600I0J-250000D01*
G01*
X25883700Y2391600D01*
G75*
G02*
X25633700Y2141600I-250000J0D01*
G01*
G37*
G36*
G01*
X25633700Y4041600D02*
X24683700Y4041600D01*
G75*
G02*
X24433700Y4291600I0J250000D01*
G01*
X24433700Y4791600D01*
G75*
G02*
X24683700Y5041600I250000J0D01*
G01*
X25633700Y5041600D01*
G75*
G02*
X25883700Y4791600I0J-250000D01*
G01*
X25883700Y4291600D01*
G75*
G02*
X25633700Y4041600I-250000J0D01*
G01*
G37*
%TD*%
D18*
%TO.C,U2*%
X10770000Y1669500D03*
X10770000Y6269500D03*
X10770000Y3969500D03*
D19*
X4470000Y3969500D03*
%TD*%
D20*
%TO.C,SW1*%
X12250000Y21116000D03*
X9250000Y21116000D03*
X7750000Y21116000D03*
D21*
X6200000Y24341000D03*
X13800000Y24341000D03*
X13800000Y22141000D03*
X6200000Y22141000D03*
D22*
X11500000Y23241000D03*
X8500000Y23241000D03*
%TD*%
%TO.C,D1*%
G36*
G01*
X31387200Y17628550D02*
X31387200Y18541050D01*
G75*
G02*
X31630950Y18784800I243750J0D01*
G01*
X32118450Y18784800D01*
G75*
G02*
X32362200Y18541050I0J-243750D01*
G01*
X32362200Y17628550D01*
G75*
G02*
X32118450Y17384800I-243750J0D01*
G01*
X31630950Y17384800D01*
G75*
G02*
X31387200Y17628550I0J243750D01*
G01*
G37*
G36*
G01*
X29512200Y17628550D02*
X29512200Y18541050D01*
G75*
G02*
X29755950Y18784800I243750J0D01*
G01*
X30243450Y18784800D01*
G75*
G02*
X30487200Y18541050I0J-243750D01*
G01*
X30487200Y17628550D01*
G75*
G02*
X30243450Y17384800I-243750J0D01*
G01*
X29755950Y17384800D01*
G75*
G02*
X29512200Y17628550I0J243750D01*
G01*
G37*
%TD*%
%TO.C,C8*%
G36*
G01*
X14216800Y2319000D02*
X14216800Y3269000D01*
G75*
G02*
X14466800Y3519000I250000J0D01*
G01*
X14966800Y3519000D01*
G75*
G02*
X15216800Y3269000I0J-250000D01*
G01*
X15216800Y2319000D01*
G75*
G02*
X14966800Y2069000I-250000J0D01*
G01*
X14466800Y2069000D01*
G75*
G02*
X14216800Y2319000I0J250000D01*
G01*
G37*
G36*
G01*
X12316800Y2319000D02*
X12316800Y3269000D01*
G75*
G02*
X12566800Y3519000I250000J0D01*
G01*
X13066800Y3519000D01*
G75*
G02*
X13316800Y3269000I0J-250000D01*
G01*
X13316800Y2319000D01*
G75*
G02*
X13066800Y2069000I-250000J0D01*
G01*
X12566800Y2069000D01*
G75*
G02*
X12316800Y2319000I0J250000D01*
G01*
G37*
%TD*%
%TO.C,C7*%
G36*
G01*
X14201600Y4300200D02*
X14201600Y5250200D01*
G75*
G02*
X14451600Y5500200I250000J0D01*
G01*
X14951600Y5500200D01*
G75*
G02*
X15201600Y5250200I0J-250000D01*
G01*
X15201600Y4300200D01*
G75*
G02*
X14951600Y4050200I-250000J0D01*
G01*
X14451600Y4050200D01*
G75*
G02*
X14201600Y4300200I0J250000D01*
G01*
G37*
G36*
G01*
X12301600Y4300200D02*
X12301600Y5250200D01*
G75*
G02*
X12551600Y5500200I250000J0D01*
G01*
X13051600Y5500200D01*
G75*
G02*
X13301600Y5250200I0J-250000D01*
G01*
X13301600Y4300200D01*
G75*
G02*
X13051600Y4050200I-250000J0D01*
G01*
X12551600Y4050200D01*
G75*
G02*
X12301600Y4300200I0J250000D01*
G01*
G37*
%TD*%
%TO.C,C3*%
G36*
G01*
X16391000Y19845000D02*
X16391000Y20795000D01*
G75*
G02*
X16641000Y21045000I250000J0D01*
G01*
X17141000Y21045000D01*
G75*
G02*
X17391000Y20795000I0J-250000D01*
G01*
X17391000Y19845000D01*
G75*
G02*
X17141000Y19595000I-250000J0D01*
G01*
X16641000Y19595000D01*
G75*
G02*
X16391000Y19845000I0J250000D01*
G01*
G37*
G36*
G01*
X14491000Y19845000D02*
X14491000Y20795000D01*
G75*
G02*
X14741000Y21045000I250000J0D01*
G01*
X15241000Y21045000D01*
G75*
G02*
X15491000Y20795000I0J-250000D01*
G01*
X15491000Y19845000D01*
G75*
G02*
X15241000Y19595000I-250000J0D01*
G01*
X14741000Y19595000D01*
G75*
G02*
X14491000Y19845000I0J250000D01*
G01*
G37*
%TD*%
D23*
%TO.C,J1*%
X5500000Y12500000D03*
X5500000Y13150000D03*
X5500000Y13800000D03*
X5500000Y11850000D03*
X5500000Y11200000D03*
D24*
X4780000Y14500000D03*
X4780000Y10500000D03*
D25*
X5309500Y9250000D03*
X5309500Y15750000D03*
D26*
X2630000Y8425000D03*
X2630000Y16575000D03*
D27*
X1459500Y14000000D03*
X1459500Y11000000D03*
%TD*%
D13*
%TO.C,J3*%
X33580000Y2250000D03*
X31040000Y2250000D03*
D14*
X28500000Y2250000D03*
%TD*%
D20*
%TO.C,SW2*%
X40250000Y21116000D03*
X37250000Y21116000D03*
X35750000Y21116000D03*
D21*
X34200000Y24341000D03*
X41800000Y24341000D03*
X41800000Y22141000D03*
X34200000Y22141000D03*
D22*
X39500000Y23241000D03*
X36500000Y23241000D03*
%TD*%
D28*
%TO.C,H2*%
X2500000Y22500000D03*
%TD*%
%TO.C,H1*%
X45500000Y2500000D03*
%TD*%
D29*
%TO.C,FID2*%
X46000000Y23000000D03*
%TD*%
%TO.C,FID1*%
X2000000Y2000000D03*
%TD*%
D30*
%TO.C,U1*%
X13050000Y16500000D03*
X13050000Y15700000D03*
X13050000Y14900000D03*
X13050000Y14100000D03*
X13050000Y13300000D03*
X13050000Y12500000D03*
X13050000Y11700000D03*
X13050000Y10900000D03*
X13050000Y10100000D03*
X13050000Y9300000D03*
X13050000Y8500000D03*
D31*
X14750000Y6800000D03*
X15550000Y6800000D03*
X16350000Y6800000D03*
X17150000Y6800000D03*
X17950000Y6800000D03*
X18750000Y6800000D03*
X19550000Y6800000D03*
X20350000Y6800000D03*
X21150000Y6800000D03*
X21950000Y6800000D03*
X22750000Y6800000D03*
D30*
X24450000Y8500000D03*
X24450000Y9300000D03*
X24450000Y10100000D03*
X24450000Y10900000D03*
X24450000Y11700000D03*
X24450000Y12500000D03*
X24450000Y13300000D03*
X24450000Y14100000D03*
X24450000Y14900000D03*
X24450000Y15700000D03*
X24450000Y16500000D03*
D31*
X22750000Y18200000D03*
X21950000Y18200000D03*
X21150000Y18200000D03*
X20350000Y18200000D03*
X19550000Y18200000D03*
X18750000Y18200000D03*
X17950000Y18200000D03*
X17150000Y18200000D03*
X16350000Y18200000D03*
X15550000Y18200000D03*
X14750000Y18200000D03*
%TD*%
D32*
%TO.C,TP3*%
X31305500Y12827000D03*
%TD*%
%TO.C,TP2*%
X31305500Y15430500D03*
%TD*%
%TO.C,R9*%
G36*
G01*
X33204998Y7918500D02*
X34105002Y7918500D01*
G75*
G02*
X34355000Y7668502I0J-249998D01*
G01*
X34355000Y7143498D01*
G75*
G02*
X34105002Y6893500I-249998J0D01*
G01*
X33204998Y6893500D01*
G75*
G02*
X32955000Y7143498I0J249998D01*
G01*
X32955000Y7668502D01*
G75*
G02*
X33204998Y7918500I249998J0D01*
G01*
G37*
G36*
G01*
X33204998Y9743500D02*
X34105002Y9743500D01*
G75*
G02*
X34355000Y9493502I0J-249998D01*
G01*
X34355000Y8968498D01*
G75*
G02*
X34105002Y8718500I-249998J0D01*
G01*
X33204998Y8718500D01*
G75*
G02*
X32955000Y8968498I0J249998D01*
G01*
X32955000Y9493502D01*
G75*
G02*
X33204998Y9743500I249998J0D01*
G01*
G37*
%TD*%
%TO.C,R8*%
G36*
G01*
X35300498Y7895000D02*
X36200502Y7895000D01*
G75*
G02*
X36450500Y7645002I0J-249998D01*
G01*
X36450500Y7119998D01*
G75*
G02*
X36200502Y6870000I-249998J0D01*
G01*
X35300498Y6870000D01*
G75*
G02*
X35050500Y7119998I0J249998D01*
G01*
X35050500Y7645002D01*
G75*
G02*
X35300498Y7895000I249998J0D01*
G01*
G37*
G36*
G01*
X35300498Y9720000D02*
X36200502Y9720000D01*
G75*
G02*
X36450500Y9470002I0J-249998D01*
G01*
X36450500Y8944998D01*
G75*
G02*
X36200502Y8695000I-249998J0D01*
G01*
X35300498Y8695000D01*
G75*
G02*
X35050500Y8944998I0J249998D01*
G01*
X35050500Y9470002D01*
G75*
G02*
X35300498Y9720000I249998J0D01*
G01*
G37*
%TD*%
%TO.C,R7*%
G36*
G01*
X31109498Y7918500D02*
X32009502Y7918500D01*
G75*
G02*
X32259500Y7668502I0J-249998D01*
G01*
X32259500Y7143498D01*
G75*
G02*
X32009502Y6893500I-249998J0D01*
G01*
X31109498Y6893500D01*
G75*
G02*
X30859500Y7143498I0J249998D01*
G01*
X30859500Y7668502D01*
G75*
G02*
X31109498Y7918500I249998J0D01*
G01*
G37*
G36*
G01*
X31109498Y9743500D02*
X32009502Y9743500D01*
G75*
G02*
X32259500Y9493502I0J-249998D01*
G01*
X32259500Y8968498D01*
G75*
G02*
X32009502Y8718500I-249998J0D01*
G01*
X31109498Y8718500D01*
G75*
G02*
X30859500Y8968498I0J249998D01*
G01*
X30859500Y9493502D01*
G75*
G02*
X31109498Y9743500I249998J0D01*
G01*
G37*
%TD*%
%TO.C,R6*%
G36*
G01*
X26983100Y18534802D02*
X26983100Y17634798D01*
G75*
G02*
X26733102Y17384800I-249998J0D01*
G01*
X26208098Y17384800D01*
G75*
G02*
X25958100Y17634798I0J249998D01*
G01*
X25958100Y18534802D01*
G75*
G02*
X26208098Y18784800I249998J0D01*
G01*
X26733102Y18784800D01*
G75*
G02*
X26983100Y18534802I0J-249998D01*
G01*
G37*
G36*
G01*
X28808100Y18534802D02*
X28808100Y17634798D01*
G75*
G02*
X28558102Y17384800I-249998J0D01*
G01*
X28033098Y17384800D01*
G75*
G02*
X27783100Y17634798I0J249998D01*
G01*
X27783100Y18534802D01*
G75*
G02*
X28033098Y18784800I249998J0D01*
G01*
X28558102Y18784800D01*
G75*
G02*
X28808100Y18534802I0J-249998D01*
G01*
G37*
%TD*%
%TO.C,R5*%
G36*
G01*
X36379998Y14800000D02*
X37280002Y14800000D01*
G75*
G02*
X37530000Y14550002I0J-249998D01*
G01*
X37530000Y14024998D01*
G75*
G02*
X37280002Y13775000I-249998J0D01*
G01*
X36379998Y13775000D01*
G75*
G02*
X36130000Y14024998I0J249998D01*
G01*
X36130000Y14550002D01*
G75*
G02*
X36379998Y14800000I249998J0D01*
G01*
G37*
G36*
G01*
X36379998Y16625000D02*
X37280002Y16625000D01*
G75*
G02*
X37530000Y16375002I0J-249998D01*
G01*
X37530000Y15849998D01*
G75*
G02*
X37280002Y15600000I-249998J0D01*
G01*
X36379998Y15600000D01*
G75*
G02*
X36130000Y15849998I0J249998D01*
G01*
X36130000Y16375002D01*
G75*
G02*
X36379998Y16625000I249998J0D01*
G01*
G37*
%TD*%
%TO.C,R4*%
G36*
G01*
X28326502Y14965000D02*
X27426498Y14965000D01*
G75*
G02*
X27176500Y15214998I0J249998D01*
G01*
X27176500Y15740002D01*
G75*
G02*
X27426498Y15990000I249998J0D01*
G01*
X28326502Y15990000D01*
G75*
G02*
X28576500Y15740002I0J-249998D01*
G01*
X28576500Y15214998D01*
G75*
G02*
X28326502Y14965000I-249998J0D01*
G01*
G37*
G36*
G01*
X28326502Y13140000D02*
X27426498Y13140000D01*
G75*
G02*
X27176500Y13389998I0J249998D01*
G01*
X27176500Y13915002D01*
G75*
G02*
X27426498Y14165000I249998J0D01*
G01*
X28326502Y14165000D01*
G75*
G02*
X28576500Y13915002I0J-249998D01*
G01*
X28576500Y13389998D01*
G75*
G02*
X28326502Y13140000I-249998J0D01*
G01*
G37*
%TD*%
%TO.C,R3*%
G36*
G01*
X28847202Y22245900D02*
X27947198Y22245900D01*
G75*
G02*
X27697200Y22495898I0J249998D01*
G01*
X27697200Y23020902D01*
G75*
G02*
X27947198Y23270900I249998J0D01*
G01*
X28847202Y23270900D01*
G75*
G02*
X29097200Y23020902I0J-249998D01*
G01*
X29097200Y22495898D01*
G75*
G02*
X28847202Y22245900I-249998J0D01*
G01*
G37*
G36*
G01*
X28847202Y20420900D02*
X27947198Y20420900D01*
G75*
G02*
X27697200Y20670898I0J249998D01*
G01*
X27697200Y21195902D01*
G75*
G02*
X27947198Y21445900I249998J0D01*
G01*
X28847202Y21445900D01*
G75*
G02*
X29097200Y21195902I0J-249998D01*
G01*
X29097200Y20670898D01*
G75*
G02*
X28847202Y20420900I-249998J0D01*
G01*
G37*
%TD*%
%TO.C,R2*%
G36*
G01*
X9234000Y15880502D02*
X9234000Y14980498D01*
G75*
G02*
X8984002Y14730500I-249998J0D01*
G01*
X8458998Y14730500D01*
G75*
G02*
X8209000Y14980498I0J249998D01*
G01*
X8209000Y15880502D01*
G75*
G02*
X8458998Y16130500I249998J0D01*
G01*
X8984002Y16130500D01*
G75*
G02*
X9234000Y15880502I0J-249998D01*
G01*
G37*
G36*
G01*
X11059000Y15880502D02*
X11059000Y14980498D01*
G75*
G02*
X10809002Y14730500I-249998J0D01*
G01*
X10283998Y14730500D01*
G75*
G02*
X10034000Y14980498I0J249998D01*
G01*
X10034000Y15880502D01*
G75*
G02*
X10283998Y16130500I249998J0D01*
G01*
X10809002Y16130500D01*
G75*
G02*
X11059000Y15880502I0J-249998D01*
G01*
G37*
%TD*%
%TO.C,R1*%
G36*
G01*
X9234000Y13848502D02*
X9234000Y12948498D01*
G75*
G02*
X8984002Y12698500I-249998J0D01*
G01*
X8458998Y12698500D01*
G75*
G02*
X8209000Y12948498I0J249998D01*
G01*
X8209000Y13848502D01*
G75*
G02*
X8458998Y14098500I249998J0D01*
G01*
X8984002Y14098500D01*
G75*
G02*
X9234000Y13848502I0J-249998D01*
G01*
G37*
G36*
G01*
X11059000Y13848502D02*
X11059000Y12948498D01*
G75*
G02*
X10809002Y12698500I-249998J0D01*
G01*
X10283998Y12698500D01*
G75*
G02*
X10034000Y12948498I0J249998D01*
G01*
X10034000Y13848502D01*
G75*
G02*
X10283998Y14098500I249998J0D01*
G01*
X10809002Y14098500D01*
G75*
G02*
X11059000Y13848502I0J-249998D01*
G01*
G37*
%TD*%
D33*
%TO.C,JP3*%
X27876500Y11714000D03*
X27876500Y10414000D03*
%TD*%
D34*
%TO.C,JP2*%
X36860000Y12128500D03*
X35560000Y12128500D03*
%TD*%
%TO.C,C6*%
G36*
G01*
X27871000Y8793500D02*
X27871000Y7843500D01*
G75*
G02*
X27621000Y7593500I-250000J0D01*
G01*
X27121000Y7593500D01*
G75*
G02*
X26871000Y7843500I0J250000D01*
G01*
X26871000Y8793500D01*
G75*
G02*
X27121000Y9043500I250000J0D01*
G01*
X27621000Y9043500D01*
G75*
G02*
X27871000Y8793500I0J-250000D01*
G01*
G37*
G36*
G01*
X29771000Y8793500D02*
X29771000Y7843500D01*
G75*
G02*
X29521000Y7593500I-250000J0D01*
G01*
X29021000Y7593500D01*
G75*
G02*
X28771000Y7843500I0J250000D01*
G01*
X28771000Y8793500D01*
G75*
G02*
X29021000Y9043500I250000J0D01*
G01*
X29521000Y9043500D01*
G75*
G02*
X29771000Y8793500I0J-250000D01*
G01*
G37*
%TD*%
%TO.C,C4*%
G36*
G01*
X9210000Y11841500D02*
X9210000Y10891500D01*
G75*
G02*
X8960000Y10641500I-250000J0D01*
G01*
X8460000Y10641500D01*
G75*
G02*
X8210000Y10891500I0J250000D01*
G01*
X8210000Y11841500D01*
G75*
G02*
X8460000Y12091500I250000J0D01*
G01*
X8960000Y12091500D01*
G75*
G02*
X9210000Y11841500I0J-250000D01*
G01*
G37*
G36*
G01*
X11110000Y11841500D02*
X11110000Y10891500D01*
G75*
G02*
X10860000Y10641500I-250000J0D01*
G01*
X10360000Y10641500D01*
G75*
G02*
X10110000Y10891500I0J250000D01*
G01*
X10110000Y11841500D01*
G75*
G02*
X10360000Y12091500I250000J0D01*
G01*
X10860000Y12091500D01*
G75*
G02*
X11110000Y11841500I0J-250000D01*
G01*
G37*
%TD*%
M02*
