%FSLAX45Y45*%
G04 Gerber Fmt 4.5, Leading zero omitted, Abs format (unit mm)*
G04 Created by KiCad (PCBNEW (5.1.10-1-10_14)) date 2021-09-21 14:20:33*
%MOMM*%
%LPD*%
G01*
G04 APERTURE LIST*
%TA.AperFunction,Profile*%
%ADD10C,0.050000*%
%TD*%
%ADD11C,0.200000*%
%ADD12C,0.300000*%
G04 APERTURE END LIST*
D10*
X4800000Y200000D02*
X4800000Y2300000D01*
X200000Y0D02*
G75*
G02*
X0Y200000I0J200000D01*
G01*
X0Y2300000D02*
G75*
G02*
X200000Y2500000I200000J0D01*
G01*
X4600000Y2500000D02*
G75*
G02*
X4800000Y2300000I0J-200000D01*
G01*
X4800000Y200000D02*
G75*
G02*
X4600000Y0I-200000J0D01*
G01*
X0Y2300000D02*
X0Y200000D01*
X4600000Y2500000D02*
X200000Y2500000D01*
X200000Y0D02*
X4600000Y0D01*
D11*
X450500Y1477500D02*
X505500Y1422500D01*
X505500Y1477500D02*
X450500Y1422500D01*
X450500Y1077500D02*
X505500Y1022500D01*
X505500Y1077500D02*
X450500Y1022500D01*
X895000Y2300000D02*
G75*
G03*
X895000Y2300000I-45000J0D01*
G01*
X1195000Y2300000D02*
G75*
G03*
X1195000Y2300000I-45000J0D01*
G01*
X3870000Y2300000D02*
G75*
G03*
X3870000Y2300000I-45000J0D01*
G01*
X4170000Y2300000D02*
G75*
G03*
X4170000Y2300000I-45000J0D01*
G01*
X250000Y2410000D02*
X250000Y2090000D01*
X90000Y2250000D02*
X410000Y2250000D01*
X4550000Y410000D02*
X4550000Y90000D01*
X4390000Y250000D02*
X4710000Y250000D01*
D12*
X283928Y-468214D02*
X283928Y-168214D01*
X355357Y-168214D01*
X398214Y-182500D01*
X426786Y-211071D01*
X441071Y-239643D01*
X455357Y-296786D01*
X455357Y-339643D01*
X441071Y-396786D01*
X426786Y-425357D01*
X398214Y-453929D01*
X355357Y-468214D01*
X283928Y-468214D01*
X583928Y-468214D02*
X583928Y-268214D01*
X583928Y-325357D02*
X598214Y-296786D01*
X612500Y-282500D01*
X641071Y-268214D01*
X669643Y-268214D01*
X769643Y-468214D02*
X769643Y-268214D01*
X769643Y-168214D02*
X755357Y-182500D01*
X769643Y-196786D01*
X783928Y-182500D01*
X769643Y-168214D01*
X769643Y-196786D01*
X955357Y-468214D02*
X926786Y-453929D01*
X912500Y-425357D01*
X912500Y-168214D01*
X1112500Y-468214D02*
X1083928Y-453929D01*
X1069643Y-425357D01*
X1069643Y-168214D01*
X1455357Y-468214D02*
X1455357Y-168214D01*
X1555357Y-382500D01*
X1655357Y-168214D01*
X1655357Y-468214D01*
X1926786Y-468214D02*
X1926786Y-311072D01*
X1912500Y-282500D01*
X1883928Y-268214D01*
X1826786Y-268214D01*
X1798214Y-282500D01*
X1926786Y-453929D02*
X1898214Y-468214D01*
X1826786Y-468214D01*
X1798214Y-453929D01*
X1783928Y-425357D01*
X1783928Y-396786D01*
X1798214Y-368214D01*
X1826786Y-353929D01*
X1898214Y-353929D01*
X1926786Y-339643D01*
X2069643Y-268214D02*
X2069643Y-568214D01*
X2069643Y-282500D02*
X2098214Y-268214D01*
X2155357Y-268214D01*
X2183928Y-282500D01*
X2198214Y-296786D01*
X2212500Y-325357D01*
X2212500Y-411071D01*
X2198214Y-439643D01*
X2183928Y-453929D01*
X2155357Y-468214D01*
X2098214Y-468214D01*
X2069643Y-453929D01*
X2341071Y-439643D02*
X2355357Y-453929D01*
X2341071Y-468214D01*
X2326786Y-453929D01*
X2341071Y-439643D01*
X2341071Y-468214D01*
X2341071Y-282500D02*
X2355357Y-296786D01*
X2341071Y-311072D01*
X2326786Y-296786D01*
X2341071Y-282500D01*
X2341071Y-311072D01*
X-57500Y-935000D02*
X-2500Y-990000D01*
X-2500Y-935000D02*
X-57500Y-990000D01*
X341071Y-798214D02*
X369643Y-798214D01*
X398214Y-812500D01*
X412500Y-826786D01*
X426786Y-855357D01*
X441071Y-912500D01*
X441071Y-983929D01*
X426786Y-1041071D01*
X412500Y-1069643D01*
X398214Y-1083929D01*
X369643Y-1098214D01*
X341071Y-1098214D01*
X312500Y-1083929D01*
X298214Y-1069643D01*
X283928Y-1041071D01*
X269643Y-983929D01*
X269643Y-912500D01*
X283928Y-855357D01*
X298214Y-826786D01*
X312500Y-812500D01*
X341071Y-798214D01*
X569643Y-1069643D02*
X583928Y-1083929D01*
X569643Y-1098214D01*
X555357Y-1083929D01*
X569643Y-1069643D01*
X569643Y-1098214D01*
X855357Y-798214D02*
X712500Y-798214D01*
X698214Y-941071D01*
X712500Y-926786D01*
X741071Y-912500D01*
X812500Y-912500D01*
X841071Y-926786D01*
X855357Y-941071D01*
X869643Y-969643D01*
X869643Y-1041071D01*
X855357Y-1069643D01*
X841071Y-1083929D01*
X812500Y-1098214D01*
X741071Y-1098214D01*
X712500Y-1083929D01*
X698214Y-1069643D01*
X1141071Y-798214D02*
X998214Y-798214D01*
X983928Y-941071D01*
X998214Y-926786D01*
X1026786Y-912500D01*
X1098214Y-912500D01*
X1126786Y-926786D01*
X1141071Y-941071D01*
X1155357Y-969643D01*
X1155357Y-1041071D01*
X1141071Y-1069643D01*
X1126786Y-1083929D01*
X1098214Y-1098214D01*
X1026786Y-1098214D01*
X998214Y-1083929D01*
X983928Y-1069643D01*
X1341071Y-798214D02*
X1369643Y-798214D01*
X1398214Y-812500D01*
X1412500Y-826786D01*
X1426786Y-855357D01*
X1441071Y-912500D01*
X1441071Y-983929D01*
X1426786Y-1041071D01*
X1412500Y-1069643D01*
X1398214Y-1083929D01*
X1369643Y-1098214D01*
X1341071Y-1098214D01*
X1312500Y-1083929D01*
X1298214Y-1069643D01*
X1283928Y-1041071D01*
X1269643Y-983929D01*
X1269643Y-912500D01*
X1283928Y-855357D01*
X1298214Y-826786D01*
X1312500Y-812500D01*
X1341071Y-798214D01*
X1569643Y-1098214D02*
X1569643Y-898214D01*
X1569643Y-926786D02*
X1583928Y-912500D01*
X1612500Y-898214D01*
X1655357Y-898214D01*
X1683928Y-912500D01*
X1698214Y-941071D01*
X1698214Y-1098214D01*
X1698214Y-941071D02*
X1712500Y-912500D01*
X1741071Y-898214D01*
X1783928Y-898214D01*
X1812500Y-912500D01*
X1826786Y-941071D01*
X1826786Y-1098214D01*
X1969643Y-1098214D02*
X1969643Y-898214D01*
X1969643Y-926786D02*
X1983928Y-912500D01*
X2012500Y-898214D01*
X2055357Y-898214D01*
X2083928Y-912500D01*
X2098214Y-941071D01*
X2098214Y-1098214D01*
X2098214Y-941071D02*
X2112500Y-912500D01*
X2141071Y-898214D01*
X2183928Y-898214D01*
X2212500Y-912500D01*
X2226786Y-941071D01*
X2226786Y-1098214D01*
X2812500Y-783929D02*
X2555357Y-1169643D01*
X3198214Y-798214D02*
X3226786Y-798214D01*
X3255357Y-812500D01*
X3269643Y-826786D01*
X3283928Y-855357D01*
X3298214Y-912500D01*
X3298214Y-983929D01*
X3283928Y-1041071D01*
X3269643Y-1069643D01*
X3255357Y-1083929D01*
X3226786Y-1098214D01*
X3198214Y-1098214D01*
X3169643Y-1083929D01*
X3155357Y-1069643D01*
X3141071Y-1041071D01*
X3126786Y-983929D01*
X3126786Y-912500D01*
X3141071Y-855357D01*
X3155357Y-826786D01*
X3169643Y-812500D01*
X3198214Y-798214D01*
X3426786Y-1069643D02*
X3441071Y-1083929D01*
X3426786Y-1098214D01*
X3412500Y-1083929D01*
X3426786Y-1069643D01*
X3426786Y-1098214D01*
X3626786Y-798214D02*
X3655357Y-798214D01*
X3683928Y-812500D01*
X3698214Y-826786D01*
X3712500Y-855357D01*
X3726786Y-912500D01*
X3726786Y-983929D01*
X3712500Y-1041071D01*
X3698214Y-1069643D01*
X3683928Y-1083929D01*
X3655357Y-1098214D01*
X3626786Y-1098214D01*
X3598214Y-1083929D01*
X3583928Y-1069643D01*
X3569643Y-1041071D01*
X3555357Y-983929D01*
X3555357Y-912500D01*
X3569643Y-855357D01*
X3583928Y-826786D01*
X3598214Y-812500D01*
X3626786Y-798214D01*
X3841071Y-826786D02*
X3855357Y-812500D01*
X3883928Y-798214D01*
X3955357Y-798214D01*
X3983928Y-812500D01*
X3998214Y-826786D01*
X4012500Y-855357D01*
X4012500Y-883929D01*
X3998214Y-926786D01*
X3826786Y-1098214D01*
X4012500Y-1098214D01*
X4298214Y-1098214D02*
X4126786Y-1098214D01*
X4212500Y-1098214D02*
X4212500Y-798214D01*
X4183928Y-841071D01*
X4155357Y-869643D01*
X4126786Y-883929D01*
X4398214Y-798214D02*
X4598214Y-798214D01*
X4469643Y-1098214D01*
X4698214Y-798214D02*
X4698214Y-855357D01*
X4812500Y-798214D02*
X4812500Y-855357D01*
X5255357Y-1212500D02*
X5241071Y-1198214D01*
X5212500Y-1155357D01*
X5198214Y-1126786D01*
X5183928Y-1083929D01*
X5169643Y-1012500D01*
X5169643Y-955357D01*
X5183928Y-883929D01*
X5198214Y-841071D01*
X5212500Y-812500D01*
X5241071Y-769643D01*
X5255357Y-755357D01*
X5355357Y-826786D02*
X5369643Y-812500D01*
X5398214Y-798214D01*
X5469643Y-798214D01*
X5498214Y-812500D01*
X5512500Y-826786D01*
X5526786Y-855357D01*
X5526786Y-883929D01*
X5512500Y-926786D01*
X5341071Y-1098214D01*
X5526786Y-1098214D01*
X5883928Y-1098214D02*
X5883928Y-798214D01*
X6012500Y-1098214D02*
X6012500Y-941071D01*
X5998214Y-912500D01*
X5969643Y-898214D01*
X5926786Y-898214D01*
X5898214Y-912500D01*
X5883928Y-926786D01*
X6198214Y-1098214D02*
X6169643Y-1083929D01*
X6155357Y-1069643D01*
X6141071Y-1041071D01*
X6141071Y-955357D01*
X6155357Y-926786D01*
X6169643Y-912500D01*
X6198214Y-898214D01*
X6241071Y-898214D01*
X6269643Y-912500D01*
X6283928Y-926786D01*
X6298214Y-955357D01*
X6298214Y-1041071D01*
X6283928Y-1069643D01*
X6269643Y-1083929D01*
X6241071Y-1098214D01*
X6198214Y-1098214D01*
X6469643Y-1098214D02*
X6441071Y-1083929D01*
X6426786Y-1055357D01*
X6426786Y-798214D01*
X6698214Y-1083929D02*
X6669643Y-1098214D01*
X6612500Y-1098214D01*
X6583928Y-1083929D01*
X6569643Y-1055357D01*
X6569643Y-941071D01*
X6583928Y-912500D01*
X6612500Y-898214D01*
X6669643Y-898214D01*
X6698214Y-912500D01*
X6712500Y-941071D01*
X6712500Y-969643D01*
X6569643Y-998214D01*
X6826786Y-1083929D02*
X6855357Y-1098214D01*
X6912500Y-1098214D01*
X6941071Y-1083929D01*
X6955357Y-1055357D01*
X6955357Y-1041071D01*
X6941071Y-1012500D01*
X6912500Y-998214D01*
X6869643Y-998214D01*
X6841071Y-983929D01*
X6826786Y-955357D01*
X6826786Y-941071D01*
X6841071Y-912500D01*
X6869643Y-898214D01*
X6912500Y-898214D01*
X6941071Y-912500D01*
X7055357Y-1212500D02*
X7069643Y-1198214D01*
X7098214Y-1155357D01*
X7112500Y-1126786D01*
X7126786Y-1083929D01*
X7141071Y-1012500D01*
X7141071Y-955357D01*
X7126786Y-883929D01*
X7112500Y-841071D01*
X7098214Y-812500D01*
X7069643Y-769643D01*
X7055357Y-755357D01*
X7598214Y-1212500D02*
X7583928Y-1198214D01*
X7555357Y-1155357D01*
X7541071Y-1126786D01*
X7526786Y-1083929D01*
X7512500Y-1012500D01*
X7512500Y-955357D01*
X7526786Y-883929D01*
X7541071Y-841071D01*
X7555357Y-812500D01*
X7583928Y-769643D01*
X7598214Y-755357D01*
X7712500Y-898214D02*
X7712500Y-1098214D01*
X7712500Y-926786D02*
X7726786Y-912500D01*
X7755357Y-898214D01*
X7798214Y-898214D01*
X7826786Y-912500D01*
X7841071Y-941071D01*
X7841071Y-1098214D01*
X8026786Y-1098214D02*
X7998214Y-1083929D01*
X7983928Y-1069643D01*
X7969643Y-1041071D01*
X7969643Y-955357D01*
X7983928Y-926786D01*
X7998214Y-912500D01*
X8026786Y-898214D01*
X8069643Y-898214D01*
X8098214Y-912500D01*
X8112500Y-926786D01*
X8126786Y-955357D01*
X8126786Y-1041071D01*
X8112500Y-1069643D01*
X8098214Y-1083929D01*
X8069643Y-1098214D01*
X8026786Y-1098214D01*
X8212500Y-898214D02*
X8326786Y-898214D01*
X8255357Y-798214D02*
X8255357Y-1055357D01*
X8269643Y-1083929D01*
X8298214Y-1098214D01*
X8326786Y-1098214D01*
X8655357Y-898214D02*
X8655357Y-1198214D01*
X8655357Y-912500D02*
X8683928Y-898214D01*
X8741071Y-898214D01*
X8769643Y-912500D01*
X8783928Y-926786D01*
X8798214Y-955357D01*
X8798214Y-1041071D01*
X8783928Y-1069643D01*
X8769643Y-1083929D01*
X8741071Y-1098214D01*
X8683928Y-1098214D01*
X8655357Y-1083929D01*
X8969643Y-1098214D02*
X8941071Y-1083929D01*
X8926786Y-1055357D01*
X8926786Y-798214D01*
X9212500Y-1098214D02*
X9212500Y-941071D01*
X9198214Y-912500D01*
X9169643Y-898214D01*
X9112500Y-898214D01*
X9083928Y-912500D01*
X9212500Y-1083929D02*
X9183928Y-1098214D01*
X9112500Y-1098214D01*
X9083928Y-1083929D01*
X9069643Y-1055357D01*
X9069643Y-1026786D01*
X9083928Y-998214D01*
X9112500Y-983929D01*
X9183928Y-983929D01*
X9212500Y-969643D01*
X9312500Y-898214D02*
X9426786Y-898214D01*
X9355357Y-798214D02*
X9355357Y-1055357D01*
X9369643Y-1083929D01*
X9398214Y-1098214D01*
X9426786Y-1098214D01*
X9641071Y-1083929D02*
X9612500Y-1098214D01*
X9555357Y-1098214D01*
X9526786Y-1083929D01*
X9512500Y-1055357D01*
X9512500Y-941071D01*
X9526786Y-912500D01*
X9555357Y-898214D01*
X9612500Y-898214D01*
X9641071Y-912500D01*
X9655357Y-941071D01*
X9655357Y-969643D01*
X9512500Y-998214D01*
X9912500Y-1098214D02*
X9912500Y-798214D01*
X9912500Y-1083929D02*
X9883928Y-1098214D01*
X9826786Y-1098214D01*
X9798214Y-1083929D01*
X9783928Y-1069643D01*
X9769643Y-1041071D01*
X9769643Y-955357D01*
X9783928Y-926786D01*
X9798214Y-912500D01*
X9826786Y-898214D01*
X9883928Y-898214D01*
X9912500Y-912500D01*
X10026786Y-1212500D02*
X10041071Y-1198214D01*
X10069643Y-1155357D01*
X10083928Y-1126786D01*
X10098214Y-1083929D01*
X10112500Y-1012500D01*
X10112500Y-955357D01*
X10098214Y-883929D01*
X10083928Y-841071D01*
X10069643Y-812500D01*
X10041071Y-769643D01*
X10026786Y-755357D01*
X-2500Y-1358500D02*
G75*
G03*
X-2500Y-1358500I-45000J0D01*
G01*
X341071Y-1194214D02*
X369643Y-1194214D01*
X398214Y-1208500D01*
X412500Y-1222786D01*
X426786Y-1251357D01*
X441071Y-1308500D01*
X441071Y-1379929D01*
X426786Y-1437071D01*
X412500Y-1465643D01*
X398214Y-1479929D01*
X369643Y-1494214D01*
X341071Y-1494214D01*
X312500Y-1479929D01*
X298214Y-1465643D01*
X283928Y-1437071D01*
X269643Y-1379929D01*
X269643Y-1308500D01*
X283928Y-1251357D01*
X298214Y-1222786D01*
X312500Y-1208500D01*
X341071Y-1194214D01*
X569643Y-1465643D02*
X583928Y-1479929D01*
X569643Y-1494214D01*
X555357Y-1479929D01*
X569643Y-1465643D01*
X569643Y-1494214D01*
X726786Y-1494214D02*
X783928Y-1494214D01*
X812500Y-1479929D01*
X826786Y-1465643D01*
X855357Y-1422786D01*
X869643Y-1365643D01*
X869643Y-1251357D01*
X855357Y-1222786D01*
X841071Y-1208500D01*
X812500Y-1194214D01*
X755357Y-1194214D01*
X726786Y-1208500D01*
X712500Y-1222786D01*
X698214Y-1251357D01*
X698214Y-1322786D01*
X712500Y-1351357D01*
X726786Y-1365643D01*
X755357Y-1379929D01*
X812500Y-1379929D01*
X841071Y-1365643D01*
X855357Y-1351357D01*
X869643Y-1322786D01*
X1055357Y-1194214D02*
X1083928Y-1194214D01*
X1112500Y-1208500D01*
X1126786Y-1222786D01*
X1141071Y-1251357D01*
X1155357Y-1308500D01*
X1155357Y-1379929D01*
X1141071Y-1437071D01*
X1126786Y-1465643D01*
X1112500Y-1479929D01*
X1083928Y-1494214D01*
X1055357Y-1494214D01*
X1026786Y-1479929D01*
X1012500Y-1465643D01*
X998214Y-1437071D01*
X983928Y-1379929D01*
X983928Y-1308500D01*
X998214Y-1251357D01*
X1012500Y-1222786D01*
X1026786Y-1208500D01*
X1055357Y-1194214D01*
X1341071Y-1194214D02*
X1369643Y-1194214D01*
X1398214Y-1208500D01*
X1412500Y-1222786D01*
X1426786Y-1251357D01*
X1441071Y-1308500D01*
X1441071Y-1379929D01*
X1426786Y-1437071D01*
X1412500Y-1465643D01*
X1398214Y-1479929D01*
X1369643Y-1494214D01*
X1341071Y-1494214D01*
X1312500Y-1479929D01*
X1298214Y-1465643D01*
X1283928Y-1437071D01*
X1269643Y-1379929D01*
X1269643Y-1308500D01*
X1283928Y-1251357D01*
X1298214Y-1222786D01*
X1312500Y-1208500D01*
X1341071Y-1194214D01*
X1569643Y-1494214D02*
X1569643Y-1294214D01*
X1569643Y-1322786D02*
X1583928Y-1308500D01*
X1612500Y-1294214D01*
X1655357Y-1294214D01*
X1683928Y-1308500D01*
X1698214Y-1337072D01*
X1698214Y-1494214D01*
X1698214Y-1337072D02*
X1712500Y-1308500D01*
X1741071Y-1294214D01*
X1783928Y-1294214D01*
X1812500Y-1308500D01*
X1826786Y-1337072D01*
X1826786Y-1494214D01*
X1969643Y-1494214D02*
X1969643Y-1294214D01*
X1969643Y-1322786D02*
X1983928Y-1308500D01*
X2012500Y-1294214D01*
X2055357Y-1294214D01*
X2083928Y-1308500D01*
X2098214Y-1337072D01*
X2098214Y-1494214D01*
X2098214Y-1337072D02*
X2112500Y-1308500D01*
X2141071Y-1294214D01*
X2183928Y-1294214D01*
X2212500Y-1308500D01*
X2226786Y-1337072D01*
X2226786Y-1494214D01*
X2812500Y-1179929D02*
X2555357Y-1565643D01*
X3198214Y-1194214D02*
X3226786Y-1194214D01*
X3255357Y-1208500D01*
X3269643Y-1222786D01*
X3283928Y-1251357D01*
X3298214Y-1308500D01*
X3298214Y-1379929D01*
X3283928Y-1437071D01*
X3269643Y-1465643D01*
X3255357Y-1479929D01*
X3226786Y-1494214D01*
X3198214Y-1494214D01*
X3169643Y-1479929D01*
X3155357Y-1465643D01*
X3141071Y-1437071D01*
X3126786Y-1379929D01*
X3126786Y-1308500D01*
X3141071Y-1251357D01*
X3155357Y-1222786D01*
X3169643Y-1208500D01*
X3198214Y-1194214D01*
X3426786Y-1465643D02*
X3441071Y-1479929D01*
X3426786Y-1494214D01*
X3412500Y-1479929D01*
X3426786Y-1465643D01*
X3426786Y-1494214D01*
X3626786Y-1194214D02*
X3655357Y-1194214D01*
X3683928Y-1208500D01*
X3698214Y-1222786D01*
X3712500Y-1251357D01*
X3726786Y-1308500D01*
X3726786Y-1379929D01*
X3712500Y-1437071D01*
X3698214Y-1465643D01*
X3683928Y-1479929D01*
X3655357Y-1494214D01*
X3626786Y-1494214D01*
X3598214Y-1479929D01*
X3583928Y-1465643D01*
X3569643Y-1437071D01*
X3555357Y-1379929D01*
X3555357Y-1308500D01*
X3569643Y-1251357D01*
X3583928Y-1222786D01*
X3598214Y-1208500D01*
X3626786Y-1194214D01*
X3826786Y-1194214D02*
X4012500Y-1194214D01*
X3912500Y-1308500D01*
X3955357Y-1308500D01*
X3983928Y-1322786D01*
X3998214Y-1337072D01*
X4012500Y-1365643D01*
X4012500Y-1437071D01*
X3998214Y-1465643D01*
X3983928Y-1479929D01*
X3955357Y-1494214D01*
X3869643Y-1494214D01*
X3841071Y-1479929D01*
X3826786Y-1465643D01*
X4283928Y-1194214D02*
X4141071Y-1194214D01*
X4126786Y-1337072D01*
X4141071Y-1322786D01*
X4169643Y-1308500D01*
X4241071Y-1308500D01*
X4269643Y-1322786D01*
X4283928Y-1337072D01*
X4298214Y-1365643D01*
X4298214Y-1437071D01*
X4283928Y-1465643D01*
X4269643Y-1479929D01*
X4241071Y-1494214D01*
X4169643Y-1494214D01*
X4141071Y-1479929D01*
X4126786Y-1465643D01*
X4555357Y-1294214D02*
X4555357Y-1494214D01*
X4483928Y-1179929D02*
X4412500Y-1394214D01*
X4598214Y-1394214D01*
X4698214Y-1194214D02*
X4698214Y-1251357D01*
X4812500Y-1194214D02*
X4812500Y-1251357D01*
X5255357Y-1608500D02*
X5241071Y-1594214D01*
X5212500Y-1551357D01*
X5198214Y-1522786D01*
X5183928Y-1479929D01*
X5169643Y-1408500D01*
X5169643Y-1351357D01*
X5183928Y-1279929D01*
X5198214Y-1237072D01*
X5212500Y-1208500D01*
X5241071Y-1165643D01*
X5255357Y-1151357D01*
X5498214Y-1294214D02*
X5498214Y-1494214D01*
X5426786Y-1179929D02*
X5355357Y-1394214D01*
X5541071Y-1394214D01*
X5883928Y-1494214D02*
X5883928Y-1194214D01*
X6012500Y-1494214D02*
X6012500Y-1337072D01*
X5998214Y-1308500D01*
X5969643Y-1294214D01*
X5926786Y-1294214D01*
X5898214Y-1308500D01*
X5883928Y-1322786D01*
X6198214Y-1494214D02*
X6169643Y-1479929D01*
X6155357Y-1465643D01*
X6141071Y-1437071D01*
X6141071Y-1351357D01*
X6155357Y-1322786D01*
X6169643Y-1308500D01*
X6198214Y-1294214D01*
X6241071Y-1294214D01*
X6269643Y-1308500D01*
X6283928Y-1322786D01*
X6298214Y-1351357D01*
X6298214Y-1437071D01*
X6283928Y-1465643D01*
X6269643Y-1479929D01*
X6241071Y-1494214D01*
X6198214Y-1494214D01*
X6469643Y-1494214D02*
X6441071Y-1479929D01*
X6426786Y-1451357D01*
X6426786Y-1194214D01*
X6698214Y-1479929D02*
X6669643Y-1494214D01*
X6612500Y-1494214D01*
X6583928Y-1479929D01*
X6569643Y-1451357D01*
X6569643Y-1337072D01*
X6583928Y-1308500D01*
X6612500Y-1294214D01*
X6669643Y-1294214D01*
X6698214Y-1308500D01*
X6712500Y-1337072D01*
X6712500Y-1365643D01*
X6569643Y-1394214D01*
X6826786Y-1479929D02*
X6855357Y-1494214D01*
X6912500Y-1494214D01*
X6941071Y-1479929D01*
X6955357Y-1451357D01*
X6955357Y-1437071D01*
X6941071Y-1408500D01*
X6912500Y-1394214D01*
X6869643Y-1394214D01*
X6841071Y-1379929D01*
X6826786Y-1351357D01*
X6826786Y-1337072D01*
X6841071Y-1308500D01*
X6869643Y-1294214D01*
X6912500Y-1294214D01*
X6941071Y-1308500D01*
X7055357Y-1608500D02*
X7069643Y-1594214D01*
X7098214Y-1551357D01*
X7112500Y-1522786D01*
X7126786Y-1479929D01*
X7141071Y-1408500D01*
X7141071Y-1351357D01*
X7126786Y-1279929D01*
X7112500Y-1237072D01*
X7098214Y-1208500D01*
X7069643Y-1165643D01*
X7055357Y-1151357D01*
X7598214Y-1608500D02*
X7583928Y-1594214D01*
X7555357Y-1551357D01*
X7541071Y-1522786D01*
X7526786Y-1479929D01*
X7512500Y-1408500D01*
X7512500Y-1351357D01*
X7526786Y-1279929D01*
X7541071Y-1237072D01*
X7555357Y-1208500D01*
X7583928Y-1165643D01*
X7598214Y-1151357D01*
X7712500Y-1294214D02*
X7712500Y-1494214D01*
X7712500Y-1322786D02*
X7726786Y-1308500D01*
X7755357Y-1294214D01*
X7798214Y-1294214D01*
X7826786Y-1308500D01*
X7841071Y-1337072D01*
X7841071Y-1494214D01*
X8026786Y-1494214D02*
X7998214Y-1479929D01*
X7983928Y-1465643D01*
X7969643Y-1437071D01*
X7969643Y-1351357D01*
X7983928Y-1322786D01*
X7998214Y-1308500D01*
X8026786Y-1294214D01*
X8069643Y-1294214D01*
X8098214Y-1308500D01*
X8112500Y-1322786D01*
X8126786Y-1351357D01*
X8126786Y-1437071D01*
X8112500Y-1465643D01*
X8098214Y-1479929D01*
X8069643Y-1494214D01*
X8026786Y-1494214D01*
X8212500Y-1294214D02*
X8326786Y-1294214D01*
X8255357Y-1194214D02*
X8255357Y-1451357D01*
X8269643Y-1479929D01*
X8298214Y-1494214D01*
X8326786Y-1494214D01*
X8655357Y-1294214D02*
X8655357Y-1594214D01*
X8655357Y-1308500D02*
X8683928Y-1294214D01*
X8741071Y-1294214D01*
X8769643Y-1308500D01*
X8783928Y-1322786D01*
X8798214Y-1351357D01*
X8798214Y-1437071D01*
X8783928Y-1465643D01*
X8769643Y-1479929D01*
X8741071Y-1494214D01*
X8683928Y-1494214D01*
X8655357Y-1479929D01*
X8969643Y-1494214D02*
X8941071Y-1479929D01*
X8926786Y-1451357D01*
X8926786Y-1194214D01*
X9212500Y-1494214D02*
X9212500Y-1337072D01*
X9198214Y-1308500D01*
X9169643Y-1294214D01*
X9112500Y-1294214D01*
X9083928Y-1308500D01*
X9212500Y-1479929D02*
X9183928Y-1494214D01*
X9112500Y-1494214D01*
X9083928Y-1479929D01*
X9069643Y-1451357D01*
X9069643Y-1422786D01*
X9083928Y-1394214D01*
X9112500Y-1379929D01*
X9183928Y-1379929D01*
X9212500Y-1365643D01*
X9312500Y-1294214D02*
X9426786Y-1294214D01*
X9355357Y-1194214D02*
X9355357Y-1451357D01*
X9369643Y-1479929D01*
X9398214Y-1494214D01*
X9426786Y-1494214D01*
X9641071Y-1479929D02*
X9612500Y-1494214D01*
X9555357Y-1494214D01*
X9526786Y-1479929D01*
X9512500Y-1451357D01*
X9512500Y-1337072D01*
X9526786Y-1308500D01*
X9555357Y-1294214D01*
X9612500Y-1294214D01*
X9641071Y-1308500D01*
X9655357Y-1337072D01*
X9655357Y-1365643D01*
X9512500Y-1394214D01*
X9912500Y-1494214D02*
X9912500Y-1194214D01*
X9912500Y-1479929D02*
X9883928Y-1494214D01*
X9826786Y-1494214D01*
X9798214Y-1479929D01*
X9783928Y-1465643D01*
X9769643Y-1437071D01*
X9769643Y-1351357D01*
X9783928Y-1322786D01*
X9798214Y-1308500D01*
X9826786Y-1294214D01*
X9883928Y-1294214D01*
X9912500Y-1308500D01*
X10026786Y-1608500D02*
X10041071Y-1594214D01*
X10069643Y-1551357D01*
X10083928Y-1522786D01*
X10098214Y-1479929D01*
X10112500Y-1408500D01*
X10112500Y-1351357D01*
X10098214Y-1279929D01*
X10083928Y-1237072D01*
X10069643Y-1208500D01*
X10041071Y-1165643D01*
X10026786Y-1151357D01*
X-162500Y-1594500D02*
X-162500Y-1914500D01*
X-322500Y-1754500D02*
X-2500Y-1754500D01*
X255357Y-1590214D02*
X441071Y-1590214D01*
X341071Y-1704500D01*
X383928Y-1704500D01*
X412500Y-1718786D01*
X426786Y-1733071D01*
X441071Y-1761643D01*
X441071Y-1833071D01*
X426786Y-1861643D01*
X412500Y-1875929D01*
X383928Y-1890214D01*
X298214Y-1890214D01*
X269643Y-1875929D01*
X255357Y-1861643D01*
X569643Y-1861643D02*
X583928Y-1875929D01*
X569643Y-1890214D01*
X555357Y-1875929D01*
X569643Y-1861643D01*
X569643Y-1890214D01*
X698214Y-1618786D02*
X712500Y-1604500D01*
X741071Y-1590214D01*
X812500Y-1590214D01*
X841071Y-1604500D01*
X855357Y-1618786D01*
X869643Y-1647357D01*
X869643Y-1675929D01*
X855357Y-1718786D01*
X683928Y-1890214D01*
X869643Y-1890214D01*
X1055357Y-1590214D02*
X1083928Y-1590214D01*
X1112500Y-1604500D01*
X1126786Y-1618786D01*
X1141071Y-1647357D01*
X1155357Y-1704500D01*
X1155357Y-1775929D01*
X1141071Y-1833071D01*
X1126786Y-1861643D01*
X1112500Y-1875929D01*
X1083928Y-1890214D01*
X1055357Y-1890214D01*
X1026786Y-1875929D01*
X1012500Y-1861643D01*
X998214Y-1833071D01*
X983928Y-1775929D01*
X983928Y-1704500D01*
X998214Y-1647357D01*
X1012500Y-1618786D01*
X1026786Y-1604500D01*
X1055357Y-1590214D01*
X1341071Y-1590214D02*
X1369643Y-1590214D01*
X1398214Y-1604500D01*
X1412500Y-1618786D01*
X1426786Y-1647357D01*
X1441071Y-1704500D01*
X1441071Y-1775929D01*
X1426786Y-1833071D01*
X1412500Y-1861643D01*
X1398214Y-1875929D01*
X1369643Y-1890214D01*
X1341071Y-1890214D01*
X1312500Y-1875929D01*
X1298214Y-1861643D01*
X1283928Y-1833071D01*
X1269643Y-1775929D01*
X1269643Y-1704500D01*
X1283928Y-1647357D01*
X1298214Y-1618786D01*
X1312500Y-1604500D01*
X1341071Y-1590214D01*
X1569643Y-1890214D02*
X1569643Y-1690214D01*
X1569643Y-1718786D02*
X1583928Y-1704500D01*
X1612500Y-1690214D01*
X1655357Y-1690214D01*
X1683928Y-1704500D01*
X1698214Y-1733071D01*
X1698214Y-1890214D01*
X1698214Y-1733071D02*
X1712500Y-1704500D01*
X1741071Y-1690214D01*
X1783928Y-1690214D01*
X1812500Y-1704500D01*
X1826786Y-1733071D01*
X1826786Y-1890214D01*
X1969643Y-1890214D02*
X1969643Y-1690214D01*
X1969643Y-1718786D02*
X1983928Y-1704500D01*
X2012500Y-1690214D01*
X2055357Y-1690214D01*
X2083928Y-1704500D01*
X2098214Y-1733071D01*
X2098214Y-1890214D01*
X2098214Y-1733071D02*
X2112500Y-1704500D01*
X2141071Y-1690214D01*
X2183928Y-1690214D01*
X2212500Y-1704500D01*
X2226786Y-1733071D01*
X2226786Y-1890214D01*
X2812500Y-1575929D02*
X2555357Y-1961643D01*
X3198214Y-1590214D02*
X3226786Y-1590214D01*
X3255357Y-1604500D01*
X3269643Y-1618786D01*
X3283928Y-1647357D01*
X3298214Y-1704500D01*
X3298214Y-1775929D01*
X3283928Y-1833071D01*
X3269643Y-1861643D01*
X3255357Y-1875929D01*
X3226786Y-1890214D01*
X3198214Y-1890214D01*
X3169643Y-1875929D01*
X3155357Y-1861643D01*
X3141071Y-1833071D01*
X3126786Y-1775929D01*
X3126786Y-1704500D01*
X3141071Y-1647357D01*
X3155357Y-1618786D01*
X3169643Y-1604500D01*
X3198214Y-1590214D01*
X3426786Y-1861643D02*
X3441071Y-1875929D01*
X3426786Y-1890214D01*
X3412500Y-1875929D01*
X3426786Y-1861643D01*
X3426786Y-1890214D01*
X3726786Y-1890214D02*
X3555357Y-1890214D01*
X3641071Y-1890214D02*
X3641071Y-1590214D01*
X3612500Y-1633071D01*
X3583928Y-1661643D01*
X3555357Y-1675929D01*
X3841071Y-1618786D02*
X3855357Y-1604500D01*
X3883928Y-1590214D01*
X3955357Y-1590214D01*
X3983928Y-1604500D01*
X3998214Y-1618786D01*
X4012500Y-1647357D01*
X4012500Y-1675929D01*
X3998214Y-1718786D01*
X3826786Y-1890214D01*
X4012500Y-1890214D01*
X4269643Y-1590214D02*
X4212500Y-1590214D01*
X4183928Y-1604500D01*
X4169643Y-1618786D01*
X4141071Y-1661643D01*
X4126786Y-1718786D01*
X4126786Y-1833071D01*
X4141071Y-1861643D01*
X4155357Y-1875929D01*
X4183928Y-1890214D01*
X4241071Y-1890214D01*
X4269643Y-1875929D01*
X4283928Y-1861643D01*
X4298214Y-1833071D01*
X4298214Y-1761643D01*
X4283928Y-1733071D01*
X4269643Y-1718786D01*
X4241071Y-1704500D01*
X4183928Y-1704500D01*
X4155357Y-1718786D01*
X4141071Y-1733071D01*
X4126786Y-1761643D01*
X4483928Y-1590214D02*
X4512500Y-1590214D01*
X4541071Y-1604500D01*
X4555357Y-1618786D01*
X4569643Y-1647357D01*
X4583928Y-1704500D01*
X4583928Y-1775929D01*
X4569643Y-1833071D01*
X4555357Y-1861643D01*
X4541071Y-1875929D01*
X4512500Y-1890214D01*
X4483928Y-1890214D01*
X4455357Y-1875929D01*
X4441071Y-1861643D01*
X4426786Y-1833071D01*
X4412500Y-1775929D01*
X4412500Y-1704500D01*
X4426786Y-1647357D01*
X4441071Y-1618786D01*
X4455357Y-1604500D01*
X4483928Y-1590214D01*
X4698214Y-1590214D02*
X4698214Y-1647357D01*
X4812500Y-1590214D02*
X4812500Y-1647357D01*
X5255357Y-2004500D02*
X5241071Y-1990214D01*
X5212500Y-1947357D01*
X5198214Y-1918786D01*
X5183928Y-1875929D01*
X5169643Y-1804500D01*
X5169643Y-1747357D01*
X5183928Y-1675929D01*
X5198214Y-1633071D01*
X5212500Y-1604500D01*
X5241071Y-1561643D01*
X5255357Y-1547357D01*
X5355357Y-1618786D02*
X5369643Y-1604500D01*
X5398214Y-1590214D01*
X5469643Y-1590214D01*
X5498214Y-1604500D01*
X5512500Y-1618786D01*
X5526786Y-1647357D01*
X5526786Y-1675929D01*
X5512500Y-1718786D01*
X5341071Y-1890214D01*
X5526786Y-1890214D01*
X5883928Y-1890214D02*
X5883928Y-1590214D01*
X6012500Y-1890214D02*
X6012500Y-1733071D01*
X5998214Y-1704500D01*
X5969643Y-1690214D01*
X5926786Y-1690214D01*
X5898214Y-1704500D01*
X5883928Y-1718786D01*
X6198214Y-1890214D02*
X6169643Y-1875929D01*
X6155357Y-1861643D01*
X6141071Y-1833071D01*
X6141071Y-1747357D01*
X6155357Y-1718786D01*
X6169643Y-1704500D01*
X6198214Y-1690214D01*
X6241071Y-1690214D01*
X6269643Y-1704500D01*
X6283928Y-1718786D01*
X6298214Y-1747357D01*
X6298214Y-1833071D01*
X6283928Y-1861643D01*
X6269643Y-1875929D01*
X6241071Y-1890214D01*
X6198214Y-1890214D01*
X6469643Y-1890214D02*
X6441071Y-1875929D01*
X6426786Y-1847357D01*
X6426786Y-1590214D01*
X6698214Y-1875929D02*
X6669643Y-1890214D01*
X6612500Y-1890214D01*
X6583928Y-1875929D01*
X6569643Y-1847357D01*
X6569643Y-1733071D01*
X6583928Y-1704500D01*
X6612500Y-1690214D01*
X6669643Y-1690214D01*
X6698214Y-1704500D01*
X6712500Y-1733071D01*
X6712500Y-1761643D01*
X6569643Y-1790214D01*
X6826786Y-1875929D02*
X6855357Y-1890214D01*
X6912500Y-1890214D01*
X6941071Y-1875929D01*
X6955357Y-1847357D01*
X6955357Y-1833071D01*
X6941071Y-1804500D01*
X6912500Y-1790214D01*
X6869643Y-1790214D01*
X6841071Y-1775929D01*
X6826786Y-1747357D01*
X6826786Y-1733071D01*
X6841071Y-1704500D01*
X6869643Y-1690214D01*
X6912500Y-1690214D01*
X6941071Y-1704500D01*
X7055357Y-2004500D02*
X7069643Y-1990214D01*
X7098214Y-1947357D01*
X7112500Y-1918786D01*
X7126786Y-1875929D01*
X7141071Y-1804500D01*
X7141071Y-1747357D01*
X7126786Y-1675929D01*
X7112500Y-1633071D01*
X7098214Y-1604500D01*
X7069643Y-1561643D01*
X7055357Y-1547357D01*
X7598214Y-2004500D02*
X7583928Y-1990214D01*
X7555357Y-1947357D01*
X7541071Y-1918786D01*
X7526786Y-1875929D01*
X7512500Y-1804500D01*
X7512500Y-1747357D01*
X7526786Y-1675929D01*
X7541071Y-1633071D01*
X7555357Y-1604500D01*
X7583928Y-1561643D01*
X7598214Y-1547357D01*
X7712500Y-1690214D02*
X7712500Y-1890214D01*
X7712500Y-1718786D02*
X7726786Y-1704500D01*
X7755357Y-1690214D01*
X7798214Y-1690214D01*
X7826786Y-1704500D01*
X7841071Y-1733071D01*
X7841071Y-1890214D01*
X8026786Y-1890214D02*
X7998214Y-1875929D01*
X7983928Y-1861643D01*
X7969643Y-1833071D01*
X7969643Y-1747357D01*
X7983928Y-1718786D01*
X7998214Y-1704500D01*
X8026786Y-1690214D01*
X8069643Y-1690214D01*
X8098214Y-1704500D01*
X8112500Y-1718786D01*
X8126786Y-1747357D01*
X8126786Y-1833071D01*
X8112500Y-1861643D01*
X8098214Y-1875929D01*
X8069643Y-1890214D01*
X8026786Y-1890214D01*
X8212500Y-1690214D02*
X8326786Y-1690214D01*
X8255357Y-1590214D02*
X8255357Y-1847357D01*
X8269643Y-1875929D01*
X8298214Y-1890214D01*
X8326786Y-1890214D01*
X8655357Y-1690214D02*
X8655357Y-1990214D01*
X8655357Y-1704500D02*
X8683928Y-1690214D01*
X8741071Y-1690214D01*
X8769643Y-1704500D01*
X8783928Y-1718786D01*
X8798214Y-1747357D01*
X8798214Y-1833071D01*
X8783928Y-1861643D01*
X8769643Y-1875929D01*
X8741071Y-1890214D01*
X8683928Y-1890214D01*
X8655357Y-1875929D01*
X8969643Y-1890214D02*
X8941071Y-1875929D01*
X8926786Y-1847357D01*
X8926786Y-1590214D01*
X9212500Y-1890214D02*
X9212500Y-1733071D01*
X9198214Y-1704500D01*
X9169643Y-1690214D01*
X9112500Y-1690214D01*
X9083928Y-1704500D01*
X9212500Y-1875929D02*
X9183928Y-1890214D01*
X9112500Y-1890214D01*
X9083928Y-1875929D01*
X9069643Y-1847357D01*
X9069643Y-1818786D01*
X9083928Y-1790214D01*
X9112500Y-1775929D01*
X9183928Y-1775929D01*
X9212500Y-1761643D01*
X9312500Y-1690214D02*
X9426786Y-1690214D01*
X9355357Y-1590214D02*
X9355357Y-1847357D01*
X9369643Y-1875929D01*
X9398214Y-1890214D01*
X9426786Y-1890214D01*
X9641071Y-1875929D02*
X9612500Y-1890214D01*
X9555357Y-1890214D01*
X9526786Y-1875929D01*
X9512500Y-1847357D01*
X9512500Y-1733071D01*
X9526786Y-1704500D01*
X9555357Y-1690214D01*
X9612500Y-1690214D01*
X9641071Y-1704500D01*
X9655357Y-1733071D01*
X9655357Y-1761643D01*
X9512500Y-1790214D01*
X9912500Y-1890214D02*
X9912500Y-1590214D01*
X9912500Y-1875929D02*
X9883928Y-1890214D01*
X9826786Y-1890214D01*
X9798214Y-1875929D01*
X9783928Y-1861643D01*
X9769643Y-1833071D01*
X9769643Y-1747357D01*
X9783928Y-1718786D01*
X9798214Y-1704500D01*
X9826786Y-1690214D01*
X9883928Y-1690214D01*
X9912500Y-1704500D01*
X10026786Y-2004500D02*
X10041071Y-1990214D01*
X10069643Y-1947357D01*
X10083928Y-1918786D01*
X10098214Y-1875929D01*
X10112500Y-1804500D01*
X10112500Y-1747357D01*
X10098214Y-1675929D01*
X10083928Y-1633071D01*
X10069643Y-1604500D01*
X10041071Y-1561643D01*
X10026786Y-1547357D01*
M02*
