%TF.GenerationSoftware,KiCad,Pcbnew,(5.1.10-1-10_14)*%
%TF.CreationDate,2021-09-18T20:20:20-04:00*%
%TF.ProjectId,WetProgrammer,57657450-726f-4677-9261-6d6d65722e6b,rev?*%
%TF.SameCoordinates,Original*%
%TF.FileFunction,Copper,L1,Top*%
%TF.FilePolarity,Positive*%
%FSLAX46Y46*%
G04 Gerber Fmt 4.6, Leading zero omitted, Abs format (unit mm)*
G04 Created by KiCad (PCBNEW (5.1.10-1-10_14)) date 2021-09-18 20:20:20*
%MOMM*%
%LPD*%
G01*
G04 APERTURE LIST*
%TA.AperFunction,EtchedComponent*%
%ADD10C,0.100000*%
%TD*%
%TA.AperFunction,SMDPad,CuDef*%
%ADD11R,4.500000X2.000000*%
%TD*%
%TA.AperFunction,ComponentPad*%
%ADD12O,1.700000X1.700000*%
%TD*%
%TA.AperFunction,ComponentPad*%
%ADD13R,1.700000X1.700000*%
%TD*%
%TA.AperFunction,SMDPad,CuDef*%
%ADD14R,1.100000X1.000000*%
%TD*%
%TA.AperFunction,SMDPad,CuDef*%
%ADD15R,1.500000X1.350000*%
%TD*%
%TA.AperFunction,SMDPad,CuDef*%
%ADD16R,1.400000X1.500000*%
%TD*%
%TA.AperFunction,SMDPad,CuDef*%
%ADD17R,1.800000X0.400000*%
%TD*%
%TA.AperFunction,SMDPad,CuDef*%
%ADD18R,1.500000X1.000000*%
%TD*%
%TA.AperFunction,SMDPad,CuDef*%
%ADD19R,2.000000X1.500000*%
%TD*%
%TA.AperFunction,SMDPad,CuDef*%
%ADD20R,2.000000X3.800000*%
%TD*%
%TA.AperFunction,SMDPad,CuDef*%
%ADD21R,0.550000X1.500000*%
%TD*%
%TA.AperFunction,SMDPad,CuDef*%
%ADD22R,1.500000X0.550000*%
%TD*%
%TA.AperFunction,SMDPad,CuDef*%
%ADD23C,1.500000*%
%TD*%
%TA.AperFunction,SMDPad,CuDef*%
%ADD24R,0.800000X0.900000*%
%TD*%
%TA.AperFunction,SMDPad,CuDef*%
%ADD25R,0.900000X1.250000*%
%TD*%
%TA.AperFunction,ComponentPad*%
%ADD26O,1.000000X1.000000*%
%TD*%
%TA.AperFunction,ComponentPad*%
%ADD27R,1.000000X1.000000*%
%TD*%
%TA.AperFunction,SMDPad,CuDef*%
%ADD28R,1.000000X1.500000*%
%TD*%
%TA.AperFunction,ViaPad*%
%ADD29C,0.800000*%
%TD*%
%TA.AperFunction,Conductor*%
%ADD30C,0.152400*%
%TD*%
%TA.AperFunction,Conductor*%
%ADD31C,0.250000*%
%TD*%
%TA.AperFunction,Conductor*%
%ADD32C,0.508000*%
%TD*%
%TA.AperFunction,Conductor*%
%ADD33C,0.304800*%
%TD*%
%TA.AperFunction,Conductor*%
%ADD34C,0.100000*%
%TD*%
G04 APERTURE END LIST*
D10*
%TO.C,JP1*%
G36*
X16923500Y20705000D02*
G01*
X16923500Y21205000D01*
X17523500Y21205000D01*
X17523500Y20705000D01*
X16923500Y20705000D01*
G37*
%TD*%
D11*
%TO.P,Y1,2*%
%TO.N,Net-(C2-Pad2)*%
X20642000Y3048000D03*
%TO.P,Y1,1*%
%TO.N,Net-(C1-Pad2)*%
X29142000Y3048000D03*
%TD*%
D12*
%TO.P,JP4,2*%
%TO.N,VCC*%
X42460000Y22415500D03*
D13*
%TO.P,JP4,1*%
%TO.N,/VProg*%
X45000000Y22415500D03*
%TD*%
%TO.P,F1,2*%
%TO.N,Net-(F1-Pad2)*%
%TA.AperFunction,SMDPad,CuDef*%
G36*
G01*
X7850000Y16037500D02*
X8650000Y16037500D01*
G75*
G02*
X8900000Y15787500I0J-250000D01*
G01*
X8900000Y14962500D01*
G75*
G02*
X8650000Y14712500I-250000J0D01*
G01*
X7850000Y14712500D01*
G75*
G02*
X7600000Y14962500I0J250000D01*
G01*
X7600000Y15787500D01*
G75*
G02*
X7850000Y16037500I250000J0D01*
G01*
G37*
%TD.AperFunction*%
%TO.P,F1,1*%
%TO.N,VBUS*%
%TA.AperFunction,SMDPad,CuDef*%
G36*
G01*
X7850000Y17962500D02*
X8650000Y17962500D01*
G75*
G02*
X8900000Y17712500I0J-250000D01*
G01*
X8900000Y16887500D01*
G75*
G02*
X8650000Y16637500I-250000J0D01*
G01*
X7850000Y16637500D01*
G75*
G02*
X7600000Y16887500I0J250000D01*
G01*
X7600000Y17712500D01*
G75*
G02*
X7850000Y17962500I250000J0D01*
G01*
G37*
%TD.AperFunction*%
%TD*%
D14*
%TO.P,J1,6*%
%TO.N,GND*%
X1459500Y11000000D03*
X1459500Y14000000D03*
D15*
X2630000Y16575000D03*
X2630000Y8425000D03*
D16*
X5309500Y15750000D03*
X5309500Y9250000D03*
D17*
%TO.P,J1,5*%
X5500000Y11200000D03*
%TO.P,J1,4*%
%TO.N,Net-(J1-Pad4)*%
X5500000Y11850000D03*
%TO.P,J1,1*%
%TO.N,Net-(F1-Pad2)*%
X5500000Y13800000D03*
%TO.P,J1,2*%
%TO.N,Net-(J1-Pad2)*%
X5500000Y13150000D03*
%TO.P,J1,3*%
%TO.N,Net-(J1-Pad3)*%
X5500000Y12500000D03*
%TD*%
D18*
%TO.P,JP1,2*%
%TO.N,VCC*%
X17223500Y21605000D03*
%TO.P,JP1,1*%
%TO.N,Net-(C3-Pad2)*%
X17223500Y20305000D03*
%TD*%
D19*
%TO.P,U2,1*%
%TO.N,GND*%
X28028500Y22810500D03*
%TO.P,U2,3*%
%TO.N,VBUS*%
X28028500Y18210500D03*
%TO.P,U2,2*%
%TO.N,+3V3*%
X28028500Y20510500D03*
D20*
X34328500Y20510500D03*
%TD*%
D21*
%TO.P,U1,44*%
%TO.N,VCC*%
X14750000Y18200000D03*
%TO.P,U1,43*%
%TO.N,GND*%
X15550000Y18200000D03*
%TO.P,U1,42*%
%TO.N,Net-(C3-Pad2)*%
X16350000Y18200000D03*
%TO.P,U1,41*%
%TO.N,Net-(U1-Pad41)*%
X17150000Y18200000D03*
%TO.P,U1,40*%
%TO.N,Net-(U1-Pad40)*%
X17950000Y18200000D03*
%TO.P,U1,39*%
%TO.N,Net-(U1-Pad39)*%
X18750000Y18200000D03*
%TO.P,U1,38*%
%TO.N,Net-(U1-Pad38)*%
X19550000Y18200000D03*
%TO.P,U1,37*%
%TO.N,Net-(U1-Pad37)*%
X20350000Y18200000D03*
%TO.P,U1,36*%
%TO.N,Net-(U1-Pad36)*%
X21150000Y18200000D03*
%TO.P,U1,35*%
%TO.N,GND*%
X21950000Y18200000D03*
%TO.P,U1,34*%
%TO.N,VCC*%
X22750000Y18200000D03*
D22*
%TO.P,U1,33*%
%TO.N,Net-(JP2-Pad1)*%
X24450000Y16500000D03*
%TO.P,U1,32*%
%TO.N,Net-(R4-Pad2)*%
X24450000Y15700000D03*
%TO.P,U1,31*%
%TO.N,Net-(R6-Pad2)*%
X24450000Y14900000D03*
%TO.P,U1,30*%
%TO.N,Net-(TP2-Pad1)*%
X24450000Y14100000D03*
%TO.P,U1,29*%
%TO.N,/DutClk*%
X24450000Y13300000D03*
%TO.P,U1,28*%
%TO.N,Net-(JP3-Pad1)*%
X24450000Y12500000D03*
%TO.P,U1,27*%
%TO.N,Net-(U1-Pad27)*%
X24450000Y11700000D03*
%TO.P,U1,26*%
%TO.N,Net-(U1-Pad26)*%
X24450000Y10900000D03*
%TO.P,U1,25*%
%TO.N,/DutRst*%
X24450000Y10100000D03*
%TO.P,U1,24*%
%TO.N,VCC*%
X24450000Y9300000D03*
%TO.P,U1,23*%
%TO.N,GND*%
X24450000Y8500000D03*
D21*
%TO.P,U1,22*%
%TO.N,Net-(U1-Pad22)*%
X22750000Y6800000D03*
%TO.P,U1,21*%
%TO.N,Net-(U1-Pad21)*%
X21950000Y6800000D03*
%TO.P,U1,20*%
%TO.N,Net-(U1-Pad20)*%
X21150000Y6800000D03*
%TO.P,U1,19*%
%TO.N,Net-(U1-Pad19)*%
X20350000Y6800000D03*
%TO.P,U1,18*%
%TO.N,Net-(U1-Pad18)*%
X19550000Y6800000D03*
%TO.P,U1,17*%
%TO.N,Net-(C1-Pad2)*%
X18750000Y6800000D03*
%TO.P,U1,16*%
%TO.N,Net-(C2-Pad2)*%
X17950000Y6800000D03*
%TO.P,U1,15*%
%TO.N,GND*%
X17150000Y6800000D03*
%TO.P,U1,14*%
%TO.N,VCC*%
X16350000Y6800000D03*
%TO.P,U1,13*%
%TO.N,/RstP*%
X15550000Y6800000D03*
%TO.P,U1,12*%
%TO.N,Net-(U1-Pad12)*%
X14750000Y6800000D03*
D22*
%TO.P,U1,11*%
%TO.N,/MISO*%
X13050000Y8500000D03*
%TO.P,U1,10*%
%TO.N,/MOSI*%
X13050000Y9300000D03*
%TO.P,U1,9*%
%TO.N,/SCK*%
X13050000Y10100000D03*
%TO.P,U1,8*%
%TO.N,Net-(U1-Pad8)*%
X13050000Y10900000D03*
%TO.P,U1,7*%
%TO.N,VBUS*%
X13050000Y11700000D03*
%TO.P,U1,6*%
%TO.N,Net-(C4-Pad1)*%
X13050000Y12500000D03*
%TO.P,U1,5*%
%TO.N,GND*%
X13050000Y13300000D03*
%TO.P,U1,4*%
%TO.N,Net-(R1-Pad1)*%
X13050000Y14100000D03*
%TO.P,U1,3*%
%TO.N,Net-(R2-Pad1)*%
X13050000Y14900000D03*
%TO.P,U1,2*%
%TO.N,VBUS*%
X13050000Y15700000D03*
%TO.P,U1,1*%
%TO.N,/DutRst*%
X13050000Y16500000D03*
%TD*%
D23*
%TO.P,TP3,1*%
%TO.N,/DutClk*%
X31305500Y12827000D03*
%TD*%
%TO.P,TP2,1*%
%TO.N,Net-(TP2-Pad1)*%
X31305500Y15430500D03*
%TD*%
D24*
%TO.P,SW1,6*%
%TO.N,N/C*%
X7700000Y21900000D03*
X15300000Y21900000D03*
X15300000Y24100000D03*
X7700000Y24100000D03*
D25*
%TO.P,SW1,1*%
%TO.N,VBUS*%
X9250000Y20875000D03*
%TO.P,SW1,2*%
%TO.N,VCC*%
X10750000Y20875000D03*
%TO.P,SW1,3*%
%TO.N,+3V3*%
X13750000Y20875000D03*
%TD*%
%TO.P,R9,2*%
%TO.N,/SCK*%
%TA.AperFunction,SMDPad,CuDef*%
G36*
G01*
X37573000Y6609501D02*
X37573000Y5709499D01*
G75*
G02*
X37323001Y5459500I-249999J0D01*
G01*
X36797999Y5459500D01*
G75*
G02*
X36548000Y5709499I0J249999D01*
G01*
X36548000Y6609501D01*
G75*
G02*
X36797999Y6859500I249999J0D01*
G01*
X37323001Y6859500D01*
G75*
G02*
X37573000Y6609501I0J-249999D01*
G01*
G37*
%TD.AperFunction*%
%TO.P,R9,1*%
%TO.N,Net-(J2-Pad3)*%
%TA.AperFunction,SMDPad,CuDef*%
G36*
G01*
X39398000Y6609501D02*
X39398000Y5709499D01*
G75*
G02*
X39148001Y5459500I-249999J0D01*
G01*
X38622999Y5459500D01*
G75*
G02*
X38373000Y5709499I0J249999D01*
G01*
X38373000Y6609501D01*
G75*
G02*
X38622999Y6859500I249999J0D01*
G01*
X39148001Y6859500D01*
G75*
G02*
X39398000Y6609501I0J-249999D01*
G01*
G37*
%TD.AperFunction*%
%TD*%
%TO.P,R8,2*%
%TO.N,/MOSI*%
%TA.AperFunction,SMDPad,CuDef*%
G36*
G01*
X37549500Y4514001D02*
X37549500Y3613999D01*
G75*
G02*
X37299501Y3364000I-249999J0D01*
G01*
X36774499Y3364000D01*
G75*
G02*
X36524500Y3613999I0J249999D01*
G01*
X36524500Y4514001D01*
G75*
G02*
X36774499Y4764000I249999J0D01*
G01*
X37299501Y4764000D01*
G75*
G02*
X37549500Y4514001I0J-249999D01*
G01*
G37*
%TD.AperFunction*%
%TO.P,R8,1*%
%TO.N,Net-(J2-Pad4)*%
%TA.AperFunction,SMDPad,CuDef*%
G36*
G01*
X39374500Y4514001D02*
X39374500Y3613999D01*
G75*
G02*
X39124501Y3364000I-249999J0D01*
G01*
X38599499Y3364000D01*
G75*
G02*
X38349500Y3613999I0J249999D01*
G01*
X38349500Y4514001D01*
G75*
G02*
X38599499Y4764000I249999J0D01*
G01*
X39124501Y4764000D01*
G75*
G02*
X39374500Y4514001I0J-249999D01*
G01*
G37*
%TD.AperFunction*%
%TD*%
%TO.P,R7,2*%
%TO.N,/MISO*%
%TA.AperFunction,SMDPad,CuDef*%
G36*
G01*
X37573000Y8705001D02*
X37573000Y7804999D01*
G75*
G02*
X37323001Y7555000I-249999J0D01*
G01*
X36797999Y7555000D01*
G75*
G02*
X36548000Y7804999I0J249999D01*
G01*
X36548000Y8705001D01*
G75*
G02*
X36797999Y8955000I249999J0D01*
G01*
X37323001Y8955000D01*
G75*
G02*
X37573000Y8705001I0J-249999D01*
G01*
G37*
%TD.AperFunction*%
%TO.P,R7,1*%
%TO.N,Net-(J2-Pad1)*%
%TA.AperFunction,SMDPad,CuDef*%
G36*
G01*
X39398000Y8705001D02*
X39398000Y7804999D01*
G75*
G02*
X39148001Y7555000I-249999J0D01*
G01*
X38622999Y7555000D01*
G75*
G02*
X38373000Y7804999I0J249999D01*
G01*
X38373000Y8705001D01*
G75*
G02*
X38622999Y8955000I249999J0D01*
G01*
X39148001Y8955000D01*
G75*
G02*
X39398000Y8705001I0J-249999D01*
G01*
G37*
%TD.AperFunction*%
%TD*%
%TO.P,R6,2*%
%TO.N,Net-(R6-Pad2)*%
%TA.AperFunction,SMDPad,CuDef*%
G36*
G01*
X36379999Y18356000D02*
X37280001Y18356000D01*
G75*
G02*
X37530000Y18106001I0J-249999D01*
G01*
X37530000Y17580999D01*
G75*
G02*
X37280001Y17331000I-249999J0D01*
G01*
X36379999Y17331000D01*
G75*
G02*
X36130000Y17580999I0J249999D01*
G01*
X36130000Y18106001D01*
G75*
G02*
X36379999Y18356000I249999J0D01*
G01*
G37*
%TD.AperFunction*%
%TO.P,R6,1*%
%TO.N,Net-(D1-Pad1)*%
%TA.AperFunction,SMDPad,CuDef*%
G36*
G01*
X36379999Y20181000D02*
X37280001Y20181000D01*
G75*
G02*
X37530000Y19931001I0J-249999D01*
G01*
X37530000Y19405999D01*
G75*
G02*
X37280001Y19156000I-249999J0D01*
G01*
X36379999Y19156000D01*
G75*
G02*
X36130000Y19405999I0J249999D01*
G01*
X36130000Y19931001D01*
G75*
G02*
X36379999Y20181000I249999J0D01*
G01*
G37*
%TD.AperFunction*%
%TD*%
%TO.P,R5,2*%
%TO.N,Net-(JP2-Pad1)*%
%TA.AperFunction,SMDPad,CuDef*%
G36*
G01*
X36379999Y14800000D02*
X37280001Y14800000D01*
G75*
G02*
X37530000Y14550001I0J-249999D01*
G01*
X37530000Y14024999D01*
G75*
G02*
X37280001Y13775000I-249999J0D01*
G01*
X36379999Y13775000D01*
G75*
G02*
X36130000Y14024999I0J249999D01*
G01*
X36130000Y14550001D01*
G75*
G02*
X36379999Y14800000I249999J0D01*
G01*
G37*
%TD.AperFunction*%
%TO.P,R5,1*%
%TO.N,VCC*%
%TA.AperFunction,SMDPad,CuDef*%
G36*
G01*
X36379999Y16625000D02*
X37280001Y16625000D01*
G75*
G02*
X37530000Y16375001I0J-249999D01*
G01*
X37530000Y15849999D01*
G75*
G02*
X37280001Y15600000I-249999J0D01*
G01*
X36379999Y15600000D01*
G75*
G02*
X36130000Y15849999I0J249999D01*
G01*
X36130000Y16375001D01*
G75*
G02*
X36379999Y16625000I249999J0D01*
G01*
G37*
%TD.AperFunction*%
%TD*%
%TO.P,R4,2*%
%TO.N,Net-(R4-Pad2)*%
%TA.AperFunction,SMDPad,CuDef*%
G36*
G01*
X28326501Y14965000D02*
X27426499Y14965000D01*
G75*
G02*
X27176500Y15214999I0J249999D01*
G01*
X27176500Y15740001D01*
G75*
G02*
X27426499Y15990000I249999J0D01*
G01*
X28326501Y15990000D01*
G75*
G02*
X28576500Y15740001I0J-249999D01*
G01*
X28576500Y15214999D01*
G75*
G02*
X28326501Y14965000I-249999J0D01*
G01*
G37*
%TD.AperFunction*%
%TO.P,R4,1*%
%TO.N,/DutClk*%
%TA.AperFunction,SMDPad,CuDef*%
G36*
G01*
X28326501Y13140000D02*
X27426499Y13140000D01*
G75*
G02*
X27176500Y13389999I0J249999D01*
G01*
X27176500Y13915001D01*
G75*
G02*
X27426499Y14165000I249999J0D01*
G01*
X28326501Y14165000D01*
G75*
G02*
X28576500Y13915001I0J-249999D01*
G01*
X28576500Y13389999D01*
G75*
G02*
X28326501Y13140000I-249999J0D01*
G01*
G37*
%TD.AperFunction*%
%TD*%
%TO.P,R3,2*%
%TO.N,/RstP*%
%TA.AperFunction,SMDPad,CuDef*%
G36*
G01*
X12896001Y3956000D02*
X11995999Y3956000D01*
G75*
G02*
X11746000Y4205999I0J249999D01*
G01*
X11746000Y4731001D01*
G75*
G02*
X11995999Y4981000I249999J0D01*
G01*
X12896001Y4981000D01*
G75*
G02*
X13146000Y4731001I0J-249999D01*
G01*
X13146000Y4205999D01*
G75*
G02*
X12896001Y3956000I-249999J0D01*
G01*
G37*
%TD.AperFunction*%
%TO.P,R3,1*%
%TO.N,VCC*%
%TA.AperFunction,SMDPad,CuDef*%
G36*
G01*
X12896001Y2131000D02*
X11995999Y2131000D01*
G75*
G02*
X11746000Y2380999I0J249999D01*
G01*
X11746000Y2906001D01*
G75*
G02*
X11995999Y3156000I249999J0D01*
G01*
X12896001Y3156000D01*
G75*
G02*
X13146000Y2906001I0J-249999D01*
G01*
X13146000Y2380999D01*
G75*
G02*
X12896001Y2131000I-249999J0D01*
G01*
G37*
%TD.AperFunction*%
%TD*%
%TO.P,R2,2*%
%TO.N,Net-(J1-Pad2)*%
%TA.AperFunction,SMDPad,CuDef*%
G36*
G01*
X7799999Y12187500D02*
X8700001Y12187500D01*
G75*
G02*
X8950000Y11937501I0J-249999D01*
G01*
X8950000Y11412499D01*
G75*
G02*
X8700001Y11162500I-249999J0D01*
G01*
X7799999Y11162500D01*
G75*
G02*
X7550000Y11412499I0J249999D01*
G01*
X7550000Y11937501D01*
G75*
G02*
X7799999Y12187500I249999J0D01*
G01*
G37*
%TD.AperFunction*%
%TO.P,R2,1*%
%TO.N,Net-(R2-Pad1)*%
%TA.AperFunction,SMDPad,CuDef*%
G36*
G01*
X7799999Y14012500D02*
X8700001Y14012500D01*
G75*
G02*
X8950000Y13762501I0J-249999D01*
G01*
X8950000Y13237499D01*
G75*
G02*
X8700001Y12987500I-249999J0D01*
G01*
X7799999Y12987500D01*
G75*
G02*
X7550000Y13237499I0J249999D01*
G01*
X7550000Y13762501D01*
G75*
G02*
X7799999Y14012500I249999J0D01*
G01*
G37*
%TD.AperFunction*%
%TD*%
%TO.P,R1,2*%
%TO.N,Net-(J1-Pad3)*%
%TA.AperFunction,SMDPad,CuDef*%
G36*
G01*
X7799999Y8437500D02*
X8700001Y8437500D01*
G75*
G02*
X8950000Y8187501I0J-249999D01*
G01*
X8950000Y7662499D01*
G75*
G02*
X8700001Y7412500I-249999J0D01*
G01*
X7799999Y7412500D01*
G75*
G02*
X7550000Y7662499I0J249999D01*
G01*
X7550000Y8187501D01*
G75*
G02*
X7799999Y8437500I249999J0D01*
G01*
G37*
%TD.AperFunction*%
%TO.P,R1,1*%
%TO.N,Net-(R1-Pad1)*%
%TA.AperFunction,SMDPad,CuDef*%
G36*
G01*
X7799999Y10262500D02*
X8700001Y10262500D01*
G75*
G02*
X8950000Y10012501I0J-249999D01*
G01*
X8950000Y9487499D01*
G75*
G02*
X8700001Y9237500I-249999J0D01*
G01*
X7799999Y9237500D01*
G75*
G02*
X7550000Y9487499I0J249999D01*
G01*
X7550000Y10012501D01*
G75*
G02*
X7799999Y10262500I249999J0D01*
G01*
G37*
%TD.AperFunction*%
%TD*%
D26*
%TO.P,32u4,10*%
%TO.N,GND*%
X4889500Y2667000D03*
%TO.P,32u4,9*%
%TO.N,/MISO*%
X4889500Y3937000D03*
%TO.P,32u4,8*%
%TO.N,GND*%
X6159500Y2667000D03*
%TO.P,32u4,7*%
%TO.N,/SCK*%
X6159500Y3937000D03*
%TO.P,32u4,6*%
%TO.N,GND*%
X7429500Y2667000D03*
%TO.P,32u4,5*%
%TO.N,/RstP*%
X7429500Y3937000D03*
%TO.P,32u4,4*%
%TO.N,GND*%
X8699500Y2667000D03*
%TO.P,32u4,3*%
%TO.N,Net-(JPROG1-Pad3)*%
X8699500Y3937000D03*
%TO.P,32u4,2*%
%TO.N,VCC*%
X9969500Y2667000D03*
D27*
%TO.P,32u4,1*%
%TO.N,/MOSI*%
X9969500Y3937000D03*
%TD*%
D18*
%TO.P,JP3,1*%
%TO.N,Net-(JP3-Pad1)*%
X27876500Y11714000D03*
%TO.P,JP3,2*%
%TO.N,/DutRst*%
X27876500Y10414000D03*
%TD*%
D28*
%TO.P,JP2,1*%
%TO.N,Net-(JP2-Pad1)*%
X36860000Y12128500D03*
%TO.P,JP2,2*%
%TO.N,GND*%
X35560000Y12128500D03*
%TD*%
D12*
%TO.P,DUT,6*%
%TO.N,GND*%
X45540000Y10033000D03*
%TO.P,DUT,5*%
%TO.N,/DutRst*%
X43000000Y10033000D03*
%TO.P,DUT,4*%
%TO.N,Net-(J2-Pad4)*%
X45540000Y12573000D03*
%TO.P,DUT,3*%
%TO.N,Net-(J2-Pad3)*%
X43000000Y12573000D03*
%TO.P,DUT,2*%
%TO.N,/VProg*%
X45540000Y15113000D03*
D13*
%TO.P,DUT,1*%
%TO.N,Net-(J2-Pad1)*%
X43000000Y15113000D03*
%TD*%
%TO.P,D1,2*%
%TO.N,+3V3*%
%TA.AperFunction,SMDPad,CuDef*%
G36*
G01*
X37286250Y22850500D02*
X36373750Y22850500D01*
G75*
G02*
X36130000Y23094250I0J243750D01*
G01*
X36130000Y23581750D01*
G75*
G02*
X36373750Y23825500I243750J0D01*
G01*
X37286250Y23825500D01*
G75*
G02*
X37530000Y23581750I0J-243750D01*
G01*
X37530000Y23094250D01*
G75*
G02*
X37286250Y22850500I-243750J0D01*
G01*
G37*
%TD.AperFunction*%
%TO.P,D1,1*%
%TO.N,Net-(D1-Pad1)*%
%TA.AperFunction,SMDPad,CuDef*%
G36*
G01*
X37286250Y20975500D02*
X36373750Y20975500D01*
G75*
G02*
X36130000Y21219250I0J243750D01*
G01*
X36130000Y21706750D01*
G75*
G02*
X36373750Y21950500I243750J0D01*
G01*
X37286250Y21950500D01*
G75*
G02*
X37530000Y21706750I0J-243750D01*
G01*
X37530000Y21219250D01*
G75*
G02*
X37286250Y20975500I-243750J0D01*
G01*
G37*
%TD.AperFunction*%
%TD*%
%TO.P,C8,2*%
%TO.N,GND*%
%TA.AperFunction,SMDPad,CuDef*%
G36*
G01*
X26065500Y22863000D02*
X25115500Y22863000D01*
G75*
G02*
X24865500Y23113000I0J250000D01*
G01*
X24865500Y23613000D01*
G75*
G02*
X25115500Y23863000I250000J0D01*
G01*
X26065500Y23863000D01*
G75*
G02*
X26315500Y23613000I0J-250000D01*
G01*
X26315500Y23113000D01*
G75*
G02*
X26065500Y22863000I-250000J0D01*
G01*
G37*
%TD.AperFunction*%
%TO.P,C8,1*%
%TO.N,+3V3*%
%TA.AperFunction,SMDPad,CuDef*%
G36*
G01*
X26065500Y20963000D02*
X25115500Y20963000D01*
G75*
G02*
X24865500Y21213000I0J250000D01*
G01*
X24865500Y21713000D01*
G75*
G02*
X25115500Y21963000I250000J0D01*
G01*
X26065500Y21963000D01*
G75*
G02*
X26315500Y21713000I0J-250000D01*
G01*
X26315500Y21213000D01*
G75*
G02*
X26065500Y20963000I-250000J0D01*
G01*
G37*
%TD.AperFunction*%
%TD*%
%TO.P,C7,2*%
%TO.N,GND*%
%TA.AperFunction,SMDPad,CuDef*%
G36*
G01*
X23716000Y22863000D02*
X22766000Y22863000D01*
G75*
G02*
X22516000Y23113000I0J250000D01*
G01*
X22516000Y23613000D01*
G75*
G02*
X22766000Y23863000I250000J0D01*
G01*
X23716000Y23863000D01*
G75*
G02*
X23966000Y23613000I0J-250000D01*
G01*
X23966000Y23113000D01*
G75*
G02*
X23716000Y22863000I-250000J0D01*
G01*
G37*
%TD.AperFunction*%
%TO.P,C7,1*%
%TO.N,VBUS*%
%TA.AperFunction,SMDPad,CuDef*%
G36*
G01*
X23716000Y20963000D02*
X22766000Y20963000D01*
G75*
G02*
X22516000Y21213000I0J250000D01*
G01*
X22516000Y21713000D01*
G75*
G02*
X22766000Y21963000I250000J0D01*
G01*
X23716000Y21963000D01*
G75*
G02*
X23966000Y21713000I0J-250000D01*
G01*
X23966000Y21213000D01*
G75*
G02*
X23716000Y20963000I-250000J0D01*
G01*
G37*
%TD.AperFunction*%
%TD*%
%TO.P,C6,2*%
%TO.N,VCC*%
%TA.AperFunction,SMDPad,CuDef*%
G36*
G01*
X27871000Y8793500D02*
X27871000Y7843500D01*
G75*
G02*
X27621000Y7593500I-250000J0D01*
G01*
X27121000Y7593500D01*
G75*
G02*
X26871000Y7843500I0J250000D01*
G01*
X26871000Y8793500D01*
G75*
G02*
X27121000Y9043500I250000J0D01*
G01*
X27621000Y9043500D01*
G75*
G02*
X27871000Y8793500I0J-250000D01*
G01*
G37*
%TD.AperFunction*%
%TO.P,C6,1*%
%TO.N,GND*%
%TA.AperFunction,SMDPad,CuDef*%
G36*
G01*
X29771000Y8793500D02*
X29771000Y7843500D01*
G75*
G02*
X29521000Y7593500I-250000J0D01*
G01*
X29021000Y7593500D01*
G75*
G02*
X28771000Y7843500I0J250000D01*
G01*
X28771000Y8793500D01*
G75*
G02*
X29021000Y9043500I250000J0D01*
G01*
X29521000Y9043500D01*
G75*
G02*
X29771000Y8793500I0J-250000D01*
G01*
G37*
%TD.AperFunction*%
%TD*%
%TO.P,C5,2*%
%TO.N,VCC*%
%TA.AperFunction,SMDPad,CuDef*%
G36*
G01*
X15016500Y4006000D02*
X14066500Y4006000D01*
G75*
G02*
X13816500Y4256000I0J250000D01*
G01*
X13816500Y4756000D01*
G75*
G02*
X14066500Y5006000I250000J0D01*
G01*
X15016500Y5006000D01*
G75*
G02*
X15266500Y4756000I0J-250000D01*
G01*
X15266500Y4256000D01*
G75*
G02*
X15016500Y4006000I-250000J0D01*
G01*
G37*
%TD.AperFunction*%
%TO.P,C5,1*%
%TO.N,GND*%
%TA.AperFunction,SMDPad,CuDef*%
G36*
G01*
X15016500Y2106000D02*
X14066500Y2106000D01*
G75*
G02*
X13816500Y2356000I0J250000D01*
G01*
X13816500Y2856000D01*
G75*
G02*
X14066500Y3106000I250000J0D01*
G01*
X15016500Y3106000D01*
G75*
G02*
X15266500Y2856000I0J-250000D01*
G01*
X15266500Y2356000D01*
G75*
G02*
X15016500Y2106000I-250000J0D01*
G01*
G37*
%TD.AperFunction*%
%TD*%
%TO.P,C4,2*%
%TO.N,GND*%
%TA.AperFunction,SMDPad,CuDef*%
G36*
G01*
X10275000Y11000000D02*
X11225000Y11000000D01*
G75*
G02*
X11475000Y10750000I0J-250000D01*
G01*
X11475000Y10250000D01*
G75*
G02*
X11225000Y10000000I-250000J0D01*
G01*
X10275000Y10000000D01*
G75*
G02*
X10025000Y10250000I0J250000D01*
G01*
X10025000Y10750000D01*
G75*
G02*
X10275000Y11000000I250000J0D01*
G01*
G37*
%TD.AperFunction*%
%TO.P,C4,1*%
%TO.N,Net-(C4-Pad1)*%
%TA.AperFunction,SMDPad,CuDef*%
G36*
G01*
X10275000Y12900000D02*
X11225000Y12900000D01*
G75*
G02*
X11475000Y12650000I0J-250000D01*
G01*
X11475000Y12150000D01*
G75*
G02*
X11225000Y11900000I-250000J0D01*
G01*
X10275000Y11900000D01*
G75*
G02*
X10025000Y12150000I0J250000D01*
G01*
X10025000Y12650000D01*
G75*
G02*
X10275000Y12900000I250000J0D01*
G01*
G37*
%TD.AperFunction*%
%TD*%
%TO.P,C3,2*%
%TO.N,Net-(C3-Pad2)*%
%TA.AperFunction,SMDPad,CuDef*%
G36*
G01*
X19936000Y20795000D02*
X19936000Y19845000D01*
G75*
G02*
X19686000Y19595000I-250000J0D01*
G01*
X19186000Y19595000D01*
G75*
G02*
X18936000Y19845000I0J250000D01*
G01*
X18936000Y20795000D01*
G75*
G02*
X19186000Y21045000I250000J0D01*
G01*
X19686000Y21045000D01*
G75*
G02*
X19936000Y20795000I0J-250000D01*
G01*
G37*
%TD.AperFunction*%
%TO.P,C3,1*%
%TO.N,GND*%
%TA.AperFunction,SMDPad,CuDef*%
G36*
G01*
X21836000Y20795000D02*
X21836000Y19845000D01*
G75*
G02*
X21586000Y19595000I-250000J0D01*
G01*
X21086000Y19595000D01*
G75*
G02*
X20836000Y19845000I0J250000D01*
G01*
X20836000Y20795000D01*
G75*
G02*
X21086000Y21045000I250000J0D01*
G01*
X21586000Y21045000D01*
G75*
G02*
X21836000Y20795000I0J-250000D01*
G01*
G37*
%TD.AperFunction*%
%TD*%
%TO.P,C2,2*%
%TO.N,Net-(C2-Pad2)*%
%TA.AperFunction,SMDPad,CuDef*%
G36*
G01*
X17366000Y4003500D02*
X16416000Y4003500D01*
G75*
G02*
X16166000Y4253500I0J250000D01*
G01*
X16166000Y4753500D01*
G75*
G02*
X16416000Y5003500I250000J0D01*
G01*
X17366000Y5003500D01*
G75*
G02*
X17616000Y4753500I0J-250000D01*
G01*
X17616000Y4253500D01*
G75*
G02*
X17366000Y4003500I-250000J0D01*
G01*
G37*
%TD.AperFunction*%
%TO.P,C2,1*%
%TO.N,GND*%
%TA.AperFunction,SMDPad,CuDef*%
G36*
G01*
X17366000Y2103500D02*
X16416000Y2103500D01*
G75*
G02*
X16166000Y2353500I0J250000D01*
G01*
X16166000Y2853500D01*
G75*
G02*
X16416000Y3103500I250000J0D01*
G01*
X17366000Y3103500D01*
G75*
G02*
X17616000Y2853500I0J-250000D01*
G01*
X17616000Y2353500D01*
G75*
G02*
X17366000Y2103500I-250000J0D01*
G01*
G37*
%TD.AperFunction*%
%TD*%
%TO.P,C1,2*%
%TO.N,Net-(C1-Pad2)*%
%TA.AperFunction,SMDPad,CuDef*%
G36*
G01*
X32545000Y3548000D02*
X33495000Y3548000D01*
G75*
G02*
X33745000Y3298000I0J-250000D01*
G01*
X33745000Y2798000D01*
G75*
G02*
X33495000Y2548000I-250000J0D01*
G01*
X32545000Y2548000D01*
G75*
G02*
X32295000Y2798000I0J250000D01*
G01*
X32295000Y3298000D01*
G75*
G02*
X32545000Y3548000I250000J0D01*
G01*
G37*
%TD.AperFunction*%
%TO.P,C1,1*%
%TO.N,GND*%
%TA.AperFunction,SMDPad,CuDef*%
G36*
G01*
X32545000Y5448000D02*
X33495000Y5448000D01*
G75*
G02*
X33745000Y5198000I0J-250000D01*
G01*
X33745000Y4698000D01*
G75*
G02*
X33495000Y4448000I-250000J0D01*
G01*
X32545000Y4448000D01*
G75*
G02*
X32295000Y4698000I0J250000D01*
G01*
X32295000Y5198000D01*
G75*
G02*
X32545000Y5448000I250000J0D01*
G01*
G37*
%TD.AperFunction*%
%TD*%
D29*
%TO.N,GND*%
X1000000Y12500000D03*
X1000000Y8500000D03*
X1000000Y16500000D03*
X6500000Y17500000D03*
X5500000Y17500000D03*
X4500000Y17500000D03*
X1000000Y17500000D03*
X1000000Y15500000D03*
X1000000Y9500000D03*
X1000000Y7500000D03*
X6500000Y7500000D03*
X5500000Y7500000D03*
X4500000Y7500000D03*
X10985500Y13589000D03*
X30416500Y23368000D03*
X30353000Y22352000D03*
X21971000Y23876000D03*
X15684500Y1524000D03*
X10160000Y9017000D03*
X17438386Y8127781D03*
X30607000Y8191500D03*
X34544000Y4762500D03*
X33909000Y11811000D03*
X25865835Y8489407D03*
X15690696Y19742304D03*
X22479000Y19875500D03*
%TO.N,VCC*%
X16256000Y8213790D03*
X16383000Y10350500D03*
X22225000Y13208000D03*
X29591000Y11874500D03*
%TO.N,VBUS*%
X12446000Y21844000D03*
X19431000Y21844000D03*
%TO.N,/DutRst*%
X37592000Y10160000D03*
X19812000Y10985500D03*
X22987000Y10922000D03*
%TO.N,Net-(JP2-Pad1)*%
X27940000Y16764000D03*
X33718500Y15430500D03*
%TO.N,/MISO*%
X7493000Y6413500D03*
X10858500Y6731000D03*
X21399500Y8445500D03*
X25273000Y7429500D03*
%TO.N,/RstP*%
X9080500Y5715000D03*
X10858500Y5651500D03*
%TO.N,Net-(R6-Pad2)*%
X26225500Y14859000D03*
X29337000Y15240000D03*
%TD*%
D30*
%TO.N,Net-(C1-Pad2)*%
X18732500Y6095338D02*
X18732500Y6794500D01*
X20065669Y4762169D02*
X18732500Y6095338D01*
X24447500Y2921000D02*
X22606331Y4762169D01*
X22606331Y4762169D02*
X20065669Y4762169D01*
X29146500Y2921000D02*
X24447500Y2921000D01*
X33020000Y3109000D02*
X29271000Y3109000D01*
X29271000Y3109000D02*
X29083000Y2921000D01*
D31*
%TO.N,GND*%
X13050000Y13300000D02*
X11274500Y13300000D01*
X11274500Y13300000D02*
X10985500Y13589000D01*
D32*
X29859000Y22810500D02*
X30416500Y23368000D01*
X28028500Y22810500D02*
X29859000Y22810500D01*
X29859000Y22810500D02*
X29894500Y22810500D01*
X29894500Y22810500D02*
X30353000Y22352000D01*
D33*
X22484000Y23363000D02*
X21971000Y23876000D01*
X23241000Y23363000D02*
X22484000Y23363000D01*
X23241000Y23363000D02*
X25585500Y23363000D01*
D30*
X14605000Y2603500D02*
X14478000Y2603500D01*
X15684500Y2603500D02*
X14605000Y2603500D01*
X15684500Y1524000D02*
X15684500Y2603500D01*
X16891000Y2603500D02*
X15684500Y2603500D01*
X10750000Y9607000D02*
X10160000Y9017000D01*
X10750000Y10500000D02*
X10750000Y9607000D01*
D33*
X17150000Y7839395D02*
X17438386Y8127781D01*
X17150000Y6800000D02*
X17150000Y7839395D01*
D30*
X30480000Y8318500D02*
X30607000Y8191500D01*
X29271000Y8318500D02*
X30480000Y8318500D01*
X34358500Y4948000D02*
X34544000Y4762500D01*
X33020000Y4948000D02*
X34358500Y4948000D01*
X34226500Y12128500D02*
X33909000Y11811000D01*
X35560000Y12128500D02*
X34226500Y12128500D01*
D33*
X25855242Y8500000D02*
X25865835Y8489407D01*
X24450000Y8500000D02*
X25855242Y8500000D01*
X29271000Y8318500D02*
X29400500Y8318500D01*
D30*
X15550000Y18200000D02*
X15550000Y19601608D01*
X15550000Y19601608D02*
X15690696Y19742304D01*
X21336000Y20320000D02*
X22034500Y20320000D01*
X22034500Y20320000D02*
X22479000Y19875500D01*
X21950000Y18200000D02*
X21950000Y19346500D01*
X21950000Y19346500D02*
X22479000Y19875500D01*
%TO.N,Net-(C2-Pad2)*%
X18554000Y2909000D02*
X20672000Y2909000D01*
X16954500Y4508500D02*
X18554000Y2909000D01*
X17950000Y5504000D02*
X16954500Y4508500D01*
X17950000Y6800000D02*
X17950000Y5504000D01*
D33*
%TO.N,Net-(C3-Pad2)*%
X19436000Y20320000D02*
X17272000Y20320000D01*
X16350000Y19109944D02*
X17223500Y19983444D01*
X17223500Y19983444D02*
X17223500Y20305000D01*
X16350000Y18200000D02*
X16350000Y19109944D01*
D31*
%TO.N,Net-(C4-Pad1)*%
X13050000Y12500000D02*
X11000000Y12500000D01*
D33*
%TO.N,VCC*%
X10750000Y20875000D02*
X10750000Y19285500D01*
X10750000Y19285500D02*
X11874500Y18161000D01*
X11874500Y18161000D02*
X14732000Y18161000D01*
X14750000Y17145200D02*
X15004200Y16891000D01*
X14750000Y18200000D02*
X14750000Y17145200D01*
X22300322Y16891000D02*
X22733000Y17323678D01*
X15004200Y16891000D02*
X22300322Y16891000D01*
X22733000Y17323678D02*
X22733000Y18224500D01*
D30*
X9969500Y2667000D02*
X12382500Y2667000D01*
X12446000Y2643500D02*
X12676500Y2643500D01*
X12676500Y2643500D02*
X12915662Y2643500D01*
X12676500Y2643500D02*
X14541500Y4508500D01*
X14541500Y4506000D02*
X14793000Y4506000D01*
D33*
X23524446Y9271000D02*
X23619678Y9271000D01*
X22234599Y10560847D02*
X23524446Y9271000D01*
X22300322Y16891000D02*
X22234599Y16825277D01*
X16350000Y6800000D02*
X16350000Y8119790D01*
D30*
X16350000Y8119790D02*
X16256000Y8213790D01*
D33*
X22234599Y10560847D02*
X22234599Y10550599D01*
X22234599Y10550599D02*
X21780500Y10096500D01*
X16637000Y10096500D02*
X16383000Y10350500D01*
X21780500Y10096500D02*
X16637000Y10096500D01*
X23524446Y9271000D02*
X24447500Y9271000D01*
X26355000Y9334500D02*
X27371000Y8318500D01*
X24447500Y9334500D02*
X26355000Y9334500D01*
X39116000Y16129000D02*
X36830000Y16129000D01*
X42460000Y19473000D02*
X39116000Y16129000D01*
X42460000Y22415500D02*
X42460000Y19473000D01*
X22234599Y13198401D02*
X22225000Y13208000D01*
X22225000Y13208000D02*
X22234599Y10560847D01*
X22234599Y16825277D02*
X22234599Y13198401D01*
X29990999Y11474501D02*
X31584555Y11474501D01*
X32966099Y15791653D02*
X33357347Y16182901D01*
X32966099Y12856045D02*
X32966099Y15791653D01*
X29591000Y11874500D02*
X29990999Y11474501D01*
X33357347Y16182901D02*
X36712599Y16182901D01*
X31584555Y11474501D02*
X32966099Y12856045D01*
X36712599Y16182901D02*
X36830000Y16065500D01*
D30*
X16350000Y6800000D02*
X16350000Y5682000D01*
X14986000Y4445000D02*
X14859000Y4572000D01*
X16350000Y5682000D02*
X15113000Y4445000D01*
X14859000Y4572000D02*
X14668500Y4572000D01*
X14668500Y4572000D02*
X14541500Y4445000D01*
X15113000Y4445000D02*
X14986000Y4445000D01*
D33*
X16446500Y21590000D02*
X16624178Y21590000D01*
X16192500Y21336000D02*
X16446500Y21590000D01*
X16192500Y21308178D02*
X16192500Y21336000D01*
X14750000Y19865678D02*
X16192500Y21308178D01*
X14750000Y18200000D02*
X14750000Y19865678D01*
%TO.N,VBUS*%
X12300000Y15700000D02*
X9800000Y15700000D01*
X9800000Y15700000D02*
X8250000Y17250000D01*
X14050000Y15700000D02*
X14250000Y15500000D01*
X13050000Y15700000D02*
X14050000Y15700000D01*
X14250000Y11900000D02*
X14250000Y15500000D01*
X14050000Y11700000D02*
X14250000Y11900000D01*
X13050000Y11700000D02*
X14050000Y11700000D01*
X8250000Y17250000D02*
X8250000Y18600500D01*
X8250000Y18600500D02*
X9271000Y19621500D01*
X9271000Y19621500D02*
X9271000Y20828000D01*
X21844000Y21463000D02*
X21463000Y21844000D01*
X23241000Y21463000D02*
X21844000Y21463000D01*
X19431000Y21844000D02*
X21463000Y21844000D01*
X9453099Y21852401D02*
X12437599Y21852401D01*
X9250000Y21649302D02*
X9453099Y21852401D01*
X12437599Y21852401D02*
X12446000Y21844000D01*
X9250000Y20875000D02*
X9250000Y21649302D01*
X26035000Y18605500D02*
X23177500Y21463000D01*
X26430000Y18210500D02*
X26035000Y18605500D01*
X28028500Y18210500D02*
X26430000Y18210500D01*
D32*
%TO.N,+3V3*%
X34328500Y20510500D02*
X27940000Y20510500D01*
D33*
X26606500Y20447000D02*
X28003500Y20447000D01*
X13750000Y20875000D02*
X13750000Y21834322D01*
X21687554Y22733000D02*
X22058956Y22361598D01*
X14648678Y22733000D02*
X21687554Y22733000D01*
X22058956Y22361598D02*
X24691902Y22361598D01*
X13750000Y21834322D02*
X14648678Y22733000D01*
X24691902Y22361598D02*
X26606500Y20447000D01*
D30*
X34328500Y20510500D02*
X34328500Y20930000D01*
X34328500Y20930000D02*
X36703000Y23304500D01*
%TO.N,Net-(D1-Pad1)*%
X36830000Y21463000D02*
X36830000Y19748500D01*
D33*
%TO.N,Net-(F1-Pad2)*%
X5500000Y13800000D02*
X6550000Y13800000D01*
X7000000Y14250000D02*
X8250000Y15500000D01*
X6550000Y13800000D02*
X7000000Y14250000D01*
D31*
%TO.N,Net-(J1-Pad2)*%
X6736410Y13150000D02*
X8136410Y11750000D01*
X5500000Y13150000D02*
X6736410Y13150000D01*
%TO.N,Net-(J1-Pad3)*%
X7224990Y8950010D02*
X7224990Y11174320D01*
X8250000Y7925000D02*
X7224990Y8950010D01*
X7224990Y12025010D02*
X6750000Y12500000D01*
X7224990Y11174320D02*
X7224990Y12025010D01*
X6750000Y12500000D02*
X6500000Y12500000D01*
X6500000Y12500000D02*
X5500000Y12500000D01*
D30*
%TO.N,/DutRst*%
X24450000Y10100000D02*
X27626000Y10100000D01*
X27626000Y10100000D02*
X27876500Y10350500D01*
X37338000Y10414000D02*
X37592000Y10160000D01*
X27876500Y10414000D02*
X37338000Y10414000D01*
X13952400Y16500000D02*
X19466900Y10985500D01*
X13050000Y16500000D02*
X13952400Y16500000D01*
X19466900Y10985500D02*
X19812000Y10985500D01*
X24450000Y10100000D02*
X23364500Y10100000D01*
X22987000Y10477500D02*
X22987000Y10922000D01*
X23364500Y10100000D02*
X22987000Y10477500D01*
%TO.N,Net-(J2-Pad4)*%
X38862000Y4064000D02*
X40195500Y5397500D01*
X44126201Y9328201D02*
X44126201Y11106201D01*
X40195500Y5397500D02*
X44126201Y9328201D01*
X44126201Y11106201D02*
X45593000Y12573000D01*
X45593000Y12573000D02*
X45529500Y12573000D01*
%TO.N,Net-(J2-Pad3)*%
X39674210Y6948210D02*
X39674210Y9194210D01*
X38885500Y6159500D02*
X39674210Y6948210D01*
X39674210Y9194210D02*
X43053000Y12573000D01*
D33*
%TO.N,/VProg*%
X45000000Y22415500D02*
X45000000Y15642500D01*
D30*
%TO.N,Net-(J2-Pad1)*%
X38885500Y8255000D02*
X38885500Y10945500D01*
X38885500Y10945500D02*
X43053000Y15113000D01*
%TO.N,Net-(JP2-Pad1)*%
X27940000Y16764000D02*
X26289000Y16764000D01*
X26289000Y16764000D02*
X26035000Y16510000D01*
X26035000Y16510000D02*
X24447500Y16510000D01*
X36860000Y12128500D02*
X36860000Y14194000D01*
X36860000Y14194000D02*
X36830000Y14224000D01*
X36830000Y14287500D02*
X34861500Y14287500D01*
X34861500Y14287500D02*
X33718500Y15430500D01*
%TO.N,Net-(JP3-Pad1)*%
X27876500Y11714000D02*
X26640000Y11714000D01*
X26640000Y11714000D02*
X25908000Y12446000D01*
X25908000Y12446000D02*
X24511000Y12446000D01*
%TO.N,/MISO*%
X4889500Y3937000D02*
X7429500Y6477000D01*
X7429500Y6477000D02*
X7493000Y6413500D01*
X12065000Y8509000D02*
X13017500Y8509000D01*
X10858500Y7302500D02*
X12065000Y8509000D01*
X10858500Y6731000D02*
X10858500Y7302500D01*
X15826720Y8890000D02*
X20955000Y8890000D01*
X13050000Y8500000D02*
X15436720Y8500000D01*
X15436720Y8500000D02*
X15826720Y8890000D01*
X20955000Y8890000D02*
X21399500Y8445500D01*
X35985501Y7093001D02*
X25609499Y7093001D01*
X37147500Y8255000D02*
X35985501Y7093001D01*
X25609499Y7093001D02*
X25273000Y7429500D01*
%TO.N,/SCK*%
X6159500Y3937000D02*
X8191500Y5969000D01*
X8191500Y5969000D02*
X12319000Y10096500D01*
X12319000Y10096500D02*
X13081000Y10096500D01*
X36195000Y6159500D02*
X37020500Y6159500D01*
X35648708Y6705792D02*
X36195000Y6159500D01*
X14982500Y10100000D02*
X15430500Y9652000D01*
X24780592Y6705792D02*
X35648708Y6705792D01*
X21834384Y9652000D02*
X24780592Y6705792D01*
X15430500Y9652000D02*
X21834384Y9652000D01*
X13050000Y10100000D02*
X14982500Y10100000D01*
%TO.N,/RstP*%
X15550000Y6800000D02*
X15550000Y5834500D01*
X15550000Y5834500D02*
X15240000Y5524500D01*
X15240000Y5524500D02*
X13525500Y5524500D01*
X13525500Y5524500D02*
X12509500Y4508500D01*
X7429500Y3937000D02*
X9017000Y5524500D01*
X9017000Y5651500D02*
X9080500Y5715000D01*
X9017000Y5524500D02*
X9017000Y5651500D01*
X10858500Y5651500D02*
X12001500Y4508500D01*
X12001500Y4508500D02*
X12382500Y4508500D01*
%TO.N,/MOSI*%
X9969500Y6941662D02*
X9969500Y3937000D01*
X12327838Y9300000D02*
X9969500Y6941662D01*
X13050000Y9300000D02*
X12327838Y9300000D01*
X13050000Y9300000D02*
X15284116Y9300000D01*
X15284116Y9300000D02*
X15284527Y9299589D01*
X24634619Y6353381D02*
X34731119Y6353381D01*
X15284527Y9299589D02*
X21688411Y9299589D01*
X34731119Y6353381D02*
X37020500Y4064000D01*
X21688411Y9299589D02*
X24634619Y6353381D01*
D31*
%TO.N,Net-(R1-Pad1)*%
X13050000Y14100000D02*
X11547504Y14100000D01*
X9500000Y11000000D02*
X8250000Y9750000D01*
X11547504Y14100000D02*
X11333502Y14314002D01*
X11333502Y14314002D02*
X10529917Y14314002D01*
X10529917Y14314002D02*
X9500000Y13284085D01*
X9500000Y13284085D02*
X9500000Y11000000D01*
%TO.N,Net-(R2-Pad1)*%
X12300000Y14900000D02*
X9650000Y14900000D01*
X9650000Y14900000D02*
X8250000Y13500000D01*
D30*
%TO.N,Net-(R4-Pad2)*%
X24450000Y15700000D02*
X27670500Y15700000D01*
%TO.N,/DutClk*%
X31305500Y12827000D02*
X30480000Y13652500D01*
X30480000Y13652500D02*
X27876500Y13652500D01*
X27876500Y13652500D02*
X26422500Y13652500D01*
X26422500Y13652500D02*
X26070000Y13300000D01*
X24450000Y13300000D02*
X26070000Y13300000D01*
%TO.N,Net-(R6-Pad2)*%
X26184500Y14900000D02*
X26225500Y14859000D01*
X24450000Y14900000D02*
X26184500Y14900000D01*
X36655391Y17827609D02*
X36703000Y17780000D01*
X31924609Y17827609D02*
X36655391Y17827609D01*
X29337000Y15240000D02*
X31924609Y17827609D01*
%TO.N,Net-(TP2-Pad1)*%
X27208534Y14441210D02*
X29754790Y14441210D01*
X26867324Y14100000D02*
X27208534Y14441210D01*
X24450000Y14100000D02*
X26867324Y14100000D01*
X29754790Y14441210D02*
X29818290Y14441210D01*
X29754790Y14441210D02*
X30316210Y14441210D01*
X30316210Y14441210D02*
X31305500Y15430500D01*
%TD*%
%TO.N,GND*%
X6923800Y14856299D02*
X6675518Y14608017D01*
X6675513Y14608013D01*
X6399298Y14331797D01*
X5338109Y14331797D01*
X5360200Y14442855D01*
X5360200Y14557145D01*
X5337903Y14669238D01*
X5337670Y14669800D01*
X5487302Y14669800D01*
X5487302Y14752348D01*
X5569850Y14669800D01*
X6009500Y14668202D01*
X6074231Y14674577D01*
X6136474Y14693459D01*
X6193837Y14724120D01*
X6244117Y14765383D01*
X6285380Y14815663D01*
X6316041Y14873026D01*
X6334923Y14935269D01*
X6341298Y15000000D01*
X6339700Y15489650D01*
X6257150Y15572200D01*
X5487300Y15572200D01*
X5487300Y15552200D01*
X5131700Y15552200D01*
X5131700Y15572200D01*
X4361850Y15572200D01*
X4279300Y15489650D01*
X4277702Y15000000D01*
X4284077Y14935269D01*
X4302959Y14873026D01*
X4315620Y14849339D01*
X4265834Y14774828D01*
X4222097Y14669238D01*
X4199800Y14557145D01*
X4199800Y14442855D01*
X4222097Y14330762D01*
X4265834Y14225172D01*
X4310343Y14158559D01*
X4293460Y14126973D01*
X4274578Y14064730D01*
X4268203Y14000000D01*
X4268203Y13600000D01*
X4274578Y13535270D01*
X4292861Y13475000D01*
X4274578Y13414730D01*
X4268203Y13350000D01*
X4268203Y12950000D01*
X4274578Y12885270D01*
X4292861Y12825000D01*
X4274578Y12764730D01*
X4268203Y12700000D01*
X4268203Y12300000D01*
X4274578Y12235270D01*
X4292861Y12175000D01*
X4274578Y12114730D01*
X4268203Y12050000D01*
X4268203Y11650000D01*
X4274578Y11585270D01*
X4292907Y11524850D01*
X4274772Y11465700D01*
X4269800Y11406350D01*
X4352350Y11323800D01*
X4543170Y11323800D01*
X4600000Y11318203D01*
X6400000Y11318203D01*
X6456830Y11323800D01*
X6647650Y11323800D01*
X6730200Y11406350D01*
X6725228Y11465700D01*
X6707093Y11524850D01*
X6725422Y11585270D01*
X6731797Y11650000D01*
X6731797Y11874453D01*
X6769791Y11836460D01*
X6769790Y11151964D01*
X6769791Y11151954D01*
X6769790Y8972359D01*
X6767589Y8950010D01*
X6769790Y8927661D01*
X6769790Y8927654D01*
X6776377Y8860776D01*
X6802406Y8774971D01*
X6844674Y8695892D01*
X6901558Y8626578D01*
X6918929Y8612322D01*
X6923800Y8607451D01*
X6923800Y7076200D01*
X576200Y7076200D01*
X576200Y7750000D01*
X1548202Y7750000D01*
X1554577Y7685269D01*
X1573459Y7623026D01*
X1604120Y7565663D01*
X1645383Y7515383D01*
X1695663Y7474120D01*
X1753026Y7443459D01*
X1815269Y7424577D01*
X1880000Y7418202D01*
X2369650Y7419800D01*
X2452200Y7502350D01*
X2452200Y8247200D01*
X2807800Y8247200D01*
X2807800Y7502350D01*
X2890350Y7419800D01*
X3380000Y7418202D01*
X3444731Y7424577D01*
X3506974Y7443459D01*
X3564337Y7474120D01*
X3614617Y7515383D01*
X3655880Y7565663D01*
X3686541Y7623026D01*
X3705423Y7685269D01*
X3711798Y7750000D01*
X3710200Y8164650D01*
X3627650Y8247200D01*
X2807800Y8247200D01*
X2452200Y8247200D01*
X1632350Y8247200D01*
X1549800Y8164650D01*
X1548202Y7750000D01*
X576200Y7750000D01*
X576200Y8500000D01*
X4277702Y8500000D01*
X4284077Y8435269D01*
X4302959Y8373026D01*
X4333620Y8315663D01*
X4374883Y8265383D01*
X4425163Y8224120D01*
X4482526Y8193459D01*
X4544769Y8174577D01*
X4609500Y8168202D01*
X5049150Y8169800D01*
X5131700Y8252350D01*
X5131700Y9072200D01*
X5487300Y9072200D01*
X5487300Y8252350D01*
X5569850Y8169800D01*
X6009500Y8168202D01*
X6074231Y8174577D01*
X6136474Y8193459D01*
X6193837Y8224120D01*
X6244117Y8265383D01*
X6285380Y8315663D01*
X6316041Y8373026D01*
X6334923Y8435269D01*
X6341298Y8500000D01*
X6339700Y8989650D01*
X6257150Y9072200D01*
X5487300Y9072200D01*
X5131700Y9072200D01*
X4361850Y9072200D01*
X4279300Y8989650D01*
X4277702Y8500000D01*
X576200Y8500000D01*
X576200Y9100000D01*
X1548202Y9100000D01*
X1549800Y8685350D01*
X1632350Y8602800D01*
X2452200Y8602800D01*
X2452200Y9347650D01*
X2807800Y9347650D01*
X2807800Y8602800D01*
X3627650Y8602800D01*
X3710200Y8685350D01*
X3711798Y9100000D01*
X3705423Y9164731D01*
X3686541Y9226974D01*
X3655880Y9284337D01*
X3614617Y9334617D01*
X3564337Y9375880D01*
X3506974Y9406541D01*
X3444731Y9425423D01*
X3380000Y9431798D01*
X2890350Y9430200D01*
X2807800Y9347650D01*
X2452200Y9347650D01*
X2369650Y9430200D01*
X1880000Y9431798D01*
X1815269Y9425423D01*
X1753026Y9406541D01*
X1695663Y9375880D01*
X1645383Y9334617D01*
X1604120Y9284337D01*
X1573459Y9226974D01*
X1554577Y9164731D01*
X1548202Y9100000D01*
X576200Y9100000D01*
X576200Y10500000D01*
X577702Y10500000D01*
X584077Y10435269D01*
X602959Y10373026D01*
X633620Y10315663D01*
X674883Y10265383D01*
X725163Y10224120D01*
X782526Y10193459D01*
X844769Y10174577D01*
X909500Y10168202D01*
X1199150Y10169800D01*
X1281700Y10252350D01*
X1281700Y10822200D01*
X1637300Y10822200D01*
X1637300Y10252350D01*
X1719850Y10169800D01*
X2009500Y10168202D01*
X2074231Y10174577D01*
X2136474Y10193459D01*
X2193837Y10224120D01*
X2244117Y10265383D01*
X2285380Y10315663D01*
X2316041Y10373026D01*
X2334923Y10435269D01*
X2341298Y10500000D01*
X2340917Y10557145D01*
X4199800Y10557145D01*
X4199800Y10442855D01*
X4222097Y10330762D01*
X4265834Y10225172D01*
X4315620Y10150661D01*
X4302959Y10126974D01*
X4284077Y10064731D01*
X4277702Y10000000D01*
X4279300Y9510350D01*
X4361850Y9427800D01*
X5131700Y9427800D01*
X5131700Y9447800D01*
X5487300Y9447800D01*
X5487300Y9427800D01*
X6257150Y9427800D01*
X6339700Y9510350D01*
X6341298Y10000000D01*
X6334923Y10064731D01*
X6316041Y10126974D01*
X6285380Y10184337D01*
X6244117Y10234617D01*
X6193837Y10275880D01*
X6136474Y10306541D01*
X6074231Y10325423D01*
X6009500Y10331798D01*
X5569850Y10330200D01*
X5487302Y10247652D01*
X5487302Y10330200D01*
X5337670Y10330200D01*
X5337903Y10330762D01*
X5360200Y10442855D01*
X5360200Y10557145D01*
X5337903Y10669238D01*
X5308961Y10739111D01*
X5322200Y10752350D01*
X5322200Y11076200D01*
X5677800Y11076200D01*
X5677800Y10752350D01*
X5760350Y10669800D01*
X6399011Y10668203D01*
X6463760Y10674386D01*
X6526059Y10693081D01*
X6583514Y10723572D01*
X6633916Y10764685D01*
X6675329Y10814841D01*
X6706162Y10872113D01*
X6725228Y10934300D01*
X6730200Y10993650D01*
X6647650Y11076200D01*
X5677800Y11076200D01*
X5322200Y11076200D01*
X4857254Y11076200D01*
X4837145Y11080200D01*
X4722855Y11080200D01*
X4702746Y11076200D01*
X4352350Y11076200D01*
X4269800Y10993650D01*
X4274772Y10934300D01*
X4293838Y10872113D01*
X4310347Y10841447D01*
X4265834Y10774828D01*
X4222097Y10669238D01*
X4199800Y10557145D01*
X2340917Y10557145D01*
X2339700Y10739650D01*
X2257150Y10822200D01*
X1637300Y10822200D01*
X1281700Y10822200D01*
X661850Y10822200D01*
X579300Y10739650D01*
X577702Y10500000D01*
X576200Y10500000D01*
X576200Y11500000D01*
X577702Y11500000D01*
X579300Y11260350D01*
X661850Y11177800D01*
X1281700Y11177800D01*
X1281700Y11747650D01*
X1637300Y11747650D01*
X1637300Y11177800D01*
X2257150Y11177800D01*
X2339700Y11260350D01*
X2341298Y11500000D01*
X2334923Y11564731D01*
X2316041Y11626974D01*
X2285380Y11684337D01*
X2244117Y11734617D01*
X2193837Y11775880D01*
X2136474Y11806541D01*
X2074231Y11825423D01*
X2009500Y11831798D01*
X1719850Y11830200D01*
X1637300Y11747650D01*
X1281700Y11747650D01*
X1199150Y11830200D01*
X909500Y11831798D01*
X844769Y11825423D01*
X782526Y11806541D01*
X725163Y11775880D01*
X674883Y11734617D01*
X633620Y11684337D01*
X602959Y11626974D01*
X584077Y11564731D01*
X577702Y11500000D01*
X576200Y11500000D01*
X576200Y13500000D01*
X577702Y13500000D01*
X584077Y13435269D01*
X602959Y13373026D01*
X633620Y13315663D01*
X674883Y13265383D01*
X725163Y13224120D01*
X782526Y13193459D01*
X844769Y13174577D01*
X909500Y13168202D01*
X1199150Y13169800D01*
X1281700Y13252350D01*
X1281700Y13822200D01*
X1637300Y13822200D01*
X1637300Y13252350D01*
X1719850Y13169800D01*
X2009500Y13168202D01*
X2074231Y13174577D01*
X2136474Y13193459D01*
X2193837Y13224120D01*
X2244117Y13265383D01*
X2285380Y13315663D01*
X2316041Y13373026D01*
X2334923Y13435269D01*
X2341298Y13500000D01*
X2339700Y13739650D01*
X2257150Y13822200D01*
X1637300Y13822200D01*
X1281700Y13822200D01*
X661850Y13822200D01*
X579300Y13739650D01*
X577702Y13500000D01*
X576200Y13500000D01*
X576200Y14500000D01*
X577702Y14500000D01*
X579300Y14260350D01*
X661850Y14177800D01*
X1281700Y14177800D01*
X1281700Y14747650D01*
X1637300Y14747650D01*
X1637300Y14177800D01*
X2257150Y14177800D01*
X2339700Y14260350D01*
X2341298Y14500000D01*
X2334923Y14564731D01*
X2316041Y14626974D01*
X2285380Y14684337D01*
X2244117Y14734617D01*
X2193837Y14775880D01*
X2136474Y14806541D01*
X2074231Y14825423D01*
X2009500Y14831798D01*
X1719850Y14830200D01*
X1637300Y14747650D01*
X1281700Y14747650D01*
X1199150Y14830200D01*
X909500Y14831798D01*
X844769Y14825423D01*
X782526Y14806541D01*
X725163Y14775880D01*
X674883Y14734617D01*
X633620Y14684337D01*
X602959Y14626974D01*
X584077Y14564731D01*
X577702Y14500000D01*
X576200Y14500000D01*
X576200Y15900000D01*
X1548202Y15900000D01*
X1554577Y15835269D01*
X1573459Y15773026D01*
X1604120Y15715663D01*
X1645383Y15665383D01*
X1695663Y15624120D01*
X1753026Y15593459D01*
X1815269Y15574577D01*
X1880000Y15568202D01*
X2369650Y15569800D01*
X2452200Y15652350D01*
X2452200Y16397200D01*
X2807800Y16397200D01*
X2807800Y15652350D01*
X2890350Y15569800D01*
X3380000Y15568202D01*
X3444731Y15574577D01*
X3506974Y15593459D01*
X3564337Y15624120D01*
X3614617Y15665383D01*
X3655880Y15715663D01*
X3686541Y15773026D01*
X3705423Y15835269D01*
X3711798Y15900000D01*
X3710200Y16314650D01*
X3627650Y16397200D01*
X2807800Y16397200D01*
X2452200Y16397200D01*
X1632350Y16397200D01*
X1549800Y16314650D01*
X1548202Y15900000D01*
X576200Y15900000D01*
X576200Y16500000D01*
X4277702Y16500000D01*
X4279300Y16010350D01*
X4361850Y15927800D01*
X5131700Y15927800D01*
X5131700Y16747650D01*
X5487300Y16747650D01*
X5487300Y15927800D01*
X6257150Y15927800D01*
X6339700Y16010350D01*
X6341298Y16500000D01*
X6334923Y16564731D01*
X6316041Y16626974D01*
X6285380Y16684337D01*
X6244117Y16734617D01*
X6193837Y16775880D01*
X6136474Y16806541D01*
X6074231Y16825423D01*
X6009500Y16831798D01*
X5569850Y16830200D01*
X5487300Y16747650D01*
X5131700Y16747650D01*
X5049150Y16830200D01*
X4609500Y16831798D01*
X4544769Y16825423D01*
X4482526Y16806541D01*
X4425163Y16775880D01*
X4374883Y16734617D01*
X4333620Y16684337D01*
X4302959Y16626974D01*
X4284077Y16564731D01*
X4277702Y16500000D01*
X576200Y16500000D01*
X576200Y17250000D01*
X1548202Y17250000D01*
X1549800Y16835350D01*
X1632350Y16752800D01*
X2452200Y16752800D01*
X2452200Y17497650D01*
X2807800Y17497650D01*
X2807800Y16752800D01*
X3627650Y16752800D01*
X3710200Y16835350D01*
X3711798Y17250000D01*
X3705423Y17314731D01*
X3686541Y17376974D01*
X3655880Y17434337D01*
X3614617Y17484617D01*
X3564337Y17525880D01*
X3506974Y17556541D01*
X3444731Y17575423D01*
X3380000Y17581798D01*
X2890350Y17580200D01*
X2807800Y17497650D01*
X2452200Y17497650D01*
X2369650Y17580200D01*
X1880000Y17581798D01*
X1815269Y17575423D01*
X1753026Y17556541D01*
X1695663Y17525880D01*
X1645383Y17484617D01*
X1604120Y17434337D01*
X1573459Y17376974D01*
X1554577Y17314731D01*
X1548202Y17250000D01*
X576200Y17250000D01*
X576200Y17923800D01*
X6923800Y17923800D01*
X6923800Y14856299D01*
%TA.AperFunction,Conductor*%
D34*
G36*
X6923800Y14856299D02*
G01*
X6675518Y14608017D01*
X6675513Y14608013D01*
X6399298Y14331797D01*
X5338109Y14331797D01*
X5360200Y14442855D01*
X5360200Y14557145D01*
X5337903Y14669238D01*
X5337670Y14669800D01*
X5487302Y14669800D01*
X5487302Y14752348D01*
X5569850Y14669800D01*
X6009500Y14668202D01*
X6074231Y14674577D01*
X6136474Y14693459D01*
X6193837Y14724120D01*
X6244117Y14765383D01*
X6285380Y14815663D01*
X6316041Y14873026D01*
X6334923Y14935269D01*
X6341298Y15000000D01*
X6339700Y15489650D01*
X6257150Y15572200D01*
X5487300Y15572200D01*
X5487300Y15552200D01*
X5131700Y15552200D01*
X5131700Y15572200D01*
X4361850Y15572200D01*
X4279300Y15489650D01*
X4277702Y15000000D01*
X4284077Y14935269D01*
X4302959Y14873026D01*
X4315620Y14849339D01*
X4265834Y14774828D01*
X4222097Y14669238D01*
X4199800Y14557145D01*
X4199800Y14442855D01*
X4222097Y14330762D01*
X4265834Y14225172D01*
X4310343Y14158559D01*
X4293460Y14126973D01*
X4274578Y14064730D01*
X4268203Y14000000D01*
X4268203Y13600000D01*
X4274578Y13535270D01*
X4292861Y13475000D01*
X4274578Y13414730D01*
X4268203Y13350000D01*
X4268203Y12950000D01*
X4274578Y12885270D01*
X4292861Y12825000D01*
X4274578Y12764730D01*
X4268203Y12700000D01*
X4268203Y12300000D01*
X4274578Y12235270D01*
X4292861Y12175000D01*
X4274578Y12114730D01*
X4268203Y12050000D01*
X4268203Y11650000D01*
X4274578Y11585270D01*
X4292907Y11524850D01*
X4274772Y11465700D01*
X4269800Y11406350D01*
X4352350Y11323800D01*
X4543170Y11323800D01*
X4600000Y11318203D01*
X6400000Y11318203D01*
X6456830Y11323800D01*
X6647650Y11323800D01*
X6730200Y11406350D01*
X6725228Y11465700D01*
X6707093Y11524850D01*
X6725422Y11585270D01*
X6731797Y11650000D01*
X6731797Y11874453D01*
X6769791Y11836460D01*
X6769790Y11151964D01*
X6769791Y11151954D01*
X6769790Y8972359D01*
X6767589Y8950010D01*
X6769790Y8927661D01*
X6769790Y8927654D01*
X6776377Y8860776D01*
X6802406Y8774971D01*
X6844674Y8695892D01*
X6901558Y8626578D01*
X6918929Y8612322D01*
X6923800Y8607451D01*
X6923800Y7076200D01*
X576200Y7076200D01*
X576200Y7750000D01*
X1548202Y7750000D01*
X1554577Y7685269D01*
X1573459Y7623026D01*
X1604120Y7565663D01*
X1645383Y7515383D01*
X1695663Y7474120D01*
X1753026Y7443459D01*
X1815269Y7424577D01*
X1880000Y7418202D01*
X2369650Y7419800D01*
X2452200Y7502350D01*
X2452200Y8247200D01*
X2807800Y8247200D01*
X2807800Y7502350D01*
X2890350Y7419800D01*
X3380000Y7418202D01*
X3444731Y7424577D01*
X3506974Y7443459D01*
X3564337Y7474120D01*
X3614617Y7515383D01*
X3655880Y7565663D01*
X3686541Y7623026D01*
X3705423Y7685269D01*
X3711798Y7750000D01*
X3710200Y8164650D01*
X3627650Y8247200D01*
X2807800Y8247200D01*
X2452200Y8247200D01*
X1632350Y8247200D01*
X1549800Y8164650D01*
X1548202Y7750000D01*
X576200Y7750000D01*
X576200Y8500000D01*
X4277702Y8500000D01*
X4284077Y8435269D01*
X4302959Y8373026D01*
X4333620Y8315663D01*
X4374883Y8265383D01*
X4425163Y8224120D01*
X4482526Y8193459D01*
X4544769Y8174577D01*
X4609500Y8168202D01*
X5049150Y8169800D01*
X5131700Y8252350D01*
X5131700Y9072200D01*
X5487300Y9072200D01*
X5487300Y8252350D01*
X5569850Y8169800D01*
X6009500Y8168202D01*
X6074231Y8174577D01*
X6136474Y8193459D01*
X6193837Y8224120D01*
X6244117Y8265383D01*
X6285380Y8315663D01*
X6316041Y8373026D01*
X6334923Y8435269D01*
X6341298Y8500000D01*
X6339700Y8989650D01*
X6257150Y9072200D01*
X5487300Y9072200D01*
X5131700Y9072200D01*
X4361850Y9072200D01*
X4279300Y8989650D01*
X4277702Y8500000D01*
X576200Y8500000D01*
X576200Y9100000D01*
X1548202Y9100000D01*
X1549800Y8685350D01*
X1632350Y8602800D01*
X2452200Y8602800D01*
X2452200Y9347650D01*
X2807800Y9347650D01*
X2807800Y8602800D01*
X3627650Y8602800D01*
X3710200Y8685350D01*
X3711798Y9100000D01*
X3705423Y9164731D01*
X3686541Y9226974D01*
X3655880Y9284337D01*
X3614617Y9334617D01*
X3564337Y9375880D01*
X3506974Y9406541D01*
X3444731Y9425423D01*
X3380000Y9431798D01*
X2890350Y9430200D01*
X2807800Y9347650D01*
X2452200Y9347650D01*
X2369650Y9430200D01*
X1880000Y9431798D01*
X1815269Y9425423D01*
X1753026Y9406541D01*
X1695663Y9375880D01*
X1645383Y9334617D01*
X1604120Y9284337D01*
X1573459Y9226974D01*
X1554577Y9164731D01*
X1548202Y9100000D01*
X576200Y9100000D01*
X576200Y10500000D01*
X577702Y10500000D01*
X584077Y10435269D01*
X602959Y10373026D01*
X633620Y10315663D01*
X674883Y10265383D01*
X725163Y10224120D01*
X782526Y10193459D01*
X844769Y10174577D01*
X909500Y10168202D01*
X1199150Y10169800D01*
X1281700Y10252350D01*
X1281700Y10822200D01*
X1637300Y10822200D01*
X1637300Y10252350D01*
X1719850Y10169800D01*
X2009500Y10168202D01*
X2074231Y10174577D01*
X2136474Y10193459D01*
X2193837Y10224120D01*
X2244117Y10265383D01*
X2285380Y10315663D01*
X2316041Y10373026D01*
X2334923Y10435269D01*
X2341298Y10500000D01*
X2340917Y10557145D01*
X4199800Y10557145D01*
X4199800Y10442855D01*
X4222097Y10330762D01*
X4265834Y10225172D01*
X4315620Y10150661D01*
X4302959Y10126974D01*
X4284077Y10064731D01*
X4277702Y10000000D01*
X4279300Y9510350D01*
X4361850Y9427800D01*
X5131700Y9427800D01*
X5131700Y9447800D01*
X5487300Y9447800D01*
X5487300Y9427800D01*
X6257150Y9427800D01*
X6339700Y9510350D01*
X6341298Y10000000D01*
X6334923Y10064731D01*
X6316041Y10126974D01*
X6285380Y10184337D01*
X6244117Y10234617D01*
X6193837Y10275880D01*
X6136474Y10306541D01*
X6074231Y10325423D01*
X6009500Y10331798D01*
X5569850Y10330200D01*
X5487302Y10247652D01*
X5487302Y10330200D01*
X5337670Y10330200D01*
X5337903Y10330762D01*
X5360200Y10442855D01*
X5360200Y10557145D01*
X5337903Y10669238D01*
X5308961Y10739111D01*
X5322200Y10752350D01*
X5322200Y11076200D01*
X5677800Y11076200D01*
X5677800Y10752350D01*
X5760350Y10669800D01*
X6399011Y10668203D01*
X6463760Y10674386D01*
X6526059Y10693081D01*
X6583514Y10723572D01*
X6633916Y10764685D01*
X6675329Y10814841D01*
X6706162Y10872113D01*
X6725228Y10934300D01*
X6730200Y10993650D01*
X6647650Y11076200D01*
X5677800Y11076200D01*
X5322200Y11076200D01*
X4857254Y11076200D01*
X4837145Y11080200D01*
X4722855Y11080200D01*
X4702746Y11076200D01*
X4352350Y11076200D01*
X4269800Y10993650D01*
X4274772Y10934300D01*
X4293838Y10872113D01*
X4310347Y10841447D01*
X4265834Y10774828D01*
X4222097Y10669238D01*
X4199800Y10557145D01*
X2340917Y10557145D01*
X2339700Y10739650D01*
X2257150Y10822200D01*
X1637300Y10822200D01*
X1281700Y10822200D01*
X661850Y10822200D01*
X579300Y10739650D01*
X577702Y10500000D01*
X576200Y10500000D01*
X576200Y11500000D01*
X577702Y11500000D01*
X579300Y11260350D01*
X661850Y11177800D01*
X1281700Y11177800D01*
X1281700Y11747650D01*
X1637300Y11747650D01*
X1637300Y11177800D01*
X2257150Y11177800D01*
X2339700Y11260350D01*
X2341298Y11500000D01*
X2334923Y11564731D01*
X2316041Y11626974D01*
X2285380Y11684337D01*
X2244117Y11734617D01*
X2193837Y11775880D01*
X2136474Y11806541D01*
X2074231Y11825423D01*
X2009500Y11831798D01*
X1719850Y11830200D01*
X1637300Y11747650D01*
X1281700Y11747650D01*
X1199150Y11830200D01*
X909500Y11831798D01*
X844769Y11825423D01*
X782526Y11806541D01*
X725163Y11775880D01*
X674883Y11734617D01*
X633620Y11684337D01*
X602959Y11626974D01*
X584077Y11564731D01*
X577702Y11500000D01*
X576200Y11500000D01*
X576200Y13500000D01*
X577702Y13500000D01*
X584077Y13435269D01*
X602959Y13373026D01*
X633620Y13315663D01*
X674883Y13265383D01*
X725163Y13224120D01*
X782526Y13193459D01*
X844769Y13174577D01*
X909500Y13168202D01*
X1199150Y13169800D01*
X1281700Y13252350D01*
X1281700Y13822200D01*
X1637300Y13822200D01*
X1637300Y13252350D01*
X1719850Y13169800D01*
X2009500Y13168202D01*
X2074231Y13174577D01*
X2136474Y13193459D01*
X2193837Y13224120D01*
X2244117Y13265383D01*
X2285380Y13315663D01*
X2316041Y13373026D01*
X2334923Y13435269D01*
X2341298Y13500000D01*
X2339700Y13739650D01*
X2257150Y13822200D01*
X1637300Y13822200D01*
X1281700Y13822200D01*
X661850Y13822200D01*
X579300Y13739650D01*
X577702Y13500000D01*
X576200Y13500000D01*
X576200Y14500000D01*
X577702Y14500000D01*
X579300Y14260350D01*
X661850Y14177800D01*
X1281700Y14177800D01*
X1281700Y14747650D01*
X1637300Y14747650D01*
X1637300Y14177800D01*
X2257150Y14177800D01*
X2339700Y14260350D01*
X2341298Y14500000D01*
X2334923Y14564731D01*
X2316041Y14626974D01*
X2285380Y14684337D01*
X2244117Y14734617D01*
X2193837Y14775880D01*
X2136474Y14806541D01*
X2074231Y14825423D01*
X2009500Y14831798D01*
X1719850Y14830200D01*
X1637300Y14747650D01*
X1281700Y14747650D01*
X1199150Y14830200D01*
X909500Y14831798D01*
X844769Y14825423D01*
X782526Y14806541D01*
X725163Y14775880D01*
X674883Y14734617D01*
X633620Y14684337D01*
X602959Y14626974D01*
X584077Y14564731D01*
X577702Y14500000D01*
X576200Y14500000D01*
X576200Y15900000D01*
X1548202Y15900000D01*
X1554577Y15835269D01*
X1573459Y15773026D01*
X1604120Y15715663D01*
X1645383Y15665383D01*
X1695663Y15624120D01*
X1753026Y15593459D01*
X1815269Y15574577D01*
X1880000Y15568202D01*
X2369650Y15569800D01*
X2452200Y15652350D01*
X2452200Y16397200D01*
X2807800Y16397200D01*
X2807800Y15652350D01*
X2890350Y15569800D01*
X3380000Y15568202D01*
X3444731Y15574577D01*
X3506974Y15593459D01*
X3564337Y15624120D01*
X3614617Y15665383D01*
X3655880Y15715663D01*
X3686541Y15773026D01*
X3705423Y15835269D01*
X3711798Y15900000D01*
X3710200Y16314650D01*
X3627650Y16397200D01*
X2807800Y16397200D01*
X2452200Y16397200D01*
X1632350Y16397200D01*
X1549800Y16314650D01*
X1548202Y15900000D01*
X576200Y15900000D01*
X576200Y16500000D01*
X4277702Y16500000D01*
X4279300Y16010350D01*
X4361850Y15927800D01*
X5131700Y15927800D01*
X5131700Y16747650D01*
X5487300Y16747650D01*
X5487300Y15927800D01*
X6257150Y15927800D01*
X6339700Y16010350D01*
X6341298Y16500000D01*
X6334923Y16564731D01*
X6316041Y16626974D01*
X6285380Y16684337D01*
X6244117Y16734617D01*
X6193837Y16775880D01*
X6136474Y16806541D01*
X6074231Y16825423D01*
X6009500Y16831798D01*
X5569850Y16830200D01*
X5487300Y16747650D01*
X5131700Y16747650D01*
X5049150Y16830200D01*
X4609500Y16831798D01*
X4544769Y16825423D01*
X4482526Y16806541D01*
X4425163Y16775880D01*
X4374883Y16734617D01*
X4333620Y16684337D01*
X4302959Y16626974D01*
X4284077Y16564731D01*
X4277702Y16500000D01*
X576200Y16500000D01*
X576200Y17250000D01*
X1548202Y17250000D01*
X1549800Y16835350D01*
X1632350Y16752800D01*
X2452200Y16752800D01*
X2452200Y17497650D01*
X2807800Y17497650D01*
X2807800Y16752800D01*
X3627650Y16752800D01*
X3710200Y16835350D01*
X3711798Y17250000D01*
X3705423Y17314731D01*
X3686541Y17376974D01*
X3655880Y17434337D01*
X3614617Y17484617D01*
X3564337Y17525880D01*
X3506974Y17556541D01*
X3444731Y17575423D01*
X3380000Y17581798D01*
X2890350Y17580200D01*
X2807800Y17497650D01*
X2452200Y17497650D01*
X2369650Y17580200D01*
X1880000Y17581798D01*
X1815269Y17575423D01*
X1753026Y17556541D01*
X1695663Y17525880D01*
X1645383Y17484617D01*
X1604120Y17434337D01*
X1573459Y17376974D01*
X1554577Y17314731D01*
X1548202Y17250000D01*
X576200Y17250000D01*
X576200Y17923800D01*
X6923800Y17923800D01*
X6923800Y14856299D01*
G37*
%TD.AperFunction*%
%TD*%
M02*
