%TF.GenerationSoftware,KiCad,Pcbnew,(5.1.10-1-10_14)*%
%TF.CreationDate,2021-09-25T16:40:22-04:00*%
%TF.ProjectId,WetProgrammer,57657450-726f-4677-9261-6d6d65722e6b,rev?*%
%TF.SameCoordinates,Original*%
%TF.FileFunction,Copper,L1,Top*%
%TF.FilePolarity,Positive*%
%FSLAX46Y46*%
G04 Gerber Fmt 4.6, Leading zero omitted, Abs format (unit mm)*
G04 Created by KiCad (PCBNEW (5.1.10-1-10_14)) date 2021-09-25 16:40:22*
%MOMM*%
%LPD*%
G01*
G04 APERTURE LIST*
%TA.AperFunction,ComponentPad*%
%ADD10O,1.700000X1.700000*%
%TD*%
%TA.AperFunction,ComponentPad*%
%ADD11R,1.700000X1.700000*%
%TD*%
%TA.AperFunction,ComponentPad*%
%ADD12R,1.000000X1.000000*%
%TD*%
%TA.AperFunction,ComponentPad*%
%ADD13O,1.000000X1.000000*%
%TD*%
%TA.AperFunction,SMDPad,CuDef*%
%ADD14R,1.400000X1.200000*%
%TD*%
%TA.AperFunction,SMDPad,CuDef*%
%ADD15R,2.000000X1.500000*%
%TD*%
%TA.AperFunction,SMDPad,CuDef*%
%ADD16R,2.000000X3.800000*%
%TD*%
%TA.AperFunction,SMDPad,CuDef*%
%ADD17R,0.900000X1.250000*%
%TD*%
%TA.AperFunction,SMDPad,CuDef*%
%ADD18R,0.800000X0.900000*%
%TD*%
%TA.AperFunction,SMDPad,CuDef*%
%ADD19R,1.800000X0.400000*%
%TD*%
%TA.AperFunction,SMDPad,CuDef*%
%ADD20R,1.400000X1.500000*%
%TD*%
%TA.AperFunction,SMDPad,CuDef*%
%ADD21R,1.500000X1.350000*%
%TD*%
%TA.AperFunction,SMDPad,CuDef*%
%ADD22R,1.100000X1.000000*%
%TD*%
%TA.AperFunction,SMDPad,CuDef*%
%ADD23C,1.000000*%
%TD*%
%TA.AperFunction,SMDPad,CuDef*%
%ADD24R,1.500000X0.550000*%
%TD*%
%TA.AperFunction,SMDPad,CuDef*%
%ADD25R,0.550000X1.500000*%
%TD*%
%TA.AperFunction,SMDPad,CuDef*%
%ADD26C,1.500000*%
%TD*%
%TA.AperFunction,SMDPad,CuDef*%
%ADD27R,1.500000X1.000000*%
%TD*%
%TA.AperFunction,SMDPad,CuDef*%
%ADD28R,1.000000X1.500000*%
%TD*%
%TA.AperFunction,ViaPad*%
%ADD29C,0.800000*%
%TD*%
%TA.AperFunction,Conductor*%
%ADD30C,0.304800*%
%TD*%
%TA.AperFunction,Conductor*%
%ADD31C,0.152400*%
%TD*%
%TA.AperFunction,Conductor*%
%ADD32C,0.250000*%
%TD*%
%TA.AperFunction,Conductor*%
%ADD33C,0.100000*%
%TD*%
G04 APERTURE END LIST*
D10*
%TO.P,J2,6*%
%TO.N,GND*%
X45750000Y10000000D03*
%TO.P,J2,5*%
%TO.N,/DutRst*%
X43210000Y10000000D03*
%TO.P,J2,4*%
%TO.N,Net-(J2-Pad4)*%
X45750000Y12540000D03*
%TO.P,J2,3*%
%TO.N,Net-(J2-Pad3)*%
X43210000Y12540000D03*
%TO.P,J2,2*%
%TO.N,/VProg*%
X45750000Y15080000D03*
D11*
%TO.P,J2,1*%
%TO.N,Net-(J2-Pad1)*%
X43210000Y15080000D03*
%TD*%
D12*
%TO.P,JPROG1,1*%
%TO.N,/TCK*%
X18923000Y20955000D03*
D13*
%TO.P,JPROG1,2*%
%TO.N,GND*%
X18923000Y22225000D03*
%TO.P,JPROG1,3*%
%TO.N,/TDO*%
X20193000Y20955000D03*
%TO.P,JPROG1,4*%
%TO.N,VCC*%
X20193000Y22225000D03*
%TO.P,JPROG1,5*%
%TO.N,/TMS*%
X21463000Y20955000D03*
%TO.P,JPROG1,6*%
%TO.N,/RstP*%
X21463000Y22225000D03*
%TO.P,JPROG1,7*%
%TO.N,Net-(JPROG1-Pad7)*%
X22733000Y20955000D03*
%TO.P,JPROG1,8*%
%TO.N,Net-(JPROG1-Pad8)*%
X22733000Y22225000D03*
%TO.P,JPROG1,9*%
%TO.N,/TDI*%
X24003000Y20955000D03*
%TO.P,JPROG1,10*%
%TO.N,GND*%
X24003000Y22225000D03*
%TD*%
%TO.P,F1,2*%
%TO.N,Net-(F1-Pad2)*%
%TA.AperFunction,SMDPad,CuDef*%
G36*
G01*
X9225000Y17900001D02*
X9225000Y16999999D01*
G75*
G02*
X8975001Y16750000I-249999J0D01*
G01*
X8449999Y16750000D01*
G75*
G02*
X8200000Y16999999I0J249999D01*
G01*
X8200000Y17900001D01*
G75*
G02*
X8449999Y18150000I249999J0D01*
G01*
X8975001Y18150000D01*
G75*
G02*
X9225000Y17900001I0J-249999D01*
G01*
G37*
%TD.AperFunction*%
%TO.P,F1,1*%
%TO.N,VBUS*%
%TA.AperFunction,SMDPad,CuDef*%
G36*
G01*
X11050000Y17900001D02*
X11050000Y16999999D01*
G75*
G02*
X10800001Y16750000I-249999J0D01*
G01*
X10274999Y16750000D01*
G75*
G02*
X10025000Y16999999I0J249999D01*
G01*
X10025000Y17900001D01*
G75*
G02*
X10274999Y18150000I249999J0D01*
G01*
X10800001Y18150000D01*
G75*
G02*
X11050000Y17900001I0J-249999D01*
G01*
G37*
%TD.AperFunction*%
%TD*%
%TO.P,C9,1*%
%TO.N,GND*%
%TA.AperFunction,SMDPad,CuDef*%
G36*
G01*
X26852900Y20419400D02*
X25902900Y20419400D01*
G75*
G02*
X25652900Y20669400I0J250000D01*
G01*
X25652900Y21169400D01*
G75*
G02*
X25902900Y21419400I250000J0D01*
G01*
X26852900Y21419400D01*
G75*
G02*
X27102900Y21169400I0J-250000D01*
G01*
X27102900Y20669400D01*
G75*
G02*
X26852900Y20419400I-250000J0D01*
G01*
G37*
%TD.AperFunction*%
%TO.P,C9,2*%
%TO.N,/RstP*%
%TA.AperFunction,SMDPad,CuDef*%
G36*
G01*
X26852900Y22319400D02*
X25902900Y22319400D01*
G75*
G02*
X25652900Y22569400I0J250000D01*
G01*
X25652900Y23069400D01*
G75*
G02*
X25902900Y23319400I250000J0D01*
G01*
X26852900Y23319400D01*
G75*
G02*
X27102900Y23069400I0J-250000D01*
G01*
X27102900Y22569400D01*
G75*
G02*
X26852900Y22319400I-250000J0D01*
G01*
G37*
%TD.AperFunction*%
%TD*%
%TO.P,C2,1*%
%TO.N,GND*%
%TA.AperFunction,SMDPad,CuDef*%
G36*
G01*
X18079700Y5046600D02*
X19029700Y5046600D01*
G75*
G02*
X19279700Y4796600I0J-250000D01*
G01*
X19279700Y4296600D01*
G75*
G02*
X19029700Y4046600I-250000J0D01*
G01*
X18079700Y4046600D01*
G75*
G02*
X17829700Y4296600I0J250000D01*
G01*
X17829700Y4796600D01*
G75*
G02*
X18079700Y5046600I250000J0D01*
G01*
G37*
%TD.AperFunction*%
%TO.P,C2,2*%
%TO.N,/Xtal2*%
%TA.AperFunction,SMDPad,CuDef*%
G36*
G01*
X18079700Y3146600D02*
X19029700Y3146600D01*
G75*
G02*
X19279700Y2896600I0J-250000D01*
G01*
X19279700Y2396600D01*
G75*
G02*
X19029700Y2146600I-250000J0D01*
G01*
X18079700Y2146600D01*
G75*
G02*
X17829700Y2396600I0J250000D01*
G01*
X17829700Y2896600D01*
G75*
G02*
X18079700Y3146600I250000J0D01*
G01*
G37*
%TD.AperFunction*%
%TD*%
D14*
%TO.P,Y1,1*%
%TO.N,/Xtal1*%
X22893200Y4444100D03*
%TO.P,Y1,2*%
%TO.N,GND*%
X20693200Y4444100D03*
%TO.P,Y1,3*%
%TO.N,/Xtal2*%
X20693200Y2744100D03*
%TO.P,Y1,4*%
%TO.N,GND*%
X22893200Y2744100D03*
%TD*%
%TO.P,R10,2*%
%TO.N,Net-(R10-Pad2)*%
%TA.AperFunction,SMDPad,CuDef*%
G36*
G01*
X27937500Y5450002D02*
X27937500Y4549998D01*
G75*
G02*
X27687502Y4300000I-249998J0D01*
G01*
X27162498Y4300000D01*
G75*
G02*
X26912500Y4549998I0J249998D01*
G01*
X26912500Y5450002D01*
G75*
G02*
X27162498Y5700000I249998J0D01*
G01*
X27687502Y5700000D01*
G75*
G02*
X27937500Y5450002I0J-249998D01*
G01*
G37*
%TD.AperFunction*%
%TO.P,R10,1*%
%TO.N,/TXO*%
%TA.AperFunction,SMDPad,CuDef*%
G36*
G01*
X29762500Y5450002D02*
X29762500Y4549998D01*
G75*
G02*
X29512502Y4300000I-249998J0D01*
G01*
X28987498Y4300000D01*
G75*
G02*
X28737500Y4549998I0J249998D01*
G01*
X28737500Y5450002D01*
G75*
G02*
X28987498Y5700000I249998J0D01*
G01*
X29512502Y5700000D01*
G75*
G02*
X29762500Y5450002I0J-249998D01*
G01*
G37*
%TD.AperFunction*%
%TD*%
%TO.P,R11,2*%
%TO.N,Net-(R11-Pad2)*%
%TA.AperFunction,SMDPad,CuDef*%
G36*
G01*
X31600000Y5450002D02*
X31600000Y4549998D01*
G75*
G02*
X31350002Y4300000I-249998J0D01*
G01*
X30824998Y4300000D01*
G75*
G02*
X30575000Y4549998I0J249998D01*
G01*
X30575000Y5450002D01*
G75*
G02*
X30824998Y5700000I249998J0D01*
G01*
X31350002Y5700000D01*
G75*
G02*
X31600000Y5450002I0J-249998D01*
G01*
G37*
%TD.AperFunction*%
%TO.P,R11,1*%
%TO.N,/RXI*%
%TA.AperFunction,SMDPad,CuDef*%
G36*
G01*
X33425000Y5450002D02*
X33425000Y4549998D01*
G75*
G02*
X33175002Y4300000I-249998J0D01*
G01*
X32649998Y4300000D01*
G75*
G02*
X32400000Y4549998I0J249998D01*
G01*
X32400000Y5450002D01*
G75*
G02*
X32649998Y5700000I249998J0D01*
G01*
X33175002Y5700000D01*
G75*
G02*
X33425000Y5450002I0J-249998D01*
G01*
G37*
%TD.AperFunction*%
%TD*%
%TO.P,C5,2*%
%TO.N,VCC*%
%TA.AperFunction,SMDPad,CuDef*%
G36*
G01*
X16985000Y4397200D02*
X16035000Y4397200D01*
G75*
G02*
X15785000Y4647200I0J250000D01*
G01*
X15785000Y5147200D01*
G75*
G02*
X16035000Y5397200I250000J0D01*
G01*
X16985000Y5397200D01*
G75*
G02*
X17235000Y5147200I0J-250000D01*
G01*
X17235000Y4647200D01*
G75*
G02*
X16985000Y4397200I-250000J0D01*
G01*
G37*
%TD.AperFunction*%
%TO.P,C5,1*%
%TO.N,GND*%
%TA.AperFunction,SMDPad,CuDef*%
G36*
G01*
X16985000Y2497200D02*
X16035000Y2497200D01*
G75*
G02*
X15785000Y2747200I0J250000D01*
G01*
X15785000Y3247200D01*
G75*
G02*
X16035000Y3497200I250000J0D01*
G01*
X16985000Y3497200D01*
G75*
G02*
X17235000Y3247200I0J-250000D01*
G01*
X17235000Y2747200D01*
G75*
G02*
X16985000Y2497200I-250000J0D01*
G01*
G37*
%TD.AperFunction*%
%TD*%
%TO.P,C1,1*%
%TO.N,GND*%
%TA.AperFunction,SMDPad,CuDef*%
G36*
G01*
X25633700Y2141600D02*
X24683700Y2141600D01*
G75*
G02*
X24433700Y2391600I0J250000D01*
G01*
X24433700Y2891600D01*
G75*
G02*
X24683700Y3141600I250000J0D01*
G01*
X25633700Y3141600D01*
G75*
G02*
X25883700Y2891600I0J-250000D01*
G01*
X25883700Y2391600D01*
G75*
G02*
X25633700Y2141600I-250000J0D01*
G01*
G37*
%TD.AperFunction*%
%TO.P,C1,2*%
%TO.N,/Xtal1*%
%TA.AperFunction,SMDPad,CuDef*%
G36*
G01*
X25633700Y4041600D02*
X24683700Y4041600D01*
G75*
G02*
X24433700Y4291600I0J250000D01*
G01*
X24433700Y4791600D01*
G75*
G02*
X24683700Y5041600I250000J0D01*
G01*
X25633700Y5041600D01*
G75*
G02*
X25883700Y4791600I0J-250000D01*
G01*
X25883700Y4291600D01*
G75*
G02*
X25633700Y4041600I-250000J0D01*
G01*
G37*
%TD.AperFunction*%
%TD*%
D15*
%TO.P,U2,1*%
%TO.N,GND*%
X10770000Y1669500D03*
%TO.P,U2,3*%
%TO.N,VBUS*%
X10770000Y6269500D03*
%TO.P,U2,2*%
%TO.N,+3V3*%
X10770000Y3969500D03*
D16*
X4470000Y3969500D03*
%TD*%
D17*
%TO.P,SW1,3*%
%TO.N,+3V3*%
X12250000Y21116000D03*
%TO.P,SW1,2*%
%TO.N,VCC*%
X9250000Y21116000D03*
%TO.P,SW1,1*%
%TO.N,VBUS*%
X7750000Y21116000D03*
D18*
%TO.P,SW1,6*%
%TO.N,GND*%
X6200000Y24341000D03*
X13800000Y24341000D03*
X13800000Y22141000D03*
X6200000Y22141000D03*
%TD*%
%TO.P,D1,2*%
%TO.N,+3V3*%
%TA.AperFunction,SMDPad,CuDef*%
G36*
G01*
X31387200Y17628550D02*
X31387200Y18541050D01*
G75*
G02*
X31630950Y18784800I243750J0D01*
G01*
X32118450Y18784800D01*
G75*
G02*
X32362200Y18541050I0J-243750D01*
G01*
X32362200Y17628550D01*
G75*
G02*
X32118450Y17384800I-243750J0D01*
G01*
X31630950Y17384800D01*
G75*
G02*
X31387200Y17628550I0J243750D01*
G01*
G37*
%TD.AperFunction*%
%TO.P,D1,1*%
%TO.N,Net-(D1-Pad1)*%
%TA.AperFunction,SMDPad,CuDef*%
G36*
G01*
X29512200Y17628550D02*
X29512200Y18541050D01*
G75*
G02*
X29755950Y18784800I243750J0D01*
G01*
X30243450Y18784800D01*
G75*
G02*
X30487200Y18541050I0J-243750D01*
G01*
X30487200Y17628550D01*
G75*
G02*
X30243450Y17384800I-243750J0D01*
G01*
X29755950Y17384800D01*
G75*
G02*
X29512200Y17628550I0J243750D01*
G01*
G37*
%TD.AperFunction*%
%TD*%
%TO.P,C8,2*%
%TO.N,GND*%
%TA.AperFunction,SMDPad,CuDef*%
G36*
G01*
X14216800Y2319000D02*
X14216800Y3269000D01*
G75*
G02*
X14466800Y3519000I250000J0D01*
G01*
X14966800Y3519000D01*
G75*
G02*
X15216800Y3269000I0J-250000D01*
G01*
X15216800Y2319000D01*
G75*
G02*
X14966800Y2069000I-250000J0D01*
G01*
X14466800Y2069000D01*
G75*
G02*
X14216800Y2319000I0J250000D01*
G01*
G37*
%TD.AperFunction*%
%TO.P,C8,1*%
%TO.N,+3V3*%
%TA.AperFunction,SMDPad,CuDef*%
G36*
G01*
X12316800Y2319000D02*
X12316800Y3269000D01*
G75*
G02*
X12566800Y3519000I250000J0D01*
G01*
X13066800Y3519000D01*
G75*
G02*
X13316800Y3269000I0J-250000D01*
G01*
X13316800Y2319000D01*
G75*
G02*
X13066800Y2069000I-250000J0D01*
G01*
X12566800Y2069000D01*
G75*
G02*
X12316800Y2319000I0J250000D01*
G01*
G37*
%TD.AperFunction*%
%TD*%
%TO.P,C7,2*%
%TO.N,GND*%
%TA.AperFunction,SMDPad,CuDef*%
G36*
G01*
X14201600Y4300200D02*
X14201600Y5250200D01*
G75*
G02*
X14451600Y5500200I250000J0D01*
G01*
X14951600Y5500200D01*
G75*
G02*
X15201600Y5250200I0J-250000D01*
G01*
X15201600Y4300200D01*
G75*
G02*
X14951600Y4050200I-250000J0D01*
G01*
X14451600Y4050200D01*
G75*
G02*
X14201600Y4300200I0J250000D01*
G01*
G37*
%TD.AperFunction*%
%TO.P,C7,1*%
%TO.N,VBUS*%
%TA.AperFunction,SMDPad,CuDef*%
G36*
G01*
X12301600Y4300200D02*
X12301600Y5250200D01*
G75*
G02*
X12551600Y5500200I250000J0D01*
G01*
X13051600Y5500200D01*
G75*
G02*
X13301600Y5250200I0J-250000D01*
G01*
X13301600Y4300200D01*
G75*
G02*
X13051600Y4050200I-250000J0D01*
G01*
X12551600Y4050200D01*
G75*
G02*
X12301600Y4300200I0J250000D01*
G01*
G37*
%TD.AperFunction*%
%TD*%
%TO.P,C3,2*%
%TO.N,VCC*%
%TA.AperFunction,SMDPad,CuDef*%
G36*
G01*
X16391000Y19845000D02*
X16391000Y20795000D01*
G75*
G02*
X16641000Y21045000I250000J0D01*
G01*
X17141000Y21045000D01*
G75*
G02*
X17391000Y20795000I0J-250000D01*
G01*
X17391000Y19845000D01*
G75*
G02*
X17141000Y19595000I-250000J0D01*
G01*
X16641000Y19595000D01*
G75*
G02*
X16391000Y19845000I0J250000D01*
G01*
G37*
%TD.AperFunction*%
%TO.P,C3,1*%
%TO.N,GND*%
%TA.AperFunction,SMDPad,CuDef*%
G36*
G01*
X14491000Y19845000D02*
X14491000Y20795000D01*
G75*
G02*
X14741000Y21045000I250000J0D01*
G01*
X15241000Y21045000D01*
G75*
G02*
X15491000Y20795000I0J-250000D01*
G01*
X15491000Y19845000D01*
G75*
G02*
X15241000Y19595000I-250000J0D01*
G01*
X14741000Y19595000D01*
G75*
G02*
X14491000Y19845000I0J250000D01*
G01*
G37*
%TD.AperFunction*%
%TD*%
D19*
%TO.P,J1,3*%
%TO.N,/D+*%
X5500000Y12500000D03*
%TO.P,J1,2*%
%TO.N,/D-*%
X5500000Y13150000D03*
%TO.P,J1,1*%
%TO.N,Net-(F1-Pad2)*%
X5500000Y13800000D03*
%TO.P,J1,4*%
%TO.N,Net-(J1-Pad4)*%
X5500000Y11850000D03*
%TO.P,J1,5*%
%TO.N,GND*%
X5500000Y11200000D03*
D20*
%TO.P,J1,6*%
X5309500Y9250000D03*
X5309500Y15750000D03*
D21*
X2630000Y8425000D03*
X2630000Y16575000D03*
D22*
X1459500Y14000000D03*
X1459500Y11000000D03*
%TD*%
D10*
%TO.P,J3,3*%
%TO.N,GND*%
X33580000Y2250000D03*
%TO.P,J3,2*%
%TO.N,/RXI*%
X31040000Y2250000D03*
D11*
%TO.P,J3,1*%
%TO.N,/TXO*%
X28500000Y2250000D03*
%TD*%
D17*
%TO.P,SW2,3*%
%TO.N,/VProg*%
X40250000Y21116000D03*
%TO.P,SW2,2*%
%TO.N,VCC*%
X37250000Y21116000D03*
%TO.P,SW2,1*%
%TO.N,Net-(SW2-Pad1)*%
X35750000Y21116000D03*
D18*
%TO.P,SW2,6*%
%TO.N,GND*%
X34200000Y24341000D03*
X41800000Y24341000D03*
X41800000Y22141000D03*
X34200000Y22141000D03*
%TD*%
D23*
%TO.P,FID2,*%
%TO.N,*%
X46000000Y23000000D03*
%TD*%
%TO.P,FID1,*%
%TO.N,*%
X2000000Y2000000D03*
%TD*%
D24*
%TO.P,U1,1*%
%TO.N,/DutRst*%
X13050000Y16500000D03*
%TO.P,U1,2*%
%TO.N,VBUS*%
X13050000Y15700000D03*
%TO.P,U1,3*%
%TO.N,/UD-*%
X13050000Y14900000D03*
%TO.P,U1,4*%
%TO.N,/UD+*%
X13050000Y14100000D03*
%TO.P,U1,5*%
%TO.N,GND*%
X13050000Y13300000D03*
%TO.P,U1,6*%
%TO.N,Net-(C4-Pad1)*%
X13050000Y12500000D03*
%TO.P,U1,7*%
%TO.N,VBUS*%
X13050000Y11700000D03*
%TO.P,U1,8*%
%TO.N,Net-(U1-Pad8)*%
X13050000Y10900000D03*
%TO.P,U1,9*%
%TO.N,/SCK*%
X13050000Y10100000D03*
%TO.P,U1,10*%
%TO.N,/MOSI*%
X13050000Y9300000D03*
%TO.P,U1,11*%
%TO.N,/MISO*%
X13050000Y8500000D03*
D25*
%TO.P,U1,12*%
%TO.N,Net-(U1-Pad12)*%
X14750000Y6800000D03*
%TO.P,U1,13*%
%TO.N,/RstP*%
X15550000Y6800000D03*
%TO.P,U1,14*%
%TO.N,VCC*%
X16350000Y6800000D03*
%TO.P,U1,15*%
%TO.N,GND*%
X17150000Y6800000D03*
%TO.P,U1,16*%
%TO.N,/Xtal2*%
X17950000Y6800000D03*
%TO.P,U1,17*%
%TO.N,/Xtal1*%
X18750000Y6800000D03*
%TO.P,U1,18*%
%TO.N,Net-(U1-Pad18)*%
X19550000Y6800000D03*
%TO.P,U1,19*%
%TO.N,Net-(U1-Pad19)*%
X20350000Y6800000D03*
%TO.P,U1,20*%
%TO.N,Net-(R10-Pad2)*%
X21150000Y6800000D03*
%TO.P,U1,21*%
%TO.N,Net-(R11-Pad2)*%
X21950000Y6800000D03*
%TO.P,U1,22*%
%TO.N,Net-(U1-Pad22)*%
X22750000Y6800000D03*
D24*
%TO.P,U1,23*%
%TO.N,GND*%
X24450000Y8500000D03*
%TO.P,U1,24*%
%TO.N,VCC*%
X24450000Y9300000D03*
%TO.P,U1,25*%
%TO.N,/DutRst*%
X24450000Y10100000D03*
%TO.P,U1,26*%
%TO.N,Net-(U1-Pad26)*%
X24450000Y10900000D03*
%TO.P,U1,27*%
%TO.N,Net-(U1-Pad27)*%
X24450000Y11700000D03*
%TO.P,U1,28*%
%TO.N,Net-(JP3-Pad1)*%
X24450000Y12500000D03*
%TO.P,U1,29*%
%TO.N,/DutClk*%
X24450000Y13300000D03*
%TO.P,U1,30*%
%TO.N,Net-(TP2-Pad1)*%
X24450000Y14100000D03*
%TO.P,U1,31*%
%TO.N,Net-(R6-Pad2)*%
X24450000Y14900000D03*
%TO.P,U1,32*%
%TO.N,Net-(R4-Pad2)*%
X24450000Y15700000D03*
%TO.P,U1,33*%
%TO.N,Net-(JP2-Pad1)*%
X24450000Y16500000D03*
D25*
%TO.P,U1,34*%
%TO.N,VCC*%
X22750000Y18200000D03*
%TO.P,U1,35*%
%TO.N,GND*%
X21950000Y18200000D03*
%TO.P,U1,36*%
%TO.N,/TDI*%
X21150000Y18200000D03*
%TO.P,U1,37*%
%TO.N,/TDO*%
X20350000Y18200000D03*
%TO.P,U1,38*%
%TO.N,/TMS*%
X19550000Y18200000D03*
%TO.P,U1,39*%
%TO.N,/TCK*%
X18750000Y18200000D03*
%TO.P,U1,40*%
%TO.N,Net-(U1-Pad40)*%
X17950000Y18200000D03*
%TO.P,U1,41*%
%TO.N,Net-(U1-Pad41)*%
X17150000Y18200000D03*
%TO.P,U1,42*%
%TO.N,VCC*%
X16350000Y18200000D03*
%TO.P,U1,43*%
%TO.N,GND*%
X15550000Y18200000D03*
%TO.P,U1,44*%
%TO.N,VCC*%
X14750000Y18200000D03*
%TD*%
D26*
%TO.P,TP3,1*%
%TO.N,/DutClk*%
X31305500Y12827000D03*
%TD*%
%TO.P,TP2,1*%
%TO.N,Net-(TP2-Pad1)*%
X31305500Y15430500D03*
%TD*%
%TO.P,R9,2*%
%TO.N,/SCK*%
%TA.AperFunction,SMDPad,CuDef*%
G36*
G01*
X33204998Y7918500D02*
X34105002Y7918500D01*
G75*
G02*
X34355000Y7668502I0J-249998D01*
G01*
X34355000Y7143498D01*
G75*
G02*
X34105002Y6893500I-249998J0D01*
G01*
X33204998Y6893500D01*
G75*
G02*
X32955000Y7143498I0J249998D01*
G01*
X32955000Y7668502D01*
G75*
G02*
X33204998Y7918500I249998J0D01*
G01*
G37*
%TD.AperFunction*%
%TO.P,R9,1*%
%TO.N,Net-(J2-Pad3)*%
%TA.AperFunction,SMDPad,CuDef*%
G36*
G01*
X33204998Y9743500D02*
X34105002Y9743500D01*
G75*
G02*
X34355000Y9493502I0J-249998D01*
G01*
X34355000Y8968498D01*
G75*
G02*
X34105002Y8718500I-249998J0D01*
G01*
X33204998Y8718500D01*
G75*
G02*
X32955000Y8968498I0J249998D01*
G01*
X32955000Y9493502D01*
G75*
G02*
X33204998Y9743500I249998J0D01*
G01*
G37*
%TD.AperFunction*%
%TD*%
%TO.P,R8,2*%
%TO.N,/MOSI*%
%TA.AperFunction,SMDPad,CuDef*%
G36*
G01*
X35300498Y7895000D02*
X36200502Y7895000D01*
G75*
G02*
X36450500Y7645002I0J-249998D01*
G01*
X36450500Y7119998D01*
G75*
G02*
X36200502Y6870000I-249998J0D01*
G01*
X35300498Y6870000D01*
G75*
G02*
X35050500Y7119998I0J249998D01*
G01*
X35050500Y7645002D01*
G75*
G02*
X35300498Y7895000I249998J0D01*
G01*
G37*
%TD.AperFunction*%
%TO.P,R8,1*%
%TO.N,Net-(J2-Pad4)*%
%TA.AperFunction,SMDPad,CuDef*%
G36*
G01*
X35300498Y9720000D02*
X36200502Y9720000D01*
G75*
G02*
X36450500Y9470002I0J-249998D01*
G01*
X36450500Y8944998D01*
G75*
G02*
X36200502Y8695000I-249998J0D01*
G01*
X35300498Y8695000D01*
G75*
G02*
X35050500Y8944998I0J249998D01*
G01*
X35050500Y9470002D01*
G75*
G02*
X35300498Y9720000I249998J0D01*
G01*
G37*
%TD.AperFunction*%
%TD*%
%TO.P,R7,2*%
%TO.N,/MISO*%
%TA.AperFunction,SMDPad,CuDef*%
G36*
G01*
X31109498Y7918500D02*
X32009502Y7918500D01*
G75*
G02*
X32259500Y7668502I0J-249998D01*
G01*
X32259500Y7143498D01*
G75*
G02*
X32009502Y6893500I-249998J0D01*
G01*
X31109498Y6893500D01*
G75*
G02*
X30859500Y7143498I0J249998D01*
G01*
X30859500Y7668502D01*
G75*
G02*
X31109498Y7918500I249998J0D01*
G01*
G37*
%TD.AperFunction*%
%TO.P,R7,1*%
%TO.N,Net-(J2-Pad1)*%
%TA.AperFunction,SMDPad,CuDef*%
G36*
G01*
X31109498Y9743500D02*
X32009502Y9743500D01*
G75*
G02*
X32259500Y9493502I0J-249998D01*
G01*
X32259500Y8968498D01*
G75*
G02*
X32009502Y8718500I-249998J0D01*
G01*
X31109498Y8718500D01*
G75*
G02*
X30859500Y8968498I0J249998D01*
G01*
X30859500Y9493502D01*
G75*
G02*
X31109498Y9743500I249998J0D01*
G01*
G37*
%TD.AperFunction*%
%TD*%
%TO.P,R6,2*%
%TO.N,Net-(R6-Pad2)*%
%TA.AperFunction,SMDPad,CuDef*%
G36*
G01*
X26983100Y18534802D02*
X26983100Y17634798D01*
G75*
G02*
X26733102Y17384800I-249998J0D01*
G01*
X26208098Y17384800D01*
G75*
G02*
X25958100Y17634798I0J249998D01*
G01*
X25958100Y18534802D01*
G75*
G02*
X26208098Y18784800I249998J0D01*
G01*
X26733102Y18784800D01*
G75*
G02*
X26983100Y18534802I0J-249998D01*
G01*
G37*
%TD.AperFunction*%
%TO.P,R6,1*%
%TO.N,Net-(D1-Pad1)*%
%TA.AperFunction,SMDPad,CuDef*%
G36*
G01*
X28808100Y18534802D02*
X28808100Y17634798D01*
G75*
G02*
X28558102Y17384800I-249998J0D01*
G01*
X28033098Y17384800D01*
G75*
G02*
X27783100Y17634798I0J249998D01*
G01*
X27783100Y18534802D01*
G75*
G02*
X28033098Y18784800I249998J0D01*
G01*
X28558102Y18784800D01*
G75*
G02*
X28808100Y18534802I0J-249998D01*
G01*
G37*
%TD.AperFunction*%
%TD*%
%TO.P,R5,2*%
%TO.N,Net-(JP2-Pad1)*%
%TA.AperFunction,SMDPad,CuDef*%
G36*
G01*
X36379998Y14800000D02*
X37280002Y14800000D01*
G75*
G02*
X37530000Y14550002I0J-249998D01*
G01*
X37530000Y14024998D01*
G75*
G02*
X37280002Y13775000I-249998J0D01*
G01*
X36379998Y13775000D01*
G75*
G02*
X36130000Y14024998I0J249998D01*
G01*
X36130000Y14550002D01*
G75*
G02*
X36379998Y14800000I249998J0D01*
G01*
G37*
%TD.AperFunction*%
%TO.P,R5,1*%
%TO.N,VCC*%
%TA.AperFunction,SMDPad,CuDef*%
G36*
G01*
X36379998Y16625000D02*
X37280002Y16625000D01*
G75*
G02*
X37530000Y16375002I0J-249998D01*
G01*
X37530000Y15849998D01*
G75*
G02*
X37280002Y15600000I-249998J0D01*
G01*
X36379998Y15600000D01*
G75*
G02*
X36130000Y15849998I0J249998D01*
G01*
X36130000Y16375002D01*
G75*
G02*
X36379998Y16625000I249998J0D01*
G01*
G37*
%TD.AperFunction*%
%TD*%
%TO.P,R4,2*%
%TO.N,Net-(R4-Pad2)*%
%TA.AperFunction,SMDPad,CuDef*%
G36*
G01*
X28326502Y14965000D02*
X27426498Y14965000D01*
G75*
G02*
X27176500Y15214998I0J249998D01*
G01*
X27176500Y15740002D01*
G75*
G02*
X27426498Y15990000I249998J0D01*
G01*
X28326502Y15990000D01*
G75*
G02*
X28576500Y15740002I0J-249998D01*
G01*
X28576500Y15214998D01*
G75*
G02*
X28326502Y14965000I-249998J0D01*
G01*
G37*
%TD.AperFunction*%
%TO.P,R4,1*%
%TO.N,/DutClk*%
%TA.AperFunction,SMDPad,CuDef*%
G36*
G01*
X28326502Y13140000D02*
X27426498Y13140000D01*
G75*
G02*
X27176500Y13389998I0J249998D01*
G01*
X27176500Y13915002D01*
G75*
G02*
X27426498Y14165000I249998J0D01*
G01*
X28326502Y14165000D01*
G75*
G02*
X28576500Y13915002I0J-249998D01*
G01*
X28576500Y13389998D01*
G75*
G02*
X28326502Y13140000I-249998J0D01*
G01*
G37*
%TD.AperFunction*%
%TD*%
%TO.P,R3,2*%
%TO.N,/RstP*%
%TA.AperFunction,SMDPad,CuDef*%
G36*
G01*
X28847202Y22245900D02*
X27947198Y22245900D01*
G75*
G02*
X27697200Y22495898I0J249998D01*
G01*
X27697200Y23020902D01*
G75*
G02*
X27947198Y23270900I249998J0D01*
G01*
X28847202Y23270900D01*
G75*
G02*
X29097200Y23020902I0J-249998D01*
G01*
X29097200Y22495898D01*
G75*
G02*
X28847202Y22245900I-249998J0D01*
G01*
G37*
%TD.AperFunction*%
%TO.P,R3,1*%
%TO.N,VCC*%
%TA.AperFunction,SMDPad,CuDef*%
G36*
G01*
X28847202Y20420900D02*
X27947198Y20420900D01*
G75*
G02*
X27697200Y20670898I0J249998D01*
G01*
X27697200Y21195902D01*
G75*
G02*
X27947198Y21445900I249998J0D01*
G01*
X28847202Y21445900D01*
G75*
G02*
X29097200Y21195902I0J-249998D01*
G01*
X29097200Y20670898D01*
G75*
G02*
X28847202Y20420900I-249998J0D01*
G01*
G37*
%TD.AperFunction*%
%TD*%
%TO.P,R2,2*%
%TO.N,/D-*%
%TA.AperFunction,SMDPad,CuDef*%
G36*
G01*
X9234000Y15880502D02*
X9234000Y14980498D01*
G75*
G02*
X8984002Y14730500I-249998J0D01*
G01*
X8458998Y14730500D01*
G75*
G02*
X8209000Y14980498I0J249998D01*
G01*
X8209000Y15880502D01*
G75*
G02*
X8458998Y16130500I249998J0D01*
G01*
X8984002Y16130500D01*
G75*
G02*
X9234000Y15880502I0J-249998D01*
G01*
G37*
%TD.AperFunction*%
%TO.P,R2,1*%
%TO.N,/UD-*%
%TA.AperFunction,SMDPad,CuDef*%
G36*
G01*
X11059000Y15880502D02*
X11059000Y14980498D01*
G75*
G02*
X10809002Y14730500I-249998J0D01*
G01*
X10283998Y14730500D01*
G75*
G02*
X10034000Y14980498I0J249998D01*
G01*
X10034000Y15880502D01*
G75*
G02*
X10283998Y16130500I249998J0D01*
G01*
X10809002Y16130500D01*
G75*
G02*
X11059000Y15880502I0J-249998D01*
G01*
G37*
%TD.AperFunction*%
%TD*%
%TO.P,R1,2*%
%TO.N,/D+*%
%TA.AperFunction,SMDPad,CuDef*%
G36*
G01*
X9234000Y13848502D02*
X9234000Y12948498D01*
G75*
G02*
X8984002Y12698500I-249998J0D01*
G01*
X8458998Y12698500D01*
G75*
G02*
X8209000Y12948498I0J249998D01*
G01*
X8209000Y13848502D01*
G75*
G02*
X8458998Y14098500I249998J0D01*
G01*
X8984002Y14098500D01*
G75*
G02*
X9234000Y13848502I0J-249998D01*
G01*
G37*
%TD.AperFunction*%
%TO.P,R1,1*%
%TO.N,/UD+*%
%TA.AperFunction,SMDPad,CuDef*%
G36*
G01*
X11059000Y13848502D02*
X11059000Y12948498D01*
G75*
G02*
X10809002Y12698500I-249998J0D01*
G01*
X10283998Y12698500D01*
G75*
G02*
X10034000Y12948498I0J249998D01*
G01*
X10034000Y13848502D01*
G75*
G02*
X10283998Y14098500I249998J0D01*
G01*
X10809002Y14098500D01*
G75*
G02*
X11059000Y13848502I0J-249998D01*
G01*
G37*
%TD.AperFunction*%
%TD*%
D27*
%TO.P,JP3,1*%
%TO.N,Net-(JP3-Pad1)*%
X27876500Y11714000D03*
%TO.P,JP3,2*%
%TO.N,/DutRst*%
X27876500Y10414000D03*
%TD*%
D28*
%TO.P,JP2,1*%
%TO.N,Net-(JP2-Pad1)*%
X36860000Y12128500D03*
%TO.P,JP2,2*%
%TO.N,GND*%
X35560000Y12128500D03*
%TD*%
%TO.P,C6,2*%
%TO.N,VCC*%
%TA.AperFunction,SMDPad,CuDef*%
G36*
G01*
X27871000Y8793500D02*
X27871000Y7843500D01*
G75*
G02*
X27621000Y7593500I-250000J0D01*
G01*
X27121000Y7593500D01*
G75*
G02*
X26871000Y7843500I0J250000D01*
G01*
X26871000Y8793500D01*
G75*
G02*
X27121000Y9043500I250000J0D01*
G01*
X27621000Y9043500D01*
G75*
G02*
X27871000Y8793500I0J-250000D01*
G01*
G37*
%TD.AperFunction*%
%TO.P,C6,1*%
%TO.N,GND*%
%TA.AperFunction,SMDPad,CuDef*%
G36*
G01*
X29771000Y8793500D02*
X29771000Y7843500D01*
G75*
G02*
X29521000Y7593500I-250000J0D01*
G01*
X29021000Y7593500D01*
G75*
G02*
X28771000Y7843500I0J250000D01*
G01*
X28771000Y8793500D01*
G75*
G02*
X29021000Y9043500I250000J0D01*
G01*
X29521000Y9043500D01*
G75*
G02*
X29771000Y8793500I0J-250000D01*
G01*
G37*
%TD.AperFunction*%
%TD*%
%TO.P,C4,2*%
%TO.N,GND*%
%TA.AperFunction,SMDPad,CuDef*%
G36*
G01*
X9210000Y11841500D02*
X9210000Y10891500D01*
G75*
G02*
X8960000Y10641500I-250000J0D01*
G01*
X8460000Y10641500D01*
G75*
G02*
X8210000Y10891500I0J250000D01*
G01*
X8210000Y11841500D01*
G75*
G02*
X8460000Y12091500I250000J0D01*
G01*
X8960000Y12091500D01*
G75*
G02*
X9210000Y11841500I0J-250000D01*
G01*
G37*
%TD.AperFunction*%
%TO.P,C4,1*%
%TO.N,Net-(C4-Pad1)*%
%TA.AperFunction,SMDPad,CuDef*%
G36*
G01*
X11110000Y11841500D02*
X11110000Y10891500D01*
G75*
G02*
X10860000Y10641500I-250000J0D01*
G01*
X10360000Y10641500D01*
G75*
G02*
X10110000Y10891500I0J250000D01*
G01*
X10110000Y11841500D01*
G75*
G02*
X10360000Y12091500I250000J0D01*
G01*
X10860000Y12091500D01*
G75*
G02*
X11110000Y11841500I0J-250000D01*
G01*
G37*
%TD.AperFunction*%
%TD*%
D29*
%TO.N,GND*%
X38000000Y23241000D03*
X1000000Y12500000D03*
X1000000Y8500000D03*
X1000000Y16500000D03*
X1000000Y17500000D03*
X1000000Y15500000D03*
X1000000Y9500000D03*
X1000000Y7500000D03*
X6500000Y7500000D03*
X5500000Y7500000D03*
X4500000Y7500000D03*
X25865835Y8489407D03*
X29567062Y9737790D03*
X33909562Y11817461D03*
X17438386Y8127781D03*
X4500000Y17500000D03*
X5500000Y17500000D03*
X6500000Y17500000D03*
X22230282Y19497828D03*
X8826500Y2382000D03*
X8763000Y1048498D03*
X11675000Y13250000D03*
X19456400Y3708400D03*
X23977600Y1879600D03*
X15684500Y21421790D03*
X10058400Y23164800D03*
%TO.N,VCC*%
X29591000Y11874500D03*
X16256000Y8213790D03*
X22225000Y13208000D03*
X16383000Y10347390D03*
%TO.N,+3V3*%
X9017000Y18923000D03*
X11049000Y19812000D03*
%TO.N,/DutRst*%
X34388764Y10757140D03*
X37338000Y9721269D03*
X22987000Y10922000D03*
X19573563Y11242610D03*
%TO.N,Net-(JP2-Pad1)*%
X33718500Y15430500D03*
X27940000Y16764000D03*
%TO.N,/MISO*%
X21399500Y8445500D03*
X25273000Y7429500D03*
%TO.N,/RstP*%
X22961600Y12039600D03*
X20980400Y12039600D03*
X15494000Y11023600D03*
X15036800Y8229600D03*
%TO.N,/TMS*%
X20819132Y20050587D03*
X19431000Y19685000D03*
%TD*%
D30*
%TO.N,GND*%
X25855242Y8500000D02*
X25865835Y8489407D01*
X24450000Y8500000D02*
X25855242Y8500000D01*
D31*
X29271000Y8318500D02*
X29271000Y9441728D01*
X29271000Y9441728D02*
X29567062Y9737790D01*
X34220601Y12128500D02*
X33909562Y11817461D01*
X35560000Y12128500D02*
X34220601Y12128500D01*
D30*
X17150000Y6800000D02*
X17150000Y7839395D01*
X17150000Y7839395D02*
X17438386Y8127781D01*
D31*
X21950000Y18200000D02*
X21950000Y19217546D01*
X21950000Y19217546D02*
X22230282Y19497828D01*
D30*
X15550000Y18200000D02*
X15550000Y19502000D01*
X14986000Y20066000D02*
X14986000Y20320000D01*
X15550000Y19502000D02*
X14986000Y20066000D01*
X9539000Y1669500D02*
X8826500Y2382000D01*
X10770000Y1669500D02*
X9539000Y1669500D01*
X9539000Y1669500D02*
X8917998Y1048498D01*
X8917998Y1048498D02*
X8763000Y1048498D01*
X14663500Y4826000D02*
X14663500Y2862500D01*
X14663500Y2862500D02*
X14668500Y2857500D01*
D32*
X8710000Y11366500D02*
X8543500Y11200000D01*
X8543500Y11200000D02*
X5475000Y11200000D01*
D31*
X11700000Y13300000D02*
X11650000Y13250000D01*
X13050000Y13300000D02*
X11700000Y13300000D01*
X16459200Y2997200D02*
X14782800Y2997200D01*
X14782800Y2997200D02*
X14732000Y2946400D01*
X14668500Y2857500D02*
X13487400Y1676400D01*
X13487400Y1676400D02*
X10769600Y1676400D01*
X19634200Y4546600D02*
X19634200Y3886200D01*
X19634200Y3886200D02*
X19456400Y3708400D01*
X18554700Y4546600D02*
X19634200Y4546600D01*
X19634200Y4546600D02*
X20599400Y4546600D01*
X22893200Y2744100D02*
X22401900Y2744100D01*
X23977600Y2641600D02*
X23977600Y1879600D01*
X25158700Y2641600D02*
X23977600Y2641600D01*
X23977600Y2641600D02*
X23063200Y2641600D01*
X24003000Y22225000D02*
X24917400Y22225000D01*
X24917400Y22225000D02*
X26212800Y20929600D01*
D30*
X15684500Y21013500D02*
X15684500Y21421790D01*
X14991000Y20320000D02*
X15684500Y21013500D01*
D31*
%TO.N,Net-(C4-Pad1)*%
X10610000Y11366500D02*
X11743500Y12500000D01*
X13050000Y12500000D02*
X11743500Y12500000D01*
D30*
%TO.N,VCC*%
X23524446Y9271000D02*
X23619678Y9271000D01*
X23524446Y9271000D02*
X24447500Y9271000D01*
X26355000Y9334500D02*
X27371000Y8318500D01*
X24447500Y9334500D02*
X26355000Y9334500D01*
X31584555Y11474501D02*
X32966099Y12856045D01*
X29591000Y11874500D02*
X29990999Y11474501D01*
X32966099Y12856045D02*
X32966099Y15791653D01*
X32966099Y15791653D02*
X33357347Y16182901D01*
X29990999Y11474501D02*
X31584555Y11474501D01*
X16350000Y6800000D02*
X16350000Y8119790D01*
D31*
X16350000Y8119790D02*
X16256000Y8213790D01*
D30*
X33357347Y16182901D02*
X36712599Y16182901D01*
X36712599Y16182901D02*
X36830000Y16065500D01*
X22234599Y10560847D02*
X23524446Y9271000D01*
X22234599Y16825277D02*
X22234599Y13198401D01*
X22234599Y13198401D02*
X22225000Y13208000D01*
X16891000Y20002500D02*
X16891000Y20320000D01*
X16350000Y18200000D02*
X16350000Y19461500D01*
X16350000Y19461500D02*
X16891000Y20002500D01*
X16829723Y16825277D02*
X22234599Y16825277D01*
X14750000Y18200000D02*
X11547446Y18200000D01*
X11547446Y18200000D02*
X9271000Y20476446D01*
X9271000Y20476446D02*
X9271000Y21145500D01*
D31*
X27606990Y20143190D02*
X25477190Y20143190D01*
X28397200Y20933400D02*
X27606990Y20143190D01*
X25477190Y20143190D02*
X23571200Y18237200D01*
X23571200Y18237200D02*
X22758400Y18237200D01*
D30*
X16459200Y4897200D02*
X16459200Y5740400D01*
X16459200Y5740400D02*
X16357600Y5842000D01*
X16357600Y5842000D02*
X16357600Y6807200D01*
D31*
X16891000Y20320000D02*
X17526000Y20320000D01*
X17907000Y20701000D02*
X17526000Y20320000D01*
X20193000Y22225000D02*
X19416799Y23001201D01*
X19416799Y23001201D02*
X18550423Y23001201D01*
X18550423Y23001201D02*
X17907000Y22357778D01*
X17907000Y22357778D02*
X17907000Y20701000D01*
D30*
X22733000Y17344746D02*
X22733000Y18224500D01*
X22234599Y16825277D02*
X22234599Y16846345D01*
X22234599Y16846345D02*
X22733000Y17344746D01*
X21825001Y10970445D02*
X22234599Y10560847D01*
X22225000Y13208000D02*
X21825001Y12808001D01*
X21825001Y12808001D02*
X21825001Y10970445D01*
X22234599Y10550599D02*
X21780500Y10096500D01*
X21780500Y10096500D02*
X16633890Y10096500D01*
X16633890Y10096500D02*
X16383000Y10347390D01*
X22234599Y10560847D02*
X22234599Y10550599D01*
X36830000Y16112500D02*
X36830000Y18745200D01*
X36830000Y18745200D02*
X37236400Y19151600D01*
X37236400Y19151600D02*
X37236400Y21132800D01*
X15069923Y16825277D02*
X16829723Y16825277D01*
X14750000Y17145200D02*
X15069923Y16825277D01*
X14750000Y18200000D02*
X14750000Y17145200D01*
X16350000Y16825277D02*
X16829723Y16825277D01*
X16350000Y18200000D02*
X16350000Y16825277D01*
%TO.N,VBUS*%
X14050000Y15700000D02*
X14250000Y15500000D01*
X14050000Y11700000D02*
X14250000Y11900000D01*
X13050000Y11700000D02*
X14050000Y11700000D01*
X14250000Y11900000D02*
X14250000Y15500000D01*
X13050000Y15700000D02*
X14050000Y15700000D01*
X11811000Y15811500D02*
X11953500Y15700000D01*
X10537500Y17450000D02*
X10537500Y17085000D01*
X10537500Y17085000D02*
X11811000Y15811500D01*
X11953500Y15700000D02*
X13050000Y15700000D01*
X7747000Y20909678D02*
X7747000Y21082000D01*
X8894937Y20138599D02*
X8518079Y20138599D01*
X10537500Y18496036D02*
X8894937Y20138599D01*
X8518079Y20138599D02*
X7747000Y20909678D01*
X10537500Y17450000D02*
X10537500Y18496036D01*
X10769600Y7518400D02*
X10769600Y7010400D01*
X11995200Y11700000D02*
X11462410Y11167210D01*
X11462410Y8211210D02*
X10769600Y7518400D01*
X11462410Y11167210D02*
X11462410Y8211210D01*
X13050000Y11700000D02*
X11995200Y11700000D01*
X12192000Y6299200D02*
X10769600Y6299200D01*
X12763500Y5727700D02*
X12192000Y6299200D01*
X12763500Y4826000D02*
X12763500Y5727700D01*
%TO.N,+3V3*%
X4572000Y3969500D02*
X4508500Y4033000D01*
X8844500Y3969500D02*
X8844500Y8344500D01*
X10770000Y3969500D02*
X8844500Y3969500D01*
X8844500Y3969500D02*
X4572000Y3969500D01*
X9586410Y9086410D02*
X9586410Y18436410D01*
X8844500Y8344500D02*
X9586410Y9086410D01*
X9503590Y18436410D02*
X9017000Y18923000D01*
X9586410Y18436410D02*
X9503590Y18436410D01*
X11049000Y19812000D02*
X12255500Y21018500D01*
X12255500Y21018500D02*
X12255500Y21145500D01*
X11023600Y3962400D02*
X10820400Y3962400D01*
X12128500Y2857500D02*
X11023600Y3962400D01*
X12768500Y2857500D02*
X12128500Y2857500D01*
D31*
X15290800Y22098000D02*
X14325600Y21132800D01*
X16967200Y22098000D02*
X15290800Y22098000D01*
X14325600Y21132800D02*
X12242800Y21132800D01*
X29033190Y23595610D02*
X18464810Y23595610D01*
X18464810Y23595610D02*
X16967200Y22098000D01*
X31874700Y20754100D02*
X29033190Y23595610D01*
X31874700Y18084800D02*
X31874700Y20754100D01*
%TO.N,Net-(D1-Pad1)*%
X28295600Y18084800D02*
X29870400Y18084800D01*
X29870400Y18084800D02*
X30022800Y18084800D01*
D30*
%TO.N,Net-(F1-Pad2)*%
X8725000Y17025000D02*
X8725000Y17375000D01*
X7400000Y14675000D02*
X7400000Y16950000D01*
X6525000Y13800000D02*
X7400000Y14675000D01*
X7900000Y17450000D02*
X8712500Y17450000D01*
X7400000Y16950000D02*
X7900000Y17450000D01*
X5500000Y13800000D02*
X6525000Y13800000D01*
D31*
%TO.N,/DutRst*%
X24450000Y10100000D02*
X27626000Y10100000D01*
X27626000Y10100000D02*
X27876500Y10350500D01*
X27876500Y10414000D02*
X34045624Y10414000D01*
X34045624Y10414000D02*
X34388764Y10757140D01*
X24450000Y10100000D02*
X23364500Y10100000D01*
X22987000Y10477500D02*
X22987000Y10922000D01*
X23364500Y10100000D02*
X22987000Y10477500D01*
X13050000Y16500000D02*
X14316173Y16500000D01*
X14316173Y16500000D02*
X19573563Y11242610D01*
X37616731Y10000000D02*
X37338000Y9721269D01*
X43210000Y10000000D02*
X37616731Y10000000D01*
%TO.N,Net-(J2-Pad4)*%
X36940479Y10397479D02*
X35750500Y9207500D01*
X42714021Y11413799D02*
X41697701Y10397479D01*
X44433799Y11413799D02*
X42714021Y11413799D01*
X41697701Y10397479D02*
X36940479Y10397479D01*
X45593000Y12573000D02*
X44433799Y11413799D01*
%TO.N,Net-(J2-Pad3)*%
X34317324Y9231000D02*
X35836212Y10749888D01*
X35836212Y10749888D02*
X41356890Y10749890D01*
X33655000Y9231000D02*
X34317324Y9231000D01*
X41356890Y10749890D02*
X41499890Y10749890D01*
X41499890Y10749890D02*
X43250000Y12500000D01*
D30*
%TO.N,/VProg*%
X40250000Y21116000D02*
X40250000Y20405200D01*
X40250000Y20405200D02*
X45567600Y15087600D01*
D31*
%TO.N,Net-(J2-Pad1)*%
X32371099Y10042599D02*
X34630539Y10042599D01*
X38978799Y11102299D02*
X42989500Y15113000D01*
X34630539Y10042599D02*
X35690239Y11102299D01*
X35690239Y11102299D02*
X38978799Y11102299D01*
X31559500Y9231000D02*
X32371099Y10042599D01*
%TO.N,Net-(JP2-Pad1)*%
X34861500Y14287500D02*
X33718500Y15430500D01*
X36830000Y14287500D02*
X34861500Y14287500D01*
X36860000Y12128500D02*
X36860000Y14194000D01*
X36860000Y14194000D02*
X36830000Y14224000D01*
X27940000Y16764000D02*
X26289000Y16764000D01*
X26289000Y16764000D02*
X26035000Y16510000D01*
X26035000Y16510000D02*
X24447500Y16510000D01*
%TO.N,Net-(JP3-Pad1)*%
X27876500Y11714000D02*
X26640000Y11714000D01*
X26640000Y11714000D02*
X25908000Y12446000D01*
X25908000Y12446000D02*
X24511000Y12446000D01*
%TO.N,/MISO*%
X25609499Y7093001D02*
X25273000Y7429500D01*
X31257800Y7058202D02*
X31286501Y7029501D01*
X25273000Y7429500D02*
X25644298Y7058202D01*
X25644298Y7058202D02*
X31257800Y7058202D01*
X14712223Y8905801D02*
X20939199Y8905801D01*
X13050000Y8500000D02*
X14306422Y8500000D01*
X14306422Y8500000D02*
X14712223Y8905801D01*
X20939199Y8905801D02*
X20999501Y8845499D01*
X20999501Y8845499D02*
X21399500Y8445500D01*
%TO.N,/SCK*%
X13050000Y10100000D02*
X14982500Y10100000D01*
X30891534Y6617290D02*
X32842790Y6617290D01*
X14982500Y10100000D02*
X15430500Y9652000D01*
X21834384Y9652000D02*
X24780592Y6705792D01*
X24780592Y6705792D02*
X30803033Y6705791D01*
X32842790Y6617290D02*
X33591500Y7366000D01*
X30803033Y6705791D02*
X30891534Y6617290D01*
X15430500Y9652000D02*
X21834384Y9652000D01*
%TO.N,/RstP*%
X28397200Y22758400D02*
X26466800Y22758400D01*
X26466800Y22758400D02*
X26416000Y22809200D01*
X22250400Y23012400D02*
X26184900Y23012400D01*
X26184900Y23012400D02*
X26377900Y22819400D01*
X21463000Y22225000D02*
X22250400Y23012400D01*
X27981486Y19061010D02*
X25055410Y19061010D01*
X29373410Y21782190D02*
X29373410Y20452934D01*
X25055410Y19061010D02*
X22910800Y16916398D01*
X29373410Y20452934D02*
X27981486Y19061010D01*
X22910800Y16916398D02*
X22910800Y16484600D01*
X28397200Y22758400D02*
X29373410Y21782190D01*
X22910800Y16484600D02*
X22910800Y12700000D01*
X22961600Y12649200D02*
X22961600Y12039600D01*
X22910800Y12700000D02*
X22961600Y12649200D01*
X20980400Y12039600D02*
X20980400Y11379200D01*
X20980400Y11379200D02*
X20167600Y10566400D01*
X20167600Y10566400D02*
X17221200Y10566400D01*
X16764000Y11023600D02*
X15494000Y11023600D01*
X17221200Y10566400D02*
X16764000Y11023600D01*
X15036800Y8229600D02*
X15544800Y7721600D01*
X15544800Y7721600D02*
X15544800Y6807200D01*
%TO.N,/MOSI*%
X34585879Y6264879D02*
X35623500Y7302500D01*
X30657059Y6353381D02*
X30745561Y6264879D01*
X13050000Y9300000D02*
X15284116Y9300000D01*
X15284527Y9299589D02*
X21688411Y9299589D01*
X24634619Y6353381D02*
X30657059Y6353381D01*
X15284116Y9300000D02*
X15284527Y9299589D01*
X30745561Y6264879D02*
X34585879Y6264879D01*
X21688411Y9299589D02*
X24634619Y6353381D01*
%TO.N,Net-(R4-Pad2)*%
X24450000Y15700000D02*
X27670500Y15700000D01*
%TO.N,/DutClk*%
X31305500Y12827000D02*
X30480000Y13652500D01*
X30480000Y13652500D02*
X27876500Y13652500D01*
X27876500Y13652500D02*
X26422500Y13652500D01*
X26422500Y13652500D02*
X26070000Y13300000D01*
X24450000Y13300000D02*
X26070000Y13300000D01*
%TO.N,Net-(R6-Pad2)*%
X23547600Y14900000D02*
X24450000Y14900000D01*
X24577585Y18084800D02*
X23263211Y16770426D01*
X26470600Y18084800D02*
X24577585Y18084800D01*
X23263211Y15184389D02*
X23547600Y14900000D01*
X23263211Y16770426D02*
X23263211Y15184389D01*
%TO.N,Net-(TP2-Pad1)*%
X29754790Y14441210D02*
X29818290Y14441210D01*
X29754790Y14441210D02*
X30316210Y14441210D01*
X30316210Y14441210D02*
X31305500Y15430500D01*
X27208534Y14441210D02*
X29008012Y14441210D01*
X29008012Y14441210D02*
X29754790Y14441210D01*
X26867324Y14100000D02*
X27208534Y14441210D01*
X24450000Y14100000D02*
X26867324Y14100000D01*
%TO.N,Net-(R10-Pad2)*%
X21150000Y6800000D02*
X21150000Y5875600D01*
X22047200Y5334000D02*
X26263600Y5334000D01*
X21607401Y5773799D02*
X22047200Y5334000D01*
X21234400Y5791200D02*
X21251801Y5773799D01*
X21251801Y5773799D02*
X21607401Y5773799D01*
X21150000Y5875600D02*
X21234400Y5791200D01*
X26263600Y5334000D02*
X26597600Y5000000D01*
X26597600Y5000000D02*
X27500000Y5000000D01*
%TO.N,/TXO*%
X29250000Y5000000D02*
X29250000Y4250000D01*
X29250000Y4250000D02*
X28500000Y3500000D01*
X28500000Y3500000D02*
X28500000Y2250000D01*
%TO.N,Net-(R11-Pad2)*%
X30111290Y5976210D02*
X31087500Y5000000D01*
X25976210Y5976210D02*
X30111290Y5976210D01*
X22105783Y5773799D02*
X25773799Y5773799D01*
X25773799Y5773799D02*
X25976210Y5976210D01*
X21950000Y5929582D02*
X22105783Y5773799D01*
X21950000Y6800000D02*
X21950000Y5929582D01*
%TO.N,/RXI*%
X32912500Y5000000D02*
X32912500Y4162500D01*
X32912500Y4162500D02*
X31000000Y2250000D01*
%TO.N,/Xtal1*%
X25158700Y4541600D02*
X22982000Y4541600D01*
X19267412Y5421388D02*
X18745200Y5943600D01*
X21461428Y5421388D02*
X19267412Y5421388D01*
X18745200Y5943600D02*
X18745200Y6807200D01*
X22438716Y4444100D02*
X21461428Y5421388D01*
X22893200Y4444100D02*
X22438716Y4444100D01*
%TO.N,/Xtal2*%
X17553490Y5014566D02*
X17553490Y3630110D01*
X17950000Y5411076D02*
X17553490Y5014566D01*
X17950000Y6596800D02*
X17950000Y5411076D01*
X17553490Y3630110D02*
X18440400Y2743200D01*
X20693200Y2744100D02*
X18644500Y2744100D01*
X18644500Y2744100D02*
X18542000Y2641600D01*
%TO.N,/TDI*%
X21905704Y20174030D02*
X23222030Y20174030D01*
X21150000Y18200000D02*
X21150000Y19418326D01*
X21150000Y19418326D02*
X21905704Y20174030D01*
X23222030Y20174030D02*
X24003000Y20955000D01*
%TO.N,/TMS*%
X21463000Y20955000D02*
X21463000Y20694455D01*
X21463000Y20694455D02*
X20819132Y20050587D01*
X19550000Y19566000D02*
X19431000Y19685000D01*
X19550000Y18200000D02*
X19550000Y19566000D01*
%TO.N,/TDO*%
X20193000Y20955000D02*
X20142930Y20904930D01*
X20350000Y18200000D02*
X20350000Y19270500D01*
X20142930Y19477570D02*
X20142930Y19761930D01*
X20350000Y19270500D02*
X20142930Y19477570D01*
X20142930Y20904930D02*
X20142930Y19761930D01*
%TO.N,/TCK*%
X18750000Y18200000D02*
X18750000Y20782000D01*
X18750000Y20782000D02*
X18923000Y20955000D01*
%TO.N,/D+*%
X5500000Y12500000D02*
X7825000Y12500000D01*
X7825000Y12500000D02*
X8725000Y13400000D01*
%TO.N,/D-*%
X6552400Y13150000D02*
X8725000Y15322600D01*
X5500000Y13150000D02*
X6552400Y13150000D01*
X8725000Y15322600D02*
X8725000Y15375000D01*
%TO.N,/UD+*%
X10546500Y13398500D02*
X11248000Y14100000D01*
X13050000Y14100000D02*
X11248000Y14100000D01*
%TO.N,/UD-*%
X10546500Y15430500D02*
X11077000Y14900000D01*
X13050000Y14900000D02*
X11077000Y14900000D01*
%TD*%
%TO.N,GND*%
X33361850Y24714800D02*
X33876200Y24714800D01*
X33876200Y24746400D01*
X34523800Y24746400D01*
X34523800Y24714800D01*
X35038150Y24714800D01*
X35069750Y24746400D01*
X40930250Y24746400D01*
X40961850Y24714800D01*
X41476200Y24714800D01*
X41476200Y24746400D01*
X42123800Y24746400D01*
X42123800Y24714800D01*
X42638150Y24714800D01*
X42669750Y24746400D01*
X42903181Y24746400D01*
X42903181Y20076200D01*
X41185131Y20076200D01*
X40927950Y20333381D01*
X40930763Y20336809D01*
X40956410Y20384792D01*
X40972203Y20436855D01*
X40977536Y20491000D01*
X40977536Y21285339D01*
X41051280Y21218776D01*
X41150107Y21159818D01*
X41258537Y21121273D01*
X41330150Y21106800D01*
X41476200Y21252850D01*
X41476200Y21767200D01*
X42123800Y21767200D01*
X42123800Y21252850D01*
X42269850Y21106800D01*
X42341463Y21121273D01*
X42449893Y21159818D01*
X42548720Y21218776D01*
X42634145Y21295882D01*
X42702887Y21388171D01*
X42752303Y21492099D01*
X42780495Y21603669D01*
X42784200Y21621150D01*
X42638150Y21767200D01*
X42123800Y21767200D01*
X41476200Y21767200D01*
X40974955Y21767200D01*
X40972203Y21795145D01*
X40956410Y21847208D01*
X40930763Y21895191D01*
X40896248Y21937248D01*
X40854191Y21971763D01*
X40806208Y21997410D01*
X40754145Y22013203D01*
X40700000Y22018536D01*
X39800000Y22018536D01*
X39745855Y22013203D01*
X39693792Y21997410D01*
X39645809Y21971763D01*
X39603752Y21937248D01*
X39569237Y21895191D01*
X39543590Y21847208D01*
X39527797Y21795145D01*
X39522464Y21741000D01*
X39522464Y20491000D01*
X39527797Y20436855D01*
X39543590Y20384792D01*
X39569237Y20336809D01*
X39603752Y20294752D01*
X39645809Y20260237D01*
X39693792Y20234590D01*
X39745855Y20218797D01*
X39800000Y20213464D01*
X39866502Y20213464D01*
X39891909Y20165931D01*
X39945469Y20100668D01*
X39961820Y20087249D01*
X39972869Y20076200D01*
X37665000Y20076200D01*
X37665000Y20213464D01*
X37700000Y20213464D01*
X37754145Y20218797D01*
X37806208Y20234590D01*
X37854191Y20260237D01*
X37896248Y20294752D01*
X37930763Y20336809D01*
X37956410Y20384792D01*
X37972203Y20436855D01*
X37977536Y20491000D01*
X37977536Y21741000D01*
X37972203Y21795145D01*
X37956410Y21847208D01*
X37930763Y21895191D01*
X37896248Y21937248D01*
X37854191Y21971763D01*
X37806208Y21997410D01*
X37754145Y22013203D01*
X37700000Y22018536D01*
X36800000Y22018536D01*
X36745855Y22013203D01*
X36693792Y21997410D01*
X36645809Y21971763D01*
X36603752Y21937248D01*
X36569237Y21895191D01*
X36543590Y21847208D01*
X36527797Y21795145D01*
X36522464Y21741000D01*
X36522464Y20491000D01*
X36527797Y20436855D01*
X36543590Y20384792D01*
X36569237Y20336809D01*
X36603752Y20294752D01*
X36645809Y20260237D01*
X36693792Y20234590D01*
X36745855Y20218797D01*
X36800000Y20213464D01*
X36807801Y20213464D01*
X36807801Y20076200D01*
X33055581Y20076200D01*
X33055581Y21621150D01*
X33215800Y21621150D01*
X33219505Y21603669D01*
X33247697Y21492099D01*
X33297113Y21388171D01*
X33365855Y21295882D01*
X33451280Y21218776D01*
X33550107Y21159818D01*
X33658537Y21121273D01*
X33730150Y21106800D01*
X33876200Y21252850D01*
X33876200Y21767200D01*
X34523800Y21767200D01*
X34523800Y21252850D01*
X34669850Y21106800D01*
X34741463Y21121273D01*
X34849893Y21159818D01*
X34948720Y21218776D01*
X35022464Y21285339D01*
X35022464Y20491000D01*
X35027797Y20436855D01*
X35043590Y20384792D01*
X35069237Y20336809D01*
X35103752Y20294752D01*
X35145809Y20260237D01*
X35193792Y20234590D01*
X35245855Y20218797D01*
X35300000Y20213464D01*
X36200000Y20213464D01*
X36254145Y20218797D01*
X36306208Y20234590D01*
X36354191Y20260237D01*
X36396248Y20294752D01*
X36430763Y20336809D01*
X36456410Y20384792D01*
X36472203Y20436855D01*
X36477536Y20491000D01*
X36477536Y21741000D01*
X36472203Y21795145D01*
X36456410Y21847208D01*
X36430763Y21895191D01*
X36396248Y21937248D01*
X36354191Y21971763D01*
X36306208Y21997410D01*
X36254145Y22013203D01*
X36200000Y22018536D01*
X35300000Y22018536D01*
X35245855Y22013203D01*
X35193792Y21997410D01*
X35145809Y21971763D01*
X35103752Y21937248D01*
X35069237Y21895191D01*
X35043590Y21847208D01*
X35027797Y21795145D01*
X35025045Y21767200D01*
X34523800Y21767200D01*
X33876200Y21767200D01*
X33361850Y21767200D01*
X33215800Y21621150D01*
X33055581Y21621150D01*
X33055581Y22660850D01*
X33215800Y22660850D01*
X33361850Y22514800D01*
X33876200Y22514800D01*
X33876200Y23029150D01*
X34523800Y23029150D01*
X34523800Y22514800D01*
X35038150Y22514800D01*
X35184200Y22660850D01*
X35180495Y22678331D01*
X35152303Y22789901D01*
X35102887Y22893829D01*
X35034145Y22986118D01*
X34948720Y23063224D01*
X34849893Y23122182D01*
X34741463Y23160727D01*
X34669850Y23175200D01*
X34523800Y23029150D01*
X33876200Y23029150D01*
X33730150Y23175200D01*
X33658537Y23160727D01*
X33550107Y23122182D01*
X33451280Y23063224D01*
X33365855Y22986118D01*
X33297113Y22893829D01*
X33247697Y22789901D01*
X33219505Y22678331D01*
X33215800Y22660850D01*
X33055581Y22660850D01*
X33055581Y23821150D01*
X33215800Y23821150D01*
X33219505Y23803669D01*
X33247697Y23692099D01*
X33297113Y23588171D01*
X33365855Y23495882D01*
X33451280Y23418776D01*
X33550107Y23359818D01*
X33658537Y23321273D01*
X33730150Y23306800D01*
X33876200Y23452850D01*
X33876200Y23967200D01*
X34523800Y23967200D01*
X34523800Y23452850D01*
X34669850Y23306800D01*
X34698172Y23312524D01*
X35773800Y23312524D01*
X35773800Y23169476D01*
X35801707Y23029175D01*
X35856450Y22897015D01*
X35935923Y22778074D01*
X36037074Y22676923D01*
X36156015Y22597450D01*
X36288175Y22542707D01*
X36428476Y22514800D01*
X36571524Y22514800D01*
X36711825Y22542707D01*
X36843985Y22597450D01*
X36962926Y22676923D01*
X37064077Y22778074D01*
X37143550Y22897015D01*
X37198293Y23029175D01*
X37226200Y23169476D01*
X37226200Y23312524D01*
X38773800Y23312524D01*
X38773800Y23169476D01*
X38801707Y23029175D01*
X38856450Y22897015D01*
X38935923Y22778074D01*
X39037074Y22676923D01*
X39156015Y22597450D01*
X39288175Y22542707D01*
X39428476Y22514800D01*
X39571524Y22514800D01*
X39711825Y22542707D01*
X39843985Y22597450D01*
X39938870Y22660850D01*
X40815800Y22660850D01*
X40961850Y22514800D01*
X41476200Y22514800D01*
X41476200Y23029150D01*
X42123800Y23029150D01*
X42123800Y22514800D01*
X42638150Y22514800D01*
X42784200Y22660850D01*
X42780495Y22678331D01*
X42752303Y22789901D01*
X42702887Y22893829D01*
X42634145Y22986118D01*
X42548720Y23063224D01*
X42449893Y23122182D01*
X42341463Y23160727D01*
X42269850Y23175200D01*
X42123800Y23029150D01*
X41476200Y23029150D01*
X41330150Y23175200D01*
X41258537Y23160727D01*
X41150107Y23122182D01*
X41051280Y23063224D01*
X40965855Y22986118D01*
X40897113Y22893829D01*
X40847697Y22789901D01*
X40819505Y22678331D01*
X40815800Y22660850D01*
X39938870Y22660850D01*
X39962926Y22676923D01*
X40064077Y22778074D01*
X40143550Y22897015D01*
X40198293Y23029175D01*
X40226200Y23169476D01*
X40226200Y23312524D01*
X40198293Y23452825D01*
X40143550Y23584985D01*
X40064077Y23703926D01*
X39962926Y23805077D01*
X39938871Y23821150D01*
X40815800Y23821150D01*
X40819505Y23803669D01*
X40847697Y23692099D01*
X40897113Y23588171D01*
X40965855Y23495882D01*
X41051280Y23418776D01*
X41150107Y23359818D01*
X41258537Y23321273D01*
X41330150Y23306800D01*
X41476200Y23452850D01*
X41476200Y23967200D01*
X42123800Y23967200D01*
X42123800Y23452850D01*
X42269850Y23306800D01*
X42341463Y23321273D01*
X42449893Y23359818D01*
X42548720Y23418776D01*
X42634145Y23495882D01*
X42702887Y23588171D01*
X42752303Y23692099D01*
X42780495Y23803669D01*
X42784200Y23821150D01*
X42638150Y23967200D01*
X42123800Y23967200D01*
X41476200Y23967200D01*
X40961850Y23967200D01*
X40815800Y23821150D01*
X39938871Y23821150D01*
X39843985Y23884550D01*
X39711825Y23939293D01*
X39571524Y23967200D01*
X39428476Y23967200D01*
X39288175Y23939293D01*
X39156015Y23884550D01*
X39037074Y23805077D01*
X38935923Y23703926D01*
X38856450Y23584985D01*
X38801707Y23452825D01*
X38773800Y23312524D01*
X37226200Y23312524D01*
X37198293Y23452825D01*
X37143550Y23584985D01*
X37064077Y23703926D01*
X36962926Y23805077D01*
X36843985Y23884550D01*
X36711825Y23939293D01*
X36571524Y23967200D01*
X36428476Y23967200D01*
X36288175Y23939293D01*
X36156015Y23884550D01*
X36037074Y23805077D01*
X35935923Y23703926D01*
X35856450Y23584985D01*
X35801707Y23452825D01*
X35773800Y23312524D01*
X34698172Y23312524D01*
X34741463Y23321273D01*
X34849893Y23359818D01*
X34948720Y23418776D01*
X35034145Y23495882D01*
X35102887Y23588171D01*
X35152303Y23692099D01*
X35180495Y23803669D01*
X35184200Y23821150D01*
X35038150Y23967200D01*
X34523800Y23967200D01*
X33876200Y23967200D01*
X33361850Y23967200D01*
X33215800Y23821150D01*
X33055581Y23821150D01*
X33055581Y24746400D01*
X33330250Y24746400D01*
X33361850Y24714800D01*
%TA.AperFunction,Conductor*%
D33*
G36*
X33361850Y24714800D02*
G01*
X33876200Y24714800D01*
X33876200Y24746400D01*
X34523800Y24746400D01*
X34523800Y24714800D01*
X35038150Y24714800D01*
X35069750Y24746400D01*
X40930250Y24746400D01*
X40961850Y24714800D01*
X41476200Y24714800D01*
X41476200Y24746400D01*
X42123800Y24746400D01*
X42123800Y24714800D01*
X42638150Y24714800D01*
X42669750Y24746400D01*
X42903181Y24746400D01*
X42903181Y20076200D01*
X41185131Y20076200D01*
X40927950Y20333381D01*
X40930763Y20336809D01*
X40956410Y20384792D01*
X40972203Y20436855D01*
X40977536Y20491000D01*
X40977536Y21285339D01*
X41051280Y21218776D01*
X41150107Y21159818D01*
X41258537Y21121273D01*
X41330150Y21106800D01*
X41476200Y21252850D01*
X41476200Y21767200D01*
X42123800Y21767200D01*
X42123800Y21252850D01*
X42269850Y21106800D01*
X42341463Y21121273D01*
X42449893Y21159818D01*
X42548720Y21218776D01*
X42634145Y21295882D01*
X42702887Y21388171D01*
X42752303Y21492099D01*
X42780495Y21603669D01*
X42784200Y21621150D01*
X42638150Y21767200D01*
X42123800Y21767200D01*
X41476200Y21767200D01*
X40974955Y21767200D01*
X40972203Y21795145D01*
X40956410Y21847208D01*
X40930763Y21895191D01*
X40896248Y21937248D01*
X40854191Y21971763D01*
X40806208Y21997410D01*
X40754145Y22013203D01*
X40700000Y22018536D01*
X39800000Y22018536D01*
X39745855Y22013203D01*
X39693792Y21997410D01*
X39645809Y21971763D01*
X39603752Y21937248D01*
X39569237Y21895191D01*
X39543590Y21847208D01*
X39527797Y21795145D01*
X39522464Y21741000D01*
X39522464Y20491000D01*
X39527797Y20436855D01*
X39543590Y20384792D01*
X39569237Y20336809D01*
X39603752Y20294752D01*
X39645809Y20260237D01*
X39693792Y20234590D01*
X39745855Y20218797D01*
X39800000Y20213464D01*
X39866502Y20213464D01*
X39891909Y20165931D01*
X39945469Y20100668D01*
X39961820Y20087249D01*
X39972869Y20076200D01*
X37665000Y20076200D01*
X37665000Y20213464D01*
X37700000Y20213464D01*
X37754145Y20218797D01*
X37806208Y20234590D01*
X37854191Y20260237D01*
X37896248Y20294752D01*
X37930763Y20336809D01*
X37956410Y20384792D01*
X37972203Y20436855D01*
X37977536Y20491000D01*
X37977536Y21741000D01*
X37972203Y21795145D01*
X37956410Y21847208D01*
X37930763Y21895191D01*
X37896248Y21937248D01*
X37854191Y21971763D01*
X37806208Y21997410D01*
X37754145Y22013203D01*
X37700000Y22018536D01*
X36800000Y22018536D01*
X36745855Y22013203D01*
X36693792Y21997410D01*
X36645809Y21971763D01*
X36603752Y21937248D01*
X36569237Y21895191D01*
X36543590Y21847208D01*
X36527797Y21795145D01*
X36522464Y21741000D01*
X36522464Y20491000D01*
X36527797Y20436855D01*
X36543590Y20384792D01*
X36569237Y20336809D01*
X36603752Y20294752D01*
X36645809Y20260237D01*
X36693792Y20234590D01*
X36745855Y20218797D01*
X36800000Y20213464D01*
X36807801Y20213464D01*
X36807801Y20076200D01*
X33055581Y20076200D01*
X33055581Y21621150D01*
X33215800Y21621150D01*
X33219505Y21603669D01*
X33247697Y21492099D01*
X33297113Y21388171D01*
X33365855Y21295882D01*
X33451280Y21218776D01*
X33550107Y21159818D01*
X33658537Y21121273D01*
X33730150Y21106800D01*
X33876200Y21252850D01*
X33876200Y21767200D01*
X34523800Y21767200D01*
X34523800Y21252850D01*
X34669850Y21106800D01*
X34741463Y21121273D01*
X34849893Y21159818D01*
X34948720Y21218776D01*
X35022464Y21285339D01*
X35022464Y20491000D01*
X35027797Y20436855D01*
X35043590Y20384792D01*
X35069237Y20336809D01*
X35103752Y20294752D01*
X35145809Y20260237D01*
X35193792Y20234590D01*
X35245855Y20218797D01*
X35300000Y20213464D01*
X36200000Y20213464D01*
X36254145Y20218797D01*
X36306208Y20234590D01*
X36354191Y20260237D01*
X36396248Y20294752D01*
X36430763Y20336809D01*
X36456410Y20384792D01*
X36472203Y20436855D01*
X36477536Y20491000D01*
X36477536Y21741000D01*
X36472203Y21795145D01*
X36456410Y21847208D01*
X36430763Y21895191D01*
X36396248Y21937248D01*
X36354191Y21971763D01*
X36306208Y21997410D01*
X36254145Y22013203D01*
X36200000Y22018536D01*
X35300000Y22018536D01*
X35245855Y22013203D01*
X35193792Y21997410D01*
X35145809Y21971763D01*
X35103752Y21937248D01*
X35069237Y21895191D01*
X35043590Y21847208D01*
X35027797Y21795145D01*
X35025045Y21767200D01*
X34523800Y21767200D01*
X33876200Y21767200D01*
X33361850Y21767200D01*
X33215800Y21621150D01*
X33055581Y21621150D01*
X33055581Y22660850D01*
X33215800Y22660850D01*
X33361850Y22514800D01*
X33876200Y22514800D01*
X33876200Y23029150D01*
X34523800Y23029150D01*
X34523800Y22514800D01*
X35038150Y22514800D01*
X35184200Y22660850D01*
X35180495Y22678331D01*
X35152303Y22789901D01*
X35102887Y22893829D01*
X35034145Y22986118D01*
X34948720Y23063224D01*
X34849893Y23122182D01*
X34741463Y23160727D01*
X34669850Y23175200D01*
X34523800Y23029150D01*
X33876200Y23029150D01*
X33730150Y23175200D01*
X33658537Y23160727D01*
X33550107Y23122182D01*
X33451280Y23063224D01*
X33365855Y22986118D01*
X33297113Y22893829D01*
X33247697Y22789901D01*
X33219505Y22678331D01*
X33215800Y22660850D01*
X33055581Y22660850D01*
X33055581Y23821150D01*
X33215800Y23821150D01*
X33219505Y23803669D01*
X33247697Y23692099D01*
X33297113Y23588171D01*
X33365855Y23495882D01*
X33451280Y23418776D01*
X33550107Y23359818D01*
X33658537Y23321273D01*
X33730150Y23306800D01*
X33876200Y23452850D01*
X33876200Y23967200D01*
X34523800Y23967200D01*
X34523800Y23452850D01*
X34669850Y23306800D01*
X34698172Y23312524D01*
X35773800Y23312524D01*
X35773800Y23169476D01*
X35801707Y23029175D01*
X35856450Y22897015D01*
X35935923Y22778074D01*
X36037074Y22676923D01*
X36156015Y22597450D01*
X36288175Y22542707D01*
X36428476Y22514800D01*
X36571524Y22514800D01*
X36711825Y22542707D01*
X36843985Y22597450D01*
X36962926Y22676923D01*
X37064077Y22778074D01*
X37143550Y22897015D01*
X37198293Y23029175D01*
X37226200Y23169476D01*
X37226200Y23312524D01*
X38773800Y23312524D01*
X38773800Y23169476D01*
X38801707Y23029175D01*
X38856450Y22897015D01*
X38935923Y22778074D01*
X39037074Y22676923D01*
X39156015Y22597450D01*
X39288175Y22542707D01*
X39428476Y22514800D01*
X39571524Y22514800D01*
X39711825Y22542707D01*
X39843985Y22597450D01*
X39938870Y22660850D01*
X40815800Y22660850D01*
X40961850Y22514800D01*
X41476200Y22514800D01*
X41476200Y23029150D01*
X42123800Y23029150D01*
X42123800Y22514800D01*
X42638150Y22514800D01*
X42784200Y22660850D01*
X42780495Y22678331D01*
X42752303Y22789901D01*
X42702887Y22893829D01*
X42634145Y22986118D01*
X42548720Y23063224D01*
X42449893Y23122182D01*
X42341463Y23160727D01*
X42269850Y23175200D01*
X42123800Y23029150D01*
X41476200Y23029150D01*
X41330150Y23175200D01*
X41258537Y23160727D01*
X41150107Y23122182D01*
X41051280Y23063224D01*
X40965855Y22986118D01*
X40897113Y22893829D01*
X40847697Y22789901D01*
X40819505Y22678331D01*
X40815800Y22660850D01*
X39938870Y22660850D01*
X39962926Y22676923D01*
X40064077Y22778074D01*
X40143550Y22897015D01*
X40198293Y23029175D01*
X40226200Y23169476D01*
X40226200Y23312524D01*
X40198293Y23452825D01*
X40143550Y23584985D01*
X40064077Y23703926D01*
X39962926Y23805077D01*
X39938871Y23821150D01*
X40815800Y23821150D01*
X40819505Y23803669D01*
X40847697Y23692099D01*
X40897113Y23588171D01*
X40965855Y23495882D01*
X41051280Y23418776D01*
X41150107Y23359818D01*
X41258537Y23321273D01*
X41330150Y23306800D01*
X41476200Y23452850D01*
X41476200Y23967200D01*
X42123800Y23967200D01*
X42123800Y23452850D01*
X42269850Y23306800D01*
X42341463Y23321273D01*
X42449893Y23359818D01*
X42548720Y23418776D01*
X42634145Y23495882D01*
X42702887Y23588171D01*
X42752303Y23692099D01*
X42780495Y23803669D01*
X42784200Y23821150D01*
X42638150Y23967200D01*
X42123800Y23967200D01*
X41476200Y23967200D01*
X40961850Y23967200D01*
X40815800Y23821150D01*
X39938871Y23821150D01*
X39843985Y23884550D01*
X39711825Y23939293D01*
X39571524Y23967200D01*
X39428476Y23967200D01*
X39288175Y23939293D01*
X39156015Y23884550D01*
X39037074Y23805077D01*
X38935923Y23703926D01*
X38856450Y23584985D01*
X38801707Y23452825D01*
X38773800Y23312524D01*
X37226200Y23312524D01*
X37198293Y23452825D01*
X37143550Y23584985D01*
X37064077Y23703926D01*
X36962926Y23805077D01*
X36843985Y23884550D01*
X36711825Y23939293D01*
X36571524Y23967200D01*
X36428476Y23967200D01*
X36288175Y23939293D01*
X36156015Y23884550D01*
X36037074Y23805077D01*
X35935923Y23703926D01*
X35856450Y23584985D01*
X35801707Y23452825D01*
X35773800Y23312524D01*
X34698172Y23312524D01*
X34741463Y23321273D01*
X34849893Y23359818D01*
X34948720Y23418776D01*
X35034145Y23495882D01*
X35102887Y23588171D01*
X35152303Y23692099D01*
X35180495Y23803669D01*
X35184200Y23821150D01*
X35038150Y23967200D01*
X34523800Y23967200D01*
X33876200Y23967200D01*
X33361850Y23967200D01*
X33215800Y23821150D01*
X33055581Y23821150D01*
X33055581Y24746400D01*
X33330250Y24746400D01*
X33361850Y24714800D01*
G37*
%TD.AperFunction*%
%TD*%
D31*
%TO.N,GND*%
X5361850Y24714800D02*
X5876200Y24714800D01*
X5876200Y24746400D01*
X6523800Y24746400D01*
X6523800Y24714800D01*
X7038150Y24714800D01*
X7069750Y24746400D01*
X12930250Y24746400D01*
X12961850Y24714800D01*
X13476200Y24714800D01*
X13476200Y24746400D01*
X14123800Y24746400D01*
X14123800Y24714800D01*
X14638150Y24714800D01*
X14669750Y24746400D01*
X14961213Y24746400D01*
X14961213Y22266782D01*
X14461632Y21767200D01*
X14123800Y21767200D01*
X14123800Y21697200D01*
X13476200Y21697200D01*
X13476200Y21767200D01*
X12974955Y21767200D01*
X12972203Y21795145D01*
X12956410Y21847208D01*
X12930763Y21895191D01*
X12896248Y21937248D01*
X12854191Y21971763D01*
X12806208Y21997410D01*
X12754145Y22013203D01*
X12700000Y22018536D01*
X11800000Y22018536D01*
X11745855Y22013203D01*
X11693792Y21997410D01*
X11645809Y21971763D01*
X11603752Y21937248D01*
X11569237Y21895191D01*
X11543590Y21847208D01*
X11527797Y21795145D01*
X11522464Y21741000D01*
X11522464Y20891596D01*
X11118493Y20487625D01*
X11115600Y20488200D01*
X10982400Y20488200D01*
X10851760Y20462214D01*
X10728699Y20411241D01*
X10617948Y20337239D01*
X10523761Y20243052D01*
X10449759Y20132301D01*
X10427557Y20078700D01*
X10274877Y20078700D01*
X9959290Y20394287D01*
X9972203Y20436855D01*
X9977536Y20491000D01*
X9977536Y21741000D01*
X9972203Y21795145D01*
X9956410Y21847208D01*
X9930763Y21895191D01*
X9896248Y21937248D01*
X9854191Y21971763D01*
X9806208Y21997410D01*
X9754145Y22013203D01*
X9700000Y22018536D01*
X8800000Y22018536D01*
X8745855Y22013203D01*
X8693792Y21997410D01*
X8645809Y21971763D01*
X8603752Y21937248D01*
X8569237Y21895191D01*
X8543590Y21847208D01*
X8527797Y21795145D01*
X8522464Y21741000D01*
X8522464Y20740346D01*
X8477536Y20785274D01*
X8477536Y21741000D01*
X8472203Y21795145D01*
X8456410Y21847208D01*
X8430763Y21895191D01*
X8396248Y21937248D01*
X8354191Y21971763D01*
X8306208Y21997410D01*
X8254145Y22013203D01*
X8200000Y22018536D01*
X7300000Y22018536D01*
X7245855Y22013203D01*
X7193792Y21997410D01*
X7145809Y21971763D01*
X7103752Y21937248D01*
X7069237Y21895191D01*
X7043590Y21847208D01*
X7027797Y21795145D01*
X7025045Y21767200D01*
X6523800Y21767200D01*
X6523800Y21252850D01*
X6669850Y21106800D01*
X6741463Y21121273D01*
X6849893Y21159818D01*
X6948720Y21218776D01*
X7022464Y21285339D01*
X7022464Y20491000D01*
X7027797Y20436855D01*
X7043590Y20384792D01*
X7069237Y20336809D01*
X7103752Y20294752D01*
X7145809Y20260237D01*
X7193792Y20234590D01*
X7245855Y20218797D01*
X7300000Y20213464D01*
X7837082Y20213464D01*
X7971846Y20078700D01*
X5113613Y20078700D01*
X5113613Y21621150D01*
X5215800Y21621150D01*
X5219505Y21603669D01*
X5247697Y21492099D01*
X5297113Y21388171D01*
X5365855Y21295882D01*
X5451280Y21218776D01*
X5550107Y21159818D01*
X5658537Y21121273D01*
X5730150Y21106800D01*
X5876200Y21252850D01*
X5876200Y21767200D01*
X5361850Y21767200D01*
X5215800Y21621150D01*
X5113613Y21621150D01*
X5113613Y22660850D01*
X5215800Y22660850D01*
X5361850Y22514800D01*
X5876200Y22514800D01*
X5876200Y23029150D01*
X6523800Y23029150D01*
X6523800Y22514800D01*
X7038150Y22514800D01*
X7184200Y22660850D01*
X7180495Y22678331D01*
X7152303Y22789901D01*
X7102887Y22893829D01*
X7034145Y22986118D01*
X6948720Y23063224D01*
X6849893Y23122182D01*
X6741463Y23160727D01*
X6669850Y23175200D01*
X6523800Y23029150D01*
X5876200Y23029150D01*
X5730150Y23175200D01*
X5658537Y23160727D01*
X5550107Y23122182D01*
X5451280Y23063224D01*
X5365855Y22986118D01*
X5297113Y22893829D01*
X5247697Y22789901D01*
X5219505Y22678331D01*
X5215800Y22660850D01*
X5113613Y22660850D01*
X5113613Y23821150D01*
X5215800Y23821150D01*
X5219505Y23803669D01*
X5247697Y23692099D01*
X5297113Y23588171D01*
X5365855Y23495882D01*
X5451280Y23418776D01*
X5550107Y23359818D01*
X5658537Y23321273D01*
X5730150Y23306800D01*
X5876200Y23452850D01*
X5876200Y23967200D01*
X6523800Y23967200D01*
X6523800Y23452850D01*
X6669850Y23306800D01*
X6698172Y23312524D01*
X7773800Y23312524D01*
X7773800Y23169476D01*
X7801707Y23029175D01*
X7856450Y22897015D01*
X7935923Y22778074D01*
X8037074Y22676923D01*
X8156015Y22597450D01*
X8288175Y22542707D01*
X8428476Y22514800D01*
X8571524Y22514800D01*
X8711825Y22542707D01*
X8843985Y22597450D01*
X8962926Y22676923D01*
X9064077Y22778074D01*
X9143550Y22897015D01*
X9198293Y23029175D01*
X9226200Y23169476D01*
X9226200Y23312524D01*
X10773800Y23312524D01*
X10773800Y23169476D01*
X10801707Y23029175D01*
X10856450Y22897015D01*
X10935923Y22778074D01*
X11037074Y22676923D01*
X11156015Y22597450D01*
X11288175Y22542707D01*
X11428476Y22514800D01*
X11571524Y22514800D01*
X11711825Y22542707D01*
X11843985Y22597450D01*
X11938870Y22660850D01*
X12815800Y22660850D01*
X12961850Y22514800D01*
X13476200Y22514800D01*
X13476200Y23029150D01*
X14123800Y23029150D01*
X14123800Y22514800D01*
X14638150Y22514800D01*
X14784200Y22660850D01*
X14780495Y22678331D01*
X14752303Y22789901D01*
X14702887Y22893829D01*
X14634145Y22986118D01*
X14548720Y23063224D01*
X14449893Y23122182D01*
X14341463Y23160727D01*
X14269850Y23175200D01*
X14123800Y23029150D01*
X13476200Y23029150D01*
X13330150Y23175200D01*
X13258537Y23160727D01*
X13150107Y23122182D01*
X13051280Y23063224D01*
X12965855Y22986118D01*
X12897113Y22893829D01*
X12847697Y22789901D01*
X12819505Y22678331D01*
X12815800Y22660850D01*
X11938870Y22660850D01*
X11962926Y22676923D01*
X12064077Y22778074D01*
X12143550Y22897015D01*
X12198293Y23029175D01*
X12226200Y23169476D01*
X12226200Y23312524D01*
X12198293Y23452825D01*
X12143550Y23584985D01*
X12064077Y23703926D01*
X11962926Y23805077D01*
X11938871Y23821150D01*
X12815800Y23821150D01*
X12819505Y23803669D01*
X12847697Y23692099D01*
X12897113Y23588171D01*
X12965855Y23495882D01*
X13051280Y23418776D01*
X13150107Y23359818D01*
X13258537Y23321273D01*
X13330150Y23306800D01*
X13476200Y23452850D01*
X13476200Y23967200D01*
X14123800Y23967200D01*
X14123800Y23452850D01*
X14269850Y23306800D01*
X14341463Y23321273D01*
X14449893Y23359818D01*
X14548720Y23418776D01*
X14634145Y23495882D01*
X14702887Y23588171D01*
X14752303Y23692099D01*
X14780495Y23803669D01*
X14784200Y23821150D01*
X14638150Y23967200D01*
X14123800Y23967200D01*
X13476200Y23967200D01*
X12961850Y23967200D01*
X12815800Y23821150D01*
X11938871Y23821150D01*
X11843985Y23884550D01*
X11711825Y23939293D01*
X11571524Y23967200D01*
X11428476Y23967200D01*
X11288175Y23939293D01*
X11156015Y23884550D01*
X11037074Y23805077D01*
X10935923Y23703926D01*
X10856450Y23584985D01*
X10801707Y23452825D01*
X10773800Y23312524D01*
X9226200Y23312524D01*
X9198293Y23452825D01*
X9143550Y23584985D01*
X9064077Y23703926D01*
X8962926Y23805077D01*
X8843985Y23884550D01*
X8711825Y23939293D01*
X8571524Y23967200D01*
X8428476Y23967200D01*
X8288175Y23939293D01*
X8156015Y23884550D01*
X8037074Y23805077D01*
X7935923Y23703926D01*
X7856450Y23584985D01*
X7801707Y23452825D01*
X7773800Y23312524D01*
X6698172Y23312524D01*
X6741463Y23321273D01*
X6849893Y23359818D01*
X6948720Y23418776D01*
X7034145Y23495882D01*
X7102887Y23588171D01*
X7152303Y23692099D01*
X7180495Y23803669D01*
X7184200Y23821150D01*
X7038150Y23967200D01*
X6523800Y23967200D01*
X5876200Y23967200D01*
X5361850Y23967200D01*
X5215800Y23821150D01*
X5113613Y23821150D01*
X5113613Y24746400D01*
X5330250Y24746400D01*
X5361850Y24714800D01*
%TA.AperFunction,Conductor*%
D33*
G36*
X5361850Y24714800D02*
G01*
X5876200Y24714800D01*
X5876200Y24746400D01*
X6523800Y24746400D01*
X6523800Y24714800D01*
X7038150Y24714800D01*
X7069750Y24746400D01*
X12930250Y24746400D01*
X12961850Y24714800D01*
X13476200Y24714800D01*
X13476200Y24746400D01*
X14123800Y24746400D01*
X14123800Y24714800D01*
X14638150Y24714800D01*
X14669750Y24746400D01*
X14961213Y24746400D01*
X14961213Y22266782D01*
X14461632Y21767200D01*
X14123800Y21767200D01*
X14123800Y21697200D01*
X13476200Y21697200D01*
X13476200Y21767200D01*
X12974955Y21767200D01*
X12972203Y21795145D01*
X12956410Y21847208D01*
X12930763Y21895191D01*
X12896248Y21937248D01*
X12854191Y21971763D01*
X12806208Y21997410D01*
X12754145Y22013203D01*
X12700000Y22018536D01*
X11800000Y22018536D01*
X11745855Y22013203D01*
X11693792Y21997410D01*
X11645809Y21971763D01*
X11603752Y21937248D01*
X11569237Y21895191D01*
X11543590Y21847208D01*
X11527797Y21795145D01*
X11522464Y21741000D01*
X11522464Y20891596D01*
X11118493Y20487625D01*
X11115600Y20488200D01*
X10982400Y20488200D01*
X10851760Y20462214D01*
X10728699Y20411241D01*
X10617948Y20337239D01*
X10523761Y20243052D01*
X10449759Y20132301D01*
X10427557Y20078700D01*
X10274877Y20078700D01*
X9959290Y20394287D01*
X9972203Y20436855D01*
X9977536Y20491000D01*
X9977536Y21741000D01*
X9972203Y21795145D01*
X9956410Y21847208D01*
X9930763Y21895191D01*
X9896248Y21937248D01*
X9854191Y21971763D01*
X9806208Y21997410D01*
X9754145Y22013203D01*
X9700000Y22018536D01*
X8800000Y22018536D01*
X8745855Y22013203D01*
X8693792Y21997410D01*
X8645809Y21971763D01*
X8603752Y21937248D01*
X8569237Y21895191D01*
X8543590Y21847208D01*
X8527797Y21795145D01*
X8522464Y21741000D01*
X8522464Y20740346D01*
X8477536Y20785274D01*
X8477536Y21741000D01*
X8472203Y21795145D01*
X8456410Y21847208D01*
X8430763Y21895191D01*
X8396248Y21937248D01*
X8354191Y21971763D01*
X8306208Y21997410D01*
X8254145Y22013203D01*
X8200000Y22018536D01*
X7300000Y22018536D01*
X7245855Y22013203D01*
X7193792Y21997410D01*
X7145809Y21971763D01*
X7103752Y21937248D01*
X7069237Y21895191D01*
X7043590Y21847208D01*
X7027797Y21795145D01*
X7025045Y21767200D01*
X6523800Y21767200D01*
X6523800Y21252850D01*
X6669850Y21106800D01*
X6741463Y21121273D01*
X6849893Y21159818D01*
X6948720Y21218776D01*
X7022464Y21285339D01*
X7022464Y20491000D01*
X7027797Y20436855D01*
X7043590Y20384792D01*
X7069237Y20336809D01*
X7103752Y20294752D01*
X7145809Y20260237D01*
X7193792Y20234590D01*
X7245855Y20218797D01*
X7300000Y20213464D01*
X7837082Y20213464D01*
X7971846Y20078700D01*
X5113613Y20078700D01*
X5113613Y21621150D01*
X5215800Y21621150D01*
X5219505Y21603669D01*
X5247697Y21492099D01*
X5297113Y21388171D01*
X5365855Y21295882D01*
X5451280Y21218776D01*
X5550107Y21159818D01*
X5658537Y21121273D01*
X5730150Y21106800D01*
X5876200Y21252850D01*
X5876200Y21767200D01*
X5361850Y21767200D01*
X5215800Y21621150D01*
X5113613Y21621150D01*
X5113613Y22660850D01*
X5215800Y22660850D01*
X5361850Y22514800D01*
X5876200Y22514800D01*
X5876200Y23029150D01*
X6523800Y23029150D01*
X6523800Y22514800D01*
X7038150Y22514800D01*
X7184200Y22660850D01*
X7180495Y22678331D01*
X7152303Y22789901D01*
X7102887Y22893829D01*
X7034145Y22986118D01*
X6948720Y23063224D01*
X6849893Y23122182D01*
X6741463Y23160727D01*
X6669850Y23175200D01*
X6523800Y23029150D01*
X5876200Y23029150D01*
X5730150Y23175200D01*
X5658537Y23160727D01*
X5550107Y23122182D01*
X5451280Y23063224D01*
X5365855Y22986118D01*
X5297113Y22893829D01*
X5247697Y22789901D01*
X5219505Y22678331D01*
X5215800Y22660850D01*
X5113613Y22660850D01*
X5113613Y23821150D01*
X5215800Y23821150D01*
X5219505Y23803669D01*
X5247697Y23692099D01*
X5297113Y23588171D01*
X5365855Y23495882D01*
X5451280Y23418776D01*
X5550107Y23359818D01*
X5658537Y23321273D01*
X5730150Y23306800D01*
X5876200Y23452850D01*
X5876200Y23967200D01*
X6523800Y23967200D01*
X6523800Y23452850D01*
X6669850Y23306800D01*
X6698172Y23312524D01*
X7773800Y23312524D01*
X7773800Y23169476D01*
X7801707Y23029175D01*
X7856450Y22897015D01*
X7935923Y22778074D01*
X8037074Y22676923D01*
X8156015Y22597450D01*
X8288175Y22542707D01*
X8428476Y22514800D01*
X8571524Y22514800D01*
X8711825Y22542707D01*
X8843985Y22597450D01*
X8962926Y22676923D01*
X9064077Y22778074D01*
X9143550Y22897015D01*
X9198293Y23029175D01*
X9226200Y23169476D01*
X9226200Y23312524D01*
X10773800Y23312524D01*
X10773800Y23169476D01*
X10801707Y23029175D01*
X10856450Y22897015D01*
X10935923Y22778074D01*
X11037074Y22676923D01*
X11156015Y22597450D01*
X11288175Y22542707D01*
X11428476Y22514800D01*
X11571524Y22514800D01*
X11711825Y22542707D01*
X11843985Y22597450D01*
X11938870Y22660850D01*
X12815800Y22660850D01*
X12961850Y22514800D01*
X13476200Y22514800D01*
X13476200Y23029150D01*
X14123800Y23029150D01*
X14123800Y22514800D01*
X14638150Y22514800D01*
X14784200Y22660850D01*
X14780495Y22678331D01*
X14752303Y22789901D01*
X14702887Y22893829D01*
X14634145Y22986118D01*
X14548720Y23063224D01*
X14449893Y23122182D01*
X14341463Y23160727D01*
X14269850Y23175200D01*
X14123800Y23029150D01*
X13476200Y23029150D01*
X13330150Y23175200D01*
X13258537Y23160727D01*
X13150107Y23122182D01*
X13051280Y23063224D01*
X12965855Y22986118D01*
X12897113Y22893829D01*
X12847697Y22789901D01*
X12819505Y22678331D01*
X12815800Y22660850D01*
X11938870Y22660850D01*
X11962926Y22676923D01*
X12064077Y22778074D01*
X12143550Y22897015D01*
X12198293Y23029175D01*
X12226200Y23169476D01*
X12226200Y23312524D01*
X12198293Y23452825D01*
X12143550Y23584985D01*
X12064077Y23703926D01*
X11962926Y23805077D01*
X11938871Y23821150D01*
X12815800Y23821150D01*
X12819505Y23803669D01*
X12847697Y23692099D01*
X12897113Y23588171D01*
X12965855Y23495882D01*
X13051280Y23418776D01*
X13150107Y23359818D01*
X13258537Y23321273D01*
X13330150Y23306800D01*
X13476200Y23452850D01*
X13476200Y23967200D01*
X14123800Y23967200D01*
X14123800Y23452850D01*
X14269850Y23306800D01*
X14341463Y23321273D01*
X14449893Y23359818D01*
X14548720Y23418776D01*
X14634145Y23495882D01*
X14702887Y23588171D01*
X14752303Y23692099D01*
X14780495Y23803669D01*
X14784200Y23821150D01*
X14638150Y23967200D01*
X14123800Y23967200D01*
X13476200Y23967200D01*
X12961850Y23967200D01*
X12815800Y23821150D01*
X11938871Y23821150D01*
X11843985Y23884550D01*
X11711825Y23939293D01*
X11571524Y23967200D01*
X11428476Y23967200D01*
X11288175Y23939293D01*
X11156015Y23884550D01*
X11037074Y23805077D01*
X10935923Y23703926D01*
X10856450Y23584985D01*
X10801707Y23452825D01*
X10773800Y23312524D01*
X9226200Y23312524D01*
X9198293Y23452825D01*
X9143550Y23584985D01*
X9064077Y23703926D01*
X8962926Y23805077D01*
X8843985Y23884550D01*
X8711825Y23939293D01*
X8571524Y23967200D01*
X8428476Y23967200D01*
X8288175Y23939293D01*
X8156015Y23884550D01*
X8037074Y23805077D01*
X7935923Y23703926D01*
X7856450Y23584985D01*
X7801707Y23452825D01*
X7773800Y23312524D01*
X6698172Y23312524D01*
X6741463Y23321273D01*
X6849893Y23359818D01*
X6948720Y23418776D01*
X7034145Y23495882D01*
X7102887Y23588171D01*
X7152303Y23692099D01*
X7180495Y23803669D01*
X7184200Y23821150D01*
X7038150Y23967200D01*
X6523800Y23967200D01*
X5876200Y23967200D01*
X5361850Y23967200D01*
X5215800Y23821150D01*
X5113613Y23821150D01*
X5113613Y24746400D01*
X5330250Y24746400D01*
X5361850Y24714800D01*
G37*
%TD.AperFunction*%
D31*
X14052850Y20743800D02*
X14567200Y20743800D01*
X14567200Y20763800D01*
X14961213Y20763800D01*
X14961213Y20078700D01*
X11921832Y20078700D01*
X12056596Y20213464D01*
X12700000Y20213464D01*
X12754145Y20218797D01*
X12806208Y20234590D01*
X12854191Y20260237D01*
X12896248Y20294752D01*
X12930763Y20336809D01*
X12956410Y20384792D01*
X12972203Y20436855D01*
X12977536Y20491000D01*
X12977536Y20780400D01*
X14016250Y20780400D01*
X14052850Y20743800D01*
%TA.AperFunction,Conductor*%
D33*
G36*
X14052850Y20743800D02*
G01*
X14567200Y20743800D01*
X14567200Y20763800D01*
X14961213Y20763800D01*
X14961213Y20078700D01*
X11921832Y20078700D01*
X12056596Y20213464D01*
X12700000Y20213464D01*
X12754145Y20218797D01*
X12806208Y20234590D01*
X12854191Y20260237D01*
X12896248Y20294752D01*
X12930763Y20336809D01*
X12956410Y20384792D01*
X12972203Y20436855D01*
X12977536Y20491000D01*
X12977536Y20780400D01*
X14016250Y20780400D01*
X14052850Y20743800D01*
G37*
%TD.AperFunction*%
%TD*%
D31*
%TO.N,GND*%
X6923800Y17038677D02*
X6915065Y16950000D01*
X6917401Y16926285D01*
X6917400Y14874900D01*
X6374298Y14331797D01*
X5363598Y14331797D01*
X5385200Y14440393D01*
X5385200Y14559607D01*
X5363281Y14669800D01*
X5487302Y14669800D01*
X5487302Y14752348D01*
X5569850Y14669800D01*
X6009500Y14668202D01*
X6074231Y14674577D01*
X6136474Y14693459D01*
X6193837Y14724120D01*
X6244117Y14765383D01*
X6285380Y14815663D01*
X6316041Y14873026D01*
X6334923Y14935269D01*
X6341298Y15000000D01*
X6339700Y15489650D01*
X6257150Y15572200D01*
X5487300Y15572200D01*
X5487300Y15552200D01*
X5131700Y15552200D01*
X5131700Y15572200D01*
X4361850Y15572200D01*
X4279300Y15489650D01*
X4277702Y15000000D01*
X4284077Y14935269D01*
X4302466Y14874650D01*
X4243679Y14786670D01*
X4198058Y14676530D01*
X4174800Y14559607D01*
X4174800Y14440393D01*
X4198058Y14323470D01*
X4243679Y14213330D01*
X4296981Y14133560D01*
X4293460Y14126973D01*
X4274578Y14064730D01*
X4268203Y14000000D01*
X4268203Y13600000D01*
X4274578Y13535270D01*
X4292861Y13475000D01*
X4274578Y13414730D01*
X4268203Y13350000D01*
X4268203Y12950000D01*
X4274578Y12885270D01*
X4292861Y12825000D01*
X4274578Y12764730D01*
X4268203Y12700000D01*
X4268203Y12300000D01*
X4274578Y12235270D01*
X4292861Y12175000D01*
X4274578Y12114730D01*
X4268203Y12050000D01*
X4268203Y11650000D01*
X4274578Y11585270D01*
X4292907Y11524850D01*
X4274772Y11465700D01*
X4269800Y11406350D01*
X4352350Y11323800D01*
X4543170Y11323800D01*
X4600000Y11318203D01*
X6400000Y11318203D01*
X6456830Y11323800D01*
X6647650Y11323800D01*
X6730200Y11406350D01*
X6725228Y11465700D01*
X6707093Y11524850D01*
X6725422Y11585270D01*
X6731797Y11650000D01*
X6731797Y12050000D01*
X6727503Y12093600D01*
X6923800Y12093600D01*
X6923800Y7076200D01*
X576200Y7076200D01*
X576200Y7750000D01*
X1548202Y7750000D01*
X1554577Y7685269D01*
X1573459Y7623026D01*
X1604120Y7565663D01*
X1645383Y7515383D01*
X1695663Y7474120D01*
X1753026Y7443459D01*
X1815269Y7424577D01*
X1880000Y7418202D01*
X2369650Y7419800D01*
X2452200Y7502350D01*
X2452200Y8247200D01*
X2807800Y8247200D01*
X2807800Y7502350D01*
X2890350Y7419800D01*
X3380000Y7418202D01*
X3444731Y7424577D01*
X3506974Y7443459D01*
X3564337Y7474120D01*
X3614617Y7515383D01*
X3655880Y7565663D01*
X3686541Y7623026D01*
X3705423Y7685269D01*
X3711798Y7750000D01*
X3710200Y8164650D01*
X3627650Y8247200D01*
X2807800Y8247200D01*
X2452200Y8247200D01*
X1632350Y8247200D01*
X1549800Y8164650D01*
X1548202Y7750000D01*
X576200Y7750000D01*
X576200Y8500000D01*
X4277702Y8500000D01*
X4284077Y8435269D01*
X4302959Y8373026D01*
X4333620Y8315663D01*
X4374883Y8265383D01*
X4425163Y8224120D01*
X4482526Y8193459D01*
X4544769Y8174577D01*
X4609500Y8168202D01*
X5049150Y8169800D01*
X5131700Y8252350D01*
X5131700Y9072200D01*
X5487300Y9072200D01*
X5487300Y8252350D01*
X5569850Y8169800D01*
X6009500Y8168202D01*
X6074231Y8174577D01*
X6136474Y8193459D01*
X6193837Y8224120D01*
X6244117Y8265383D01*
X6285380Y8315663D01*
X6316041Y8373026D01*
X6334923Y8435269D01*
X6341298Y8500000D01*
X6339700Y8989650D01*
X6257150Y9072200D01*
X5487300Y9072200D01*
X5131700Y9072200D01*
X4361850Y9072200D01*
X4279300Y8989650D01*
X4277702Y8500000D01*
X576200Y8500000D01*
X576200Y9100000D01*
X1548202Y9100000D01*
X1549800Y8685350D01*
X1632350Y8602800D01*
X2452200Y8602800D01*
X2452200Y9347650D01*
X2807800Y9347650D01*
X2807800Y8602800D01*
X3627650Y8602800D01*
X3710200Y8685350D01*
X3711798Y9100000D01*
X3705423Y9164731D01*
X3686541Y9226974D01*
X3655880Y9284337D01*
X3614617Y9334617D01*
X3564337Y9375880D01*
X3506974Y9406541D01*
X3444731Y9425423D01*
X3380000Y9431798D01*
X2890350Y9430200D01*
X2807800Y9347650D01*
X2452200Y9347650D01*
X2369650Y9430200D01*
X1880000Y9431798D01*
X1815269Y9425423D01*
X1753026Y9406541D01*
X1695663Y9375880D01*
X1645383Y9334617D01*
X1604120Y9284337D01*
X1573459Y9226974D01*
X1554577Y9164731D01*
X1548202Y9100000D01*
X576200Y9100000D01*
X576200Y10500000D01*
X577702Y10500000D01*
X584077Y10435269D01*
X602959Y10373026D01*
X633620Y10315663D01*
X674883Y10265383D01*
X725163Y10224120D01*
X782526Y10193459D01*
X844769Y10174577D01*
X909500Y10168202D01*
X1199150Y10169800D01*
X1281700Y10252350D01*
X1281700Y10822200D01*
X1637300Y10822200D01*
X1637300Y10252350D01*
X1719850Y10169800D01*
X2009500Y10168202D01*
X2074231Y10174577D01*
X2136474Y10193459D01*
X2193837Y10224120D01*
X2244117Y10265383D01*
X2285380Y10315663D01*
X2316041Y10373026D01*
X2334923Y10435269D01*
X2341298Y10500000D01*
X2340901Y10559607D01*
X4174800Y10559607D01*
X4174800Y10440393D01*
X4198058Y10323470D01*
X4243679Y10213330D01*
X4302466Y10125350D01*
X4284077Y10064731D01*
X4277702Y10000000D01*
X4279300Y9510350D01*
X4361850Y9427800D01*
X5131700Y9427800D01*
X5131700Y9447800D01*
X5487300Y9447800D01*
X5487300Y9427800D01*
X6257150Y9427800D01*
X6339700Y9510350D01*
X6341298Y10000000D01*
X6334923Y10064731D01*
X6316041Y10126974D01*
X6285380Y10184337D01*
X6244117Y10234617D01*
X6193837Y10275880D01*
X6136474Y10306541D01*
X6074231Y10325423D01*
X6009500Y10331798D01*
X5569850Y10330200D01*
X5487302Y10247652D01*
X5487302Y10330200D01*
X5363281Y10330200D01*
X5385200Y10440393D01*
X5385200Y10559607D01*
X5361942Y10676530D01*
X5322200Y10772477D01*
X5322200Y11076200D01*
X5677800Y11076200D01*
X5677800Y10752350D01*
X5760350Y10669800D01*
X6399011Y10668203D01*
X6463760Y10674386D01*
X6526059Y10693081D01*
X6583514Y10723572D01*
X6633916Y10764685D01*
X6675329Y10814841D01*
X6706162Y10872113D01*
X6725228Y10934300D01*
X6730200Y10993650D01*
X6647650Y11076200D01*
X5677800Y11076200D01*
X5322200Y11076200D01*
X4970393Y11076200D01*
X4956530Y11081942D01*
X4839607Y11105200D01*
X4720393Y11105200D01*
X4603470Y11081942D01*
X4589607Y11076200D01*
X4352350Y11076200D01*
X4269800Y10993650D01*
X4274772Y10934300D01*
X4293838Y10872113D01*
X4296931Y10866367D01*
X4243679Y10786670D01*
X4198058Y10676530D01*
X4174800Y10559607D01*
X2340901Y10559607D01*
X2339700Y10739650D01*
X2257150Y10822200D01*
X1637300Y10822200D01*
X1281700Y10822200D01*
X661850Y10822200D01*
X579300Y10739650D01*
X577702Y10500000D01*
X576200Y10500000D01*
X576200Y11500000D01*
X577702Y11500000D01*
X579300Y11260350D01*
X661850Y11177800D01*
X1281700Y11177800D01*
X1281700Y11747650D01*
X1637300Y11747650D01*
X1637300Y11177800D01*
X2257150Y11177800D01*
X2339700Y11260350D01*
X2341298Y11500000D01*
X2334923Y11564731D01*
X2316041Y11626974D01*
X2285380Y11684337D01*
X2244117Y11734617D01*
X2193837Y11775880D01*
X2136474Y11806541D01*
X2074231Y11825423D01*
X2009500Y11831798D01*
X1719850Y11830200D01*
X1637300Y11747650D01*
X1281700Y11747650D01*
X1199150Y11830200D01*
X909500Y11831798D01*
X844769Y11825423D01*
X782526Y11806541D01*
X725163Y11775880D01*
X674883Y11734617D01*
X633620Y11684337D01*
X602959Y11626974D01*
X584077Y11564731D01*
X577702Y11500000D01*
X576200Y11500000D01*
X576200Y13500000D01*
X577702Y13500000D01*
X584077Y13435269D01*
X602959Y13373026D01*
X633620Y13315663D01*
X674883Y13265383D01*
X725163Y13224120D01*
X782526Y13193459D01*
X844769Y13174577D01*
X909500Y13168202D01*
X1199150Y13169800D01*
X1281700Y13252350D01*
X1281700Y13822200D01*
X1637300Y13822200D01*
X1637300Y13252350D01*
X1719850Y13169800D01*
X2009500Y13168202D01*
X2074231Y13174577D01*
X2136474Y13193459D01*
X2193837Y13224120D01*
X2244117Y13265383D01*
X2285380Y13315663D01*
X2316041Y13373026D01*
X2334923Y13435269D01*
X2341298Y13500000D01*
X2339700Y13739650D01*
X2257150Y13822200D01*
X1637300Y13822200D01*
X1281700Y13822200D01*
X661850Y13822200D01*
X579300Y13739650D01*
X577702Y13500000D01*
X576200Y13500000D01*
X576200Y14500000D01*
X577702Y14500000D01*
X579300Y14260350D01*
X661850Y14177800D01*
X1281700Y14177800D01*
X1281700Y14747650D01*
X1637300Y14747650D01*
X1637300Y14177800D01*
X2257150Y14177800D01*
X2339700Y14260350D01*
X2341298Y14500000D01*
X2334923Y14564731D01*
X2316041Y14626974D01*
X2285380Y14684337D01*
X2244117Y14734617D01*
X2193837Y14775880D01*
X2136474Y14806541D01*
X2074231Y14825423D01*
X2009500Y14831798D01*
X1719850Y14830200D01*
X1637300Y14747650D01*
X1281700Y14747650D01*
X1199150Y14830200D01*
X909500Y14831798D01*
X844769Y14825423D01*
X782526Y14806541D01*
X725163Y14775880D01*
X674883Y14734617D01*
X633620Y14684337D01*
X602959Y14626974D01*
X584077Y14564731D01*
X577702Y14500000D01*
X576200Y14500000D01*
X576200Y15900000D01*
X1548202Y15900000D01*
X1554577Y15835269D01*
X1573459Y15773026D01*
X1604120Y15715663D01*
X1645383Y15665383D01*
X1695663Y15624120D01*
X1753026Y15593459D01*
X1815269Y15574577D01*
X1880000Y15568202D01*
X2369650Y15569800D01*
X2452200Y15652350D01*
X2452200Y16397200D01*
X2807800Y16397200D01*
X2807800Y15652350D01*
X2890350Y15569800D01*
X3380000Y15568202D01*
X3444731Y15574577D01*
X3506974Y15593459D01*
X3564337Y15624120D01*
X3614617Y15665383D01*
X3655880Y15715663D01*
X3686541Y15773026D01*
X3705423Y15835269D01*
X3711798Y15900000D01*
X3710200Y16314650D01*
X3627650Y16397200D01*
X2807800Y16397200D01*
X2452200Y16397200D01*
X1632350Y16397200D01*
X1549800Y16314650D01*
X1548202Y15900000D01*
X576200Y15900000D01*
X576200Y16500000D01*
X4277702Y16500000D01*
X4279300Y16010350D01*
X4361850Y15927800D01*
X5131700Y15927800D01*
X5131700Y16747650D01*
X5487300Y16747650D01*
X5487300Y15927800D01*
X6257150Y15927800D01*
X6339700Y16010350D01*
X6341298Y16500000D01*
X6334923Y16564731D01*
X6316041Y16626974D01*
X6285380Y16684337D01*
X6244117Y16734617D01*
X6193837Y16775880D01*
X6136474Y16806541D01*
X6074231Y16825423D01*
X6009500Y16831798D01*
X5569850Y16830200D01*
X5487300Y16747650D01*
X5131700Y16747650D01*
X5049150Y16830200D01*
X4609500Y16831798D01*
X4544769Y16825423D01*
X4482526Y16806541D01*
X4425163Y16775880D01*
X4374883Y16734617D01*
X4333620Y16684337D01*
X4302959Y16626974D01*
X4284077Y16564731D01*
X4277702Y16500000D01*
X576200Y16500000D01*
X576200Y17250000D01*
X1548202Y17250000D01*
X1549800Y16835350D01*
X1632350Y16752800D01*
X2452200Y16752800D01*
X2452200Y17497650D01*
X2807800Y17497650D01*
X2807800Y16752800D01*
X3627650Y16752800D01*
X3710200Y16835350D01*
X3711798Y17250000D01*
X3705423Y17314731D01*
X3686541Y17376974D01*
X3655880Y17434337D01*
X3614617Y17484617D01*
X3564337Y17525880D01*
X3506974Y17556541D01*
X3444731Y17575423D01*
X3380000Y17581798D01*
X2890350Y17580200D01*
X2807800Y17497650D01*
X2452200Y17497650D01*
X2369650Y17580200D01*
X1880000Y17581798D01*
X1815269Y17575423D01*
X1753026Y17556541D01*
X1695663Y17525880D01*
X1645383Y17484617D01*
X1604120Y17434337D01*
X1573459Y17376974D01*
X1554577Y17314731D01*
X1548202Y17250000D01*
X576200Y17250000D01*
X576200Y17923800D01*
X6923800Y17923800D01*
X6923800Y17038677D01*
%TA.AperFunction,Conductor*%
D33*
G36*
X6923800Y17038677D02*
G01*
X6915065Y16950000D01*
X6917401Y16926285D01*
X6917400Y14874900D01*
X6374298Y14331797D01*
X5363598Y14331797D01*
X5385200Y14440393D01*
X5385200Y14559607D01*
X5363281Y14669800D01*
X5487302Y14669800D01*
X5487302Y14752348D01*
X5569850Y14669800D01*
X6009500Y14668202D01*
X6074231Y14674577D01*
X6136474Y14693459D01*
X6193837Y14724120D01*
X6244117Y14765383D01*
X6285380Y14815663D01*
X6316041Y14873026D01*
X6334923Y14935269D01*
X6341298Y15000000D01*
X6339700Y15489650D01*
X6257150Y15572200D01*
X5487300Y15572200D01*
X5487300Y15552200D01*
X5131700Y15552200D01*
X5131700Y15572200D01*
X4361850Y15572200D01*
X4279300Y15489650D01*
X4277702Y15000000D01*
X4284077Y14935269D01*
X4302466Y14874650D01*
X4243679Y14786670D01*
X4198058Y14676530D01*
X4174800Y14559607D01*
X4174800Y14440393D01*
X4198058Y14323470D01*
X4243679Y14213330D01*
X4296981Y14133560D01*
X4293460Y14126973D01*
X4274578Y14064730D01*
X4268203Y14000000D01*
X4268203Y13600000D01*
X4274578Y13535270D01*
X4292861Y13475000D01*
X4274578Y13414730D01*
X4268203Y13350000D01*
X4268203Y12950000D01*
X4274578Y12885270D01*
X4292861Y12825000D01*
X4274578Y12764730D01*
X4268203Y12700000D01*
X4268203Y12300000D01*
X4274578Y12235270D01*
X4292861Y12175000D01*
X4274578Y12114730D01*
X4268203Y12050000D01*
X4268203Y11650000D01*
X4274578Y11585270D01*
X4292907Y11524850D01*
X4274772Y11465700D01*
X4269800Y11406350D01*
X4352350Y11323800D01*
X4543170Y11323800D01*
X4600000Y11318203D01*
X6400000Y11318203D01*
X6456830Y11323800D01*
X6647650Y11323800D01*
X6730200Y11406350D01*
X6725228Y11465700D01*
X6707093Y11524850D01*
X6725422Y11585270D01*
X6731797Y11650000D01*
X6731797Y12050000D01*
X6727503Y12093600D01*
X6923800Y12093600D01*
X6923800Y7076200D01*
X576200Y7076200D01*
X576200Y7750000D01*
X1548202Y7750000D01*
X1554577Y7685269D01*
X1573459Y7623026D01*
X1604120Y7565663D01*
X1645383Y7515383D01*
X1695663Y7474120D01*
X1753026Y7443459D01*
X1815269Y7424577D01*
X1880000Y7418202D01*
X2369650Y7419800D01*
X2452200Y7502350D01*
X2452200Y8247200D01*
X2807800Y8247200D01*
X2807800Y7502350D01*
X2890350Y7419800D01*
X3380000Y7418202D01*
X3444731Y7424577D01*
X3506974Y7443459D01*
X3564337Y7474120D01*
X3614617Y7515383D01*
X3655880Y7565663D01*
X3686541Y7623026D01*
X3705423Y7685269D01*
X3711798Y7750000D01*
X3710200Y8164650D01*
X3627650Y8247200D01*
X2807800Y8247200D01*
X2452200Y8247200D01*
X1632350Y8247200D01*
X1549800Y8164650D01*
X1548202Y7750000D01*
X576200Y7750000D01*
X576200Y8500000D01*
X4277702Y8500000D01*
X4284077Y8435269D01*
X4302959Y8373026D01*
X4333620Y8315663D01*
X4374883Y8265383D01*
X4425163Y8224120D01*
X4482526Y8193459D01*
X4544769Y8174577D01*
X4609500Y8168202D01*
X5049150Y8169800D01*
X5131700Y8252350D01*
X5131700Y9072200D01*
X5487300Y9072200D01*
X5487300Y8252350D01*
X5569850Y8169800D01*
X6009500Y8168202D01*
X6074231Y8174577D01*
X6136474Y8193459D01*
X6193837Y8224120D01*
X6244117Y8265383D01*
X6285380Y8315663D01*
X6316041Y8373026D01*
X6334923Y8435269D01*
X6341298Y8500000D01*
X6339700Y8989650D01*
X6257150Y9072200D01*
X5487300Y9072200D01*
X5131700Y9072200D01*
X4361850Y9072200D01*
X4279300Y8989650D01*
X4277702Y8500000D01*
X576200Y8500000D01*
X576200Y9100000D01*
X1548202Y9100000D01*
X1549800Y8685350D01*
X1632350Y8602800D01*
X2452200Y8602800D01*
X2452200Y9347650D01*
X2807800Y9347650D01*
X2807800Y8602800D01*
X3627650Y8602800D01*
X3710200Y8685350D01*
X3711798Y9100000D01*
X3705423Y9164731D01*
X3686541Y9226974D01*
X3655880Y9284337D01*
X3614617Y9334617D01*
X3564337Y9375880D01*
X3506974Y9406541D01*
X3444731Y9425423D01*
X3380000Y9431798D01*
X2890350Y9430200D01*
X2807800Y9347650D01*
X2452200Y9347650D01*
X2369650Y9430200D01*
X1880000Y9431798D01*
X1815269Y9425423D01*
X1753026Y9406541D01*
X1695663Y9375880D01*
X1645383Y9334617D01*
X1604120Y9284337D01*
X1573459Y9226974D01*
X1554577Y9164731D01*
X1548202Y9100000D01*
X576200Y9100000D01*
X576200Y10500000D01*
X577702Y10500000D01*
X584077Y10435269D01*
X602959Y10373026D01*
X633620Y10315663D01*
X674883Y10265383D01*
X725163Y10224120D01*
X782526Y10193459D01*
X844769Y10174577D01*
X909500Y10168202D01*
X1199150Y10169800D01*
X1281700Y10252350D01*
X1281700Y10822200D01*
X1637300Y10822200D01*
X1637300Y10252350D01*
X1719850Y10169800D01*
X2009500Y10168202D01*
X2074231Y10174577D01*
X2136474Y10193459D01*
X2193837Y10224120D01*
X2244117Y10265383D01*
X2285380Y10315663D01*
X2316041Y10373026D01*
X2334923Y10435269D01*
X2341298Y10500000D01*
X2340901Y10559607D01*
X4174800Y10559607D01*
X4174800Y10440393D01*
X4198058Y10323470D01*
X4243679Y10213330D01*
X4302466Y10125350D01*
X4284077Y10064731D01*
X4277702Y10000000D01*
X4279300Y9510350D01*
X4361850Y9427800D01*
X5131700Y9427800D01*
X5131700Y9447800D01*
X5487300Y9447800D01*
X5487300Y9427800D01*
X6257150Y9427800D01*
X6339700Y9510350D01*
X6341298Y10000000D01*
X6334923Y10064731D01*
X6316041Y10126974D01*
X6285380Y10184337D01*
X6244117Y10234617D01*
X6193837Y10275880D01*
X6136474Y10306541D01*
X6074231Y10325423D01*
X6009500Y10331798D01*
X5569850Y10330200D01*
X5487302Y10247652D01*
X5487302Y10330200D01*
X5363281Y10330200D01*
X5385200Y10440393D01*
X5385200Y10559607D01*
X5361942Y10676530D01*
X5322200Y10772477D01*
X5322200Y11076200D01*
X5677800Y11076200D01*
X5677800Y10752350D01*
X5760350Y10669800D01*
X6399011Y10668203D01*
X6463760Y10674386D01*
X6526059Y10693081D01*
X6583514Y10723572D01*
X6633916Y10764685D01*
X6675329Y10814841D01*
X6706162Y10872113D01*
X6725228Y10934300D01*
X6730200Y10993650D01*
X6647650Y11076200D01*
X5677800Y11076200D01*
X5322200Y11076200D01*
X4970393Y11076200D01*
X4956530Y11081942D01*
X4839607Y11105200D01*
X4720393Y11105200D01*
X4603470Y11081942D01*
X4589607Y11076200D01*
X4352350Y11076200D01*
X4269800Y10993650D01*
X4274772Y10934300D01*
X4293838Y10872113D01*
X4296931Y10866367D01*
X4243679Y10786670D01*
X4198058Y10676530D01*
X4174800Y10559607D01*
X2340901Y10559607D01*
X2339700Y10739650D01*
X2257150Y10822200D01*
X1637300Y10822200D01*
X1281700Y10822200D01*
X661850Y10822200D01*
X579300Y10739650D01*
X577702Y10500000D01*
X576200Y10500000D01*
X576200Y11500000D01*
X577702Y11500000D01*
X579300Y11260350D01*
X661850Y11177800D01*
X1281700Y11177800D01*
X1281700Y11747650D01*
X1637300Y11747650D01*
X1637300Y11177800D01*
X2257150Y11177800D01*
X2339700Y11260350D01*
X2341298Y11500000D01*
X2334923Y11564731D01*
X2316041Y11626974D01*
X2285380Y11684337D01*
X2244117Y11734617D01*
X2193837Y11775880D01*
X2136474Y11806541D01*
X2074231Y11825423D01*
X2009500Y11831798D01*
X1719850Y11830200D01*
X1637300Y11747650D01*
X1281700Y11747650D01*
X1199150Y11830200D01*
X909500Y11831798D01*
X844769Y11825423D01*
X782526Y11806541D01*
X725163Y11775880D01*
X674883Y11734617D01*
X633620Y11684337D01*
X602959Y11626974D01*
X584077Y11564731D01*
X577702Y11500000D01*
X576200Y11500000D01*
X576200Y13500000D01*
X577702Y13500000D01*
X584077Y13435269D01*
X602959Y13373026D01*
X633620Y13315663D01*
X674883Y13265383D01*
X725163Y13224120D01*
X782526Y13193459D01*
X844769Y13174577D01*
X909500Y13168202D01*
X1199150Y13169800D01*
X1281700Y13252350D01*
X1281700Y13822200D01*
X1637300Y13822200D01*
X1637300Y13252350D01*
X1719850Y13169800D01*
X2009500Y13168202D01*
X2074231Y13174577D01*
X2136474Y13193459D01*
X2193837Y13224120D01*
X2244117Y13265383D01*
X2285380Y13315663D01*
X2316041Y13373026D01*
X2334923Y13435269D01*
X2341298Y13500000D01*
X2339700Y13739650D01*
X2257150Y13822200D01*
X1637300Y13822200D01*
X1281700Y13822200D01*
X661850Y13822200D01*
X579300Y13739650D01*
X577702Y13500000D01*
X576200Y13500000D01*
X576200Y14500000D01*
X577702Y14500000D01*
X579300Y14260350D01*
X661850Y14177800D01*
X1281700Y14177800D01*
X1281700Y14747650D01*
X1637300Y14747650D01*
X1637300Y14177800D01*
X2257150Y14177800D01*
X2339700Y14260350D01*
X2341298Y14500000D01*
X2334923Y14564731D01*
X2316041Y14626974D01*
X2285380Y14684337D01*
X2244117Y14734617D01*
X2193837Y14775880D01*
X2136474Y14806541D01*
X2074231Y14825423D01*
X2009500Y14831798D01*
X1719850Y14830200D01*
X1637300Y14747650D01*
X1281700Y14747650D01*
X1199150Y14830200D01*
X909500Y14831798D01*
X844769Y14825423D01*
X782526Y14806541D01*
X725163Y14775880D01*
X674883Y14734617D01*
X633620Y14684337D01*
X602959Y14626974D01*
X584077Y14564731D01*
X577702Y14500000D01*
X576200Y14500000D01*
X576200Y15900000D01*
X1548202Y15900000D01*
X1554577Y15835269D01*
X1573459Y15773026D01*
X1604120Y15715663D01*
X1645383Y15665383D01*
X1695663Y15624120D01*
X1753026Y15593459D01*
X1815269Y15574577D01*
X1880000Y15568202D01*
X2369650Y15569800D01*
X2452200Y15652350D01*
X2452200Y16397200D01*
X2807800Y16397200D01*
X2807800Y15652350D01*
X2890350Y15569800D01*
X3380000Y15568202D01*
X3444731Y15574577D01*
X3506974Y15593459D01*
X3564337Y15624120D01*
X3614617Y15665383D01*
X3655880Y15715663D01*
X3686541Y15773026D01*
X3705423Y15835269D01*
X3711798Y15900000D01*
X3710200Y16314650D01*
X3627650Y16397200D01*
X2807800Y16397200D01*
X2452200Y16397200D01*
X1632350Y16397200D01*
X1549800Y16314650D01*
X1548202Y15900000D01*
X576200Y15900000D01*
X576200Y16500000D01*
X4277702Y16500000D01*
X4279300Y16010350D01*
X4361850Y15927800D01*
X5131700Y15927800D01*
X5131700Y16747650D01*
X5487300Y16747650D01*
X5487300Y15927800D01*
X6257150Y15927800D01*
X6339700Y16010350D01*
X6341298Y16500000D01*
X6334923Y16564731D01*
X6316041Y16626974D01*
X6285380Y16684337D01*
X6244117Y16734617D01*
X6193837Y16775880D01*
X6136474Y16806541D01*
X6074231Y16825423D01*
X6009500Y16831798D01*
X5569850Y16830200D01*
X5487300Y16747650D01*
X5131700Y16747650D01*
X5049150Y16830200D01*
X4609500Y16831798D01*
X4544769Y16825423D01*
X4482526Y16806541D01*
X4425163Y16775880D01*
X4374883Y16734617D01*
X4333620Y16684337D01*
X4302959Y16626974D01*
X4284077Y16564731D01*
X4277702Y16500000D01*
X576200Y16500000D01*
X576200Y17250000D01*
X1548202Y17250000D01*
X1549800Y16835350D01*
X1632350Y16752800D01*
X2452200Y16752800D01*
X2452200Y17497650D01*
X2807800Y17497650D01*
X2807800Y16752800D01*
X3627650Y16752800D01*
X3710200Y16835350D01*
X3711798Y17250000D01*
X3705423Y17314731D01*
X3686541Y17376974D01*
X3655880Y17434337D01*
X3614617Y17484617D01*
X3564337Y17525880D01*
X3506974Y17556541D01*
X3444731Y17575423D01*
X3380000Y17581798D01*
X2890350Y17580200D01*
X2807800Y17497650D01*
X2452200Y17497650D01*
X2369650Y17580200D01*
X1880000Y17581798D01*
X1815269Y17575423D01*
X1753026Y17556541D01*
X1695663Y17525880D01*
X1645383Y17484617D01*
X1604120Y17434337D01*
X1573459Y17376974D01*
X1554577Y17314731D01*
X1548202Y17250000D01*
X576200Y17250000D01*
X576200Y17923800D01*
X6923800Y17923800D01*
X6923800Y17038677D01*
G37*
%TD.AperFunction*%
%TD*%
M02*
