M48
; DRILL file {KiCad (5.1.10-1-10_14)} date Saturday, September 25, 2021 at 04:40:25 PM
; FORMAT={-:-/ absolute / metric / decimal}
; #@! TF.CreationDate,2021-09-25T16:40:25-04:00
; #@! TF.GenerationSoftware,Kicad,Pcbnew,(5.1.10-1-10_14)
; #@! TF.FileFunction,Plated,1,2,PTH
FMAT,2
METRIC
T1C0.400
T2C0.650
T3C1.000
%
G90
G05
T1
X1.0Y17.5
X1.0Y16.5
X1.0Y15.5
X1.0Y12.5
X1.0Y9.5
X1.0Y8.5
X1.0Y7.5
X4.5Y17.5
X4.5Y7.5
X5.5Y17.5
X5.5Y7.5
X6.5Y17.5
X6.5Y7.5
X8.763Y1.048
X8.826Y2.382
X9.017Y18.923
X10.058Y23.165
X11.049Y19.812
X11.675Y13.25
X15.037Y8.23
X15.494Y11.024
X15.684Y21.422
X16.256Y8.214
X16.383Y10.347
X17.438Y8.128
X19.431Y19.685
X19.456Y3.708
X19.574Y11.243
X20.819Y20.051
X20.98Y12.04
X21.399Y8.445
X22.225Y13.208
X22.23Y19.498
X22.962Y12.04
X22.987Y10.922
X23.978Y1.88
X25.273Y7.429
X25.866Y8.489
X27.94Y16.764
X29.567Y9.738
X29.591Y11.874
X33.718Y15.43
X33.91Y11.817
X34.389Y10.757
X37.338Y9.721
X38.0Y23.241
T2
X18.923Y22.225
X18.923Y20.955
X20.193Y22.225
X20.193Y20.955
X21.463Y22.225
X21.463Y20.955
X22.733Y22.225
X22.733Y20.955
X24.003Y22.225
X24.003Y20.955
T3
X28.5Y2.25
X31.04Y2.25
X33.58Y2.25
X43.21Y15.08
X43.21Y12.54
X43.21Y10.0
X45.75Y15.08
X45.75Y12.54
X45.75Y10.0
T0
M30
