M48
; DRILL file {KiCad (5.1.10-1-10_14)} date Saturday, September 18, 2021 at 08:20:18 PM
; FORMAT={-:-/ absolute / metric / decimal}
; #@! TF.CreationDate,2021-09-18T20:20:18-04:00
; #@! TF.GenerationSoftware,Kicad,Pcbnew,(5.1.10-1-10_14)
; #@! TF.FileFunction,Plated,1,2,PTH
FMAT,2
METRIC
T1C0.400
T2C0.650
T3C1.000
%
G90
G05
T1
X1.0Y17.5
X1.0Y16.5
X1.0Y15.5
X1.0Y12.5
X1.0Y9.5
X1.0Y8.5
X1.0Y7.5
X4.5Y17.5
X4.5Y7.5
X5.5Y17.5
X5.5Y7.5
X6.5Y17.5
X6.5Y7.5
X7.493Y6.413
X9.08Y5.715
X10.16Y9.017
X10.858Y6.731
X10.858Y5.651
X10.986Y13.589
X12.446Y21.844
X15.684Y1.524
X15.691Y19.742
X16.256Y8.214
X16.383Y10.351
X17.438Y8.128
X19.431Y21.844
X19.812Y10.986
X21.399Y8.445
X21.971Y23.876
X22.225Y13.208
X22.479Y19.875
X22.987Y10.922
X25.273Y7.429
X25.866Y8.489
X26.226Y14.859
X27.94Y16.764
X29.337Y15.24
X29.591Y11.874
X30.353Y22.352
X30.416Y23.368
X30.607Y8.191
X33.718Y15.43
X33.909Y11.811
X34.544Y4.763
X37.592Y10.16
T2
X4.889Y3.937
X4.889Y2.667
X6.159Y3.937
X6.159Y2.667
X7.429Y3.937
X7.429Y2.667
X8.7Y3.937
X8.7Y2.667
X9.97Y3.937
X9.97Y2.667
T3
X42.46Y22.415
X43.0Y15.113
X43.0Y12.573
X43.0Y10.033
X45.0Y22.415
X45.54Y15.113
X45.54Y12.573
X45.54Y10.033
T0
M30
