%FSLAX45Y45*%
G04 Gerber Fmt 4.5, Leading zero omitted, Abs format (unit mm)*
G04 Created by KiCad (PCBNEW (5.1.10-1-10_14)) date 2021-09-18 20:20:18*
%MOMM*%
%LPD*%
G01*
G04 APERTURE LIST*
%TA.AperFunction,Profile*%
%ADD10C,0.050000*%
%TD*%
%ADD11C,0.200000*%
%ADD12C,0.300000*%
G04 APERTURE END LIST*
D10*
X4800000Y200000D02*
X4800000Y2300000D01*
X200000Y0D02*
G75*
G02*
X0Y200000I0J200000D01*
G01*
X0Y2300000D02*
G75*
G02*
X200000Y2500000I200000J0D01*
G01*
X4600000Y2500000D02*
G75*
G02*
X4800000Y2300000I0J-200000D01*
G01*
X4800000Y200000D02*
G75*
G02*
X4600000Y0I-200000J0D01*
G01*
X0Y2300000D02*
X0Y200000D01*
X4600000Y2500000D02*
X200000Y2500000D01*
X200000Y0D02*
X4600000Y0D01*
D11*
X80000Y1770000D02*
X120000Y1730000D01*
X120000Y1770000D02*
X80000Y1730000D01*
X80000Y1670000D02*
X120000Y1630000D01*
X120000Y1670000D02*
X80000Y1630000D01*
X80000Y1570000D02*
X120000Y1530000D01*
X120000Y1570000D02*
X80000Y1530000D01*
X80000Y1270000D02*
X120000Y1230000D01*
X120000Y1270000D02*
X80000Y1230000D01*
X80000Y970000D02*
X120000Y930000D01*
X120000Y970000D02*
X80000Y930000D01*
X80000Y870000D02*
X120000Y830000D01*
X120000Y870000D02*
X80000Y830000D01*
X80000Y770000D02*
X120000Y730000D01*
X120000Y770000D02*
X80000Y730000D01*
X430000Y1770000D02*
X470000Y1730000D01*
X470000Y1770000D02*
X430000Y1730000D01*
X430000Y770000D02*
X470000Y730000D01*
X470000Y770000D02*
X430000Y730000D01*
X530000Y1770000D02*
X570000Y1730000D01*
X570000Y1770000D02*
X530000Y1730000D01*
X530000Y770000D02*
X570000Y730000D01*
X570000Y770000D02*
X530000Y730000D01*
X630000Y1770000D02*
X670000Y1730000D01*
X670000Y1770000D02*
X630000Y1730000D01*
X630000Y770000D02*
X670000Y730000D01*
X670000Y770000D02*
X630000Y730000D01*
X729300Y661350D02*
X769300Y621350D01*
X769300Y661350D02*
X729300Y621350D01*
X888050Y591500D02*
X928050Y551500D01*
X928050Y591500D02*
X888050Y551500D01*
X996000Y921700D02*
X1036000Y881700D01*
X1036000Y921700D02*
X996000Y881700D01*
X1065850Y693100D02*
X1105850Y653100D01*
X1105850Y693100D02*
X1065850Y653100D01*
X1065850Y585150D02*
X1105850Y545150D01*
X1105850Y585150D02*
X1065850Y545150D01*
X1078550Y1378900D02*
X1118550Y1338900D01*
X1118550Y1378900D02*
X1078550Y1338900D01*
X1224600Y2204400D02*
X1264600Y2164400D01*
X1264600Y2204400D02*
X1224600Y2164400D01*
X1548450Y172400D02*
X1588450Y132400D01*
X1588450Y172400D02*
X1548450Y132400D01*
X1549070Y1994230D02*
X1589070Y1954230D01*
X1589070Y1994230D02*
X1549070Y1954230D01*
X1605600Y841379D02*
X1645600Y801379D01*
X1645600Y841379D02*
X1605600Y801379D01*
X1618300Y1055050D02*
X1658300Y1015050D01*
X1658300Y1055050D02*
X1618300Y1015050D01*
X1723839Y832778D02*
X1763839Y792778D01*
X1763839Y832778D02*
X1723839Y792778D01*
X1923100Y2204400D02*
X1963100Y2164400D01*
X1963100Y2204400D02*
X1923100Y2164400D01*
X1961200Y1118550D02*
X2001200Y1078550D01*
X2001200Y1118550D02*
X1961200Y1078550D01*
X2119950Y864550D02*
X2159950Y824550D01*
X2159950Y864550D02*
X2119950Y824550D01*
X2177100Y2407600D02*
X2217100Y2367600D01*
X2217100Y2407600D02*
X2177100Y2367600D01*
X2202500Y1340800D02*
X2242500Y1300800D01*
X2242500Y1340800D02*
X2202500Y1300800D01*
X2227900Y2007550D02*
X2267900Y1967550D01*
X2267900Y2007550D02*
X2227900Y1967550D01*
X2278700Y1112200D02*
X2318700Y1072200D01*
X2318700Y1112200D02*
X2278700Y1072200D01*
X2507300Y762950D02*
X2547300Y722950D01*
X2547300Y762950D02*
X2507300Y722950D01*
X2566584Y868941D02*
X2606584Y828941D01*
X2606584Y868941D02*
X2566584Y828941D01*
X2602550Y1505900D02*
X2642550Y1465900D01*
X2642550Y1505900D02*
X2602550Y1465900D01*
X2774000Y1696400D02*
X2814000Y1656400D01*
X2814000Y1696400D02*
X2774000Y1656400D01*
X2913700Y1544000D02*
X2953700Y1504000D01*
X2953700Y1544000D02*
X2913700Y1504000D01*
X2939100Y1207450D02*
X2979100Y1167450D01*
X2979100Y1207450D02*
X2939100Y1167450D01*
X3015300Y2255200D02*
X3055300Y2215200D01*
X3055300Y2255200D02*
X3015300Y2215200D01*
X3021650Y2356800D02*
X3061650Y2316800D01*
X3061650Y2356800D02*
X3021650Y2316800D01*
X3040700Y839150D02*
X3080700Y799150D01*
X3080700Y839150D02*
X3040700Y799150D01*
X3351850Y1563050D02*
X3391850Y1523050D01*
X3391850Y1563050D02*
X3351850Y1523050D01*
X3370900Y1201100D02*
X3410900Y1161100D01*
X3410900Y1201100D02*
X3370900Y1161100D01*
X3434400Y496250D02*
X3474400Y456250D01*
X3474400Y496250D02*
X3434400Y456250D01*
X3739200Y1036000D02*
X3779200Y996000D01*
X3779200Y1036000D02*
X3739200Y996000D01*
X521450Y393700D02*
G75*
G03*
X521450Y393700I-32500J0D01*
G01*
X521450Y266700D02*
G75*
G03*
X521450Y266700I-32500J0D01*
G01*
X648450Y393700D02*
G75*
G03*
X648450Y393700I-32500J0D01*
G01*
X648450Y266700D02*
G75*
G03*
X648450Y266700I-32500J0D01*
G01*
X775450Y393700D02*
G75*
G03*
X775450Y393700I-32500J0D01*
G01*
X775450Y266700D02*
G75*
G03*
X775450Y266700I-32500J0D01*
G01*
X902450Y393700D02*
G75*
G03*
X902450Y393700I-32500J0D01*
G01*
X902450Y266700D02*
G75*
G03*
X902450Y266700I-32500J0D01*
G01*
X1029450Y393700D02*
G75*
G03*
X1029450Y393700I-32500J0D01*
G01*
X1029450Y266700D02*
G75*
G03*
X1029450Y266700I-32500J0D01*
G01*
X4246000Y2291550D02*
X4246000Y2191550D01*
X4196000Y2241550D02*
X4296000Y2241550D01*
X4300000Y1561300D02*
X4300000Y1461300D01*
X4250000Y1511300D02*
X4350000Y1511300D01*
X4300000Y1307300D02*
X4300000Y1207300D01*
X4250000Y1257300D02*
X4350000Y1257300D01*
X4300000Y1053300D02*
X4300000Y953300D01*
X4250000Y1003300D02*
X4350000Y1003300D01*
X4500000Y2291550D02*
X4500000Y2191550D01*
X4450000Y2241550D02*
X4550000Y2241550D01*
X4554000Y1561300D02*
X4554000Y1461300D01*
X4504000Y1511300D02*
X4604000Y1511300D01*
X4554000Y1307300D02*
X4554000Y1207300D01*
X4504000Y1257300D02*
X4604000Y1257300D01*
X4554000Y1053300D02*
X4554000Y953300D01*
X4504000Y1003300D02*
X4604000Y1003300D01*
D12*
X283928Y-468214D02*
X283928Y-168214D01*
X355357Y-168214D01*
X398214Y-182500D01*
X426786Y-211071D01*
X441071Y-239643D01*
X455357Y-296786D01*
X455357Y-339643D01*
X441071Y-396786D01*
X426786Y-425357D01*
X398214Y-453929D01*
X355357Y-468214D01*
X283928Y-468214D01*
X583928Y-468214D02*
X583928Y-268214D01*
X583928Y-325357D02*
X598214Y-296786D01*
X612500Y-282500D01*
X641071Y-268214D01*
X669643Y-268214D01*
X769643Y-468214D02*
X769643Y-268214D01*
X769643Y-168214D02*
X755357Y-182500D01*
X769643Y-196786D01*
X783928Y-182500D01*
X769643Y-168214D01*
X769643Y-196786D01*
X955357Y-468214D02*
X926786Y-453929D01*
X912500Y-425357D01*
X912500Y-168214D01*
X1112500Y-468214D02*
X1083928Y-453929D01*
X1069643Y-425357D01*
X1069643Y-168214D01*
X1455357Y-468214D02*
X1455357Y-168214D01*
X1555357Y-382500D01*
X1655357Y-168214D01*
X1655357Y-468214D01*
X1926786Y-468214D02*
X1926786Y-311072D01*
X1912500Y-282500D01*
X1883928Y-268214D01*
X1826786Y-268214D01*
X1798214Y-282500D01*
X1926786Y-453929D02*
X1898214Y-468214D01*
X1826786Y-468214D01*
X1798214Y-453929D01*
X1783928Y-425357D01*
X1783928Y-396786D01*
X1798214Y-368214D01*
X1826786Y-353929D01*
X1898214Y-353929D01*
X1926786Y-339643D01*
X2069643Y-268214D02*
X2069643Y-568214D01*
X2069643Y-282500D02*
X2098214Y-268214D01*
X2155357Y-268214D01*
X2183928Y-282500D01*
X2198214Y-296786D01*
X2212500Y-325357D01*
X2212500Y-411071D01*
X2198214Y-439643D01*
X2183928Y-453929D01*
X2155357Y-468214D01*
X2098214Y-468214D01*
X2069643Y-453929D01*
X2341071Y-439643D02*
X2355357Y-453929D01*
X2341071Y-468214D01*
X2326786Y-453929D01*
X2341071Y-439643D01*
X2341071Y-468214D01*
X2341071Y-282500D02*
X2355357Y-296786D01*
X2341071Y-311072D01*
X2326786Y-296786D01*
X2341071Y-282500D01*
X2341071Y-311072D01*
X-42500Y-942500D02*
X-2500Y-982500D01*
X-2500Y-942500D02*
X-42500Y-982500D01*
X341071Y-798214D02*
X369643Y-798214D01*
X398214Y-812500D01*
X412500Y-826786D01*
X426786Y-855357D01*
X441071Y-912500D01*
X441071Y-983929D01*
X426786Y-1041071D01*
X412500Y-1069643D01*
X398214Y-1083929D01*
X369643Y-1098214D01*
X341071Y-1098214D01*
X312500Y-1083929D01*
X298214Y-1069643D01*
X283928Y-1041071D01*
X269643Y-983929D01*
X269643Y-912500D01*
X283928Y-855357D01*
X298214Y-826786D01*
X312500Y-812500D01*
X341071Y-798214D01*
X569643Y-1069643D02*
X583928Y-1083929D01*
X569643Y-1098214D01*
X555357Y-1083929D01*
X569643Y-1069643D01*
X569643Y-1098214D01*
X841071Y-898214D02*
X841071Y-1098214D01*
X769643Y-783929D02*
X698214Y-998214D01*
X883928Y-998214D01*
X1055357Y-798214D02*
X1083928Y-798214D01*
X1112500Y-812500D01*
X1126786Y-826786D01*
X1141071Y-855357D01*
X1155357Y-912500D01*
X1155357Y-983929D01*
X1141071Y-1041071D01*
X1126786Y-1069643D01*
X1112500Y-1083929D01*
X1083928Y-1098214D01*
X1055357Y-1098214D01*
X1026786Y-1083929D01*
X1012500Y-1069643D01*
X998214Y-1041071D01*
X983928Y-983929D01*
X983928Y-912500D01*
X998214Y-855357D01*
X1012500Y-826786D01*
X1026786Y-812500D01*
X1055357Y-798214D01*
X1341071Y-798214D02*
X1369643Y-798214D01*
X1398214Y-812500D01*
X1412500Y-826786D01*
X1426786Y-855357D01*
X1441071Y-912500D01*
X1441071Y-983929D01*
X1426786Y-1041071D01*
X1412500Y-1069643D01*
X1398214Y-1083929D01*
X1369643Y-1098214D01*
X1341071Y-1098214D01*
X1312500Y-1083929D01*
X1298214Y-1069643D01*
X1283928Y-1041071D01*
X1269643Y-983929D01*
X1269643Y-912500D01*
X1283928Y-855357D01*
X1298214Y-826786D01*
X1312500Y-812500D01*
X1341071Y-798214D01*
X1569643Y-1098214D02*
X1569643Y-898214D01*
X1569643Y-926786D02*
X1583928Y-912500D01*
X1612500Y-898214D01*
X1655357Y-898214D01*
X1683928Y-912500D01*
X1698214Y-941071D01*
X1698214Y-1098214D01*
X1698214Y-941071D02*
X1712500Y-912500D01*
X1741071Y-898214D01*
X1783928Y-898214D01*
X1812500Y-912500D01*
X1826786Y-941071D01*
X1826786Y-1098214D01*
X1969643Y-1098214D02*
X1969643Y-898214D01*
X1969643Y-926786D02*
X1983928Y-912500D01*
X2012500Y-898214D01*
X2055357Y-898214D01*
X2083928Y-912500D01*
X2098214Y-941071D01*
X2098214Y-1098214D01*
X2098214Y-941071D02*
X2112500Y-912500D01*
X2141071Y-898214D01*
X2183928Y-898214D01*
X2212500Y-912500D01*
X2226786Y-941071D01*
X2226786Y-1098214D01*
X2812500Y-783929D02*
X2555357Y-1169643D01*
X3198214Y-798214D02*
X3226786Y-798214D01*
X3255357Y-812500D01*
X3269643Y-826786D01*
X3283928Y-855357D01*
X3298214Y-912500D01*
X3298214Y-983929D01*
X3283928Y-1041071D01*
X3269643Y-1069643D01*
X3255357Y-1083929D01*
X3226786Y-1098214D01*
X3198214Y-1098214D01*
X3169643Y-1083929D01*
X3155357Y-1069643D01*
X3141071Y-1041071D01*
X3126786Y-983929D01*
X3126786Y-912500D01*
X3141071Y-855357D01*
X3155357Y-826786D01*
X3169643Y-812500D01*
X3198214Y-798214D01*
X3426786Y-1069643D02*
X3441071Y-1083929D01*
X3426786Y-1098214D01*
X3412500Y-1083929D01*
X3426786Y-1069643D01*
X3426786Y-1098214D01*
X3626786Y-798214D02*
X3655357Y-798214D01*
X3683928Y-812500D01*
X3698214Y-826786D01*
X3712500Y-855357D01*
X3726786Y-912500D01*
X3726786Y-983929D01*
X3712500Y-1041071D01*
X3698214Y-1069643D01*
X3683928Y-1083929D01*
X3655357Y-1098214D01*
X3626786Y-1098214D01*
X3598214Y-1083929D01*
X3583928Y-1069643D01*
X3569643Y-1041071D01*
X3555357Y-983929D01*
X3555357Y-912500D01*
X3569643Y-855357D01*
X3583928Y-826786D01*
X3598214Y-812500D01*
X3626786Y-798214D01*
X4012500Y-1098214D02*
X3841071Y-1098214D01*
X3926786Y-1098214D02*
X3926786Y-798214D01*
X3898214Y-841071D01*
X3869643Y-869643D01*
X3841071Y-883929D01*
X4283928Y-798214D02*
X4141071Y-798214D01*
X4126786Y-941071D01*
X4141071Y-926786D01*
X4169643Y-912500D01*
X4241071Y-912500D01*
X4269643Y-926786D01*
X4283928Y-941071D01*
X4298214Y-969643D01*
X4298214Y-1041071D01*
X4283928Y-1069643D01*
X4269643Y-1083929D01*
X4241071Y-1098214D01*
X4169643Y-1098214D01*
X4141071Y-1083929D01*
X4126786Y-1069643D01*
X4398214Y-798214D02*
X4598214Y-798214D01*
X4469643Y-1098214D01*
X4698214Y-798214D02*
X4698214Y-855357D01*
X4812500Y-798214D02*
X4812500Y-855357D01*
X5255357Y-1212500D02*
X5241071Y-1198214D01*
X5212500Y-1155357D01*
X5198214Y-1126786D01*
X5183928Y-1083929D01*
X5169643Y-1012500D01*
X5169643Y-955357D01*
X5183928Y-883929D01*
X5198214Y-841071D01*
X5212500Y-812500D01*
X5241071Y-769643D01*
X5255357Y-755357D01*
X5498214Y-898214D02*
X5498214Y-1098214D01*
X5426786Y-783929D02*
X5355357Y-998214D01*
X5541071Y-998214D01*
X5798214Y-798214D02*
X5655357Y-798214D01*
X5641071Y-941071D01*
X5655357Y-926786D01*
X5683928Y-912500D01*
X5755357Y-912500D01*
X5783928Y-926786D01*
X5798214Y-941071D01*
X5812500Y-969643D01*
X5812500Y-1041071D01*
X5798214Y-1069643D01*
X5783928Y-1083929D01*
X5755357Y-1098214D01*
X5683928Y-1098214D01*
X5655357Y-1083929D01*
X5641071Y-1069643D01*
X6169643Y-1098214D02*
X6169643Y-798214D01*
X6298214Y-1098214D02*
X6298214Y-941071D01*
X6283928Y-912500D01*
X6255357Y-898214D01*
X6212500Y-898214D01*
X6183928Y-912500D01*
X6169643Y-926786D01*
X6483928Y-1098214D02*
X6455357Y-1083929D01*
X6441071Y-1069643D01*
X6426786Y-1041071D01*
X6426786Y-955357D01*
X6441071Y-926786D01*
X6455357Y-912500D01*
X6483928Y-898214D01*
X6526786Y-898214D01*
X6555357Y-912500D01*
X6569643Y-926786D01*
X6583928Y-955357D01*
X6583928Y-1041071D01*
X6569643Y-1069643D01*
X6555357Y-1083929D01*
X6526786Y-1098214D01*
X6483928Y-1098214D01*
X6755357Y-1098214D02*
X6726786Y-1083929D01*
X6712500Y-1055357D01*
X6712500Y-798214D01*
X6983928Y-1083929D02*
X6955357Y-1098214D01*
X6898214Y-1098214D01*
X6869643Y-1083929D01*
X6855357Y-1055357D01*
X6855357Y-941071D01*
X6869643Y-912500D01*
X6898214Y-898214D01*
X6955357Y-898214D01*
X6983928Y-912500D01*
X6998214Y-941071D01*
X6998214Y-969643D01*
X6855357Y-998214D01*
X7112500Y-1083929D02*
X7141071Y-1098214D01*
X7198214Y-1098214D01*
X7226786Y-1083929D01*
X7241071Y-1055357D01*
X7241071Y-1041071D01*
X7226786Y-1012500D01*
X7198214Y-998214D01*
X7155357Y-998214D01*
X7126786Y-983929D01*
X7112500Y-955357D01*
X7112500Y-941071D01*
X7126786Y-912500D01*
X7155357Y-898214D01*
X7198214Y-898214D01*
X7226786Y-912500D01*
X7341071Y-1212500D02*
X7355357Y-1198214D01*
X7383928Y-1155357D01*
X7398214Y-1126786D01*
X7412500Y-1083929D01*
X7426786Y-1012500D01*
X7426786Y-955357D01*
X7412500Y-883929D01*
X7398214Y-841071D01*
X7383928Y-812500D01*
X7355357Y-769643D01*
X7341071Y-755357D01*
X-2500Y-1358500D02*
G75*
G03*
X-2500Y-1358500I-32500J0D01*
G01*
X341071Y-1194214D02*
X369643Y-1194214D01*
X398214Y-1208500D01*
X412500Y-1222786D01*
X426786Y-1251357D01*
X441071Y-1308500D01*
X441071Y-1379929D01*
X426786Y-1437071D01*
X412500Y-1465643D01*
X398214Y-1479929D01*
X369643Y-1494214D01*
X341071Y-1494214D01*
X312500Y-1479929D01*
X298214Y-1465643D01*
X283928Y-1437071D01*
X269643Y-1379929D01*
X269643Y-1308500D01*
X283928Y-1251357D01*
X298214Y-1222786D01*
X312500Y-1208500D01*
X341071Y-1194214D01*
X569643Y-1465643D02*
X583928Y-1479929D01*
X569643Y-1494214D01*
X555357Y-1479929D01*
X569643Y-1465643D01*
X569643Y-1494214D01*
X841071Y-1194214D02*
X783928Y-1194214D01*
X755357Y-1208500D01*
X741071Y-1222786D01*
X712500Y-1265643D01*
X698214Y-1322786D01*
X698214Y-1437071D01*
X712500Y-1465643D01*
X726786Y-1479929D01*
X755357Y-1494214D01*
X812500Y-1494214D01*
X841071Y-1479929D01*
X855357Y-1465643D01*
X869643Y-1437071D01*
X869643Y-1365643D01*
X855357Y-1337072D01*
X841071Y-1322786D01*
X812500Y-1308500D01*
X755357Y-1308500D01*
X726786Y-1322786D01*
X712500Y-1337072D01*
X698214Y-1365643D01*
X1141071Y-1194214D02*
X998214Y-1194214D01*
X983928Y-1337072D01*
X998214Y-1322786D01*
X1026786Y-1308500D01*
X1098214Y-1308500D01*
X1126786Y-1322786D01*
X1141071Y-1337072D01*
X1155357Y-1365643D01*
X1155357Y-1437071D01*
X1141071Y-1465643D01*
X1126786Y-1479929D01*
X1098214Y-1494214D01*
X1026786Y-1494214D01*
X998214Y-1479929D01*
X983928Y-1465643D01*
X1341071Y-1194214D02*
X1369643Y-1194214D01*
X1398214Y-1208500D01*
X1412500Y-1222786D01*
X1426786Y-1251357D01*
X1441071Y-1308500D01*
X1441071Y-1379929D01*
X1426786Y-1437071D01*
X1412500Y-1465643D01*
X1398214Y-1479929D01*
X1369643Y-1494214D01*
X1341071Y-1494214D01*
X1312500Y-1479929D01*
X1298214Y-1465643D01*
X1283928Y-1437071D01*
X1269643Y-1379929D01*
X1269643Y-1308500D01*
X1283928Y-1251357D01*
X1298214Y-1222786D01*
X1312500Y-1208500D01*
X1341071Y-1194214D01*
X1569643Y-1494214D02*
X1569643Y-1294214D01*
X1569643Y-1322786D02*
X1583928Y-1308500D01*
X1612500Y-1294214D01*
X1655357Y-1294214D01*
X1683928Y-1308500D01*
X1698214Y-1337072D01*
X1698214Y-1494214D01*
X1698214Y-1337072D02*
X1712500Y-1308500D01*
X1741071Y-1294214D01*
X1783928Y-1294214D01*
X1812500Y-1308500D01*
X1826786Y-1337072D01*
X1826786Y-1494214D01*
X1969643Y-1494214D02*
X1969643Y-1294214D01*
X1969643Y-1322786D02*
X1983928Y-1308500D01*
X2012500Y-1294214D01*
X2055357Y-1294214D01*
X2083928Y-1308500D01*
X2098214Y-1337072D01*
X2098214Y-1494214D01*
X2098214Y-1337072D02*
X2112500Y-1308500D01*
X2141071Y-1294214D01*
X2183928Y-1294214D01*
X2212500Y-1308500D01*
X2226786Y-1337072D01*
X2226786Y-1494214D01*
X2812500Y-1179929D02*
X2555357Y-1565643D01*
X3198214Y-1194214D02*
X3226786Y-1194214D01*
X3255357Y-1208500D01*
X3269643Y-1222786D01*
X3283928Y-1251357D01*
X3298214Y-1308500D01*
X3298214Y-1379929D01*
X3283928Y-1437071D01*
X3269643Y-1465643D01*
X3255357Y-1479929D01*
X3226786Y-1494214D01*
X3198214Y-1494214D01*
X3169643Y-1479929D01*
X3155357Y-1465643D01*
X3141071Y-1437071D01*
X3126786Y-1379929D01*
X3126786Y-1308500D01*
X3141071Y-1251357D01*
X3155357Y-1222786D01*
X3169643Y-1208500D01*
X3198214Y-1194214D01*
X3426786Y-1465643D02*
X3441071Y-1479929D01*
X3426786Y-1494214D01*
X3412500Y-1479929D01*
X3426786Y-1465643D01*
X3426786Y-1494214D01*
X3626786Y-1194214D02*
X3655357Y-1194214D01*
X3683928Y-1208500D01*
X3698214Y-1222786D01*
X3712500Y-1251357D01*
X3726786Y-1308500D01*
X3726786Y-1379929D01*
X3712500Y-1437071D01*
X3698214Y-1465643D01*
X3683928Y-1479929D01*
X3655357Y-1494214D01*
X3626786Y-1494214D01*
X3598214Y-1479929D01*
X3583928Y-1465643D01*
X3569643Y-1437071D01*
X3555357Y-1379929D01*
X3555357Y-1308500D01*
X3569643Y-1251357D01*
X3583928Y-1222786D01*
X3598214Y-1208500D01*
X3626786Y-1194214D01*
X3841071Y-1222786D02*
X3855357Y-1208500D01*
X3883928Y-1194214D01*
X3955357Y-1194214D01*
X3983928Y-1208500D01*
X3998214Y-1222786D01*
X4012500Y-1251357D01*
X4012500Y-1279929D01*
X3998214Y-1322786D01*
X3826786Y-1494214D01*
X4012500Y-1494214D01*
X4283928Y-1194214D02*
X4141071Y-1194214D01*
X4126786Y-1337072D01*
X4141071Y-1322786D01*
X4169643Y-1308500D01*
X4241071Y-1308500D01*
X4269643Y-1322786D01*
X4283928Y-1337072D01*
X4298214Y-1365643D01*
X4298214Y-1437071D01*
X4283928Y-1465643D01*
X4269643Y-1479929D01*
X4241071Y-1494214D01*
X4169643Y-1494214D01*
X4141071Y-1479929D01*
X4126786Y-1465643D01*
X4555357Y-1194214D02*
X4498214Y-1194214D01*
X4469643Y-1208500D01*
X4455357Y-1222786D01*
X4426786Y-1265643D01*
X4412500Y-1322786D01*
X4412500Y-1437071D01*
X4426786Y-1465643D01*
X4441071Y-1479929D01*
X4469643Y-1494214D01*
X4526786Y-1494214D01*
X4555357Y-1479929D01*
X4569643Y-1465643D01*
X4583928Y-1437071D01*
X4583928Y-1365643D01*
X4569643Y-1337072D01*
X4555357Y-1322786D01*
X4526786Y-1308500D01*
X4469643Y-1308500D01*
X4441071Y-1322786D01*
X4426786Y-1337072D01*
X4412500Y-1365643D01*
X4698214Y-1194214D02*
X4698214Y-1251357D01*
X4812500Y-1194214D02*
X4812500Y-1251357D01*
X5255357Y-1608500D02*
X5241071Y-1594214D01*
X5212500Y-1551357D01*
X5198214Y-1522786D01*
X5183928Y-1479929D01*
X5169643Y-1408500D01*
X5169643Y-1351357D01*
X5183928Y-1279929D01*
X5198214Y-1237072D01*
X5212500Y-1208500D01*
X5241071Y-1165643D01*
X5255357Y-1151357D01*
X5526786Y-1494214D02*
X5355357Y-1494214D01*
X5441071Y-1494214D02*
X5441071Y-1194214D01*
X5412500Y-1237072D01*
X5383928Y-1265643D01*
X5355357Y-1279929D01*
X5712500Y-1194214D02*
X5741071Y-1194214D01*
X5769643Y-1208500D01*
X5783928Y-1222786D01*
X5798214Y-1251357D01*
X5812500Y-1308500D01*
X5812500Y-1379929D01*
X5798214Y-1437071D01*
X5783928Y-1465643D01*
X5769643Y-1479929D01*
X5741071Y-1494214D01*
X5712500Y-1494214D01*
X5683928Y-1479929D01*
X5669643Y-1465643D01*
X5655357Y-1437071D01*
X5641071Y-1379929D01*
X5641071Y-1308500D01*
X5655357Y-1251357D01*
X5669643Y-1222786D01*
X5683928Y-1208500D01*
X5712500Y-1194214D01*
X6169643Y-1494214D02*
X6169643Y-1194214D01*
X6298214Y-1494214D02*
X6298214Y-1337072D01*
X6283928Y-1308500D01*
X6255357Y-1294214D01*
X6212500Y-1294214D01*
X6183928Y-1308500D01*
X6169643Y-1322786D01*
X6483928Y-1494214D02*
X6455357Y-1479929D01*
X6441071Y-1465643D01*
X6426786Y-1437071D01*
X6426786Y-1351357D01*
X6441071Y-1322786D01*
X6455357Y-1308500D01*
X6483928Y-1294214D01*
X6526786Y-1294214D01*
X6555357Y-1308500D01*
X6569643Y-1322786D01*
X6583928Y-1351357D01*
X6583928Y-1437071D01*
X6569643Y-1465643D01*
X6555357Y-1479929D01*
X6526786Y-1494214D01*
X6483928Y-1494214D01*
X6755357Y-1494214D02*
X6726786Y-1479929D01*
X6712500Y-1451357D01*
X6712500Y-1194214D01*
X6983928Y-1479929D02*
X6955357Y-1494214D01*
X6898214Y-1494214D01*
X6869643Y-1479929D01*
X6855357Y-1451357D01*
X6855357Y-1337072D01*
X6869643Y-1308500D01*
X6898214Y-1294214D01*
X6955357Y-1294214D01*
X6983928Y-1308500D01*
X6998214Y-1337072D01*
X6998214Y-1365643D01*
X6855357Y-1394214D01*
X7112500Y-1479929D02*
X7141071Y-1494214D01*
X7198214Y-1494214D01*
X7226786Y-1479929D01*
X7241071Y-1451357D01*
X7241071Y-1437071D01*
X7226786Y-1408500D01*
X7198214Y-1394214D01*
X7155357Y-1394214D01*
X7126786Y-1379929D01*
X7112500Y-1351357D01*
X7112500Y-1337072D01*
X7126786Y-1308500D01*
X7155357Y-1294214D01*
X7198214Y-1294214D01*
X7226786Y-1308500D01*
X7341071Y-1608500D02*
X7355357Y-1594214D01*
X7383928Y-1551357D01*
X7398214Y-1522786D01*
X7412500Y-1479929D01*
X7426786Y-1408500D01*
X7426786Y-1351357D01*
X7412500Y-1279929D01*
X7398214Y-1237072D01*
X7383928Y-1208500D01*
X7355357Y-1165643D01*
X7341071Y-1151357D01*
X-52500Y-1704500D02*
X-52500Y-1804500D01*
X-102500Y-1754500D02*
X-2500Y-1754500D01*
X441071Y-1890214D02*
X269643Y-1890214D01*
X355357Y-1890214D02*
X355357Y-1590214D01*
X326786Y-1633071D01*
X298214Y-1661643D01*
X269643Y-1675929D01*
X569643Y-1861643D02*
X583928Y-1875929D01*
X569643Y-1890214D01*
X555357Y-1875929D01*
X569643Y-1861643D01*
X569643Y-1890214D01*
X769643Y-1590214D02*
X798214Y-1590214D01*
X826786Y-1604500D01*
X841071Y-1618786D01*
X855357Y-1647357D01*
X869643Y-1704500D01*
X869643Y-1775929D01*
X855357Y-1833071D01*
X841071Y-1861643D01*
X826786Y-1875929D01*
X798214Y-1890214D01*
X769643Y-1890214D01*
X741071Y-1875929D01*
X726786Y-1861643D01*
X712500Y-1833071D01*
X698214Y-1775929D01*
X698214Y-1704500D01*
X712500Y-1647357D01*
X726786Y-1618786D01*
X741071Y-1604500D01*
X769643Y-1590214D01*
X1055357Y-1590214D02*
X1083928Y-1590214D01*
X1112500Y-1604500D01*
X1126786Y-1618786D01*
X1141071Y-1647357D01*
X1155357Y-1704500D01*
X1155357Y-1775929D01*
X1141071Y-1833071D01*
X1126786Y-1861643D01*
X1112500Y-1875929D01*
X1083928Y-1890214D01*
X1055357Y-1890214D01*
X1026786Y-1875929D01*
X1012500Y-1861643D01*
X998214Y-1833071D01*
X983928Y-1775929D01*
X983928Y-1704500D01*
X998214Y-1647357D01*
X1012500Y-1618786D01*
X1026786Y-1604500D01*
X1055357Y-1590214D01*
X1341071Y-1590214D02*
X1369643Y-1590214D01*
X1398214Y-1604500D01*
X1412500Y-1618786D01*
X1426786Y-1647357D01*
X1441071Y-1704500D01*
X1441071Y-1775929D01*
X1426786Y-1833071D01*
X1412500Y-1861643D01*
X1398214Y-1875929D01*
X1369643Y-1890214D01*
X1341071Y-1890214D01*
X1312500Y-1875929D01*
X1298214Y-1861643D01*
X1283928Y-1833071D01*
X1269643Y-1775929D01*
X1269643Y-1704500D01*
X1283928Y-1647357D01*
X1298214Y-1618786D01*
X1312500Y-1604500D01*
X1341071Y-1590214D01*
X1569643Y-1890214D02*
X1569643Y-1690214D01*
X1569643Y-1718786D02*
X1583928Y-1704500D01*
X1612500Y-1690214D01*
X1655357Y-1690214D01*
X1683928Y-1704500D01*
X1698214Y-1733071D01*
X1698214Y-1890214D01*
X1698214Y-1733071D02*
X1712500Y-1704500D01*
X1741071Y-1690214D01*
X1783928Y-1690214D01*
X1812500Y-1704500D01*
X1826786Y-1733071D01*
X1826786Y-1890214D01*
X1969643Y-1890214D02*
X1969643Y-1690214D01*
X1969643Y-1718786D02*
X1983928Y-1704500D01*
X2012500Y-1690214D01*
X2055357Y-1690214D01*
X2083928Y-1704500D01*
X2098214Y-1733071D01*
X2098214Y-1890214D01*
X2098214Y-1733071D02*
X2112500Y-1704500D01*
X2141071Y-1690214D01*
X2183928Y-1690214D01*
X2212500Y-1704500D01*
X2226786Y-1733071D01*
X2226786Y-1890214D01*
X2812500Y-1575929D02*
X2555357Y-1961643D01*
X3198214Y-1590214D02*
X3226786Y-1590214D01*
X3255357Y-1604500D01*
X3269643Y-1618786D01*
X3283928Y-1647357D01*
X3298214Y-1704500D01*
X3298214Y-1775929D01*
X3283928Y-1833071D01*
X3269643Y-1861643D01*
X3255357Y-1875929D01*
X3226786Y-1890214D01*
X3198214Y-1890214D01*
X3169643Y-1875929D01*
X3155357Y-1861643D01*
X3141071Y-1833071D01*
X3126786Y-1775929D01*
X3126786Y-1704500D01*
X3141071Y-1647357D01*
X3155357Y-1618786D01*
X3169643Y-1604500D01*
X3198214Y-1590214D01*
X3426786Y-1861643D02*
X3441071Y-1875929D01*
X3426786Y-1890214D01*
X3412500Y-1875929D01*
X3426786Y-1861643D01*
X3426786Y-1890214D01*
X3626786Y-1590214D02*
X3655357Y-1590214D01*
X3683928Y-1604500D01*
X3698214Y-1618786D01*
X3712500Y-1647357D01*
X3726786Y-1704500D01*
X3726786Y-1775929D01*
X3712500Y-1833071D01*
X3698214Y-1861643D01*
X3683928Y-1875929D01*
X3655357Y-1890214D01*
X3626786Y-1890214D01*
X3598214Y-1875929D01*
X3583928Y-1861643D01*
X3569643Y-1833071D01*
X3555357Y-1775929D01*
X3555357Y-1704500D01*
X3569643Y-1647357D01*
X3583928Y-1618786D01*
X3598214Y-1604500D01*
X3626786Y-1590214D01*
X3826786Y-1590214D02*
X4012500Y-1590214D01*
X3912500Y-1704500D01*
X3955357Y-1704500D01*
X3983928Y-1718786D01*
X3998214Y-1733071D01*
X4012500Y-1761643D01*
X4012500Y-1833071D01*
X3998214Y-1861643D01*
X3983928Y-1875929D01*
X3955357Y-1890214D01*
X3869643Y-1890214D01*
X3841071Y-1875929D01*
X3826786Y-1861643D01*
X4155357Y-1890214D02*
X4212500Y-1890214D01*
X4241071Y-1875929D01*
X4255357Y-1861643D01*
X4283928Y-1818786D01*
X4298214Y-1761643D01*
X4298214Y-1647357D01*
X4283928Y-1618786D01*
X4269643Y-1604500D01*
X4241071Y-1590214D01*
X4183928Y-1590214D01*
X4155357Y-1604500D01*
X4141071Y-1618786D01*
X4126786Y-1647357D01*
X4126786Y-1718786D01*
X4141071Y-1747357D01*
X4155357Y-1761643D01*
X4183928Y-1775929D01*
X4241071Y-1775929D01*
X4269643Y-1761643D01*
X4283928Y-1747357D01*
X4298214Y-1718786D01*
X4555357Y-1690214D02*
X4555357Y-1890214D01*
X4483928Y-1575929D02*
X4412500Y-1790214D01*
X4598214Y-1790214D01*
X4698214Y-1590214D02*
X4698214Y-1647357D01*
X4812500Y-1590214D02*
X4812500Y-1647357D01*
X5255357Y-2004500D02*
X5241071Y-1990214D01*
X5212500Y-1947357D01*
X5198214Y-1918786D01*
X5183928Y-1875929D01*
X5169643Y-1804500D01*
X5169643Y-1747357D01*
X5183928Y-1675929D01*
X5198214Y-1633071D01*
X5212500Y-1604500D01*
X5241071Y-1561643D01*
X5255357Y-1547357D01*
X5412500Y-1718786D02*
X5383928Y-1704500D01*
X5369643Y-1690214D01*
X5355357Y-1661643D01*
X5355357Y-1647357D01*
X5369643Y-1618786D01*
X5383928Y-1604500D01*
X5412500Y-1590214D01*
X5469643Y-1590214D01*
X5498214Y-1604500D01*
X5512500Y-1618786D01*
X5526786Y-1647357D01*
X5526786Y-1661643D01*
X5512500Y-1690214D01*
X5498214Y-1704500D01*
X5469643Y-1718786D01*
X5412500Y-1718786D01*
X5383928Y-1733071D01*
X5369643Y-1747357D01*
X5355357Y-1775929D01*
X5355357Y-1833071D01*
X5369643Y-1861643D01*
X5383928Y-1875929D01*
X5412500Y-1890214D01*
X5469643Y-1890214D01*
X5498214Y-1875929D01*
X5512500Y-1861643D01*
X5526786Y-1833071D01*
X5526786Y-1775929D01*
X5512500Y-1747357D01*
X5498214Y-1733071D01*
X5469643Y-1718786D01*
X5883928Y-1890214D02*
X5883928Y-1590214D01*
X6012500Y-1890214D02*
X6012500Y-1733071D01*
X5998214Y-1704500D01*
X5969643Y-1690214D01*
X5926786Y-1690214D01*
X5898214Y-1704500D01*
X5883928Y-1718786D01*
X6198214Y-1890214D02*
X6169643Y-1875929D01*
X6155357Y-1861643D01*
X6141071Y-1833071D01*
X6141071Y-1747357D01*
X6155357Y-1718786D01*
X6169643Y-1704500D01*
X6198214Y-1690214D01*
X6241071Y-1690214D01*
X6269643Y-1704500D01*
X6283928Y-1718786D01*
X6298214Y-1747357D01*
X6298214Y-1833071D01*
X6283928Y-1861643D01*
X6269643Y-1875929D01*
X6241071Y-1890214D01*
X6198214Y-1890214D01*
X6469643Y-1890214D02*
X6441071Y-1875929D01*
X6426786Y-1847357D01*
X6426786Y-1590214D01*
X6698214Y-1875929D02*
X6669643Y-1890214D01*
X6612500Y-1890214D01*
X6583928Y-1875929D01*
X6569643Y-1847357D01*
X6569643Y-1733071D01*
X6583928Y-1704500D01*
X6612500Y-1690214D01*
X6669643Y-1690214D01*
X6698214Y-1704500D01*
X6712500Y-1733071D01*
X6712500Y-1761643D01*
X6569643Y-1790214D01*
X6826786Y-1875929D02*
X6855357Y-1890214D01*
X6912500Y-1890214D01*
X6941071Y-1875929D01*
X6955357Y-1847357D01*
X6955357Y-1833071D01*
X6941071Y-1804500D01*
X6912500Y-1790214D01*
X6869643Y-1790214D01*
X6841071Y-1775929D01*
X6826786Y-1747357D01*
X6826786Y-1733071D01*
X6841071Y-1704500D01*
X6869643Y-1690214D01*
X6912500Y-1690214D01*
X6941071Y-1704500D01*
X7055357Y-2004500D02*
X7069643Y-1990214D01*
X7098214Y-1947357D01*
X7112500Y-1918786D01*
X7126786Y-1875929D01*
X7141071Y-1804500D01*
X7141071Y-1747357D01*
X7126786Y-1675929D01*
X7112500Y-1633071D01*
X7098214Y-1604500D01*
X7069643Y-1561643D01*
X7055357Y-1547357D01*
M02*
