M48
; DRILL file {KiCad (5.1.10-1-10_14)} date Tuesday, September 21, 2021 at 02:20:32 PM
; FORMAT={-:-/ absolute / metric / decimal}
; #@! TF.CreationDate,2021-09-21T14:20:32-04:00
; #@! TF.GenerationSoftware,Kicad,Pcbnew,(5.1.10-1-10_14)
; #@! TF.FileFunction,Plated,1,2,PTH
FMAT,2
METRIC
T1C0.400
T2C0.650
T3C1.000
%
G90
G05
T1
X1.0Y17.5
X1.0Y16.5
X1.0Y15.5
X1.0Y12.5
X1.0Y9.5
X1.0Y8.5
X1.0Y7.5
X4.5Y17.5
X4.5Y7.5
X5.5Y17.5
X5.5Y7.5
X6.5Y17.5
X6.5Y7.5
X7.493Y6.413
X9.08Y5.715
X10.0Y23.0
X10.16Y9.017
X10.858Y6.731
X10.858Y5.651
X10.986Y13.589
X15.502Y19.433
X15.684Y1.524
X16.256Y8.214
X16.383Y10.351
X17.438Y8.128
X18.074Y21.5
X19.812Y10.986
X20.75Y23.5
X21.399Y8.445
X22.225Y13.208
X22.987Y10.922
X25.0Y23.25
X25.273Y7.429
X25.866Y8.489
X26.365Y14.783
X27.94Y16.764
X29.567Y9.738
X29.591Y11.874
X31.236Y5.0
X33.718Y15.43
X33.91Y11.817
X34.389Y10.757
X35.408Y15.138
X37.338Y9.721
X39.75Y23.0
T2
X4.889Y3.937
X4.889Y2.667
X6.159Y3.937
X6.159Y2.667
X7.429Y3.937
X7.429Y2.667
X8.7Y3.937
X8.7Y2.667
X9.97Y3.937
X9.97Y2.667
T3
X39.37Y8.636
X39.37Y6.096
X39.37Y3.556
X43.0Y15.113
X43.0Y12.573
X43.0Y10.033
X45.54Y15.113
X45.54Y12.573
X45.54Y10.033
T0
M30
