%TF.GenerationSoftware,KiCad,Pcbnew,(5.1.10-1-10_14)*%
%TF.CreationDate,2021-09-21T14:20:29-04:00*%
%TF.ProjectId,WetProgrammer,57657450-726f-4677-9261-6d6d65722e6b,rev?*%
%TF.SameCoordinates,Original*%
%TF.FileFunction,Copper,L1,Top*%
%TF.FilePolarity,Positive*%
%FSLAX46Y46*%
G04 Gerber Fmt 4.6, Leading zero omitted, Abs format (unit mm)*
G04 Created by KiCad (PCBNEW (5.1.10-1-10_14)) date 2021-09-21 14:20:29*
%MOMM*%
%LPD*%
G01*
G04 APERTURE LIST*
%TA.AperFunction,EtchedComponent*%
%ADD10C,0.100000*%
%TD*%
%TA.AperFunction,SMDPad,CuDef*%
%ADD11R,1.100000X1.000000*%
%TD*%
%TA.AperFunction,SMDPad,CuDef*%
%ADD12R,1.500000X1.350000*%
%TD*%
%TA.AperFunction,SMDPad,CuDef*%
%ADD13R,1.400000X1.500000*%
%TD*%
%TA.AperFunction,SMDPad,CuDef*%
%ADD14R,1.800000X0.400000*%
%TD*%
%TA.AperFunction,ComponentPad*%
%ADD15O,1.700000X1.700000*%
%TD*%
%TA.AperFunction,ComponentPad*%
%ADD16R,1.700000X1.700000*%
%TD*%
%TA.AperFunction,SMDPad,CuDef*%
%ADD17R,0.800000X0.900000*%
%TD*%
%TA.AperFunction,SMDPad,CuDef*%
%ADD18R,0.900000X1.250000*%
%TD*%
%TA.AperFunction,SMDPad,CuDef*%
%ADD19C,1.000000*%
%TD*%
%TA.AperFunction,SMDPad,CuDef*%
%ADD20R,4.500000X2.000000*%
%TD*%
%TA.AperFunction,SMDPad,CuDef*%
%ADD21R,1.500000X1.000000*%
%TD*%
%TA.AperFunction,SMDPad,CuDef*%
%ADD22R,2.000000X1.500000*%
%TD*%
%TA.AperFunction,SMDPad,CuDef*%
%ADD23R,2.000000X3.800000*%
%TD*%
%TA.AperFunction,SMDPad,CuDef*%
%ADD24R,0.550000X1.500000*%
%TD*%
%TA.AperFunction,SMDPad,CuDef*%
%ADD25R,1.500000X0.550000*%
%TD*%
%TA.AperFunction,SMDPad,CuDef*%
%ADD26C,1.500000*%
%TD*%
%TA.AperFunction,ComponentPad*%
%ADD27O,1.000000X1.000000*%
%TD*%
%TA.AperFunction,ComponentPad*%
%ADD28R,1.000000X1.000000*%
%TD*%
%TA.AperFunction,SMDPad,CuDef*%
%ADD29R,1.000000X1.500000*%
%TD*%
%TA.AperFunction,ViaPad*%
%ADD30C,0.800000*%
%TD*%
%TA.AperFunction,Conductor*%
%ADD31C,0.152400*%
%TD*%
%TA.AperFunction,Conductor*%
%ADD32C,0.250000*%
%TD*%
%TA.AperFunction,Conductor*%
%ADD33C,0.304800*%
%TD*%
%TA.AperFunction,Conductor*%
%ADD34C,0.100000*%
%TD*%
G04 APERTURE END LIST*
D10*
%TO.C,JP1*%
G36*
X16423500Y20705000D02*
G01*
X16423500Y21205000D01*
X17023500Y21205000D01*
X17023500Y20705000D01*
X16423500Y20705000D01*
G37*
%TD*%
D11*
%TO.P,J1,6*%
%TO.N,GND*%
X1459500Y11000000D03*
X1459500Y14000000D03*
D12*
X2630000Y16575000D03*
X2630000Y8425000D03*
D13*
X5309500Y15750000D03*
X5309500Y9250000D03*
D14*
%TO.P,J1,5*%
X5500000Y11200000D03*
%TO.P,J1,4*%
%TO.N,Net-(J1-Pad4)*%
X5500000Y11850000D03*
%TO.P,J1,1*%
%TO.N,Net-(F1-Pad2)*%
X5500000Y13800000D03*
%TO.P,J1,2*%
%TO.N,Net-(J1-Pad2)*%
X5500000Y13150000D03*
%TO.P,J1,3*%
%TO.N,Net-(J1-Pad3)*%
X5500000Y12500000D03*
%TD*%
D15*
%TO.P,J3,3*%
%TO.N,GND*%
X39370000Y3556000D03*
%TO.P,J3,2*%
%TO.N,/RXI*%
X39370000Y6096000D03*
D16*
%TO.P,J3,1*%
%TO.N,/TXO*%
X39370000Y8636000D03*
%TD*%
%TO.P,R11,2*%
%TO.N,Net-(R11-Pad2)*%
%TA.AperFunction,SMDPad,CuDef*%
G36*
G01*
X35374000Y5212501D02*
X35374000Y4312499D01*
G75*
G02*
X35124001Y4062500I-249999J0D01*
G01*
X34598999Y4062500D01*
G75*
G02*
X34349000Y4312499I0J249999D01*
G01*
X34349000Y5212501D01*
G75*
G02*
X34598999Y5462500I249999J0D01*
G01*
X35124001Y5462500D01*
G75*
G02*
X35374000Y5212501I0J-249999D01*
G01*
G37*
%TD.AperFunction*%
%TO.P,R11,1*%
%TO.N,/RXI*%
%TA.AperFunction,SMDPad,CuDef*%
G36*
G01*
X37199000Y5212501D02*
X37199000Y4312499D01*
G75*
G02*
X36949001Y4062500I-249999J0D01*
G01*
X36423999Y4062500D01*
G75*
G02*
X36174000Y4312499I0J249999D01*
G01*
X36174000Y5212501D01*
G75*
G02*
X36423999Y5462500I249999J0D01*
G01*
X36949001Y5462500D01*
G75*
G02*
X37199000Y5212501I0J-249999D01*
G01*
G37*
%TD.AperFunction*%
%TD*%
%TO.P,R10,2*%
%TO.N,Net-(R10-Pad2)*%
%TA.AperFunction,SMDPad,CuDef*%
G36*
G01*
X35414000Y3244001D02*
X35414000Y2343999D01*
G75*
G02*
X35164001Y2094000I-249999J0D01*
G01*
X34638999Y2094000D01*
G75*
G02*
X34389000Y2343999I0J249999D01*
G01*
X34389000Y3244001D01*
G75*
G02*
X34638999Y3494000I249999J0D01*
G01*
X35164001Y3494000D01*
G75*
G02*
X35414000Y3244001I0J-249999D01*
G01*
G37*
%TD.AperFunction*%
%TO.P,R10,1*%
%TO.N,/TXO*%
%TA.AperFunction,SMDPad,CuDef*%
G36*
G01*
X37239000Y3244001D02*
X37239000Y2343999D01*
G75*
G02*
X36989001Y2094000I-249999J0D01*
G01*
X36463999Y2094000D01*
G75*
G02*
X36214000Y2343999I0J249999D01*
G01*
X36214000Y3244001D01*
G75*
G02*
X36463999Y3494000I249999J0D01*
G01*
X36989001Y3494000D01*
G75*
G02*
X37239000Y3244001I0J-249999D01*
G01*
G37*
%TD.AperFunction*%
%TD*%
D17*
%TO.P,SW2,6*%
%TO.N,GND*%
X35950000Y21900000D03*
X43550000Y21900000D03*
X43550000Y24100000D03*
X35950000Y24100000D03*
D18*
%TO.P,SW2,1*%
%TO.N,VCC*%
X37500000Y20875000D03*
%TO.P,SW2,2*%
%TO.N,/VProg*%
X39000000Y20875000D03*
%TO.P,SW2,3*%
%TO.N,Net-(SW2-Pad3)*%
X42000000Y20875000D03*
%TD*%
D19*
%TO.P,FID2,*%
%TO.N,*%
X46000000Y23000000D03*
%TD*%
%TO.P,FID1,*%
%TO.N,*%
X2000000Y2000000D03*
%TD*%
D20*
%TO.P,Y1,2*%
%TO.N,Net-(C2-Pad2)*%
X20642000Y3048000D03*
%TO.P,Y1,1*%
%TO.N,Net-(C1-Pad2)*%
X29142000Y3048000D03*
%TD*%
%TO.P,F1,2*%
%TO.N,Net-(F1-Pad2)*%
%TA.AperFunction,SMDPad,CuDef*%
G36*
G01*
X7849999Y16037500D02*
X8650001Y16037500D01*
G75*
G02*
X8900000Y15787501I0J-249999D01*
G01*
X8900000Y14962499D01*
G75*
G02*
X8650001Y14712500I-249999J0D01*
G01*
X7849999Y14712500D01*
G75*
G02*
X7600000Y14962499I0J249999D01*
G01*
X7600000Y15787501D01*
G75*
G02*
X7849999Y16037500I249999J0D01*
G01*
G37*
%TD.AperFunction*%
%TO.P,F1,1*%
%TO.N,VBUS*%
%TA.AperFunction,SMDPad,CuDef*%
G36*
G01*
X7849999Y17962500D02*
X8650001Y17962500D01*
G75*
G02*
X8900000Y17712501I0J-249999D01*
G01*
X8900000Y16887499D01*
G75*
G02*
X8650001Y16637500I-249999J0D01*
G01*
X7849999Y16637500D01*
G75*
G02*
X7600000Y16887499I0J249999D01*
G01*
X7600000Y17712501D01*
G75*
G02*
X7849999Y17962500I249999J0D01*
G01*
G37*
%TD.AperFunction*%
%TD*%
D21*
%TO.P,JP1,2*%
%TO.N,VCC*%
X16723500Y21605000D03*
%TO.P,JP1,1*%
%TO.N,Net-(C3-Pad2)*%
X16723500Y20305000D03*
%TD*%
D22*
%TO.P,U2,1*%
%TO.N,GND*%
X26885500Y22810500D03*
%TO.P,U2,3*%
%TO.N,VBUS*%
X26885500Y18210500D03*
%TO.P,U2,2*%
%TO.N,+3V3*%
X26885500Y20510500D03*
D23*
X33185500Y20510500D03*
%TD*%
D24*
%TO.P,U1,44*%
%TO.N,VCC*%
X14750000Y18200000D03*
%TO.P,U1,43*%
%TO.N,GND*%
X15550000Y18200000D03*
%TO.P,U1,42*%
%TO.N,Net-(C3-Pad2)*%
X16350000Y18200000D03*
%TO.P,U1,41*%
%TO.N,Net-(U1-Pad41)*%
X17150000Y18200000D03*
%TO.P,U1,40*%
%TO.N,Net-(U1-Pad40)*%
X17950000Y18200000D03*
%TO.P,U1,39*%
%TO.N,Net-(U1-Pad39)*%
X18750000Y18200000D03*
%TO.P,U1,38*%
%TO.N,Net-(U1-Pad38)*%
X19550000Y18200000D03*
%TO.P,U1,37*%
%TO.N,Net-(U1-Pad37)*%
X20350000Y18200000D03*
%TO.P,U1,36*%
%TO.N,Net-(U1-Pad36)*%
X21150000Y18200000D03*
%TO.P,U1,35*%
%TO.N,GND*%
X21950000Y18200000D03*
%TO.P,U1,34*%
%TO.N,VCC*%
X22750000Y18200000D03*
D25*
%TO.P,U1,33*%
%TO.N,Net-(JP2-Pad1)*%
X24450000Y16500000D03*
%TO.P,U1,32*%
%TO.N,Net-(R4-Pad2)*%
X24450000Y15700000D03*
%TO.P,U1,31*%
%TO.N,Net-(R6-Pad2)*%
X24450000Y14900000D03*
%TO.P,U1,30*%
%TO.N,Net-(TP2-Pad1)*%
X24450000Y14100000D03*
%TO.P,U1,29*%
%TO.N,/DutClk*%
X24450000Y13300000D03*
%TO.P,U1,28*%
%TO.N,Net-(JP3-Pad1)*%
X24450000Y12500000D03*
%TO.P,U1,27*%
%TO.N,Net-(U1-Pad27)*%
X24450000Y11700000D03*
%TO.P,U1,26*%
%TO.N,Net-(U1-Pad26)*%
X24450000Y10900000D03*
%TO.P,U1,25*%
%TO.N,/DutRst*%
X24450000Y10100000D03*
%TO.P,U1,24*%
%TO.N,VCC*%
X24450000Y9300000D03*
%TO.P,U1,23*%
%TO.N,GND*%
X24450000Y8500000D03*
D24*
%TO.P,U1,22*%
%TO.N,Net-(U1-Pad22)*%
X22750000Y6800000D03*
%TO.P,U1,21*%
%TO.N,Net-(R11-Pad2)*%
X21950000Y6800000D03*
%TO.P,U1,20*%
%TO.N,Net-(R10-Pad2)*%
X21150000Y6800000D03*
%TO.P,U1,19*%
%TO.N,Net-(U1-Pad19)*%
X20350000Y6800000D03*
%TO.P,U1,18*%
%TO.N,Net-(U1-Pad18)*%
X19550000Y6800000D03*
%TO.P,U1,17*%
%TO.N,Net-(C1-Pad2)*%
X18750000Y6800000D03*
%TO.P,U1,16*%
%TO.N,Net-(C2-Pad2)*%
X17950000Y6800000D03*
%TO.P,U1,15*%
%TO.N,GND*%
X17150000Y6800000D03*
%TO.P,U1,14*%
%TO.N,VCC*%
X16350000Y6800000D03*
%TO.P,U1,13*%
%TO.N,/RstP*%
X15550000Y6800000D03*
%TO.P,U1,12*%
%TO.N,Net-(U1-Pad12)*%
X14750000Y6800000D03*
D25*
%TO.P,U1,11*%
%TO.N,/MISO*%
X13050000Y8500000D03*
%TO.P,U1,10*%
%TO.N,/MOSI*%
X13050000Y9300000D03*
%TO.P,U1,9*%
%TO.N,/SCK*%
X13050000Y10100000D03*
%TO.P,U1,8*%
%TO.N,Net-(U1-Pad8)*%
X13050000Y10900000D03*
%TO.P,U1,7*%
%TO.N,VBUS*%
X13050000Y11700000D03*
%TO.P,U1,6*%
%TO.N,Net-(C4-Pad1)*%
X13050000Y12500000D03*
%TO.P,U1,5*%
%TO.N,GND*%
X13050000Y13300000D03*
%TO.P,U1,4*%
%TO.N,Net-(R1-Pad1)*%
X13050000Y14100000D03*
%TO.P,U1,3*%
%TO.N,Net-(R2-Pad1)*%
X13050000Y14900000D03*
%TO.P,U1,2*%
%TO.N,VBUS*%
X13050000Y15700000D03*
%TO.P,U1,1*%
%TO.N,/DutRst*%
X13050000Y16500000D03*
%TD*%
D26*
%TO.P,TP3,1*%
%TO.N,/DutClk*%
X31305500Y12827000D03*
%TD*%
%TO.P,TP2,1*%
%TO.N,Net-(TP2-Pad1)*%
X31305500Y15430500D03*
%TD*%
D17*
%TO.P,SW1,6*%
%TO.N,GND*%
X6200000Y21900000D03*
X13800000Y21900000D03*
X13800000Y24100000D03*
X6200000Y24100000D03*
D18*
%TO.P,SW1,1*%
%TO.N,VBUS*%
X7750000Y20875000D03*
%TO.P,SW1,2*%
%TO.N,VCC*%
X9250000Y20875000D03*
%TO.P,SW1,3*%
%TO.N,+3V3*%
X12250000Y20875000D03*
%TD*%
%TO.P,R9,2*%
%TO.N,/SCK*%
%TA.AperFunction,SMDPad,CuDef*%
G36*
G01*
X33204998Y7918500D02*
X34105002Y7918500D01*
G75*
G02*
X34355000Y7668502I0J-249998D01*
G01*
X34355000Y7143498D01*
G75*
G02*
X34105002Y6893500I-249998J0D01*
G01*
X33204998Y6893500D01*
G75*
G02*
X32955000Y7143498I0J249998D01*
G01*
X32955000Y7668502D01*
G75*
G02*
X33204998Y7918500I249998J0D01*
G01*
G37*
%TD.AperFunction*%
%TO.P,R9,1*%
%TO.N,Net-(J2-Pad3)*%
%TA.AperFunction,SMDPad,CuDef*%
G36*
G01*
X33204998Y9743500D02*
X34105002Y9743500D01*
G75*
G02*
X34355000Y9493502I0J-249998D01*
G01*
X34355000Y8968498D01*
G75*
G02*
X34105002Y8718500I-249998J0D01*
G01*
X33204998Y8718500D01*
G75*
G02*
X32955000Y8968498I0J249998D01*
G01*
X32955000Y9493502D01*
G75*
G02*
X33204998Y9743500I249998J0D01*
G01*
G37*
%TD.AperFunction*%
%TD*%
%TO.P,R8,2*%
%TO.N,/MOSI*%
%TA.AperFunction,SMDPad,CuDef*%
G36*
G01*
X35300498Y7895000D02*
X36200502Y7895000D01*
G75*
G02*
X36450500Y7645002I0J-249998D01*
G01*
X36450500Y7119998D01*
G75*
G02*
X36200502Y6870000I-249998J0D01*
G01*
X35300498Y6870000D01*
G75*
G02*
X35050500Y7119998I0J249998D01*
G01*
X35050500Y7645002D01*
G75*
G02*
X35300498Y7895000I249998J0D01*
G01*
G37*
%TD.AperFunction*%
%TO.P,R8,1*%
%TO.N,Net-(J2-Pad4)*%
%TA.AperFunction,SMDPad,CuDef*%
G36*
G01*
X35300498Y9720000D02*
X36200502Y9720000D01*
G75*
G02*
X36450500Y9470002I0J-249998D01*
G01*
X36450500Y8944998D01*
G75*
G02*
X36200502Y8695000I-249998J0D01*
G01*
X35300498Y8695000D01*
G75*
G02*
X35050500Y8944998I0J249998D01*
G01*
X35050500Y9470002D01*
G75*
G02*
X35300498Y9720000I249998J0D01*
G01*
G37*
%TD.AperFunction*%
%TD*%
%TO.P,R7,2*%
%TO.N,/MISO*%
%TA.AperFunction,SMDPad,CuDef*%
G36*
G01*
X31109498Y7918500D02*
X32009502Y7918500D01*
G75*
G02*
X32259500Y7668502I0J-249998D01*
G01*
X32259500Y7143498D01*
G75*
G02*
X32009502Y6893500I-249998J0D01*
G01*
X31109498Y6893500D01*
G75*
G02*
X30859500Y7143498I0J249998D01*
G01*
X30859500Y7668502D01*
G75*
G02*
X31109498Y7918500I249998J0D01*
G01*
G37*
%TD.AperFunction*%
%TO.P,R7,1*%
%TO.N,Net-(J2-Pad1)*%
%TA.AperFunction,SMDPad,CuDef*%
G36*
G01*
X31109498Y9743500D02*
X32009502Y9743500D01*
G75*
G02*
X32259500Y9493502I0J-249998D01*
G01*
X32259500Y8968498D01*
G75*
G02*
X32009502Y8718500I-249998J0D01*
G01*
X31109498Y8718500D01*
G75*
G02*
X30859500Y8968498I0J249998D01*
G01*
X30859500Y9493502D01*
G75*
G02*
X31109498Y9743500I249998J0D01*
G01*
G37*
%TD.AperFunction*%
%TD*%
%TO.P,R6,2*%
%TO.N,Net-(R6-Pad2)*%
%TA.AperFunction,SMDPad,CuDef*%
G36*
G01*
X38856498Y14776500D02*
X39756502Y14776500D01*
G75*
G02*
X40006500Y14526502I0J-249998D01*
G01*
X40006500Y14001498D01*
G75*
G02*
X39756502Y13751500I-249998J0D01*
G01*
X38856498Y13751500D01*
G75*
G02*
X38606500Y14001498I0J249998D01*
G01*
X38606500Y14526502D01*
G75*
G02*
X38856498Y14776500I249998J0D01*
G01*
G37*
%TD.AperFunction*%
%TO.P,R6,1*%
%TO.N,Net-(D1-Pad1)*%
%TA.AperFunction,SMDPad,CuDef*%
G36*
G01*
X38856498Y16601500D02*
X39756502Y16601500D01*
G75*
G02*
X40006500Y16351502I0J-249998D01*
G01*
X40006500Y15826498D01*
G75*
G02*
X39756502Y15576500I-249998J0D01*
G01*
X38856498Y15576500D01*
G75*
G02*
X38606500Y15826498I0J249998D01*
G01*
X38606500Y16351502D01*
G75*
G02*
X38856498Y16601500I249998J0D01*
G01*
G37*
%TD.AperFunction*%
%TD*%
%TO.P,R5,2*%
%TO.N,Net-(JP2-Pad1)*%
%TA.AperFunction,SMDPad,CuDef*%
G36*
G01*
X36379998Y14800000D02*
X37280002Y14800000D01*
G75*
G02*
X37530000Y14550002I0J-249998D01*
G01*
X37530000Y14024998D01*
G75*
G02*
X37280002Y13775000I-249998J0D01*
G01*
X36379998Y13775000D01*
G75*
G02*
X36130000Y14024998I0J249998D01*
G01*
X36130000Y14550002D01*
G75*
G02*
X36379998Y14800000I249998J0D01*
G01*
G37*
%TD.AperFunction*%
%TO.P,R5,1*%
%TO.N,VCC*%
%TA.AperFunction,SMDPad,CuDef*%
G36*
G01*
X36379998Y16625000D02*
X37280002Y16625000D01*
G75*
G02*
X37530000Y16375002I0J-249998D01*
G01*
X37530000Y15849998D01*
G75*
G02*
X37280002Y15600000I-249998J0D01*
G01*
X36379998Y15600000D01*
G75*
G02*
X36130000Y15849998I0J249998D01*
G01*
X36130000Y16375002D01*
G75*
G02*
X36379998Y16625000I249998J0D01*
G01*
G37*
%TD.AperFunction*%
%TD*%
%TO.P,R4,2*%
%TO.N,Net-(R4-Pad2)*%
%TA.AperFunction,SMDPad,CuDef*%
G36*
G01*
X28326502Y14965000D02*
X27426498Y14965000D01*
G75*
G02*
X27176500Y15214998I0J249998D01*
G01*
X27176500Y15740002D01*
G75*
G02*
X27426498Y15990000I249998J0D01*
G01*
X28326502Y15990000D01*
G75*
G02*
X28576500Y15740002I0J-249998D01*
G01*
X28576500Y15214998D01*
G75*
G02*
X28326502Y14965000I-249998J0D01*
G01*
G37*
%TD.AperFunction*%
%TO.P,R4,1*%
%TO.N,/DutClk*%
%TA.AperFunction,SMDPad,CuDef*%
G36*
G01*
X28326502Y13140000D02*
X27426498Y13140000D01*
G75*
G02*
X27176500Y13389998I0J249998D01*
G01*
X27176500Y13915002D01*
G75*
G02*
X27426498Y14165000I249998J0D01*
G01*
X28326502Y14165000D01*
G75*
G02*
X28576500Y13915002I0J-249998D01*
G01*
X28576500Y13389998D01*
G75*
G02*
X28326502Y13140000I-249998J0D01*
G01*
G37*
%TD.AperFunction*%
%TD*%
%TO.P,R3,2*%
%TO.N,/RstP*%
%TA.AperFunction,SMDPad,CuDef*%
G36*
G01*
X12896002Y3956000D02*
X11995998Y3956000D01*
G75*
G02*
X11746000Y4205998I0J249998D01*
G01*
X11746000Y4731002D01*
G75*
G02*
X11995998Y4981000I249998J0D01*
G01*
X12896002Y4981000D01*
G75*
G02*
X13146000Y4731002I0J-249998D01*
G01*
X13146000Y4205998D01*
G75*
G02*
X12896002Y3956000I-249998J0D01*
G01*
G37*
%TD.AperFunction*%
%TO.P,R3,1*%
%TO.N,VCC*%
%TA.AperFunction,SMDPad,CuDef*%
G36*
G01*
X12896002Y2131000D02*
X11995998Y2131000D01*
G75*
G02*
X11746000Y2380998I0J249998D01*
G01*
X11746000Y2906002D01*
G75*
G02*
X11995998Y3156000I249998J0D01*
G01*
X12896002Y3156000D01*
G75*
G02*
X13146000Y2906002I0J-249998D01*
G01*
X13146000Y2380998D01*
G75*
G02*
X12896002Y2131000I-249998J0D01*
G01*
G37*
%TD.AperFunction*%
%TD*%
%TO.P,R2,2*%
%TO.N,Net-(J1-Pad2)*%
%TA.AperFunction,SMDPad,CuDef*%
G36*
G01*
X7799998Y12187500D02*
X8700002Y12187500D01*
G75*
G02*
X8950000Y11937502I0J-249998D01*
G01*
X8950000Y11412498D01*
G75*
G02*
X8700002Y11162500I-249998J0D01*
G01*
X7799998Y11162500D01*
G75*
G02*
X7550000Y11412498I0J249998D01*
G01*
X7550000Y11937502D01*
G75*
G02*
X7799998Y12187500I249998J0D01*
G01*
G37*
%TD.AperFunction*%
%TO.P,R2,1*%
%TO.N,Net-(R2-Pad1)*%
%TA.AperFunction,SMDPad,CuDef*%
G36*
G01*
X7799998Y14012500D02*
X8700002Y14012500D01*
G75*
G02*
X8950000Y13762502I0J-249998D01*
G01*
X8950000Y13237498D01*
G75*
G02*
X8700002Y12987500I-249998J0D01*
G01*
X7799998Y12987500D01*
G75*
G02*
X7550000Y13237498I0J249998D01*
G01*
X7550000Y13762502D01*
G75*
G02*
X7799998Y14012500I249998J0D01*
G01*
G37*
%TD.AperFunction*%
%TD*%
%TO.P,R1,2*%
%TO.N,Net-(J1-Pad3)*%
%TA.AperFunction,SMDPad,CuDef*%
G36*
G01*
X7799998Y8437500D02*
X8700002Y8437500D01*
G75*
G02*
X8950000Y8187502I0J-249998D01*
G01*
X8950000Y7662498D01*
G75*
G02*
X8700002Y7412500I-249998J0D01*
G01*
X7799998Y7412500D01*
G75*
G02*
X7550000Y7662498I0J249998D01*
G01*
X7550000Y8187502D01*
G75*
G02*
X7799998Y8437500I249998J0D01*
G01*
G37*
%TD.AperFunction*%
%TO.P,R1,1*%
%TO.N,Net-(R1-Pad1)*%
%TA.AperFunction,SMDPad,CuDef*%
G36*
G01*
X7799998Y10262500D02*
X8700002Y10262500D01*
G75*
G02*
X8950000Y10012502I0J-249998D01*
G01*
X8950000Y9487498D01*
G75*
G02*
X8700002Y9237500I-249998J0D01*
G01*
X7799998Y9237500D01*
G75*
G02*
X7550000Y9487498I0J249998D01*
G01*
X7550000Y10012502D01*
G75*
G02*
X7799998Y10262500I249998J0D01*
G01*
G37*
%TD.AperFunction*%
%TD*%
D27*
%TO.P,JPROG1,10*%
%TO.N,GND*%
X4889500Y2667000D03*
%TO.P,JPROG1,9*%
%TO.N,/MISO*%
X4889500Y3937000D03*
%TO.P,JPROG1,8*%
%TO.N,GND*%
X6159500Y2667000D03*
%TO.P,JPROG1,7*%
%TO.N,/SCK*%
X6159500Y3937000D03*
%TO.P,JPROG1,6*%
%TO.N,GND*%
X7429500Y2667000D03*
%TO.P,JPROG1,5*%
%TO.N,/RstP*%
X7429500Y3937000D03*
%TO.P,JPROG1,4*%
%TO.N,GND*%
X8699500Y2667000D03*
%TO.P,JPROG1,3*%
%TO.N,Net-(JPROG1-Pad3)*%
X8699500Y3937000D03*
%TO.P,JPROG1,2*%
%TO.N,VCC*%
X9969500Y2667000D03*
D28*
%TO.P,JPROG1,1*%
%TO.N,/MOSI*%
X9969500Y3937000D03*
%TD*%
D21*
%TO.P,JP3,1*%
%TO.N,Net-(JP3-Pad1)*%
X27876500Y11714000D03*
%TO.P,JP3,2*%
%TO.N,/DutRst*%
X27876500Y10414000D03*
%TD*%
D29*
%TO.P,JP2,1*%
%TO.N,Net-(JP2-Pad1)*%
X36860000Y12128500D03*
%TO.P,JP2,2*%
%TO.N,GND*%
X35560000Y12128500D03*
%TD*%
D15*
%TO.P,J2,6*%
%TO.N,GND*%
X45540000Y10033000D03*
%TO.P,J2,5*%
%TO.N,/DutRst*%
X43000000Y10033000D03*
%TO.P,J2,4*%
%TO.N,Net-(J2-Pad4)*%
X45540000Y12573000D03*
%TO.P,J2,3*%
%TO.N,Net-(J2-Pad3)*%
X43000000Y12573000D03*
%TO.P,J2,2*%
%TO.N,/VProg*%
X45540000Y15113000D03*
D16*
%TO.P,J2,1*%
%TO.N,Net-(J2-Pad1)*%
X43000000Y15113000D03*
%TD*%
%TO.P,D1,2*%
%TO.N,+3V3*%
%TA.AperFunction,SMDPad,CuDef*%
G36*
G01*
X35872000Y18490250D02*
X35872000Y17577750D01*
G75*
G02*
X35628250Y17334000I-243750J0D01*
G01*
X35140750Y17334000D01*
G75*
G02*
X34897000Y17577750I0J243750D01*
G01*
X34897000Y18490250D01*
G75*
G02*
X35140750Y18734000I243750J0D01*
G01*
X35628250Y18734000D01*
G75*
G02*
X35872000Y18490250I0J-243750D01*
G01*
G37*
%TD.AperFunction*%
%TO.P,D1,1*%
%TO.N,Net-(D1-Pad1)*%
%TA.AperFunction,SMDPad,CuDef*%
G36*
G01*
X37747000Y18490250D02*
X37747000Y17577750D01*
G75*
G02*
X37503250Y17334000I-243750J0D01*
G01*
X37015750Y17334000D01*
G75*
G02*
X36772000Y17577750I0J243750D01*
G01*
X36772000Y18490250D01*
G75*
G02*
X37015750Y18734000I243750J0D01*
G01*
X37503250Y18734000D01*
G75*
G02*
X37747000Y18490250I0J-243750D01*
G01*
G37*
%TD.AperFunction*%
%TD*%
%TO.P,C8,2*%
%TO.N,GND*%
%TA.AperFunction,SMDPad,CuDef*%
G36*
G01*
X24475000Y21721000D02*
X23525000Y21721000D01*
G75*
G02*
X23275000Y21971000I0J250000D01*
G01*
X23275000Y22471000D01*
G75*
G02*
X23525000Y22721000I250000J0D01*
G01*
X24475000Y22721000D01*
G75*
G02*
X24725000Y22471000I0J-250000D01*
G01*
X24725000Y21971000D01*
G75*
G02*
X24475000Y21721000I-250000J0D01*
G01*
G37*
%TD.AperFunction*%
%TO.P,C8,1*%
%TO.N,+3V3*%
%TA.AperFunction,SMDPad,CuDef*%
G36*
G01*
X24475000Y19821000D02*
X23525000Y19821000D01*
G75*
G02*
X23275000Y20071000I0J250000D01*
G01*
X23275000Y20571000D01*
G75*
G02*
X23525000Y20821000I250000J0D01*
G01*
X24475000Y20821000D01*
G75*
G02*
X24725000Y20571000I0J-250000D01*
G01*
X24725000Y20071000D01*
G75*
G02*
X24475000Y19821000I-250000J0D01*
G01*
G37*
%TD.AperFunction*%
%TD*%
%TO.P,C7,2*%
%TO.N,GND*%
%TA.AperFunction,SMDPad,CuDef*%
G36*
G01*
X22069000Y21716000D02*
X21119000Y21716000D01*
G75*
G02*
X20869000Y21966000I0J250000D01*
G01*
X20869000Y22466000D01*
G75*
G02*
X21119000Y22716000I250000J0D01*
G01*
X22069000Y22716000D01*
G75*
G02*
X22319000Y22466000I0J-250000D01*
G01*
X22319000Y21966000D01*
G75*
G02*
X22069000Y21716000I-250000J0D01*
G01*
G37*
%TD.AperFunction*%
%TO.P,C7,1*%
%TO.N,VBUS*%
%TA.AperFunction,SMDPad,CuDef*%
G36*
G01*
X22069000Y19816000D02*
X21119000Y19816000D01*
G75*
G02*
X20869000Y20066000I0J250000D01*
G01*
X20869000Y20566000D01*
G75*
G02*
X21119000Y20816000I250000J0D01*
G01*
X22069000Y20816000D01*
G75*
G02*
X22319000Y20566000I0J-250000D01*
G01*
X22319000Y20066000D01*
G75*
G02*
X22069000Y19816000I-250000J0D01*
G01*
G37*
%TD.AperFunction*%
%TD*%
%TO.P,C6,2*%
%TO.N,VCC*%
%TA.AperFunction,SMDPad,CuDef*%
G36*
G01*
X27871000Y8793500D02*
X27871000Y7843500D01*
G75*
G02*
X27621000Y7593500I-250000J0D01*
G01*
X27121000Y7593500D01*
G75*
G02*
X26871000Y7843500I0J250000D01*
G01*
X26871000Y8793500D01*
G75*
G02*
X27121000Y9043500I250000J0D01*
G01*
X27621000Y9043500D01*
G75*
G02*
X27871000Y8793500I0J-250000D01*
G01*
G37*
%TD.AperFunction*%
%TO.P,C6,1*%
%TO.N,GND*%
%TA.AperFunction,SMDPad,CuDef*%
G36*
G01*
X29771000Y8793500D02*
X29771000Y7843500D01*
G75*
G02*
X29521000Y7593500I-250000J0D01*
G01*
X29021000Y7593500D01*
G75*
G02*
X28771000Y7843500I0J250000D01*
G01*
X28771000Y8793500D01*
G75*
G02*
X29021000Y9043500I250000J0D01*
G01*
X29521000Y9043500D01*
G75*
G02*
X29771000Y8793500I0J-250000D01*
G01*
G37*
%TD.AperFunction*%
%TD*%
%TO.P,C5,2*%
%TO.N,VCC*%
%TA.AperFunction,SMDPad,CuDef*%
G36*
G01*
X15016500Y4006000D02*
X14066500Y4006000D01*
G75*
G02*
X13816500Y4256000I0J250000D01*
G01*
X13816500Y4756000D01*
G75*
G02*
X14066500Y5006000I250000J0D01*
G01*
X15016500Y5006000D01*
G75*
G02*
X15266500Y4756000I0J-250000D01*
G01*
X15266500Y4256000D01*
G75*
G02*
X15016500Y4006000I-250000J0D01*
G01*
G37*
%TD.AperFunction*%
%TO.P,C5,1*%
%TO.N,GND*%
%TA.AperFunction,SMDPad,CuDef*%
G36*
G01*
X15016500Y2106000D02*
X14066500Y2106000D01*
G75*
G02*
X13816500Y2356000I0J250000D01*
G01*
X13816500Y2856000D01*
G75*
G02*
X14066500Y3106000I250000J0D01*
G01*
X15016500Y3106000D01*
G75*
G02*
X15266500Y2856000I0J-250000D01*
G01*
X15266500Y2356000D01*
G75*
G02*
X15016500Y2106000I-250000J0D01*
G01*
G37*
%TD.AperFunction*%
%TD*%
%TO.P,C4,2*%
%TO.N,GND*%
%TA.AperFunction,SMDPad,CuDef*%
G36*
G01*
X10275000Y11000000D02*
X11225000Y11000000D01*
G75*
G02*
X11475000Y10750000I0J-250000D01*
G01*
X11475000Y10250000D01*
G75*
G02*
X11225000Y10000000I-250000J0D01*
G01*
X10275000Y10000000D01*
G75*
G02*
X10025000Y10250000I0J250000D01*
G01*
X10025000Y10750000D01*
G75*
G02*
X10275000Y11000000I250000J0D01*
G01*
G37*
%TD.AperFunction*%
%TO.P,C4,1*%
%TO.N,Net-(C4-Pad1)*%
%TA.AperFunction,SMDPad,CuDef*%
G36*
G01*
X10275000Y12900000D02*
X11225000Y12900000D01*
G75*
G02*
X11475000Y12650000I0J-250000D01*
G01*
X11475000Y12150000D01*
G75*
G02*
X11225000Y11900000I-250000J0D01*
G01*
X10275000Y11900000D01*
G75*
G02*
X10025000Y12150000I0J250000D01*
G01*
X10025000Y12650000D01*
G75*
G02*
X10275000Y12900000I250000J0D01*
G01*
G37*
%TD.AperFunction*%
%TD*%
%TO.P,C3,2*%
%TO.N,Net-(C3-Pad2)*%
%TA.AperFunction,SMDPad,CuDef*%
G36*
G01*
X18702000Y20821000D02*
X19652000Y20821000D01*
G75*
G02*
X19902000Y20571000I0J-250000D01*
G01*
X19902000Y20071000D01*
G75*
G02*
X19652000Y19821000I-250000J0D01*
G01*
X18702000Y19821000D01*
G75*
G02*
X18452000Y20071000I0J250000D01*
G01*
X18452000Y20571000D01*
G75*
G02*
X18702000Y20821000I250000J0D01*
G01*
G37*
%TD.AperFunction*%
%TO.P,C3,1*%
%TO.N,GND*%
%TA.AperFunction,SMDPad,CuDef*%
G36*
G01*
X18702000Y22721000D02*
X19652000Y22721000D01*
G75*
G02*
X19902000Y22471000I0J-250000D01*
G01*
X19902000Y21971000D01*
G75*
G02*
X19652000Y21721000I-250000J0D01*
G01*
X18702000Y21721000D01*
G75*
G02*
X18452000Y21971000I0J250000D01*
G01*
X18452000Y22471000D01*
G75*
G02*
X18702000Y22721000I250000J0D01*
G01*
G37*
%TD.AperFunction*%
%TD*%
%TO.P,C2,2*%
%TO.N,Net-(C2-Pad2)*%
%TA.AperFunction,SMDPad,CuDef*%
G36*
G01*
X17366000Y4003500D02*
X16416000Y4003500D01*
G75*
G02*
X16166000Y4253500I0J250000D01*
G01*
X16166000Y4753500D01*
G75*
G02*
X16416000Y5003500I250000J0D01*
G01*
X17366000Y5003500D01*
G75*
G02*
X17616000Y4753500I0J-250000D01*
G01*
X17616000Y4253500D01*
G75*
G02*
X17366000Y4003500I-250000J0D01*
G01*
G37*
%TD.AperFunction*%
%TO.P,C2,1*%
%TO.N,GND*%
%TA.AperFunction,SMDPad,CuDef*%
G36*
G01*
X17366000Y2103500D02*
X16416000Y2103500D01*
G75*
G02*
X16166000Y2353500I0J250000D01*
G01*
X16166000Y2853500D01*
G75*
G02*
X16416000Y3103500I250000J0D01*
G01*
X17366000Y3103500D01*
G75*
G02*
X17616000Y2853500I0J-250000D01*
G01*
X17616000Y2353500D01*
G75*
G02*
X17366000Y2103500I-250000J0D01*
G01*
G37*
%TD.AperFunction*%
%TD*%
%TO.P,C1,2*%
%TO.N,Net-(C1-Pad2)*%
%TA.AperFunction,SMDPad,CuDef*%
G36*
G01*
X32545000Y3446400D02*
X33495000Y3446400D01*
G75*
G02*
X33745000Y3196400I0J-250000D01*
G01*
X33745000Y2696400D01*
G75*
G02*
X33495000Y2446400I-250000J0D01*
G01*
X32545000Y2446400D01*
G75*
G02*
X32295000Y2696400I0J250000D01*
G01*
X32295000Y3196400D01*
G75*
G02*
X32545000Y3446400I250000J0D01*
G01*
G37*
%TD.AperFunction*%
%TO.P,C1,1*%
%TO.N,GND*%
%TA.AperFunction,SMDPad,CuDef*%
G36*
G01*
X32545000Y5346400D02*
X33495000Y5346400D01*
G75*
G02*
X33745000Y5096400I0J-250000D01*
G01*
X33745000Y4596400D01*
G75*
G02*
X33495000Y4346400I-250000J0D01*
G01*
X32545000Y4346400D01*
G75*
G02*
X32295000Y4596400I0J250000D01*
G01*
X32295000Y5096400D01*
G75*
G02*
X32545000Y5346400I250000J0D01*
G01*
G37*
%TD.AperFunction*%
%TD*%
D30*
%TO.N,GND*%
X1000000Y12500000D03*
X1000000Y8500000D03*
X1000000Y16500000D03*
X6500000Y17500000D03*
X5500000Y17500000D03*
X4500000Y17500000D03*
X1000000Y17500000D03*
X1000000Y15500000D03*
X1000000Y9500000D03*
X1000000Y7500000D03*
X6500000Y7500000D03*
X5500000Y7500000D03*
X4500000Y7500000D03*
X10985500Y13589000D03*
X15684500Y1524000D03*
X10160000Y9017000D03*
X17438386Y8127781D03*
X25865835Y8489407D03*
X29567062Y9737790D03*
X33909562Y11817461D03*
X31236067Y5000411D03*
X10000000Y23000000D03*
X39750000Y23000000D03*
X15502400Y19433411D03*
X18073502Y21500000D03*
X20750000Y23500000D03*
X25000000Y23250000D03*
%TO.N,VCC*%
X16256000Y8213790D03*
X16383000Y10350500D03*
X22225000Y13208000D03*
X29591000Y11874500D03*
%TO.N,/DutRst*%
X22987000Y10922000D03*
X19812000Y10985500D03*
X37338000Y9721269D03*
X34388764Y10757140D03*
%TO.N,Net-(JP2-Pad1)*%
X27940000Y16764000D03*
X33718500Y15430500D03*
%TO.N,/MISO*%
X7493000Y6413500D03*
X10858500Y6731000D03*
X21399500Y8445500D03*
X25273000Y7429500D03*
%TO.N,/RstP*%
X9080500Y5715000D03*
X10858500Y5651500D03*
%TO.N,Net-(R6-Pad2)*%
X35407600Y15138400D03*
X26365200Y14782800D03*
%TD*%
D31*
%TO.N,Net-(C1-Pad2)*%
X18732500Y6095338D02*
X18732500Y6794500D01*
X20065669Y4762169D02*
X18732500Y6095338D01*
X24447500Y2921000D02*
X22606331Y4762169D01*
X22606331Y4762169D02*
X20065669Y4762169D01*
X29146500Y2921000D02*
X24447500Y2921000D01*
X33020000Y3109000D02*
X29271000Y3109000D01*
X29271000Y3109000D02*
X29083000Y2921000D01*
D32*
%TO.N,GND*%
X13050000Y13300000D02*
X11274500Y13300000D01*
X11274500Y13300000D02*
X10985500Y13589000D01*
D31*
X14605000Y2603500D02*
X14478000Y2603500D01*
X15684500Y2603500D02*
X14605000Y2603500D01*
X15684500Y1524000D02*
X15684500Y2603500D01*
X16891000Y2603500D02*
X15684500Y2603500D01*
X10750000Y9607000D02*
X10160000Y9017000D01*
X10750000Y10500000D02*
X10750000Y9607000D01*
D33*
X17150000Y7839395D02*
X17438386Y8127781D01*
X17150000Y6800000D02*
X17150000Y7839395D01*
X25855242Y8500000D02*
X25865835Y8489407D01*
X24450000Y8500000D02*
X25855242Y8500000D01*
D31*
X29271000Y8318500D02*
X29271000Y9441728D01*
X29271000Y9441728D02*
X29567062Y9737790D01*
X34220601Y12128500D02*
X33909562Y11817461D01*
X35560000Y12128500D02*
X34220601Y12128500D01*
X31390078Y4846400D02*
X31236067Y5000411D01*
X33020000Y4846400D02*
X31390078Y4846400D01*
D33*
X15550000Y18200000D02*
X15550000Y19385811D01*
X15550000Y19385811D02*
X15502400Y19433411D01*
X18794502Y22221000D02*
X18073502Y21500000D01*
X19177000Y22221000D02*
X18794502Y22221000D01*
X21594000Y22216000D02*
X21594000Y22656000D01*
X21594000Y22656000D02*
X20750000Y23500000D01*
X24000000Y22221000D02*
X24971000Y22221000D01*
X24971000Y22221000D02*
X25500000Y22750000D01*
X25500000Y22750000D02*
X26750000Y22750000D01*
X25500000Y22750000D02*
X25000000Y23250000D01*
X19824940Y21250000D02*
X19500000Y21250000D01*
X19500000Y21250000D02*
X19250000Y21500000D01*
X21030659Y19302401D02*
X20500000Y19833060D01*
X20500000Y20574940D02*
X19824940Y21250000D01*
X20500000Y19833060D02*
X20500000Y20574940D01*
X19250000Y21500000D02*
X19250000Y22250000D01*
X21706921Y19302401D02*
X21030659Y19302401D01*
X21950000Y19059322D02*
X21706921Y19302401D01*
X21950000Y18200000D02*
X21950000Y19059322D01*
D31*
%TO.N,Net-(C2-Pad2)*%
X18554000Y2909000D02*
X20672000Y2909000D01*
X16954500Y4508500D02*
X18554000Y2909000D01*
X17950000Y5504000D02*
X16954500Y4508500D01*
X17950000Y6800000D02*
X17950000Y5504000D01*
D33*
%TO.N,Net-(C3-Pad2)*%
X16723500Y20305000D02*
X16723500Y20276500D01*
X16350000Y18200000D02*
X16350000Y19350000D01*
X16350000Y19350000D02*
X16350000Y19850000D01*
X16350000Y19850000D02*
X16750000Y20250000D01*
X19177000Y20321000D02*
X16821000Y20321000D01*
X16821000Y20321000D02*
X16750000Y20250000D01*
D32*
%TO.N,Net-(C4-Pad1)*%
X13050000Y12500000D02*
X11000000Y12500000D01*
D33*
%TO.N,VCC*%
X14750000Y17145200D02*
X15004200Y16891000D01*
X14750000Y18200000D02*
X14750000Y17145200D01*
X15004200Y16891000D02*
X22300322Y16891000D01*
X22300322Y16891000D02*
X22733000Y17323678D01*
X22733000Y17323678D02*
X22733000Y18224500D01*
D31*
X9969500Y2667000D02*
X12382500Y2667000D01*
X12446000Y2643500D02*
X12676500Y2643500D01*
X12676500Y2643500D02*
X12915662Y2643500D01*
X12676500Y2643500D02*
X14541500Y4508500D01*
X14541500Y4506000D02*
X14793000Y4506000D01*
D33*
X23524446Y9271000D02*
X23619678Y9271000D01*
X22234599Y10560847D02*
X23524446Y9271000D01*
X22300322Y16891000D02*
X22234599Y16825277D01*
X22234599Y16825277D02*
X22234599Y13198401D01*
X22234599Y13198401D02*
X22225000Y13208000D01*
X16350000Y6800000D02*
X16350000Y8119790D01*
D31*
X16350000Y8119790D02*
X16256000Y8213790D01*
D33*
X22234599Y10560847D02*
X22234599Y10550599D01*
X22234599Y10550599D02*
X21780500Y10096500D01*
X16637000Y10096500D02*
X16383000Y10350500D01*
X21780500Y10096500D02*
X16637000Y10096500D01*
X23524446Y9271000D02*
X24447500Y9271000D01*
X26355000Y9334500D02*
X27371000Y8318500D01*
X24447500Y9334500D02*
X26355000Y9334500D01*
X36712599Y16182901D02*
X36830000Y16065500D01*
X31584555Y11474501D02*
X32966099Y12856045D01*
X33357347Y16182901D02*
X36712599Y16182901D01*
X29591000Y11874500D02*
X29990999Y11474501D01*
X32966099Y12856045D02*
X32966099Y15791653D01*
X32966099Y15791653D02*
X33357347Y16182901D01*
X29990999Y11474501D02*
X31584555Y11474501D01*
X22225000Y13208000D02*
X22234599Y10560847D01*
D31*
X16350000Y6800000D02*
X16350000Y5682000D01*
X14986000Y4445000D02*
X14859000Y4572000D01*
X16350000Y5682000D02*
X15113000Y4445000D01*
X14859000Y4572000D02*
X14668500Y4572000D01*
X14668500Y4572000D02*
X14541500Y4445000D01*
X15113000Y4445000D02*
X14986000Y4445000D01*
D32*
X36446990Y19821990D02*
X36446990Y17142990D01*
X37500000Y20875000D02*
X36446990Y19821990D01*
X36446990Y17142990D02*
X36830000Y16759980D01*
X36830000Y16759980D02*
X36830000Y16103600D01*
D33*
X9250000Y20875000D02*
X11875000Y18250000D01*
X11875000Y18250000D02*
X14750000Y18250000D01*
X15668700Y21605000D02*
X16723500Y21605000D01*
X14750000Y18200000D02*
X14750000Y19937858D01*
X15562023Y21498323D02*
X15668700Y21605000D01*
X14750000Y19937858D02*
X15562023Y20749881D01*
X15562023Y20749881D02*
X15562023Y21498323D01*
%TO.N,VBUS*%
X12300000Y15700000D02*
X9800000Y15700000D01*
X9800000Y15700000D02*
X8250000Y17250000D01*
X14050000Y15700000D02*
X14250000Y15500000D01*
X13050000Y11700000D02*
X14050000Y11700000D01*
X14050000Y11700000D02*
X14250000Y11900000D01*
X14250000Y11900000D02*
X14250000Y15500000D01*
X13050000Y15700000D02*
X14050000Y15700000D01*
X8250000Y17300000D02*
X8250000Y18250000D01*
X8250000Y18250000D02*
X7750000Y18750000D01*
X7750000Y18750000D02*
X7750000Y20750000D01*
D32*
X21344000Y20066000D02*
X21434000Y20066000D01*
D33*
X23841901Y19408099D02*
X25000000Y18250000D01*
X25000000Y18250000D02*
X27000000Y18250000D01*
X22408099Y19408099D02*
X23841901Y19408099D01*
X22591901Y19408099D02*
X22408099Y19408099D01*
X19901530Y23073410D02*
X20254410Y22720530D01*
X7797601Y21852401D02*
X9897599Y21852401D01*
X10750000Y20665678D02*
X11665678Y19750000D01*
X9897599Y21852401D02*
X10750000Y21000000D01*
X16323410Y23073410D02*
X19901530Y23073410D01*
X7750000Y21804800D02*
X7797601Y21852401D01*
X10750000Y21000000D02*
X10750000Y20665678D01*
X11665678Y19750000D02*
X13848232Y19750000D01*
X13848232Y19750000D02*
X15057212Y20958980D01*
X15057212Y20958980D02*
X15057212Y21807212D01*
X7750000Y20875000D02*
X7750000Y21804800D01*
X15057212Y21807212D02*
X16323410Y23073410D01*
X20254410Y21561788D02*
X22408099Y19408099D01*
X20254410Y22720530D02*
X20254410Y21561788D01*
%TO.N,+3V3*%
X26821000Y20321000D02*
X27000000Y20500000D01*
X14552401Y21168079D02*
X14259322Y20875000D01*
X14259322Y20875000D02*
X12250000Y20875000D01*
X19886444Y23750000D02*
X16000000Y23750000D01*
X16000000Y23750000D02*
X14552401Y22302401D01*
X25580700Y19455700D02*
X24794300Y19455700D01*
X20388846Y24252402D02*
X19886444Y23750000D01*
X14552401Y22302401D02*
X14552401Y21168079D01*
X24794300Y19455700D02*
X22750000Y21500000D01*
X21134538Y24252402D02*
X20388846Y24252402D01*
X26635500Y20510500D02*
X25580700Y19455700D01*
X26885500Y20510500D02*
X26635500Y20510500D01*
X22750000Y22636940D02*
X21134538Y24252402D01*
X22750000Y21500000D02*
X22750000Y22636940D01*
X33185500Y20510500D02*
X26760500Y20510500D01*
X33185500Y20510500D02*
X33185500Y20064500D01*
X35384500Y19365500D02*
X35384500Y18034000D01*
X34239500Y20510500D02*
X35384500Y19365500D01*
X33185500Y20510500D02*
X34239500Y20510500D01*
D32*
%TO.N,Net-(D1-Pad1)*%
X39306500Y16089000D02*
X39181400Y16089000D01*
X39181400Y16089000D02*
X37236400Y18034000D01*
D33*
%TO.N,Net-(F1-Pad2)*%
X5500000Y13800000D02*
X6550000Y13800000D01*
X6550000Y13800000D02*
X8250000Y15500000D01*
D32*
%TO.N,Net-(J1-Pad2)*%
X6736410Y13150000D02*
X8136410Y11750000D01*
X5500000Y13150000D02*
X6736410Y13150000D01*
%TO.N,Net-(J1-Pad3)*%
X7224990Y8950010D02*
X7224990Y12025010D01*
X8250000Y7925000D02*
X7224990Y8950010D01*
X7224990Y12025010D02*
X6750000Y12500000D01*
X6750000Y12500000D02*
X5500000Y12500000D01*
D31*
%TO.N,/DutRst*%
X24450000Y10100000D02*
X27626000Y10100000D01*
X27626000Y10100000D02*
X27876500Y10350500D01*
X13952400Y16500000D02*
X19466900Y10985500D01*
X23364500Y10100000D02*
X22987000Y10477500D01*
X22987000Y10477500D02*
X22987000Y10922000D01*
X24450000Y10100000D02*
X23364500Y10100000D01*
X19466900Y10985500D02*
X19812000Y10985500D01*
X13050000Y16500000D02*
X13952400Y16500000D01*
X37649731Y10033000D02*
X37338000Y9721269D01*
X43000000Y10033000D02*
X37649731Y10033000D01*
X34045624Y10414000D02*
X34388764Y10757140D01*
X27876500Y10414000D02*
X34045624Y10414000D01*
%TO.N,Net-(J2-Pad4)*%
X36940479Y10397479D02*
X41697701Y10397479D01*
X35750500Y9207500D02*
X36940479Y10397479D01*
X41697701Y10397479D02*
X42747021Y11446799D01*
X42747021Y11446799D02*
X44466799Y11446799D01*
X44466799Y11446799D02*
X45593000Y12573000D01*
%TO.N,Net-(J2-Pad3)*%
X34317324Y9231000D02*
X35836212Y10749888D01*
X35836212Y10749888D02*
X41356890Y10749890D01*
X41356890Y10749890D02*
X43116500Y12509500D01*
X33655000Y9231000D02*
X34317324Y9231000D01*
D33*
%TO.N,/VProg*%
X45540000Y15113000D02*
X39774200Y20878800D01*
X39774200Y20878800D02*
X38963600Y20878800D01*
D31*
%TO.N,Net-(J2-Pad1)*%
X32371099Y10042599D02*
X34630539Y10042599D01*
X38978799Y11102299D02*
X42989500Y15113000D01*
X34630539Y10042599D02*
X35690239Y11102299D01*
X35690239Y11102299D02*
X38978799Y11102299D01*
X31559500Y9231000D02*
X32371099Y10042599D01*
%TO.N,Net-(JP2-Pad1)*%
X34861500Y14287500D02*
X33718500Y15430500D01*
X36830000Y14287500D02*
X34861500Y14287500D01*
X26035000Y16510000D02*
X24447500Y16510000D01*
X26289000Y16764000D02*
X26035000Y16510000D01*
X27940000Y16764000D02*
X26289000Y16764000D01*
X36860000Y12128500D02*
X36860000Y14194000D01*
X36860000Y14194000D02*
X36830000Y14224000D01*
%TO.N,Net-(JP3-Pad1)*%
X27876500Y11714000D02*
X26640000Y11714000D01*
X26640000Y11714000D02*
X25908000Y12446000D01*
X25908000Y12446000D02*
X24511000Y12446000D01*
%TO.N,/MISO*%
X4889500Y3937000D02*
X7429500Y6477000D01*
X7429500Y6477000D02*
X7493000Y6413500D01*
X12065000Y8509000D02*
X13017500Y8509000D01*
X10858500Y7302500D02*
X12065000Y8509000D01*
X10858500Y6731000D02*
X10858500Y7302500D01*
X25609499Y7093001D02*
X25273000Y7429500D01*
X20955000Y8890000D02*
X21399500Y8445500D01*
X15436720Y8500000D02*
X15826720Y8890000D01*
X13050000Y8500000D02*
X15436720Y8500000D01*
X15826720Y8890000D02*
X20955000Y8890000D01*
X31257800Y7058202D02*
X31286501Y7029501D01*
X25273000Y7429500D02*
X25644298Y7058202D01*
X25644298Y7058202D02*
X31257800Y7058202D01*
%TO.N,/SCK*%
X6159500Y3937000D02*
X12319000Y10096500D01*
X12319000Y10096500D02*
X13081000Y10096500D01*
X30891534Y6617290D02*
X32842790Y6617290D01*
X14982500Y10100000D02*
X15430500Y9652000D01*
X13050000Y10100000D02*
X14982500Y10100000D01*
X15430500Y9652000D02*
X21834384Y9652000D01*
X21834384Y9652000D02*
X24780592Y6705792D01*
X32842790Y6617290D02*
X33591500Y7366000D01*
X24780592Y6705792D02*
X30803033Y6705791D01*
X30803033Y6705791D02*
X30891534Y6617290D01*
%TO.N,/RstP*%
X15550000Y6800000D02*
X15550000Y5834500D01*
X15550000Y5834500D02*
X15240000Y5524500D01*
X15240000Y5524500D02*
X13525500Y5524500D01*
X13525500Y5524500D02*
X12509500Y4508500D01*
X7429500Y3937000D02*
X9017000Y5524500D01*
X9017000Y5651500D02*
X9080500Y5715000D01*
X9017000Y5524500D02*
X9017000Y5651500D01*
X10858500Y5651500D02*
X12001500Y4508500D01*
X12001500Y4508500D02*
X12382500Y4508500D01*
%TO.N,/MOSI*%
X9969500Y6941662D02*
X9969500Y3937000D01*
X12327838Y9300000D02*
X9969500Y6941662D01*
X13050000Y9300000D02*
X12327838Y9300000D01*
X34585879Y6264879D02*
X35623500Y7302500D01*
X30657059Y6353381D02*
X30745561Y6264879D01*
X15284527Y9299589D02*
X21688411Y9299589D01*
X24634619Y6353381D02*
X30657059Y6353381D01*
X21688411Y9299589D02*
X24634619Y6353381D01*
X30745561Y6264879D02*
X34585879Y6264879D01*
X15284116Y9300000D02*
X15284527Y9299589D01*
X13050000Y9300000D02*
X15284116Y9300000D01*
D32*
%TO.N,Net-(R1-Pad1)*%
X13050000Y14100000D02*
X11547504Y14100000D01*
X9500000Y11000000D02*
X8250000Y9750000D01*
X11547504Y14100000D02*
X11333502Y14314002D01*
X11333502Y14314002D02*
X10529917Y14314002D01*
X10529917Y14314002D02*
X9500000Y13284085D01*
X9500000Y13284085D02*
X9500000Y11000000D01*
%TO.N,Net-(R2-Pad1)*%
X12300000Y14900000D02*
X9650000Y14900000D01*
X9650000Y14900000D02*
X8250000Y13500000D01*
D31*
%TO.N,Net-(R4-Pad2)*%
X24450000Y15700000D02*
X27670500Y15700000D01*
%TO.N,/DutClk*%
X31305500Y12827000D02*
X30480000Y13652500D01*
X30480000Y13652500D02*
X27876500Y13652500D01*
X27876500Y13652500D02*
X26422500Y13652500D01*
X26422500Y13652500D02*
X26070000Y13300000D01*
X24450000Y13300000D02*
X26070000Y13300000D01*
%TO.N,Net-(R6-Pad2)*%
X38432100Y15138400D02*
X35407600Y15138400D01*
X39306500Y14264000D02*
X38432100Y15138400D01*
X26248000Y14900000D02*
X26365200Y14782800D01*
X24450000Y14900000D02*
X26248000Y14900000D01*
%TO.N,Net-(TP2-Pad1)*%
X29754790Y14441210D02*
X29818290Y14441210D01*
X29754790Y14441210D02*
X30316210Y14441210D01*
X30316210Y14441210D02*
X31305500Y15430500D01*
X27208534Y14441210D02*
X29008012Y14441210D01*
X29008012Y14441210D02*
X29754790Y14441210D01*
X26867324Y14100000D02*
X27208534Y14441210D01*
X24450000Y14100000D02*
X26867324Y14100000D01*
%TO.N,Net-(R10-Pad2)*%
X23611345Y4324201D02*
X22652346Y5283200D01*
X33834700Y3860800D02*
X32076362Y3860800D01*
X21590000Y5283200D02*
X21132800Y5740400D01*
X34901500Y2794000D02*
X33834700Y3860800D01*
X21132800Y5740400D02*
X21132800Y6095038D01*
X32076362Y3860800D02*
X31612961Y4324201D01*
X22652346Y5283200D02*
X21590000Y5283200D01*
X31612961Y4324201D02*
X23611345Y4324201D01*
%TO.N,/TXO*%
X40496201Y5555423D02*
X40496201Y7458999D01*
X39622979Y4682201D02*
X40496201Y5555423D01*
X38614701Y4682201D02*
X39622979Y4682201D01*
X36726500Y2794000D02*
X38614701Y4682201D01*
X39370000Y8585200D02*
X40496201Y7458999D01*
X39370000Y8636000D02*
X39370000Y8585200D01*
%TO.N,Net-(R11-Pad2)*%
X31785580Y5689600D02*
X33985200Y5689600D01*
X21950000Y6800000D02*
X21950000Y5888800D01*
X31104820Y5689600D02*
X31120622Y5705402D01*
X22149200Y5689600D02*
X31104820Y5689600D01*
X31120622Y5705402D02*
X31769778Y5705402D01*
X34036000Y5638800D02*
X34848800Y4826000D01*
X21950000Y5888800D02*
X22149200Y5689600D01*
X31769778Y5705402D02*
X31785580Y5689600D01*
X33985200Y5689600D02*
X34036000Y5638800D01*
%TO.N,/RXI*%
X36686500Y4762500D02*
X37985700Y4762500D01*
X37985700Y4762500D02*
X39319200Y6096000D01*
%TD*%
%TO.N,GND*%
X6923800Y14856300D02*
X6399298Y14331797D01*
X5363598Y14331797D01*
X5385200Y14440393D01*
X5385200Y14559607D01*
X5363281Y14669800D01*
X5487302Y14669800D01*
X5487302Y14752348D01*
X5569850Y14669800D01*
X6009500Y14668202D01*
X6074231Y14674577D01*
X6136474Y14693459D01*
X6193837Y14724120D01*
X6244117Y14765383D01*
X6285380Y14815663D01*
X6316041Y14873026D01*
X6334923Y14935269D01*
X6341298Y15000000D01*
X6339700Y15489650D01*
X6257150Y15572200D01*
X5487300Y15572200D01*
X5487300Y15552200D01*
X5131700Y15552200D01*
X5131700Y15572200D01*
X4361850Y15572200D01*
X4279300Y15489650D01*
X4277702Y15000000D01*
X4284077Y14935269D01*
X4302466Y14874650D01*
X4243679Y14786670D01*
X4198058Y14676530D01*
X4174800Y14559607D01*
X4174800Y14440393D01*
X4198058Y14323470D01*
X4243679Y14213330D01*
X4296981Y14133560D01*
X4293460Y14126973D01*
X4274578Y14064730D01*
X4268203Y14000000D01*
X4268203Y13600000D01*
X4274578Y13535270D01*
X4292861Y13475000D01*
X4274578Y13414730D01*
X4268203Y13350000D01*
X4268203Y12950000D01*
X4274578Y12885270D01*
X4292861Y12825000D01*
X4274578Y12764730D01*
X4268203Y12700000D01*
X4268203Y12300000D01*
X4274578Y12235270D01*
X4292861Y12175000D01*
X4274578Y12114730D01*
X4268203Y12050000D01*
X4268203Y11650000D01*
X4274578Y11585270D01*
X4292907Y11524850D01*
X4274772Y11465700D01*
X4269800Y11406350D01*
X4352350Y11323800D01*
X4543170Y11323800D01*
X4600000Y11318203D01*
X6400000Y11318203D01*
X6456830Y11323800D01*
X6647650Y11323800D01*
X6730200Y11406350D01*
X6725228Y11465700D01*
X6707093Y11524850D01*
X6725422Y11585270D01*
X6731797Y11650000D01*
X6731797Y11874453D01*
X6769791Y11836459D01*
X6769790Y8972359D01*
X6767589Y8950010D01*
X6769790Y8927661D01*
X6769790Y8927654D01*
X6776377Y8860776D01*
X6802406Y8774971D01*
X6844674Y8695892D01*
X6901558Y8626578D01*
X6918929Y8612322D01*
X6923800Y8607451D01*
X6923800Y7076200D01*
X576200Y7076200D01*
X576200Y7750000D01*
X1548202Y7750000D01*
X1554577Y7685269D01*
X1573459Y7623026D01*
X1604120Y7565663D01*
X1645383Y7515383D01*
X1695663Y7474120D01*
X1753026Y7443459D01*
X1815269Y7424577D01*
X1880000Y7418202D01*
X2369650Y7419800D01*
X2452200Y7502350D01*
X2452200Y8247200D01*
X2807800Y8247200D01*
X2807800Y7502350D01*
X2890350Y7419800D01*
X3380000Y7418202D01*
X3444731Y7424577D01*
X3506974Y7443459D01*
X3564337Y7474120D01*
X3614617Y7515383D01*
X3655880Y7565663D01*
X3686541Y7623026D01*
X3705423Y7685269D01*
X3711798Y7750000D01*
X3710200Y8164650D01*
X3627650Y8247200D01*
X2807800Y8247200D01*
X2452200Y8247200D01*
X1632350Y8247200D01*
X1549800Y8164650D01*
X1548202Y7750000D01*
X576200Y7750000D01*
X576200Y8500000D01*
X4277702Y8500000D01*
X4284077Y8435269D01*
X4302959Y8373026D01*
X4333620Y8315663D01*
X4374883Y8265383D01*
X4425163Y8224120D01*
X4482526Y8193459D01*
X4544769Y8174577D01*
X4609500Y8168202D01*
X5049150Y8169800D01*
X5131700Y8252350D01*
X5131700Y9072200D01*
X5487300Y9072200D01*
X5487300Y8252350D01*
X5569850Y8169800D01*
X6009500Y8168202D01*
X6074231Y8174577D01*
X6136474Y8193459D01*
X6193837Y8224120D01*
X6244117Y8265383D01*
X6285380Y8315663D01*
X6316041Y8373026D01*
X6334923Y8435269D01*
X6341298Y8500000D01*
X6339700Y8989650D01*
X6257150Y9072200D01*
X5487300Y9072200D01*
X5131700Y9072200D01*
X4361850Y9072200D01*
X4279300Y8989650D01*
X4277702Y8500000D01*
X576200Y8500000D01*
X576200Y9100000D01*
X1548202Y9100000D01*
X1549800Y8685350D01*
X1632350Y8602800D01*
X2452200Y8602800D01*
X2452200Y9347650D01*
X2807800Y9347650D01*
X2807800Y8602800D01*
X3627650Y8602800D01*
X3710200Y8685350D01*
X3711798Y9100000D01*
X3705423Y9164731D01*
X3686541Y9226974D01*
X3655880Y9284337D01*
X3614617Y9334617D01*
X3564337Y9375880D01*
X3506974Y9406541D01*
X3444731Y9425423D01*
X3380000Y9431798D01*
X2890350Y9430200D01*
X2807800Y9347650D01*
X2452200Y9347650D01*
X2369650Y9430200D01*
X1880000Y9431798D01*
X1815269Y9425423D01*
X1753026Y9406541D01*
X1695663Y9375880D01*
X1645383Y9334617D01*
X1604120Y9284337D01*
X1573459Y9226974D01*
X1554577Y9164731D01*
X1548202Y9100000D01*
X576200Y9100000D01*
X576200Y10500000D01*
X577702Y10500000D01*
X584077Y10435269D01*
X602959Y10373026D01*
X633620Y10315663D01*
X674883Y10265383D01*
X725163Y10224120D01*
X782526Y10193459D01*
X844769Y10174577D01*
X909500Y10168202D01*
X1199150Y10169800D01*
X1281700Y10252350D01*
X1281700Y10822200D01*
X1637300Y10822200D01*
X1637300Y10252350D01*
X1719850Y10169800D01*
X2009500Y10168202D01*
X2074231Y10174577D01*
X2136474Y10193459D01*
X2193837Y10224120D01*
X2244117Y10265383D01*
X2285380Y10315663D01*
X2316041Y10373026D01*
X2334923Y10435269D01*
X2341298Y10500000D01*
X2340901Y10559607D01*
X4174800Y10559607D01*
X4174800Y10440393D01*
X4198058Y10323470D01*
X4243679Y10213330D01*
X4302466Y10125350D01*
X4284077Y10064731D01*
X4277702Y10000000D01*
X4279300Y9510350D01*
X4361850Y9427800D01*
X5131700Y9427800D01*
X5131700Y9447800D01*
X5487300Y9447800D01*
X5487300Y9427800D01*
X6257150Y9427800D01*
X6339700Y9510350D01*
X6341298Y10000000D01*
X6334923Y10064731D01*
X6316041Y10126974D01*
X6285380Y10184337D01*
X6244117Y10234617D01*
X6193837Y10275880D01*
X6136474Y10306541D01*
X6074231Y10325423D01*
X6009500Y10331798D01*
X5569850Y10330200D01*
X5487302Y10247652D01*
X5487302Y10330200D01*
X5363281Y10330200D01*
X5385200Y10440393D01*
X5385200Y10559607D01*
X5361942Y10676530D01*
X5322200Y10772477D01*
X5322200Y11076200D01*
X5677800Y11076200D01*
X5677800Y10752350D01*
X5760350Y10669800D01*
X6399011Y10668203D01*
X6463760Y10674386D01*
X6526059Y10693081D01*
X6583514Y10723572D01*
X6633916Y10764685D01*
X6675329Y10814841D01*
X6706162Y10872113D01*
X6725228Y10934300D01*
X6730200Y10993650D01*
X6647650Y11076200D01*
X5677800Y11076200D01*
X5322200Y11076200D01*
X4970393Y11076200D01*
X4956530Y11081942D01*
X4839607Y11105200D01*
X4720393Y11105200D01*
X4603470Y11081942D01*
X4589607Y11076200D01*
X4352350Y11076200D01*
X4269800Y10993650D01*
X4274772Y10934300D01*
X4293838Y10872113D01*
X4296931Y10866367D01*
X4243679Y10786670D01*
X4198058Y10676530D01*
X4174800Y10559607D01*
X2340901Y10559607D01*
X2339700Y10739650D01*
X2257150Y10822200D01*
X1637300Y10822200D01*
X1281700Y10822200D01*
X661850Y10822200D01*
X579300Y10739650D01*
X577702Y10500000D01*
X576200Y10500000D01*
X576200Y11500000D01*
X577702Y11500000D01*
X579300Y11260350D01*
X661850Y11177800D01*
X1281700Y11177800D01*
X1281700Y11747650D01*
X1637300Y11747650D01*
X1637300Y11177800D01*
X2257150Y11177800D01*
X2339700Y11260350D01*
X2341298Y11500000D01*
X2334923Y11564731D01*
X2316041Y11626974D01*
X2285380Y11684337D01*
X2244117Y11734617D01*
X2193837Y11775880D01*
X2136474Y11806541D01*
X2074231Y11825423D01*
X2009500Y11831798D01*
X1719850Y11830200D01*
X1637300Y11747650D01*
X1281700Y11747650D01*
X1199150Y11830200D01*
X909500Y11831798D01*
X844769Y11825423D01*
X782526Y11806541D01*
X725163Y11775880D01*
X674883Y11734617D01*
X633620Y11684337D01*
X602959Y11626974D01*
X584077Y11564731D01*
X577702Y11500000D01*
X576200Y11500000D01*
X576200Y13500000D01*
X577702Y13500000D01*
X584077Y13435269D01*
X602959Y13373026D01*
X633620Y13315663D01*
X674883Y13265383D01*
X725163Y13224120D01*
X782526Y13193459D01*
X844769Y13174577D01*
X909500Y13168202D01*
X1199150Y13169800D01*
X1281700Y13252350D01*
X1281700Y13822200D01*
X1637300Y13822200D01*
X1637300Y13252350D01*
X1719850Y13169800D01*
X2009500Y13168202D01*
X2074231Y13174577D01*
X2136474Y13193459D01*
X2193837Y13224120D01*
X2244117Y13265383D01*
X2285380Y13315663D01*
X2316041Y13373026D01*
X2334923Y13435269D01*
X2341298Y13500000D01*
X2339700Y13739650D01*
X2257150Y13822200D01*
X1637300Y13822200D01*
X1281700Y13822200D01*
X661850Y13822200D01*
X579300Y13739650D01*
X577702Y13500000D01*
X576200Y13500000D01*
X576200Y14500000D01*
X577702Y14500000D01*
X579300Y14260350D01*
X661850Y14177800D01*
X1281700Y14177800D01*
X1281700Y14747650D01*
X1637300Y14747650D01*
X1637300Y14177800D01*
X2257150Y14177800D01*
X2339700Y14260350D01*
X2341298Y14500000D01*
X2334923Y14564731D01*
X2316041Y14626974D01*
X2285380Y14684337D01*
X2244117Y14734617D01*
X2193837Y14775880D01*
X2136474Y14806541D01*
X2074231Y14825423D01*
X2009500Y14831798D01*
X1719850Y14830200D01*
X1637300Y14747650D01*
X1281700Y14747650D01*
X1199150Y14830200D01*
X909500Y14831798D01*
X844769Y14825423D01*
X782526Y14806541D01*
X725163Y14775880D01*
X674883Y14734617D01*
X633620Y14684337D01*
X602959Y14626974D01*
X584077Y14564731D01*
X577702Y14500000D01*
X576200Y14500000D01*
X576200Y15900000D01*
X1548202Y15900000D01*
X1554577Y15835269D01*
X1573459Y15773026D01*
X1604120Y15715663D01*
X1645383Y15665383D01*
X1695663Y15624120D01*
X1753026Y15593459D01*
X1815269Y15574577D01*
X1880000Y15568202D01*
X2369650Y15569800D01*
X2452200Y15652350D01*
X2452200Y16397200D01*
X2807800Y16397200D01*
X2807800Y15652350D01*
X2890350Y15569800D01*
X3380000Y15568202D01*
X3444731Y15574577D01*
X3506974Y15593459D01*
X3564337Y15624120D01*
X3614617Y15665383D01*
X3655880Y15715663D01*
X3686541Y15773026D01*
X3705423Y15835269D01*
X3711798Y15900000D01*
X3710200Y16314650D01*
X3627650Y16397200D01*
X2807800Y16397200D01*
X2452200Y16397200D01*
X1632350Y16397200D01*
X1549800Y16314650D01*
X1548202Y15900000D01*
X576200Y15900000D01*
X576200Y16500000D01*
X4277702Y16500000D01*
X4279300Y16010350D01*
X4361850Y15927800D01*
X5131700Y15927800D01*
X5131700Y16747650D01*
X5487300Y16747650D01*
X5487300Y15927800D01*
X6257150Y15927800D01*
X6339700Y16010350D01*
X6341298Y16500000D01*
X6334923Y16564731D01*
X6316041Y16626974D01*
X6285380Y16684337D01*
X6244117Y16734617D01*
X6193837Y16775880D01*
X6136474Y16806541D01*
X6074231Y16825423D01*
X6009500Y16831798D01*
X5569850Y16830200D01*
X5487300Y16747650D01*
X5131700Y16747650D01*
X5049150Y16830200D01*
X4609500Y16831798D01*
X4544769Y16825423D01*
X4482526Y16806541D01*
X4425163Y16775880D01*
X4374883Y16734617D01*
X4333620Y16684337D01*
X4302959Y16626974D01*
X4284077Y16564731D01*
X4277702Y16500000D01*
X576200Y16500000D01*
X576200Y17250000D01*
X1548202Y17250000D01*
X1549800Y16835350D01*
X1632350Y16752800D01*
X2452200Y16752800D01*
X2452200Y17497650D01*
X2807800Y17497650D01*
X2807800Y16752800D01*
X3627650Y16752800D01*
X3710200Y16835350D01*
X3711798Y17250000D01*
X3705423Y17314731D01*
X3686541Y17376974D01*
X3655880Y17434337D01*
X3614617Y17484617D01*
X3564337Y17525880D01*
X3506974Y17556541D01*
X3444731Y17575423D01*
X3380000Y17581798D01*
X2890350Y17580200D01*
X2807800Y17497650D01*
X2452200Y17497650D01*
X2369650Y17580200D01*
X1880000Y17581798D01*
X1815269Y17575423D01*
X1753026Y17556541D01*
X1695663Y17525880D01*
X1645383Y17484617D01*
X1604120Y17434337D01*
X1573459Y17376974D01*
X1554577Y17314731D01*
X1548202Y17250000D01*
X576200Y17250000D01*
X576200Y17923800D01*
X6923800Y17923800D01*
X6923800Y14856300D01*
%TA.AperFunction,Conductor*%
D34*
G36*
X6923800Y14856300D02*
G01*
X6399298Y14331797D01*
X5363598Y14331797D01*
X5385200Y14440393D01*
X5385200Y14559607D01*
X5363281Y14669800D01*
X5487302Y14669800D01*
X5487302Y14752348D01*
X5569850Y14669800D01*
X6009500Y14668202D01*
X6074231Y14674577D01*
X6136474Y14693459D01*
X6193837Y14724120D01*
X6244117Y14765383D01*
X6285380Y14815663D01*
X6316041Y14873026D01*
X6334923Y14935269D01*
X6341298Y15000000D01*
X6339700Y15489650D01*
X6257150Y15572200D01*
X5487300Y15572200D01*
X5487300Y15552200D01*
X5131700Y15552200D01*
X5131700Y15572200D01*
X4361850Y15572200D01*
X4279300Y15489650D01*
X4277702Y15000000D01*
X4284077Y14935269D01*
X4302466Y14874650D01*
X4243679Y14786670D01*
X4198058Y14676530D01*
X4174800Y14559607D01*
X4174800Y14440393D01*
X4198058Y14323470D01*
X4243679Y14213330D01*
X4296981Y14133560D01*
X4293460Y14126973D01*
X4274578Y14064730D01*
X4268203Y14000000D01*
X4268203Y13600000D01*
X4274578Y13535270D01*
X4292861Y13475000D01*
X4274578Y13414730D01*
X4268203Y13350000D01*
X4268203Y12950000D01*
X4274578Y12885270D01*
X4292861Y12825000D01*
X4274578Y12764730D01*
X4268203Y12700000D01*
X4268203Y12300000D01*
X4274578Y12235270D01*
X4292861Y12175000D01*
X4274578Y12114730D01*
X4268203Y12050000D01*
X4268203Y11650000D01*
X4274578Y11585270D01*
X4292907Y11524850D01*
X4274772Y11465700D01*
X4269800Y11406350D01*
X4352350Y11323800D01*
X4543170Y11323800D01*
X4600000Y11318203D01*
X6400000Y11318203D01*
X6456830Y11323800D01*
X6647650Y11323800D01*
X6730200Y11406350D01*
X6725228Y11465700D01*
X6707093Y11524850D01*
X6725422Y11585270D01*
X6731797Y11650000D01*
X6731797Y11874453D01*
X6769791Y11836459D01*
X6769790Y8972359D01*
X6767589Y8950010D01*
X6769790Y8927661D01*
X6769790Y8927654D01*
X6776377Y8860776D01*
X6802406Y8774971D01*
X6844674Y8695892D01*
X6901558Y8626578D01*
X6918929Y8612322D01*
X6923800Y8607451D01*
X6923800Y7076200D01*
X576200Y7076200D01*
X576200Y7750000D01*
X1548202Y7750000D01*
X1554577Y7685269D01*
X1573459Y7623026D01*
X1604120Y7565663D01*
X1645383Y7515383D01*
X1695663Y7474120D01*
X1753026Y7443459D01*
X1815269Y7424577D01*
X1880000Y7418202D01*
X2369650Y7419800D01*
X2452200Y7502350D01*
X2452200Y8247200D01*
X2807800Y8247200D01*
X2807800Y7502350D01*
X2890350Y7419800D01*
X3380000Y7418202D01*
X3444731Y7424577D01*
X3506974Y7443459D01*
X3564337Y7474120D01*
X3614617Y7515383D01*
X3655880Y7565663D01*
X3686541Y7623026D01*
X3705423Y7685269D01*
X3711798Y7750000D01*
X3710200Y8164650D01*
X3627650Y8247200D01*
X2807800Y8247200D01*
X2452200Y8247200D01*
X1632350Y8247200D01*
X1549800Y8164650D01*
X1548202Y7750000D01*
X576200Y7750000D01*
X576200Y8500000D01*
X4277702Y8500000D01*
X4284077Y8435269D01*
X4302959Y8373026D01*
X4333620Y8315663D01*
X4374883Y8265383D01*
X4425163Y8224120D01*
X4482526Y8193459D01*
X4544769Y8174577D01*
X4609500Y8168202D01*
X5049150Y8169800D01*
X5131700Y8252350D01*
X5131700Y9072200D01*
X5487300Y9072200D01*
X5487300Y8252350D01*
X5569850Y8169800D01*
X6009500Y8168202D01*
X6074231Y8174577D01*
X6136474Y8193459D01*
X6193837Y8224120D01*
X6244117Y8265383D01*
X6285380Y8315663D01*
X6316041Y8373026D01*
X6334923Y8435269D01*
X6341298Y8500000D01*
X6339700Y8989650D01*
X6257150Y9072200D01*
X5487300Y9072200D01*
X5131700Y9072200D01*
X4361850Y9072200D01*
X4279300Y8989650D01*
X4277702Y8500000D01*
X576200Y8500000D01*
X576200Y9100000D01*
X1548202Y9100000D01*
X1549800Y8685350D01*
X1632350Y8602800D01*
X2452200Y8602800D01*
X2452200Y9347650D01*
X2807800Y9347650D01*
X2807800Y8602800D01*
X3627650Y8602800D01*
X3710200Y8685350D01*
X3711798Y9100000D01*
X3705423Y9164731D01*
X3686541Y9226974D01*
X3655880Y9284337D01*
X3614617Y9334617D01*
X3564337Y9375880D01*
X3506974Y9406541D01*
X3444731Y9425423D01*
X3380000Y9431798D01*
X2890350Y9430200D01*
X2807800Y9347650D01*
X2452200Y9347650D01*
X2369650Y9430200D01*
X1880000Y9431798D01*
X1815269Y9425423D01*
X1753026Y9406541D01*
X1695663Y9375880D01*
X1645383Y9334617D01*
X1604120Y9284337D01*
X1573459Y9226974D01*
X1554577Y9164731D01*
X1548202Y9100000D01*
X576200Y9100000D01*
X576200Y10500000D01*
X577702Y10500000D01*
X584077Y10435269D01*
X602959Y10373026D01*
X633620Y10315663D01*
X674883Y10265383D01*
X725163Y10224120D01*
X782526Y10193459D01*
X844769Y10174577D01*
X909500Y10168202D01*
X1199150Y10169800D01*
X1281700Y10252350D01*
X1281700Y10822200D01*
X1637300Y10822200D01*
X1637300Y10252350D01*
X1719850Y10169800D01*
X2009500Y10168202D01*
X2074231Y10174577D01*
X2136474Y10193459D01*
X2193837Y10224120D01*
X2244117Y10265383D01*
X2285380Y10315663D01*
X2316041Y10373026D01*
X2334923Y10435269D01*
X2341298Y10500000D01*
X2340901Y10559607D01*
X4174800Y10559607D01*
X4174800Y10440393D01*
X4198058Y10323470D01*
X4243679Y10213330D01*
X4302466Y10125350D01*
X4284077Y10064731D01*
X4277702Y10000000D01*
X4279300Y9510350D01*
X4361850Y9427800D01*
X5131700Y9427800D01*
X5131700Y9447800D01*
X5487300Y9447800D01*
X5487300Y9427800D01*
X6257150Y9427800D01*
X6339700Y9510350D01*
X6341298Y10000000D01*
X6334923Y10064731D01*
X6316041Y10126974D01*
X6285380Y10184337D01*
X6244117Y10234617D01*
X6193837Y10275880D01*
X6136474Y10306541D01*
X6074231Y10325423D01*
X6009500Y10331798D01*
X5569850Y10330200D01*
X5487302Y10247652D01*
X5487302Y10330200D01*
X5363281Y10330200D01*
X5385200Y10440393D01*
X5385200Y10559607D01*
X5361942Y10676530D01*
X5322200Y10772477D01*
X5322200Y11076200D01*
X5677800Y11076200D01*
X5677800Y10752350D01*
X5760350Y10669800D01*
X6399011Y10668203D01*
X6463760Y10674386D01*
X6526059Y10693081D01*
X6583514Y10723572D01*
X6633916Y10764685D01*
X6675329Y10814841D01*
X6706162Y10872113D01*
X6725228Y10934300D01*
X6730200Y10993650D01*
X6647650Y11076200D01*
X5677800Y11076200D01*
X5322200Y11076200D01*
X4970393Y11076200D01*
X4956530Y11081942D01*
X4839607Y11105200D01*
X4720393Y11105200D01*
X4603470Y11081942D01*
X4589607Y11076200D01*
X4352350Y11076200D01*
X4269800Y10993650D01*
X4274772Y10934300D01*
X4293838Y10872113D01*
X4296931Y10866367D01*
X4243679Y10786670D01*
X4198058Y10676530D01*
X4174800Y10559607D01*
X2340901Y10559607D01*
X2339700Y10739650D01*
X2257150Y10822200D01*
X1637300Y10822200D01*
X1281700Y10822200D01*
X661850Y10822200D01*
X579300Y10739650D01*
X577702Y10500000D01*
X576200Y10500000D01*
X576200Y11500000D01*
X577702Y11500000D01*
X579300Y11260350D01*
X661850Y11177800D01*
X1281700Y11177800D01*
X1281700Y11747650D01*
X1637300Y11747650D01*
X1637300Y11177800D01*
X2257150Y11177800D01*
X2339700Y11260350D01*
X2341298Y11500000D01*
X2334923Y11564731D01*
X2316041Y11626974D01*
X2285380Y11684337D01*
X2244117Y11734617D01*
X2193837Y11775880D01*
X2136474Y11806541D01*
X2074231Y11825423D01*
X2009500Y11831798D01*
X1719850Y11830200D01*
X1637300Y11747650D01*
X1281700Y11747650D01*
X1199150Y11830200D01*
X909500Y11831798D01*
X844769Y11825423D01*
X782526Y11806541D01*
X725163Y11775880D01*
X674883Y11734617D01*
X633620Y11684337D01*
X602959Y11626974D01*
X584077Y11564731D01*
X577702Y11500000D01*
X576200Y11500000D01*
X576200Y13500000D01*
X577702Y13500000D01*
X584077Y13435269D01*
X602959Y13373026D01*
X633620Y13315663D01*
X674883Y13265383D01*
X725163Y13224120D01*
X782526Y13193459D01*
X844769Y13174577D01*
X909500Y13168202D01*
X1199150Y13169800D01*
X1281700Y13252350D01*
X1281700Y13822200D01*
X1637300Y13822200D01*
X1637300Y13252350D01*
X1719850Y13169800D01*
X2009500Y13168202D01*
X2074231Y13174577D01*
X2136474Y13193459D01*
X2193837Y13224120D01*
X2244117Y13265383D01*
X2285380Y13315663D01*
X2316041Y13373026D01*
X2334923Y13435269D01*
X2341298Y13500000D01*
X2339700Y13739650D01*
X2257150Y13822200D01*
X1637300Y13822200D01*
X1281700Y13822200D01*
X661850Y13822200D01*
X579300Y13739650D01*
X577702Y13500000D01*
X576200Y13500000D01*
X576200Y14500000D01*
X577702Y14500000D01*
X579300Y14260350D01*
X661850Y14177800D01*
X1281700Y14177800D01*
X1281700Y14747650D01*
X1637300Y14747650D01*
X1637300Y14177800D01*
X2257150Y14177800D01*
X2339700Y14260350D01*
X2341298Y14500000D01*
X2334923Y14564731D01*
X2316041Y14626974D01*
X2285380Y14684337D01*
X2244117Y14734617D01*
X2193837Y14775880D01*
X2136474Y14806541D01*
X2074231Y14825423D01*
X2009500Y14831798D01*
X1719850Y14830200D01*
X1637300Y14747650D01*
X1281700Y14747650D01*
X1199150Y14830200D01*
X909500Y14831798D01*
X844769Y14825423D01*
X782526Y14806541D01*
X725163Y14775880D01*
X674883Y14734617D01*
X633620Y14684337D01*
X602959Y14626974D01*
X584077Y14564731D01*
X577702Y14500000D01*
X576200Y14500000D01*
X576200Y15900000D01*
X1548202Y15900000D01*
X1554577Y15835269D01*
X1573459Y15773026D01*
X1604120Y15715663D01*
X1645383Y15665383D01*
X1695663Y15624120D01*
X1753026Y15593459D01*
X1815269Y15574577D01*
X1880000Y15568202D01*
X2369650Y15569800D01*
X2452200Y15652350D01*
X2452200Y16397200D01*
X2807800Y16397200D01*
X2807800Y15652350D01*
X2890350Y15569800D01*
X3380000Y15568202D01*
X3444731Y15574577D01*
X3506974Y15593459D01*
X3564337Y15624120D01*
X3614617Y15665383D01*
X3655880Y15715663D01*
X3686541Y15773026D01*
X3705423Y15835269D01*
X3711798Y15900000D01*
X3710200Y16314650D01*
X3627650Y16397200D01*
X2807800Y16397200D01*
X2452200Y16397200D01*
X1632350Y16397200D01*
X1549800Y16314650D01*
X1548202Y15900000D01*
X576200Y15900000D01*
X576200Y16500000D01*
X4277702Y16500000D01*
X4279300Y16010350D01*
X4361850Y15927800D01*
X5131700Y15927800D01*
X5131700Y16747650D01*
X5487300Y16747650D01*
X5487300Y15927800D01*
X6257150Y15927800D01*
X6339700Y16010350D01*
X6341298Y16500000D01*
X6334923Y16564731D01*
X6316041Y16626974D01*
X6285380Y16684337D01*
X6244117Y16734617D01*
X6193837Y16775880D01*
X6136474Y16806541D01*
X6074231Y16825423D01*
X6009500Y16831798D01*
X5569850Y16830200D01*
X5487300Y16747650D01*
X5131700Y16747650D01*
X5049150Y16830200D01*
X4609500Y16831798D01*
X4544769Y16825423D01*
X4482526Y16806541D01*
X4425163Y16775880D01*
X4374883Y16734617D01*
X4333620Y16684337D01*
X4302959Y16626974D01*
X4284077Y16564731D01*
X4277702Y16500000D01*
X576200Y16500000D01*
X576200Y17250000D01*
X1548202Y17250000D01*
X1549800Y16835350D01*
X1632350Y16752800D01*
X2452200Y16752800D01*
X2452200Y17497650D01*
X2807800Y17497650D01*
X2807800Y16752800D01*
X3627650Y16752800D01*
X3710200Y16835350D01*
X3711798Y17250000D01*
X3705423Y17314731D01*
X3686541Y17376974D01*
X3655880Y17434337D01*
X3614617Y17484617D01*
X3564337Y17525880D01*
X3506974Y17556541D01*
X3444731Y17575423D01*
X3380000Y17581798D01*
X2890350Y17580200D01*
X2807800Y17497650D01*
X2452200Y17497650D01*
X2369650Y17580200D01*
X1880000Y17581798D01*
X1815269Y17575423D01*
X1753026Y17556541D01*
X1695663Y17525880D01*
X1645383Y17484617D01*
X1604120Y17434337D01*
X1573459Y17376974D01*
X1554577Y17314731D01*
X1548202Y17250000D01*
X576200Y17250000D01*
X576200Y17923800D01*
X6923800Y17923800D01*
X6923800Y14856300D01*
G37*
%TD.AperFunction*%
%TD*%
D31*
%TO.N,GND*%
X5219505Y24637331D02*
X5215800Y24619850D01*
X5361850Y24473800D01*
X5876200Y24473800D01*
X5876200Y24543800D01*
X6523800Y24543800D01*
X6523800Y24473800D01*
X7038150Y24473800D01*
X7184200Y24619850D01*
X7180495Y24637331D01*
X7152935Y24746400D01*
X12847065Y24746400D01*
X12819505Y24637331D01*
X12815800Y24619850D01*
X12961850Y24473800D01*
X13476200Y24473800D01*
X13476200Y24543800D01*
X14123800Y24543800D01*
X14123800Y24473800D01*
X14638150Y24473800D01*
X14784200Y24619850D01*
X14780495Y24637331D01*
X14752935Y24746400D01*
X14923800Y24746400D01*
X14923800Y23279932D01*
X14496967Y22853099D01*
X14449893Y22881182D01*
X14341463Y22919727D01*
X14269850Y22934200D01*
X14123800Y22788150D01*
X14123800Y22323439D01*
X14121728Y22302401D01*
X14123800Y22281363D01*
X14123800Y22273800D01*
X14123801Y22273800D01*
X14123802Y21526200D01*
X14123800Y21526200D01*
X14123800Y21456200D01*
X13476200Y21456200D01*
X13476200Y21526200D01*
X12974955Y21526200D01*
X12972203Y21554145D01*
X12956410Y21606208D01*
X12930763Y21654191D01*
X12896248Y21696248D01*
X12854191Y21730763D01*
X12806208Y21756410D01*
X12754145Y21772203D01*
X12700000Y21777536D01*
X11800000Y21777536D01*
X11745855Y21772203D01*
X11693792Y21756410D01*
X11645809Y21730763D01*
X11603752Y21696248D01*
X11569237Y21654191D01*
X11543590Y21606208D01*
X11527797Y21554145D01*
X11522464Y21500000D01*
X11522464Y20499345D01*
X11178600Y20843209D01*
X11178600Y20978955D01*
X11180673Y21000001D01*
X11176438Y21043000D01*
X11172398Y21084020D01*
X11147890Y21164811D01*
X11108092Y21239269D01*
X11054532Y21304532D01*
X11038182Y21317950D01*
X10215554Y22140577D01*
X10202131Y22156933D01*
X10136868Y22210493D01*
X10062410Y22250291D01*
X9981619Y22274799D01*
X9918647Y22281001D01*
X9897599Y22283074D01*
X9876551Y22281001D01*
X8607727Y22281001D01*
X8711825Y22301707D01*
X8843985Y22356450D01*
X8962926Y22435923D01*
X9064077Y22537074D01*
X9143550Y22656015D01*
X9198293Y22788175D01*
X9226200Y22928476D01*
X9226200Y23071524D01*
X10773800Y23071524D01*
X10773800Y22928476D01*
X10801707Y22788175D01*
X10856450Y22656015D01*
X10935923Y22537074D01*
X11037074Y22435923D01*
X11156015Y22356450D01*
X11288175Y22301707D01*
X11428476Y22273800D01*
X11571524Y22273800D01*
X11711825Y22301707D01*
X11843985Y22356450D01*
X11938870Y22419850D01*
X12815800Y22419850D01*
X12961850Y22273800D01*
X13476200Y22273800D01*
X13476200Y22788150D01*
X13330150Y22934200D01*
X13258537Y22919727D01*
X13150107Y22881182D01*
X13051280Y22822224D01*
X12965855Y22745118D01*
X12897113Y22652829D01*
X12847697Y22548901D01*
X12819505Y22437331D01*
X12815800Y22419850D01*
X11938870Y22419850D01*
X11962926Y22435923D01*
X12064077Y22537074D01*
X12143550Y22656015D01*
X12198293Y22788175D01*
X12226200Y22928476D01*
X12226200Y23071524D01*
X12198293Y23211825D01*
X12143550Y23343985D01*
X12064077Y23462926D01*
X11962926Y23564077D01*
X11938871Y23580150D01*
X12815800Y23580150D01*
X12819505Y23562669D01*
X12847697Y23451099D01*
X12897113Y23347171D01*
X12965855Y23254882D01*
X13051280Y23177776D01*
X13150107Y23118818D01*
X13258537Y23080273D01*
X13330150Y23065800D01*
X13476200Y23211850D01*
X13476200Y23726200D01*
X14123800Y23726200D01*
X14123800Y23211850D01*
X14269850Y23065800D01*
X14341463Y23080273D01*
X14449893Y23118818D01*
X14548720Y23177776D01*
X14634145Y23254882D01*
X14702887Y23347171D01*
X14752303Y23451099D01*
X14780495Y23562669D01*
X14784200Y23580150D01*
X14638150Y23726200D01*
X14123800Y23726200D01*
X13476200Y23726200D01*
X12961850Y23726200D01*
X12815800Y23580150D01*
X11938871Y23580150D01*
X11843985Y23643550D01*
X11711825Y23698293D01*
X11571524Y23726200D01*
X11428476Y23726200D01*
X11288175Y23698293D01*
X11156015Y23643550D01*
X11037074Y23564077D01*
X10935923Y23462926D01*
X10856450Y23343985D01*
X10801707Y23211825D01*
X10773800Y23071524D01*
X9226200Y23071524D01*
X9198293Y23211825D01*
X9143550Y23343985D01*
X9064077Y23462926D01*
X8962926Y23564077D01*
X8843985Y23643550D01*
X8711825Y23698293D01*
X8571524Y23726200D01*
X8428476Y23726200D01*
X8288175Y23698293D01*
X8156015Y23643550D01*
X8037074Y23564077D01*
X7935923Y23462926D01*
X7856450Y23343985D01*
X7801707Y23211825D01*
X7773800Y23071524D01*
X7773800Y22928476D01*
X7801707Y22788175D01*
X7856450Y22656015D01*
X7935923Y22537074D01*
X8037074Y22435923D01*
X8156015Y22356450D01*
X8288175Y22301707D01*
X8392273Y22281001D01*
X7818649Y22281001D01*
X7797601Y22283074D01*
X7776553Y22281001D01*
X7713581Y22274799D01*
X7632790Y22250291D01*
X7558332Y22210493D01*
X7493069Y22156933D01*
X7479646Y22140577D01*
X7461820Y22122751D01*
X7445469Y22109332D01*
X7432051Y22092982D01*
X7391909Y22044069D01*
X7352111Y21969611D01*
X7327602Y21888820D01*
X7319327Y21804800D01*
X7321401Y21783742D01*
X7321401Y21777536D01*
X7300000Y21777536D01*
X7245855Y21772203D01*
X7193792Y21756410D01*
X7145809Y21730763D01*
X7103752Y21696248D01*
X7069237Y21654191D01*
X7043590Y21606208D01*
X7027797Y21554145D01*
X7025045Y21526200D01*
X6523800Y21526200D01*
X6523800Y21011850D01*
X6669850Y20865800D01*
X6741463Y20880273D01*
X6849893Y20918818D01*
X6948720Y20977776D01*
X7022464Y21044339D01*
X7022464Y20250000D01*
X7027797Y20195855D01*
X7043590Y20143792D01*
X7069237Y20095809D01*
X7085330Y20076200D01*
X5076200Y20076200D01*
X5076200Y21380150D01*
X5215800Y21380150D01*
X5219505Y21362669D01*
X5247697Y21251099D01*
X5297113Y21147171D01*
X5365855Y21054882D01*
X5451280Y20977776D01*
X5550107Y20918818D01*
X5658537Y20880273D01*
X5730150Y20865800D01*
X5876200Y21011850D01*
X5876200Y21526200D01*
X5361850Y21526200D01*
X5215800Y21380150D01*
X5076200Y21380150D01*
X5076200Y22419850D01*
X5215800Y22419850D01*
X5361850Y22273800D01*
X5876200Y22273800D01*
X5876200Y22788150D01*
X6523800Y22788150D01*
X6523800Y22273800D01*
X7038150Y22273800D01*
X7184200Y22419850D01*
X7180495Y22437331D01*
X7152303Y22548901D01*
X7102887Y22652829D01*
X7034145Y22745118D01*
X6948720Y22822224D01*
X6849893Y22881182D01*
X6741463Y22919727D01*
X6669850Y22934200D01*
X6523800Y22788150D01*
X5876200Y22788150D01*
X5730150Y22934200D01*
X5658537Y22919727D01*
X5550107Y22881182D01*
X5451280Y22822224D01*
X5365855Y22745118D01*
X5297113Y22652829D01*
X5247697Y22548901D01*
X5219505Y22437331D01*
X5215800Y22419850D01*
X5076200Y22419850D01*
X5076200Y23580150D01*
X5215800Y23580150D01*
X5219505Y23562669D01*
X5247697Y23451099D01*
X5297113Y23347171D01*
X5365855Y23254882D01*
X5451280Y23177776D01*
X5550107Y23118818D01*
X5658537Y23080273D01*
X5730150Y23065800D01*
X5876200Y23211850D01*
X5876200Y23726200D01*
X6523800Y23726200D01*
X6523800Y23211850D01*
X6669850Y23065800D01*
X6741463Y23080273D01*
X6849893Y23118818D01*
X6948720Y23177776D01*
X7034145Y23254882D01*
X7102887Y23347171D01*
X7152303Y23451099D01*
X7180495Y23562669D01*
X7184200Y23580150D01*
X7038150Y23726200D01*
X6523800Y23726200D01*
X5876200Y23726200D01*
X5361850Y23726200D01*
X5215800Y23580150D01*
X5076200Y23580150D01*
X5076200Y24746400D01*
X5247065Y24746400D01*
X5219505Y24637331D01*
%TA.AperFunction,Conductor*%
D34*
G36*
X5219505Y24637331D02*
G01*
X5215800Y24619850D01*
X5361850Y24473800D01*
X5876200Y24473800D01*
X5876200Y24543800D01*
X6523800Y24543800D01*
X6523800Y24473800D01*
X7038150Y24473800D01*
X7184200Y24619850D01*
X7180495Y24637331D01*
X7152935Y24746400D01*
X12847065Y24746400D01*
X12819505Y24637331D01*
X12815800Y24619850D01*
X12961850Y24473800D01*
X13476200Y24473800D01*
X13476200Y24543800D01*
X14123800Y24543800D01*
X14123800Y24473800D01*
X14638150Y24473800D01*
X14784200Y24619850D01*
X14780495Y24637331D01*
X14752935Y24746400D01*
X14923800Y24746400D01*
X14923800Y23279932D01*
X14496967Y22853099D01*
X14449893Y22881182D01*
X14341463Y22919727D01*
X14269850Y22934200D01*
X14123800Y22788150D01*
X14123800Y22323439D01*
X14121728Y22302401D01*
X14123800Y22281363D01*
X14123800Y22273800D01*
X14123801Y22273800D01*
X14123802Y21526200D01*
X14123800Y21526200D01*
X14123800Y21456200D01*
X13476200Y21456200D01*
X13476200Y21526200D01*
X12974955Y21526200D01*
X12972203Y21554145D01*
X12956410Y21606208D01*
X12930763Y21654191D01*
X12896248Y21696248D01*
X12854191Y21730763D01*
X12806208Y21756410D01*
X12754145Y21772203D01*
X12700000Y21777536D01*
X11800000Y21777536D01*
X11745855Y21772203D01*
X11693792Y21756410D01*
X11645809Y21730763D01*
X11603752Y21696248D01*
X11569237Y21654191D01*
X11543590Y21606208D01*
X11527797Y21554145D01*
X11522464Y21500000D01*
X11522464Y20499345D01*
X11178600Y20843209D01*
X11178600Y20978955D01*
X11180673Y21000001D01*
X11176438Y21043000D01*
X11172398Y21084020D01*
X11147890Y21164811D01*
X11108092Y21239269D01*
X11054532Y21304532D01*
X11038182Y21317950D01*
X10215554Y22140577D01*
X10202131Y22156933D01*
X10136868Y22210493D01*
X10062410Y22250291D01*
X9981619Y22274799D01*
X9918647Y22281001D01*
X9897599Y22283074D01*
X9876551Y22281001D01*
X8607727Y22281001D01*
X8711825Y22301707D01*
X8843985Y22356450D01*
X8962926Y22435923D01*
X9064077Y22537074D01*
X9143550Y22656015D01*
X9198293Y22788175D01*
X9226200Y22928476D01*
X9226200Y23071524D01*
X10773800Y23071524D01*
X10773800Y22928476D01*
X10801707Y22788175D01*
X10856450Y22656015D01*
X10935923Y22537074D01*
X11037074Y22435923D01*
X11156015Y22356450D01*
X11288175Y22301707D01*
X11428476Y22273800D01*
X11571524Y22273800D01*
X11711825Y22301707D01*
X11843985Y22356450D01*
X11938870Y22419850D01*
X12815800Y22419850D01*
X12961850Y22273800D01*
X13476200Y22273800D01*
X13476200Y22788150D01*
X13330150Y22934200D01*
X13258537Y22919727D01*
X13150107Y22881182D01*
X13051280Y22822224D01*
X12965855Y22745118D01*
X12897113Y22652829D01*
X12847697Y22548901D01*
X12819505Y22437331D01*
X12815800Y22419850D01*
X11938870Y22419850D01*
X11962926Y22435923D01*
X12064077Y22537074D01*
X12143550Y22656015D01*
X12198293Y22788175D01*
X12226200Y22928476D01*
X12226200Y23071524D01*
X12198293Y23211825D01*
X12143550Y23343985D01*
X12064077Y23462926D01*
X11962926Y23564077D01*
X11938871Y23580150D01*
X12815800Y23580150D01*
X12819505Y23562669D01*
X12847697Y23451099D01*
X12897113Y23347171D01*
X12965855Y23254882D01*
X13051280Y23177776D01*
X13150107Y23118818D01*
X13258537Y23080273D01*
X13330150Y23065800D01*
X13476200Y23211850D01*
X13476200Y23726200D01*
X14123800Y23726200D01*
X14123800Y23211850D01*
X14269850Y23065800D01*
X14341463Y23080273D01*
X14449893Y23118818D01*
X14548720Y23177776D01*
X14634145Y23254882D01*
X14702887Y23347171D01*
X14752303Y23451099D01*
X14780495Y23562669D01*
X14784200Y23580150D01*
X14638150Y23726200D01*
X14123800Y23726200D01*
X13476200Y23726200D01*
X12961850Y23726200D01*
X12815800Y23580150D01*
X11938871Y23580150D01*
X11843985Y23643550D01*
X11711825Y23698293D01*
X11571524Y23726200D01*
X11428476Y23726200D01*
X11288175Y23698293D01*
X11156015Y23643550D01*
X11037074Y23564077D01*
X10935923Y23462926D01*
X10856450Y23343985D01*
X10801707Y23211825D01*
X10773800Y23071524D01*
X9226200Y23071524D01*
X9198293Y23211825D01*
X9143550Y23343985D01*
X9064077Y23462926D01*
X8962926Y23564077D01*
X8843985Y23643550D01*
X8711825Y23698293D01*
X8571524Y23726200D01*
X8428476Y23726200D01*
X8288175Y23698293D01*
X8156015Y23643550D01*
X8037074Y23564077D01*
X7935923Y23462926D01*
X7856450Y23343985D01*
X7801707Y23211825D01*
X7773800Y23071524D01*
X7773800Y22928476D01*
X7801707Y22788175D01*
X7856450Y22656015D01*
X7935923Y22537074D01*
X8037074Y22435923D01*
X8156015Y22356450D01*
X8288175Y22301707D01*
X8392273Y22281001D01*
X7818649Y22281001D01*
X7797601Y22283074D01*
X7776553Y22281001D01*
X7713581Y22274799D01*
X7632790Y22250291D01*
X7558332Y22210493D01*
X7493069Y22156933D01*
X7479646Y22140577D01*
X7461820Y22122751D01*
X7445469Y22109332D01*
X7432051Y22092982D01*
X7391909Y22044069D01*
X7352111Y21969611D01*
X7327602Y21888820D01*
X7319327Y21804800D01*
X7321401Y21783742D01*
X7321401Y21777536D01*
X7300000Y21777536D01*
X7245855Y21772203D01*
X7193792Y21756410D01*
X7145809Y21730763D01*
X7103752Y21696248D01*
X7069237Y21654191D01*
X7043590Y21606208D01*
X7027797Y21554145D01*
X7025045Y21526200D01*
X6523800Y21526200D01*
X6523800Y21011850D01*
X6669850Y20865800D01*
X6741463Y20880273D01*
X6849893Y20918818D01*
X6948720Y20977776D01*
X7022464Y21044339D01*
X7022464Y20250000D01*
X7027797Y20195855D01*
X7043590Y20143792D01*
X7069237Y20095809D01*
X7085330Y20076200D01*
X5076200Y20076200D01*
X5076200Y21380150D01*
X5215800Y21380150D01*
X5219505Y21362669D01*
X5247697Y21251099D01*
X5297113Y21147171D01*
X5365855Y21054882D01*
X5451280Y20977776D01*
X5550107Y20918818D01*
X5658537Y20880273D01*
X5730150Y20865800D01*
X5876200Y21011850D01*
X5876200Y21526200D01*
X5361850Y21526200D01*
X5215800Y21380150D01*
X5076200Y21380150D01*
X5076200Y22419850D01*
X5215800Y22419850D01*
X5361850Y22273800D01*
X5876200Y22273800D01*
X5876200Y22788150D01*
X6523800Y22788150D01*
X6523800Y22273800D01*
X7038150Y22273800D01*
X7184200Y22419850D01*
X7180495Y22437331D01*
X7152303Y22548901D01*
X7102887Y22652829D01*
X7034145Y22745118D01*
X6948720Y22822224D01*
X6849893Y22881182D01*
X6741463Y22919727D01*
X6669850Y22934200D01*
X6523800Y22788150D01*
X5876200Y22788150D01*
X5730150Y22934200D01*
X5658537Y22919727D01*
X5550107Y22881182D01*
X5451280Y22822224D01*
X5365855Y22745118D01*
X5297113Y22652829D01*
X5247697Y22548901D01*
X5219505Y22437331D01*
X5215800Y22419850D01*
X5076200Y22419850D01*
X5076200Y23580150D01*
X5215800Y23580150D01*
X5219505Y23562669D01*
X5247697Y23451099D01*
X5297113Y23347171D01*
X5365855Y23254882D01*
X5451280Y23177776D01*
X5550107Y23118818D01*
X5658537Y23080273D01*
X5730150Y23065800D01*
X5876200Y23211850D01*
X5876200Y23726200D01*
X6523800Y23726200D01*
X6523800Y23211850D01*
X6669850Y23065800D01*
X6741463Y23080273D01*
X6849893Y23118818D01*
X6948720Y23177776D01*
X7034145Y23254882D01*
X7102887Y23347171D01*
X7152303Y23451099D01*
X7180495Y23562669D01*
X7184200Y23580150D01*
X7038150Y23726200D01*
X6523800Y23726200D01*
X5876200Y23726200D01*
X5361850Y23726200D01*
X5215800Y23580150D01*
X5076200Y23580150D01*
X5076200Y24746400D01*
X5247065Y24746400D01*
X5219505Y24637331D01*
G37*
%TD.AperFunction*%
%TD*%
D31*
%TO.N,GND*%
X34969505Y24637331D02*
X34965800Y24619850D01*
X35111850Y24473800D01*
X35626200Y24473800D01*
X35626200Y24543800D01*
X36273800Y24543800D01*
X36273800Y24473800D01*
X36788150Y24473800D01*
X36934200Y24619850D01*
X36930495Y24637331D01*
X36902935Y24746400D01*
X42597065Y24746400D01*
X42569505Y24637331D01*
X42565800Y24619850D01*
X42711850Y24473800D01*
X43226200Y24473800D01*
X43226200Y24543800D01*
X43873800Y24543800D01*
X43873800Y24473800D01*
X44388150Y24473800D01*
X44534200Y24619850D01*
X44530495Y24637331D01*
X44502935Y24746400D01*
X44673800Y24746400D01*
X44673800Y20076200D01*
X42664670Y20076200D01*
X42680763Y20095809D01*
X42706410Y20143792D01*
X42722203Y20195855D01*
X42727536Y20250000D01*
X42727536Y21044339D01*
X42801280Y20977776D01*
X42900107Y20918818D01*
X43008537Y20880273D01*
X43080150Y20865800D01*
X43226200Y21011850D01*
X43226200Y21526200D01*
X43873800Y21526200D01*
X43873800Y21011850D01*
X44019850Y20865800D01*
X44091463Y20880273D01*
X44199893Y20918818D01*
X44298720Y20977776D01*
X44384145Y21054882D01*
X44452887Y21147171D01*
X44502303Y21251099D01*
X44530495Y21362669D01*
X44534200Y21380150D01*
X44388150Y21526200D01*
X43873800Y21526200D01*
X43226200Y21526200D01*
X42724955Y21526200D01*
X42722203Y21554145D01*
X42706410Y21606208D01*
X42680763Y21654191D01*
X42646248Y21696248D01*
X42604191Y21730763D01*
X42556208Y21756410D01*
X42504145Y21772203D01*
X42450000Y21777536D01*
X41550000Y21777536D01*
X41495855Y21772203D01*
X41443792Y21756410D01*
X41395809Y21730763D01*
X41353752Y21696248D01*
X41319237Y21654191D01*
X41293590Y21606208D01*
X41277797Y21554145D01*
X41272464Y21500000D01*
X41272464Y20250000D01*
X41277797Y20195855D01*
X41293590Y20143792D01*
X41319237Y20095809D01*
X41335330Y20076200D01*
X41182931Y20076200D01*
X40092155Y21166976D01*
X40078732Y21183332D01*
X40013469Y21236892D01*
X39939011Y21276690D01*
X39858220Y21301198D01*
X39795248Y21307400D01*
X39774200Y21309473D01*
X39753152Y21307400D01*
X39727536Y21307400D01*
X39727536Y21500000D01*
X39722203Y21554145D01*
X39706410Y21606208D01*
X39680763Y21654191D01*
X39646248Y21696248D01*
X39604191Y21730763D01*
X39556208Y21756410D01*
X39504145Y21772203D01*
X39450000Y21777536D01*
X38550000Y21777536D01*
X38495855Y21772203D01*
X38443792Y21756410D01*
X38395809Y21730763D01*
X38353752Y21696248D01*
X38319237Y21654191D01*
X38293590Y21606208D01*
X38277797Y21554145D01*
X38272464Y21500000D01*
X38272464Y20250000D01*
X38277797Y20195855D01*
X38293590Y20143792D01*
X38319237Y20095809D01*
X38335330Y20076200D01*
X38164670Y20076200D01*
X38180763Y20095809D01*
X38206410Y20143792D01*
X38222203Y20195855D01*
X38227536Y20250000D01*
X38227536Y21500000D01*
X38222203Y21554145D01*
X38206410Y21606208D01*
X38180763Y21654191D01*
X38146248Y21696248D01*
X38104191Y21730763D01*
X38056208Y21756410D01*
X38004145Y21772203D01*
X37950000Y21777536D01*
X37050000Y21777536D01*
X36995855Y21772203D01*
X36943792Y21756410D01*
X36895809Y21730763D01*
X36853752Y21696248D01*
X36819237Y21654191D01*
X36793590Y21606208D01*
X36777797Y21554145D01*
X36775045Y21526200D01*
X36273800Y21526200D01*
X36273800Y21011850D01*
X36419850Y20865800D01*
X36491463Y20880273D01*
X36599893Y20918818D01*
X36698720Y20977776D01*
X36772464Y21044339D01*
X36772464Y20714846D01*
X36177243Y20119624D01*
X36161926Y20107054D01*
X36136606Y20076200D01*
X35279932Y20076200D01*
X34826200Y20529931D01*
X34826200Y21380150D01*
X34965800Y21380150D01*
X34969505Y21362669D01*
X34997697Y21251099D01*
X35047113Y21147171D01*
X35115855Y21054882D01*
X35201280Y20977776D01*
X35300107Y20918818D01*
X35408537Y20880273D01*
X35480150Y20865800D01*
X35626200Y21011850D01*
X35626200Y21526200D01*
X35111850Y21526200D01*
X34965800Y21380150D01*
X34826200Y21380150D01*
X34826200Y22419850D01*
X34965800Y22419850D01*
X35111850Y22273800D01*
X35626200Y22273800D01*
X35626200Y22788150D01*
X36273800Y22788150D01*
X36273800Y22273800D01*
X36788150Y22273800D01*
X36934200Y22419850D01*
X36930495Y22437331D01*
X36902303Y22548901D01*
X36852887Y22652829D01*
X36784145Y22745118D01*
X36698720Y22822224D01*
X36599893Y22881182D01*
X36491463Y22919727D01*
X36419850Y22934200D01*
X36273800Y22788150D01*
X35626200Y22788150D01*
X35480150Y22934200D01*
X35408537Y22919727D01*
X35300107Y22881182D01*
X35201280Y22822224D01*
X35115855Y22745118D01*
X35047113Y22652829D01*
X34997697Y22548901D01*
X34969505Y22437331D01*
X34965800Y22419850D01*
X34826200Y22419850D01*
X34826200Y23580150D01*
X34965800Y23580150D01*
X34969505Y23562669D01*
X34997697Y23451099D01*
X35047113Y23347171D01*
X35115855Y23254882D01*
X35201280Y23177776D01*
X35300107Y23118818D01*
X35408537Y23080273D01*
X35480150Y23065800D01*
X35626200Y23211850D01*
X35626200Y23726200D01*
X36273800Y23726200D01*
X36273800Y23211850D01*
X36419850Y23065800D01*
X36448172Y23071524D01*
X37523800Y23071524D01*
X37523800Y22928476D01*
X37551707Y22788175D01*
X37606450Y22656015D01*
X37685923Y22537074D01*
X37787074Y22435923D01*
X37906015Y22356450D01*
X38038175Y22301707D01*
X38178476Y22273800D01*
X38321524Y22273800D01*
X38461825Y22301707D01*
X38593985Y22356450D01*
X38712926Y22435923D01*
X38814077Y22537074D01*
X38893550Y22656015D01*
X38948293Y22788175D01*
X38976200Y22928476D01*
X38976200Y23071524D01*
X40523800Y23071524D01*
X40523800Y22928476D01*
X40551707Y22788175D01*
X40606450Y22656015D01*
X40685923Y22537074D01*
X40787074Y22435923D01*
X40906015Y22356450D01*
X41038175Y22301707D01*
X41178476Y22273800D01*
X41321524Y22273800D01*
X41461825Y22301707D01*
X41593985Y22356450D01*
X41688870Y22419850D01*
X42565800Y22419850D01*
X42711850Y22273800D01*
X43226200Y22273800D01*
X43226200Y22788150D01*
X43873800Y22788150D01*
X43873800Y22273800D01*
X44388150Y22273800D01*
X44534200Y22419850D01*
X44530495Y22437331D01*
X44502303Y22548901D01*
X44452887Y22652829D01*
X44384145Y22745118D01*
X44298720Y22822224D01*
X44199893Y22881182D01*
X44091463Y22919727D01*
X44019850Y22934200D01*
X43873800Y22788150D01*
X43226200Y22788150D01*
X43080150Y22934200D01*
X43008537Y22919727D01*
X42900107Y22881182D01*
X42801280Y22822224D01*
X42715855Y22745118D01*
X42647113Y22652829D01*
X42597697Y22548901D01*
X42569505Y22437331D01*
X42565800Y22419850D01*
X41688870Y22419850D01*
X41712926Y22435923D01*
X41814077Y22537074D01*
X41893550Y22656015D01*
X41948293Y22788175D01*
X41976200Y22928476D01*
X41976200Y23071524D01*
X41948293Y23211825D01*
X41893550Y23343985D01*
X41814077Y23462926D01*
X41712926Y23564077D01*
X41688871Y23580150D01*
X42565800Y23580150D01*
X42569505Y23562669D01*
X42597697Y23451099D01*
X42647113Y23347171D01*
X42715855Y23254882D01*
X42801280Y23177776D01*
X42900107Y23118818D01*
X43008537Y23080273D01*
X43080150Y23065800D01*
X43226200Y23211850D01*
X43226200Y23726200D01*
X43873800Y23726200D01*
X43873800Y23211850D01*
X44019850Y23065800D01*
X44091463Y23080273D01*
X44199893Y23118818D01*
X44298720Y23177776D01*
X44384145Y23254882D01*
X44452887Y23347171D01*
X44502303Y23451099D01*
X44530495Y23562669D01*
X44534200Y23580150D01*
X44388150Y23726200D01*
X43873800Y23726200D01*
X43226200Y23726200D01*
X42711850Y23726200D01*
X42565800Y23580150D01*
X41688871Y23580150D01*
X41593985Y23643550D01*
X41461825Y23698293D01*
X41321524Y23726200D01*
X41178476Y23726200D01*
X41038175Y23698293D01*
X40906015Y23643550D01*
X40787074Y23564077D01*
X40685923Y23462926D01*
X40606450Y23343985D01*
X40551707Y23211825D01*
X40523800Y23071524D01*
X38976200Y23071524D01*
X38948293Y23211825D01*
X38893550Y23343985D01*
X38814077Y23462926D01*
X38712926Y23564077D01*
X38593985Y23643550D01*
X38461825Y23698293D01*
X38321524Y23726200D01*
X38178476Y23726200D01*
X38038175Y23698293D01*
X37906015Y23643550D01*
X37787074Y23564077D01*
X37685923Y23462926D01*
X37606450Y23343985D01*
X37551707Y23211825D01*
X37523800Y23071524D01*
X36448172Y23071524D01*
X36491463Y23080273D01*
X36599893Y23118818D01*
X36698720Y23177776D01*
X36784145Y23254882D01*
X36852887Y23347171D01*
X36902303Y23451099D01*
X36930495Y23562669D01*
X36934200Y23580150D01*
X36788150Y23726200D01*
X36273800Y23726200D01*
X35626200Y23726200D01*
X35111850Y23726200D01*
X34965800Y23580150D01*
X34826200Y23580150D01*
X34826200Y24746400D01*
X34997065Y24746400D01*
X34969505Y24637331D01*
%TA.AperFunction,Conductor*%
D34*
G36*
X34969505Y24637331D02*
G01*
X34965800Y24619850D01*
X35111850Y24473800D01*
X35626200Y24473800D01*
X35626200Y24543800D01*
X36273800Y24543800D01*
X36273800Y24473800D01*
X36788150Y24473800D01*
X36934200Y24619850D01*
X36930495Y24637331D01*
X36902935Y24746400D01*
X42597065Y24746400D01*
X42569505Y24637331D01*
X42565800Y24619850D01*
X42711850Y24473800D01*
X43226200Y24473800D01*
X43226200Y24543800D01*
X43873800Y24543800D01*
X43873800Y24473800D01*
X44388150Y24473800D01*
X44534200Y24619850D01*
X44530495Y24637331D01*
X44502935Y24746400D01*
X44673800Y24746400D01*
X44673800Y20076200D01*
X42664670Y20076200D01*
X42680763Y20095809D01*
X42706410Y20143792D01*
X42722203Y20195855D01*
X42727536Y20250000D01*
X42727536Y21044339D01*
X42801280Y20977776D01*
X42900107Y20918818D01*
X43008537Y20880273D01*
X43080150Y20865800D01*
X43226200Y21011850D01*
X43226200Y21526200D01*
X43873800Y21526200D01*
X43873800Y21011850D01*
X44019850Y20865800D01*
X44091463Y20880273D01*
X44199893Y20918818D01*
X44298720Y20977776D01*
X44384145Y21054882D01*
X44452887Y21147171D01*
X44502303Y21251099D01*
X44530495Y21362669D01*
X44534200Y21380150D01*
X44388150Y21526200D01*
X43873800Y21526200D01*
X43226200Y21526200D01*
X42724955Y21526200D01*
X42722203Y21554145D01*
X42706410Y21606208D01*
X42680763Y21654191D01*
X42646248Y21696248D01*
X42604191Y21730763D01*
X42556208Y21756410D01*
X42504145Y21772203D01*
X42450000Y21777536D01*
X41550000Y21777536D01*
X41495855Y21772203D01*
X41443792Y21756410D01*
X41395809Y21730763D01*
X41353752Y21696248D01*
X41319237Y21654191D01*
X41293590Y21606208D01*
X41277797Y21554145D01*
X41272464Y21500000D01*
X41272464Y20250000D01*
X41277797Y20195855D01*
X41293590Y20143792D01*
X41319237Y20095809D01*
X41335330Y20076200D01*
X41182931Y20076200D01*
X40092155Y21166976D01*
X40078732Y21183332D01*
X40013469Y21236892D01*
X39939011Y21276690D01*
X39858220Y21301198D01*
X39795248Y21307400D01*
X39774200Y21309473D01*
X39753152Y21307400D01*
X39727536Y21307400D01*
X39727536Y21500000D01*
X39722203Y21554145D01*
X39706410Y21606208D01*
X39680763Y21654191D01*
X39646248Y21696248D01*
X39604191Y21730763D01*
X39556208Y21756410D01*
X39504145Y21772203D01*
X39450000Y21777536D01*
X38550000Y21777536D01*
X38495855Y21772203D01*
X38443792Y21756410D01*
X38395809Y21730763D01*
X38353752Y21696248D01*
X38319237Y21654191D01*
X38293590Y21606208D01*
X38277797Y21554145D01*
X38272464Y21500000D01*
X38272464Y20250000D01*
X38277797Y20195855D01*
X38293590Y20143792D01*
X38319237Y20095809D01*
X38335330Y20076200D01*
X38164670Y20076200D01*
X38180763Y20095809D01*
X38206410Y20143792D01*
X38222203Y20195855D01*
X38227536Y20250000D01*
X38227536Y21500000D01*
X38222203Y21554145D01*
X38206410Y21606208D01*
X38180763Y21654191D01*
X38146248Y21696248D01*
X38104191Y21730763D01*
X38056208Y21756410D01*
X38004145Y21772203D01*
X37950000Y21777536D01*
X37050000Y21777536D01*
X36995855Y21772203D01*
X36943792Y21756410D01*
X36895809Y21730763D01*
X36853752Y21696248D01*
X36819237Y21654191D01*
X36793590Y21606208D01*
X36777797Y21554145D01*
X36775045Y21526200D01*
X36273800Y21526200D01*
X36273800Y21011850D01*
X36419850Y20865800D01*
X36491463Y20880273D01*
X36599893Y20918818D01*
X36698720Y20977776D01*
X36772464Y21044339D01*
X36772464Y20714846D01*
X36177243Y20119624D01*
X36161926Y20107054D01*
X36136606Y20076200D01*
X35279932Y20076200D01*
X34826200Y20529931D01*
X34826200Y21380150D01*
X34965800Y21380150D01*
X34969505Y21362669D01*
X34997697Y21251099D01*
X35047113Y21147171D01*
X35115855Y21054882D01*
X35201280Y20977776D01*
X35300107Y20918818D01*
X35408537Y20880273D01*
X35480150Y20865800D01*
X35626200Y21011850D01*
X35626200Y21526200D01*
X35111850Y21526200D01*
X34965800Y21380150D01*
X34826200Y21380150D01*
X34826200Y22419850D01*
X34965800Y22419850D01*
X35111850Y22273800D01*
X35626200Y22273800D01*
X35626200Y22788150D01*
X36273800Y22788150D01*
X36273800Y22273800D01*
X36788150Y22273800D01*
X36934200Y22419850D01*
X36930495Y22437331D01*
X36902303Y22548901D01*
X36852887Y22652829D01*
X36784145Y22745118D01*
X36698720Y22822224D01*
X36599893Y22881182D01*
X36491463Y22919727D01*
X36419850Y22934200D01*
X36273800Y22788150D01*
X35626200Y22788150D01*
X35480150Y22934200D01*
X35408537Y22919727D01*
X35300107Y22881182D01*
X35201280Y22822224D01*
X35115855Y22745118D01*
X35047113Y22652829D01*
X34997697Y22548901D01*
X34969505Y22437331D01*
X34965800Y22419850D01*
X34826200Y22419850D01*
X34826200Y23580150D01*
X34965800Y23580150D01*
X34969505Y23562669D01*
X34997697Y23451099D01*
X35047113Y23347171D01*
X35115855Y23254882D01*
X35201280Y23177776D01*
X35300107Y23118818D01*
X35408537Y23080273D01*
X35480150Y23065800D01*
X35626200Y23211850D01*
X35626200Y23726200D01*
X36273800Y23726200D01*
X36273800Y23211850D01*
X36419850Y23065800D01*
X36448172Y23071524D01*
X37523800Y23071524D01*
X37523800Y22928476D01*
X37551707Y22788175D01*
X37606450Y22656015D01*
X37685923Y22537074D01*
X37787074Y22435923D01*
X37906015Y22356450D01*
X38038175Y22301707D01*
X38178476Y22273800D01*
X38321524Y22273800D01*
X38461825Y22301707D01*
X38593985Y22356450D01*
X38712926Y22435923D01*
X38814077Y22537074D01*
X38893550Y22656015D01*
X38948293Y22788175D01*
X38976200Y22928476D01*
X38976200Y23071524D01*
X40523800Y23071524D01*
X40523800Y22928476D01*
X40551707Y22788175D01*
X40606450Y22656015D01*
X40685923Y22537074D01*
X40787074Y22435923D01*
X40906015Y22356450D01*
X41038175Y22301707D01*
X41178476Y22273800D01*
X41321524Y22273800D01*
X41461825Y22301707D01*
X41593985Y22356450D01*
X41688870Y22419850D01*
X42565800Y22419850D01*
X42711850Y22273800D01*
X43226200Y22273800D01*
X43226200Y22788150D01*
X43873800Y22788150D01*
X43873800Y22273800D01*
X44388150Y22273800D01*
X44534200Y22419850D01*
X44530495Y22437331D01*
X44502303Y22548901D01*
X44452887Y22652829D01*
X44384145Y22745118D01*
X44298720Y22822224D01*
X44199893Y22881182D01*
X44091463Y22919727D01*
X44019850Y22934200D01*
X43873800Y22788150D01*
X43226200Y22788150D01*
X43080150Y22934200D01*
X43008537Y22919727D01*
X42900107Y22881182D01*
X42801280Y22822224D01*
X42715855Y22745118D01*
X42647113Y22652829D01*
X42597697Y22548901D01*
X42569505Y22437331D01*
X42565800Y22419850D01*
X41688870Y22419850D01*
X41712926Y22435923D01*
X41814077Y22537074D01*
X41893550Y22656015D01*
X41948293Y22788175D01*
X41976200Y22928476D01*
X41976200Y23071524D01*
X41948293Y23211825D01*
X41893550Y23343985D01*
X41814077Y23462926D01*
X41712926Y23564077D01*
X41688871Y23580150D01*
X42565800Y23580150D01*
X42569505Y23562669D01*
X42597697Y23451099D01*
X42647113Y23347171D01*
X42715855Y23254882D01*
X42801280Y23177776D01*
X42900107Y23118818D01*
X43008537Y23080273D01*
X43080150Y23065800D01*
X43226200Y23211850D01*
X43226200Y23726200D01*
X43873800Y23726200D01*
X43873800Y23211850D01*
X44019850Y23065800D01*
X44091463Y23080273D01*
X44199893Y23118818D01*
X44298720Y23177776D01*
X44384145Y23254882D01*
X44452887Y23347171D01*
X44502303Y23451099D01*
X44530495Y23562669D01*
X44534200Y23580150D01*
X44388150Y23726200D01*
X43873800Y23726200D01*
X43226200Y23726200D01*
X42711850Y23726200D01*
X42565800Y23580150D01*
X41688871Y23580150D01*
X41593985Y23643550D01*
X41461825Y23698293D01*
X41321524Y23726200D01*
X41178476Y23726200D01*
X41038175Y23698293D01*
X40906015Y23643550D01*
X40787074Y23564077D01*
X40685923Y23462926D01*
X40606450Y23343985D01*
X40551707Y23211825D01*
X40523800Y23071524D01*
X38976200Y23071524D01*
X38948293Y23211825D01*
X38893550Y23343985D01*
X38814077Y23462926D01*
X38712926Y23564077D01*
X38593985Y23643550D01*
X38461825Y23698293D01*
X38321524Y23726200D01*
X38178476Y23726200D01*
X38038175Y23698293D01*
X37906015Y23643550D01*
X37787074Y23564077D01*
X37685923Y23462926D01*
X37606450Y23343985D01*
X37551707Y23211825D01*
X37523800Y23071524D01*
X36448172Y23071524D01*
X36491463Y23080273D01*
X36599893Y23118818D01*
X36698720Y23177776D01*
X36784145Y23254882D01*
X36852887Y23347171D01*
X36902303Y23451099D01*
X36930495Y23562669D01*
X36934200Y23580150D01*
X36788150Y23726200D01*
X36273800Y23726200D01*
X35626200Y23726200D01*
X35111850Y23726200D01*
X34965800Y23580150D01*
X34826200Y23580150D01*
X34826200Y24746400D01*
X34997065Y24746400D01*
X34969505Y24637331D01*
G37*
%TD.AperFunction*%
%TD*%
M02*
