%TF.GenerationSoftware,KiCad,Pcbnew,(5.1.10-1-10_14)*%
%TF.CreationDate,2021-09-21T14:20:29-04:00*%
%TF.ProjectId,WetProgrammer,57657450-726f-4677-9261-6d6d65722e6b,rev?*%
%TF.SameCoordinates,Original*%
%TF.FileFunction,Paste,Top*%
%TF.FilePolarity,Positive*%
%FSLAX46Y46*%
G04 Gerber Fmt 4.6, Leading zero omitted, Abs format (unit mm)*
G04 Created by KiCad (PCBNEW (5.1.10-1-10_14)) date 2021-09-21 14:20:29*
%MOMM*%
%LPD*%
G01*
G04 APERTURE LIST*
%ADD10R,1.100000X1.000000*%
%ADD11R,1.500000X1.350000*%
%ADD12R,1.400000X1.500000*%
%ADD13R,1.800000X0.400000*%
%ADD14R,0.800000X0.900000*%
%ADD15R,0.900000X1.250000*%
%ADD16R,4.500000X2.000000*%
%ADD17R,2.000000X1.500000*%
%ADD18R,2.000000X3.800000*%
%ADD19R,0.550000X1.500000*%
%ADD20R,1.500000X0.550000*%
G04 APERTURE END LIST*
D10*
%TO.C,J1*%
X1459500Y11000000D03*
X1459500Y14000000D03*
D11*
X2630000Y16575000D03*
X2630000Y8425000D03*
D12*
X5309500Y15750000D03*
X5309500Y9250000D03*
D13*
X5500000Y11200000D03*
X5500000Y11850000D03*
X5500000Y13800000D03*
X5500000Y13150000D03*
X5500000Y12500000D03*
%TD*%
%TO.C,R11*%
G36*
G01*
X35374000Y5212501D02*
X35374000Y4312499D01*
G75*
G02*
X35124001Y4062500I-249999J0D01*
G01*
X34598999Y4062500D01*
G75*
G02*
X34349000Y4312499I0J249999D01*
G01*
X34349000Y5212501D01*
G75*
G02*
X34598999Y5462500I249999J0D01*
G01*
X35124001Y5462500D01*
G75*
G02*
X35374000Y5212501I0J-249999D01*
G01*
G37*
G36*
G01*
X37199000Y5212501D02*
X37199000Y4312499D01*
G75*
G02*
X36949001Y4062500I-249999J0D01*
G01*
X36423999Y4062500D01*
G75*
G02*
X36174000Y4312499I0J249999D01*
G01*
X36174000Y5212501D01*
G75*
G02*
X36423999Y5462500I249999J0D01*
G01*
X36949001Y5462500D01*
G75*
G02*
X37199000Y5212501I0J-249999D01*
G01*
G37*
%TD*%
%TO.C,R10*%
G36*
G01*
X35414000Y3244001D02*
X35414000Y2343999D01*
G75*
G02*
X35164001Y2094000I-249999J0D01*
G01*
X34638999Y2094000D01*
G75*
G02*
X34389000Y2343999I0J249999D01*
G01*
X34389000Y3244001D01*
G75*
G02*
X34638999Y3494000I249999J0D01*
G01*
X35164001Y3494000D01*
G75*
G02*
X35414000Y3244001I0J-249999D01*
G01*
G37*
G36*
G01*
X37239000Y3244001D02*
X37239000Y2343999D01*
G75*
G02*
X36989001Y2094000I-249999J0D01*
G01*
X36463999Y2094000D01*
G75*
G02*
X36214000Y2343999I0J249999D01*
G01*
X36214000Y3244001D01*
G75*
G02*
X36463999Y3494000I249999J0D01*
G01*
X36989001Y3494000D01*
G75*
G02*
X37239000Y3244001I0J-249999D01*
G01*
G37*
%TD*%
D14*
%TO.C,SW2*%
X35950000Y21900000D03*
X43550000Y21900000D03*
X43550000Y24100000D03*
X35950000Y24100000D03*
D15*
X37500000Y20875000D03*
X39000000Y20875000D03*
X42000000Y20875000D03*
%TD*%
D16*
%TO.C,Y1*%
X20642000Y3048000D03*
X29142000Y3048000D03*
%TD*%
%TO.C,F1*%
G36*
G01*
X7849999Y16037500D02*
X8650001Y16037500D01*
G75*
G02*
X8900000Y15787501I0J-249999D01*
G01*
X8900000Y14962499D01*
G75*
G02*
X8650001Y14712500I-249999J0D01*
G01*
X7849999Y14712500D01*
G75*
G02*
X7600000Y14962499I0J249999D01*
G01*
X7600000Y15787501D01*
G75*
G02*
X7849999Y16037500I249999J0D01*
G01*
G37*
G36*
G01*
X7849999Y17962500D02*
X8650001Y17962500D01*
G75*
G02*
X8900000Y17712501I0J-249999D01*
G01*
X8900000Y16887499D01*
G75*
G02*
X8650001Y16637500I-249999J0D01*
G01*
X7849999Y16637500D01*
G75*
G02*
X7600000Y16887499I0J249999D01*
G01*
X7600000Y17712501D01*
G75*
G02*
X7849999Y17962500I249999J0D01*
G01*
G37*
%TD*%
D17*
%TO.C,U2*%
X26885500Y22810500D03*
X26885500Y18210500D03*
X26885500Y20510500D03*
D18*
X33185500Y20510500D03*
%TD*%
D19*
%TO.C,U1*%
X14750000Y18200000D03*
X15550000Y18200000D03*
X16350000Y18200000D03*
X17150000Y18200000D03*
X17950000Y18200000D03*
X18750000Y18200000D03*
X19550000Y18200000D03*
X20350000Y18200000D03*
X21150000Y18200000D03*
X21950000Y18200000D03*
X22750000Y18200000D03*
D20*
X24450000Y16500000D03*
X24450000Y15700000D03*
X24450000Y14900000D03*
X24450000Y14100000D03*
X24450000Y13300000D03*
X24450000Y12500000D03*
X24450000Y11700000D03*
X24450000Y10900000D03*
X24450000Y10100000D03*
X24450000Y9300000D03*
X24450000Y8500000D03*
D19*
X22750000Y6800000D03*
X21950000Y6800000D03*
X21150000Y6800000D03*
X20350000Y6800000D03*
X19550000Y6800000D03*
X18750000Y6800000D03*
X17950000Y6800000D03*
X17150000Y6800000D03*
X16350000Y6800000D03*
X15550000Y6800000D03*
X14750000Y6800000D03*
D20*
X13050000Y8500000D03*
X13050000Y9300000D03*
X13050000Y10100000D03*
X13050000Y10900000D03*
X13050000Y11700000D03*
X13050000Y12500000D03*
X13050000Y13300000D03*
X13050000Y14100000D03*
X13050000Y14900000D03*
X13050000Y15700000D03*
X13050000Y16500000D03*
%TD*%
D14*
%TO.C,SW1*%
X6200000Y21900000D03*
X13800000Y21900000D03*
X13800000Y24100000D03*
X6200000Y24100000D03*
D15*
X7750000Y20875000D03*
X9250000Y20875000D03*
X12250000Y20875000D03*
%TD*%
%TO.C,R9*%
G36*
G01*
X33204998Y7918500D02*
X34105002Y7918500D01*
G75*
G02*
X34355000Y7668502I0J-249998D01*
G01*
X34355000Y7143498D01*
G75*
G02*
X34105002Y6893500I-249998J0D01*
G01*
X33204998Y6893500D01*
G75*
G02*
X32955000Y7143498I0J249998D01*
G01*
X32955000Y7668502D01*
G75*
G02*
X33204998Y7918500I249998J0D01*
G01*
G37*
G36*
G01*
X33204998Y9743500D02*
X34105002Y9743500D01*
G75*
G02*
X34355000Y9493502I0J-249998D01*
G01*
X34355000Y8968498D01*
G75*
G02*
X34105002Y8718500I-249998J0D01*
G01*
X33204998Y8718500D01*
G75*
G02*
X32955000Y8968498I0J249998D01*
G01*
X32955000Y9493502D01*
G75*
G02*
X33204998Y9743500I249998J0D01*
G01*
G37*
%TD*%
%TO.C,R8*%
G36*
G01*
X35300498Y7895000D02*
X36200502Y7895000D01*
G75*
G02*
X36450500Y7645002I0J-249998D01*
G01*
X36450500Y7119998D01*
G75*
G02*
X36200502Y6870000I-249998J0D01*
G01*
X35300498Y6870000D01*
G75*
G02*
X35050500Y7119998I0J249998D01*
G01*
X35050500Y7645002D01*
G75*
G02*
X35300498Y7895000I249998J0D01*
G01*
G37*
G36*
G01*
X35300498Y9720000D02*
X36200502Y9720000D01*
G75*
G02*
X36450500Y9470002I0J-249998D01*
G01*
X36450500Y8944998D01*
G75*
G02*
X36200502Y8695000I-249998J0D01*
G01*
X35300498Y8695000D01*
G75*
G02*
X35050500Y8944998I0J249998D01*
G01*
X35050500Y9470002D01*
G75*
G02*
X35300498Y9720000I249998J0D01*
G01*
G37*
%TD*%
%TO.C,R7*%
G36*
G01*
X31109498Y7918500D02*
X32009502Y7918500D01*
G75*
G02*
X32259500Y7668502I0J-249998D01*
G01*
X32259500Y7143498D01*
G75*
G02*
X32009502Y6893500I-249998J0D01*
G01*
X31109498Y6893500D01*
G75*
G02*
X30859500Y7143498I0J249998D01*
G01*
X30859500Y7668502D01*
G75*
G02*
X31109498Y7918500I249998J0D01*
G01*
G37*
G36*
G01*
X31109498Y9743500D02*
X32009502Y9743500D01*
G75*
G02*
X32259500Y9493502I0J-249998D01*
G01*
X32259500Y8968498D01*
G75*
G02*
X32009502Y8718500I-249998J0D01*
G01*
X31109498Y8718500D01*
G75*
G02*
X30859500Y8968498I0J249998D01*
G01*
X30859500Y9493502D01*
G75*
G02*
X31109498Y9743500I249998J0D01*
G01*
G37*
%TD*%
%TO.C,R6*%
G36*
G01*
X38856498Y14776500D02*
X39756502Y14776500D01*
G75*
G02*
X40006500Y14526502I0J-249998D01*
G01*
X40006500Y14001498D01*
G75*
G02*
X39756502Y13751500I-249998J0D01*
G01*
X38856498Y13751500D01*
G75*
G02*
X38606500Y14001498I0J249998D01*
G01*
X38606500Y14526502D01*
G75*
G02*
X38856498Y14776500I249998J0D01*
G01*
G37*
G36*
G01*
X38856498Y16601500D02*
X39756502Y16601500D01*
G75*
G02*
X40006500Y16351502I0J-249998D01*
G01*
X40006500Y15826498D01*
G75*
G02*
X39756502Y15576500I-249998J0D01*
G01*
X38856498Y15576500D01*
G75*
G02*
X38606500Y15826498I0J249998D01*
G01*
X38606500Y16351502D01*
G75*
G02*
X38856498Y16601500I249998J0D01*
G01*
G37*
%TD*%
%TO.C,R5*%
G36*
G01*
X36379998Y14800000D02*
X37280002Y14800000D01*
G75*
G02*
X37530000Y14550002I0J-249998D01*
G01*
X37530000Y14024998D01*
G75*
G02*
X37280002Y13775000I-249998J0D01*
G01*
X36379998Y13775000D01*
G75*
G02*
X36130000Y14024998I0J249998D01*
G01*
X36130000Y14550002D01*
G75*
G02*
X36379998Y14800000I249998J0D01*
G01*
G37*
G36*
G01*
X36379998Y16625000D02*
X37280002Y16625000D01*
G75*
G02*
X37530000Y16375002I0J-249998D01*
G01*
X37530000Y15849998D01*
G75*
G02*
X37280002Y15600000I-249998J0D01*
G01*
X36379998Y15600000D01*
G75*
G02*
X36130000Y15849998I0J249998D01*
G01*
X36130000Y16375002D01*
G75*
G02*
X36379998Y16625000I249998J0D01*
G01*
G37*
%TD*%
%TO.C,R4*%
G36*
G01*
X28326502Y14965000D02*
X27426498Y14965000D01*
G75*
G02*
X27176500Y15214998I0J249998D01*
G01*
X27176500Y15740002D01*
G75*
G02*
X27426498Y15990000I249998J0D01*
G01*
X28326502Y15990000D01*
G75*
G02*
X28576500Y15740002I0J-249998D01*
G01*
X28576500Y15214998D01*
G75*
G02*
X28326502Y14965000I-249998J0D01*
G01*
G37*
G36*
G01*
X28326502Y13140000D02*
X27426498Y13140000D01*
G75*
G02*
X27176500Y13389998I0J249998D01*
G01*
X27176500Y13915002D01*
G75*
G02*
X27426498Y14165000I249998J0D01*
G01*
X28326502Y14165000D01*
G75*
G02*
X28576500Y13915002I0J-249998D01*
G01*
X28576500Y13389998D01*
G75*
G02*
X28326502Y13140000I-249998J0D01*
G01*
G37*
%TD*%
%TO.C,R3*%
G36*
G01*
X12896002Y3956000D02*
X11995998Y3956000D01*
G75*
G02*
X11746000Y4205998I0J249998D01*
G01*
X11746000Y4731002D01*
G75*
G02*
X11995998Y4981000I249998J0D01*
G01*
X12896002Y4981000D01*
G75*
G02*
X13146000Y4731002I0J-249998D01*
G01*
X13146000Y4205998D01*
G75*
G02*
X12896002Y3956000I-249998J0D01*
G01*
G37*
G36*
G01*
X12896002Y2131000D02*
X11995998Y2131000D01*
G75*
G02*
X11746000Y2380998I0J249998D01*
G01*
X11746000Y2906002D01*
G75*
G02*
X11995998Y3156000I249998J0D01*
G01*
X12896002Y3156000D01*
G75*
G02*
X13146000Y2906002I0J-249998D01*
G01*
X13146000Y2380998D01*
G75*
G02*
X12896002Y2131000I-249998J0D01*
G01*
G37*
%TD*%
%TO.C,R2*%
G36*
G01*
X7799998Y12187500D02*
X8700002Y12187500D01*
G75*
G02*
X8950000Y11937502I0J-249998D01*
G01*
X8950000Y11412498D01*
G75*
G02*
X8700002Y11162500I-249998J0D01*
G01*
X7799998Y11162500D01*
G75*
G02*
X7550000Y11412498I0J249998D01*
G01*
X7550000Y11937502D01*
G75*
G02*
X7799998Y12187500I249998J0D01*
G01*
G37*
G36*
G01*
X7799998Y14012500D02*
X8700002Y14012500D01*
G75*
G02*
X8950000Y13762502I0J-249998D01*
G01*
X8950000Y13237498D01*
G75*
G02*
X8700002Y12987500I-249998J0D01*
G01*
X7799998Y12987500D01*
G75*
G02*
X7550000Y13237498I0J249998D01*
G01*
X7550000Y13762502D01*
G75*
G02*
X7799998Y14012500I249998J0D01*
G01*
G37*
%TD*%
%TO.C,R1*%
G36*
G01*
X7799998Y8437500D02*
X8700002Y8437500D01*
G75*
G02*
X8950000Y8187502I0J-249998D01*
G01*
X8950000Y7662498D01*
G75*
G02*
X8700002Y7412500I-249998J0D01*
G01*
X7799998Y7412500D01*
G75*
G02*
X7550000Y7662498I0J249998D01*
G01*
X7550000Y8187502D01*
G75*
G02*
X7799998Y8437500I249998J0D01*
G01*
G37*
G36*
G01*
X7799998Y10262500D02*
X8700002Y10262500D01*
G75*
G02*
X8950000Y10012502I0J-249998D01*
G01*
X8950000Y9487498D01*
G75*
G02*
X8700002Y9237500I-249998J0D01*
G01*
X7799998Y9237500D01*
G75*
G02*
X7550000Y9487498I0J249998D01*
G01*
X7550000Y10012502D01*
G75*
G02*
X7799998Y10262500I249998J0D01*
G01*
G37*
%TD*%
%TO.C,D1*%
G36*
G01*
X35872000Y18490250D02*
X35872000Y17577750D01*
G75*
G02*
X35628250Y17334000I-243750J0D01*
G01*
X35140750Y17334000D01*
G75*
G02*
X34897000Y17577750I0J243750D01*
G01*
X34897000Y18490250D01*
G75*
G02*
X35140750Y18734000I243750J0D01*
G01*
X35628250Y18734000D01*
G75*
G02*
X35872000Y18490250I0J-243750D01*
G01*
G37*
G36*
G01*
X37747000Y18490250D02*
X37747000Y17577750D01*
G75*
G02*
X37503250Y17334000I-243750J0D01*
G01*
X37015750Y17334000D01*
G75*
G02*
X36772000Y17577750I0J243750D01*
G01*
X36772000Y18490250D01*
G75*
G02*
X37015750Y18734000I243750J0D01*
G01*
X37503250Y18734000D01*
G75*
G02*
X37747000Y18490250I0J-243750D01*
G01*
G37*
%TD*%
%TO.C,C8*%
G36*
G01*
X24475000Y21721000D02*
X23525000Y21721000D01*
G75*
G02*
X23275000Y21971000I0J250000D01*
G01*
X23275000Y22471000D01*
G75*
G02*
X23525000Y22721000I250000J0D01*
G01*
X24475000Y22721000D01*
G75*
G02*
X24725000Y22471000I0J-250000D01*
G01*
X24725000Y21971000D01*
G75*
G02*
X24475000Y21721000I-250000J0D01*
G01*
G37*
G36*
G01*
X24475000Y19821000D02*
X23525000Y19821000D01*
G75*
G02*
X23275000Y20071000I0J250000D01*
G01*
X23275000Y20571000D01*
G75*
G02*
X23525000Y20821000I250000J0D01*
G01*
X24475000Y20821000D01*
G75*
G02*
X24725000Y20571000I0J-250000D01*
G01*
X24725000Y20071000D01*
G75*
G02*
X24475000Y19821000I-250000J0D01*
G01*
G37*
%TD*%
%TO.C,C7*%
G36*
G01*
X22069000Y21716000D02*
X21119000Y21716000D01*
G75*
G02*
X20869000Y21966000I0J250000D01*
G01*
X20869000Y22466000D01*
G75*
G02*
X21119000Y22716000I250000J0D01*
G01*
X22069000Y22716000D01*
G75*
G02*
X22319000Y22466000I0J-250000D01*
G01*
X22319000Y21966000D01*
G75*
G02*
X22069000Y21716000I-250000J0D01*
G01*
G37*
G36*
G01*
X22069000Y19816000D02*
X21119000Y19816000D01*
G75*
G02*
X20869000Y20066000I0J250000D01*
G01*
X20869000Y20566000D01*
G75*
G02*
X21119000Y20816000I250000J0D01*
G01*
X22069000Y20816000D01*
G75*
G02*
X22319000Y20566000I0J-250000D01*
G01*
X22319000Y20066000D01*
G75*
G02*
X22069000Y19816000I-250000J0D01*
G01*
G37*
%TD*%
%TO.C,C6*%
G36*
G01*
X27871000Y8793500D02*
X27871000Y7843500D01*
G75*
G02*
X27621000Y7593500I-250000J0D01*
G01*
X27121000Y7593500D01*
G75*
G02*
X26871000Y7843500I0J250000D01*
G01*
X26871000Y8793500D01*
G75*
G02*
X27121000Y9043500I250000J0D01*
G01*
X27621000Y9043500D01*
G75*
G02*
X27871000Y8793500I0J-250000D01*
G01*
G37*
G36*
G01*
X29771000Y8793500D02*
X29771000Y7843500D01*
G75*
G02*
X29521000Y7593500I-250000J0D01*
G01*
X29021000Y7593500D01*
G75*
G02*
X28771000Y7843500I0J250000D01*
G01*
X28771000Y8793500D01*
G75*
G02*
X29021000Y9043500I250000J0D01*
G01*
X29521000Y9043500D01*
G75*
G02*
X29771000Y8793500I0J-250000D01*
G01*
G37*
%TD*%
%TO.C,C5*%
G36*
G01*
X15016500Y4006000D02*
X14066500Y4006000D01*
G75*
G02*
X13816500Y4256000I0J250000D01*
G01*
X13816500Y4756000D01*
G75*
G02*
X14066500Y5006000I250000J0D01*
G01*
X15016500Y5006000D01*
G75*
G02*
X15266500Y4756000I0J-250000D01*
G01*
X15266500Y4256000D01*
G75*
G02*
X15016500Y4006000I-250000J0D01*
G01*
G37*
G36*
G01*
X15016500Y2106000D02*
X14066500Y2106000D01*
G75*
G02*
X13816500Y2356000I0J250000D01*
G01*
X13816500Y2856000D01*
G75*
G02*
X14066500Y3106000I250000J0D01*
G01*
X15016500Y3106000D01*
G75*
G02*
X15266500Y2856000I0J-250000D01*
G01*
X15266500Y2356000D01*
G75*
G02*
X15016500Y2106000I-250000J0D01*
G01*
G37*
%TD*%
%TO.C,C4*%
G36*
G01*
X10275000Y11000000D02*
X11225000Y11000000D01*
G75*
G02*
X11475000Y10750000I0J-250000D01*
G01*
X11475000Y10250000D01*
G75*
G02*
X11225000Y10000000I-250000J0D01*
G01*
X10275000Y10000000D01*
G75*
G02*
X10025000Y10250000I0J250000D01*
G01*
X10025000Y10750000D01*
G75*
G02*
X10275000Y11000000I250000J0D01*
G01*
G37*
G36*
G01*
X10275000Y12900000D02*
X11225000Y12900000D01*
G75*
G02*
X11475000Y12650000I0J-250000D01*
G01*
X11475000Y12150000D01*
G75*
G02*
X11225000Y11900000I-250000J0D01*
G01*
X10275000Y11900000D01*
G75*
G02*
X10025000Y12150000I0J250000D01*
G01*
X10025000Y12650000D01*
G75*
G02*
X10275000Y12900000I250000J0D01*
G01*
G37*
%TD*%
%TO.C,C3*%
G36*
G01*
X18702000Y20821000D02*
X19652000Y20821000D01*
G75*
G02*
X19902000Y20571000I0J-250000D01*
G01*
X19902000Y20071000D01*
G75*
G02*
X19652000Y19821000I-250000J0D01*
G01*
X18702000Y19821000D01*
G75*
G02*
X18452000Y20071000I0J250000D01*
G01*
X18452000Y20571000D01*
G75*
G02*
X18702000Y20821000I250000J0D01*
G01*
G37*
G36*
G01*
X18702000Y22721000D02*
X19652000Y22721000D01*
G75*
G02*
X19902000Y22471000I0J-250000D01*
G01*
X19902000Y21971000D01*
G75*
G02*
X19652000Y21721000I-250000J0D01*
G01*
X18702000Y21721000D01*
G75*
G02*
X18452000Y21971000I0J250000D01*
G01*
X18452000Y22471000D01*
G75*
G02*
X18702000Y22721000I250000J0D01*
G01*
G37*
%TD*%
%TO.C,C2*%
G36*
G01*
X17366000Y4003500D02*
X16416000Y4003500D01*
G75*
G02*
X16166000Y4253500I0J250000D01*
G01*
X16166000Y4753500D01*
G75*
G02*
X16416000Y5003500I250000J0D01*
G01*
X17366000Y5003500D01*
G75*
G02*
X17616000Y4753500I0J-250000D01*
G01*
X17616000Y4253500D01*
G75*
G02*
X17366000Y4003500I-250000J0D01*
G01*
G37*
G36*
G01*
X17366000Y2103500D02*
X16416000Y2103500D01*
G75*
G02*
X16166000Y2353500I0J250000D01*
G01*
X16166000Y2853500D01*
G75*
G02*
X16416000Y3103500I250000J0D01*
G01*
X17366000Y3103500D01*
G75*
G02*
X17616000Y2853500I0J-250000D01*
G01*
X17616000Y2353500D01*
G75*
G02*
X17366000Y2103500I-250000J0D01*
G01*
G37*
%TD*%
%TO.C,C1*%
G36*
G01*
X32545000Y3446400D02*
X33495000Y3446400D01*
G75*
G02*
X33745000Y3196400I0J-250000D01*
G01*
X33745000Y2696400D01*
G75*
G02*
X33495000Y2446400I-250000J0D01*
G01*
X32545000Y2446400D01*
G75*
G02*
X32295000Y2696400I0J250000D01*
G01*
X32295000Y3196400D01*
G75*
G02*
X32545000Y3446400I250000J0D01*
G01*
G37*
G36*
G01*
X32545000Y5346400D02*
X33495000Y5346400D01*
G75*
G02*
X33745000Y5096400I0J-250000D01*
G01*
X33745000Y4596400D01*
G75*
G02*
X33495000Y4346400I-250000J0D01*
G01*
X32545000Y4346400D01*
G75*
G02*
X32295000Y4596400I0J250000D01*
G01*
X32295000Y5096400D01*
G75*
G02*
X32545000Y5346400I250000J0D01*
G01*
G37*
%TD*%
M02*
