%TF.GenerationSoftware,KiCad,Pcbnew,(5.1.10-1-10_14)*%
%TF.CreationDate,2021-09-25T16:40:22-04:00*%
%TF.ProjectId,WetProgrammer,57657450-726f-4677-9261-6d6d65722e6b,rev?*%
%TF.SameCoordinates,Original*%
%TF.FileFunction,Copper,L2,Bot*%
%TF.FilePolarity,Positive*%
%FSLAX46Y46*%
G04 Gerber Fmt 4.6, Leading zero omitted, Abs format (unit mm)*
G04 Created by KiCad (PCBNEW (5.1.10-1-10_14)) date 2021-09-25 16:40:22*
%MOMM*%
%LPD*%
G01*
G04 APERTURE LIST*
%TA.AperFunction,ComponentPad*%
%ADD10O,1.700000X1.700000*%
%TD*%
%TA.AperFunction,ComponentPad*%
%ADD11R,1.700000X1.700000*%
%TD*%
%TA.AperFunction,ComponentPad*%
%ADD12R,1.000000X1.000000*%
%TD*%
%TA.AperFunction,ComponentPad*%
%ADD13O,1.000000X1.000000*%
%TD*%
%TA.AperFunction,ViaPad*%
%ADD14C,0.800000*%
%TD*%
%TA.AperFunction,Conductor*%
%ADD15C,0.304800*%
%TD*%
%TA.AperFunction,Conductor*%
%ADD16C,0.152400*%
%TD*%
%TA.AperFunction,Conductor*%
%ADD17C,0.254000*%
%TD*%
%TA.AperFunction,Conductor*%
%ADD18C,0.100000*%
%TD*%
G04 APERTURE END LIST*
D10*
%TO.P,J2,6*%
%TO.N,GND*%
X45750000Y10000000D03*
%TO.P,J2,5*%
%TO.N,/DutRst*%
X43210000Y10000000D03*
%TO.P,J2,4*%
%TO.N,Net-(J2-Pad4)*%
X45750000Y12540000D03*
%TO.P,J2,3*%
%TO.N,Net-(J2-Pad3)*%
X43210000Y12540000D03*
%TO.P,J2,2*%
%TO.N,/VProg*%
X45750000Y15080000D03*
D11*
%TO.P,J2,1*%
%TO.N,Net-(J2-Pad1)*%
X43210000Y15080000D03*
%TD*%
D12*
%TO.P,JPROG1,1*%
%TO.N,/TCK*%
X18923000Y20955000D03*
D13*
%TO.P,JPROG1,2*%
%TO.N,GND*%
X18923000Y22225000D03*
%TO.P,JPROG1,3*%
%TO.N,/TDO*%
X20193000Y20955000D03*
%TO.P,JPROG1,4*%
%TO.N,VCC*%
X20193000Y22225000D03*
%TO.P,JPROG1,5*%
%TO.N,/TMS*%
X21463000Y20955000D03*
%TO.P,JPROG1,6*%
%TO.N,/RstP*%
X21463000Y22225000D03*
%TO.P,JPROG1,7*%
%TO.N,Net-(JPROG1-Pad7)*%
X22733000Y20955000D03*
%TO.P,JPROG1,8*%
%TO.N,Net-(JPROG1-Pad8)*%
X22733000Y22225000D03*
%TO.P,JPROG1,9*%
%TO.N,/TDI*%
X24003000Y20955000D03*
%TO.P,JPROG1,10*%
%TO.N,GND*%
X24003000Y22225000D03*
%TD*%
D10*
%TO.P,J3,3*%
%TO.N,GND*%
X33580000Y2250000D03*
%TO.P,J3,2*%
%TO.N,/RXI*%
X31040000Y2250000D03*
D11*
%TO.P,J3,1*%
%TO.N,/TXO*%
X28500000Y2250000D03*
%TD*%
D14*
%TO.N,GND*%
X38000000Y23241000D03*
X1000000Y12500000D03*
X1000000Y8500000D03*
X1000000Y16500000D03*
X1000000Y17500000D03*
X1000000Y15500000D03*
X1000000Y9500000D03*
X1000000Y7500000D03*
X6500000Y7500000D03*
X5500000Y7500000D03*
X4500000Y7500000D03*
X25865835Y8489407D03*
X29567062Y9737790D03*
X33909562Y11817461D03*
X17438386Y8127781D03*
X4500000Y17500000D03*
X5500000Y17500000D03*
X6500000Y17500000D03*
X22230282Y19497828D03*
X8826500Y2382000D03*
X8763000Y1048498D03*
X11675000Y13250000D03*
X19456400Y3708400D03*
X23977600Y1879600D03*
X15684500Y21421790D03*
X10058400Y23164800D03*
%TO.N,VCC*%
X29591000Y11874500D03*
X16256000Y8213790D03*
X22225000Y13208000D03*
X16383000Y10347390D03*
%TO.N,+3V3*%
X9017000Y18923000D03*
X11049000Y19812000D03*
%TO.N,/DutRst*%
X34388764Y10757140D03*
X37338000Y9721269D03*
X22987000Y10922000D03*
X19573563Y11242610D03*
%TO.N,Net-(JP2-Pad1)*%
X33718500Y15430500D03*
X27940000Y16764000D03*
%TO.N,/MISO*%
X21399500Y8445500D03*
X25273000Y7429500D03*
%TO.N,/RstP*%
X22961600Y12039600D03*
X20980400Y12039600D03*
X15494000Y11023600D03*
X15036800Y8229600D03*
%TO.N,/TMS*%
X20819132Y20050587D03*
X19431000Y19685000D03*
%TD*%
D15*
%TO.N,VCC*%
X16256000Y8213790D02*
X16256000Y10223500D01*
X22225000Y13208000D02*
X28257500Y13208000D01*
X28257500Y13208000D02*
X29591000Y11874500D01*
D16*
X16379890Y10347390D02*
X16383000Y10347390D01*
X16256000Y10223500D02*
X16379890Y10347390D01*
D15*
%TO.N,+3V3*%
X10160000Y18923000D02*
X11049000Y19812000D01*
X9017000Y18923000D02*
X10160000Y18923000D01*
D16*
%TO.N,/DutRst*%
X37338000Y9721269D02*
X36302129Y10757140D01*
X36302129Y10757140D02*
X34388764Y10757140D01*
X19894173Y10922000D02*
X19573563Y11242610D01*
X22987000Y10922000D02*
X19894173Y10922000D01*
%TO.N,Net-(JP2-Pad1)*%
X32385000Y16764000D02*
X33718500Y15430500D01*
X27940000Y16764000D02*
X32385000Y16764000D01*
%TO.N,/MISO*%
X24257000Y8445500D02*
X25273000Y7429500D01*
X21399500Y8445500D02*
X24257000Y8445500D01*
%TO.N,/RstP*%
X22961600Y12039600D02*
X20980400Y12039600D01*
X15494000Y8686800D02*
X15036800Y8229600D01*
X15494000Y11023600D02*
X15494000Y8686800D01*
%TO.N,/TMS*%
X19796587Y20050587D02*
X19431000Y19685000D01*
X20819132Y20050587D02*
X19796587Y20050587D01*
%TD*%
D17*
%TO.N,GND*%
X46309229Y24561733D02*
X46606688Y24471925D01*
X46881028Y24326055D01*
X47121813Y24129675D01*
X47319873Y23890264D01*
X47467654Y23616947D01*
X47559535Y23320128D01*
X47594001Y22992208D01*
X47594000Y2019854D01*
X47561733Y1690770D01*
X47471926Y1393316D01*
X47326056Y1118975D01*
X47129675Y878187D01*
X46890265Y680129D01*
X46616948Y532346D01*
X46320128Y440465D01*
X45992218Y406000D01*
X2019854Y406000D01*
X1690770Y438267D01*
X1393316Y528074D01*
X1118975Y673944D01*
X878187Y870325D01*
X680129Y1109735D01*
X532346Y1383052D01*
X440465Y1679872D01*
X406000Y2007782D01*
X406000Y3100000D01*
X27267157Y3100000D01*
X27267157Y1400000D01*
X27274513Y1325311D01*
X27296299Y1253492D01*
X27331678Y1187304D01*
X27379289Y1129289D01*
X27437304Y1081678D01*
X27503492Y1046299D01*
X27575311Y1024513D01*
X27650000Y1017157D01*
X29350000Y1017157D01*
X29424689Y1024513D01*
X29496508Y1046299D01*
X29562696Y1081678D01*
X29620711Y1129289D01*
X29668322Y1187304D01*
X29703701Y1253492D01*
X29725487Y1325311D01*
X29732843Y1400000D01*
X29732843Y2371243D01*
X29809000Y2371243D01*
X29809000Y2128757D01*
X29856307Y1890931D01*
X29949102Y1666903D01*
X30083820Y1465283D01*
X30255283Y1293820D01*
X30456903Y1159102D01*
X30680931Y1066307D01*
X30918757Y1019000D01*
X31161243Y1019000D01*
X31399069Y1066307D01*
X31623097Y1159102D01*
X31824717Y1293820D01*
X31996180Y1465283D01*
X32130898Y1666903D01*
X32178228Y1781168D01*
X32235843Y1618748D01*
X32384822Y1368645D01*
X32579731Y1152412D01*
X32813080Y978359D01*
X33075901Y853175D01*
X33223110Y808524D01*
X33453000Y929845D01*
X33453000Y2123000D01*
X33707000Y2123000D01*
X33707000Y929845D01*
X33936890Y808524D01*
X34084099Y853175D01*
X34346920Y978359D01*
X34580269Y1152412D01*
X34775178Y1368645D01*
X34924157Y1618748D01*
X35021481Y1893109D01*
X34900814Y2123000D01*
X33707000Y2123000D01*
X33453000Y2123000D01*
X33433000Y2123000D01*
X33433000Y2377000D01*
X33453000Y2377000D01*
X33453000Y3570155D01*
X33707000Y3570155D01*
X33707000Y2377000D01*
X34900814Y2377000D01*
X35021481Y2606891D01*
X34990187Y2695111D01*
X43519000Y2695111D01*
X43519000Y2304889D01*
X43595129Y1922164D01*
X43744461Y1561645D01*
X43961257Y1237186D01*
X44237186Y961257D01*
X44561645Y744461D01*
X44922164Y595129D01*
X45304889Y519000D01*
X45695111Y519000D01*
X46077836Y595129D01*
X46438355Y744461D01*
X46762814Y961257D01*
X47038743Y1237186D01*
X47255539Y1561645D01*
X47404871Y1922164D01*
X47481000Y2304889D01*
X47481000Y2695111D01*
X47404871Y3077836D01*
X47255539Y3438355D01*
X47038743Y3762814D01*
X46762814Y4038743D01*
X46438355Y4255539D01*
X46077836Y4404871D01*
X45695111Y4481000D01*
X45304889Y4481000D01*
X44922164Y4404871D01*
X44561645Y4255539D01*
X44237186Y4038743D01*
X43961257Y3762814D01*
X43744461Y3438355D01*
X43595129Y3077836D01*
X43519000Y2695111D01*
X34990187Y2695111D01*
X34924157Y2881252D01*
X34775178Y3131355D01*
X34580269Y3347588D01*
X34346920Y3521641D01*
X34084099Y3646825D01*
X33936890Y3691476D01*
X33707000Y3570155D01*
X33453000Y3570155D01*
X33223110Y3691476D01*
X33075901Y3646825D01*
X32813080Y3521641D01*
X32579731Y3347588D01*
X32384822Y3131355D01*
X32235843Y2881252D01*
X32178228Y2718832D01*
X32130898Y2833097D01*
X31996180Y3034717D01*
X31824717Y3206180D01*
X31623097Y3340898D01*
X31399069Y3433693D01*
X31161243Y3481000D01*
X30918757Y3481000D01*
X30680931Y3433693D01*
X30456903Y3340898D01*
X30255283Y3206180D01*
X30083820Y3034717D01*
X29949102Y2833097D01*
X29856307Y2609069D01*
X29809000Y2371243D01*
X29732843Y2371243D01*
X29732843Y3100000D01*
X29725487Y3174689D01*
X29703701Y3246508D01*
X29668322Y3312696D01*
X29620711Y3370711D01*
X29562696Y3418322D01*
X29496508Y3453701D01*
X29424689Y3475487D01*
X29350000Y3482843D01*
X27650000Y3482843D01*
X27575311Y3475487D01*
X27503492Y3453701D01*
X27437304Y3418322D01*
X27379289Y3370711D01*
X27331678Y3312696D01*
X27296299Y3246508D01*
X27274513Y3174689D01*
X27267157Y3100000D01*
X406000Y3100000D01*
X406000Y8306522D01*
X14255800Y8306522D01*
X14255800Y8152678D01*
X14285813Y8001791D01*
X14344687Y7859658D01*
X14430158Y7731741D01*
X14538941Y7622958D01*
X14666858Y7537487D01*
X14808991Y7478613D01*
X14959878Y7448600D01*
X15113722Y7448600D01*
X15264609Y7478613D01*
X15406742Y7537487D01*
X15534659Y7622958D01*
X15640656Y7728955D01*
X15649358Y7715931D01*
X15758141Y7607148D01*
X15886058Y7521677D01*
X16028191Y7462803D01*
X16179078Y7432790D01*
X16332922Y7432790D01*
X16483809Y7462803D01*
X16625942Y7521677D01*
X16753859Y7607148D01*
X16862642Y7715931D01*
X16948113Y7843848D01*
X17006987Y7985981D01*
X17037000Y8136868D01*
X17037000Y8290712D01*
X17006987Y8441599D01*
X16973509Y8522422D01*
X20618500Y8522422D01*
X20618500Y8368578D01*
X20648513Y8217691D01*
X20707387Y8075558D01*
X20792858Y7947641D01*
X20901641Y7838858D01*
X21029558Y7753387D01*
X21171691Y7694513D01*
X21322578Y7664500D01*
X21476422Y7664500D01*
X21627309Y7694513D01*
X21769442Y7753387D01*
X21897359Y7838858D01*
X22006142Y7947641D01*
X22033309Y7988300D01*
X24067623Y7988300D01*
X24501540Y7554383D01*
X24492000Y7506422D01*
X24492000Y7352578D01*
X24522013Y7201691D01*
X24580887Y7059558D01*
X24666358Y6931641D01*
X24775141Y6822858D01*
X24903058Y6737387D01*
X25045191Y6678513D01*
X25196078Y6648500D01*
X25349922Y6648500D01*
X25500809Y6678513D01*
X25642942Y6737387D01*
X25770859Y6822858D01*
X25879642Y6931641D01*
X25965113Y7059558D01*
X26023987Y7201691D01*
X26054000Y7352578D01*
X26054000Y7506422D01*
X26023987Y7657309D01*
X25965113Y7799442D01*
X25879642Y7927359D01*
X25770859Y8036142D01*
X25642942Y8121613D01*
X25500809Y8180487D01*
X25349922Y8210500D01*
X25196078Y8210500D01*
X25148117Y8200960D01*
X24596174Y8752903D01*
X24581853Y8770353D01*
X24512236Y8827487D01*
X24432809Y8869941D01*
X24346627Y8896085D01*
X24279460Y8902700D01*
X24279450Y8902700D01*
X24257000Y8904911D01*
X24234550Y8902700D01*
X22033309Y8902700D01*
X22006142Y8943359D01*
X21897359Y9052142D01*
X21769442Y9137613D01*
X21627309Y9196487D01*
X21476422Y9226500D01*
X21322578Y9226500D01*
X21171691Y9196487D01*
X21029558Y9137613D01*
X20901641Y9052142D01*
X20792858Y8943359D01*
X20707387Y8815442D01*
X20648513Y8673309D01*
X20618500Y8522422D01*
X16973509Y8522422D01*
X16948113Y8583732D01*
X16862642Y8711649D01*
X16789400Y8784891D01*
X16789400Y9679637D01*
X16880859Y9740748D01*
X16989642Y9849531D01*
X17075113Y9977448D01*
X17133987Y10119581D01*
X17164000Y10270468D01*
X17164000Y10424312D01*
X17133987Y10575199D01*
X17075113Y10717332D01*
X16989642Y10845249D01*
X16880859Y10954032D01*
X16752942Y11039503D01*
X16610809Y11098377D01*
X16459922Y11128390D01*
X16306078Y11128390D01*
X16270851Y11121383D01*
X16244987Y11251409D01*
X16216770Y11319532D01*
X18792563Y11319532D01*
X18792563Y11165688D01*
X18822576Y11014801D01*
X18881450Y10872668D01*
X18966921Y10744751D01*
X19075704Y10635968D01*
X19203621Y10550497D01*
X19345754Y10491623D01*
X19496641Y10461610D01*
X19650485Y10461610D01*
X19763056Y10484001D01*
X19804546Y10471415D01*
X19871713Y10464800D01*
X19871722Y10464800D01*
X19894172Y10462589D01*
X19916622Y10464800D01*
X22353191Y10464800D01*
X22380358Y10424141D01*
X22489141Y10315358D01*
X22617058Y10229887D01*
X22759191Y10171013D01*
X22910078Y10141000D01*
X23063922Y10141000D01*
X23214809Y10171013D01*
X23356942Y10229887D01*
X23484859Y10315358D01*
X23593642Y10424141D01*
X23679113Y10552058D01*
X23737987Y10694191D01*
X23765808Y10834062D01*
X33607764Y10834062D01*
X33607764Y10680218D01*
X33637777Y10529331D01*
X33696651Y10387198D01*
X33782122Y10259281D01*
X33890905Y10150498D01*
X34018822Y10065027D01*
X34160955Y10006153D01*
X34311842Y9976140D01*
X34465686Y9976140D01*
X34616573Y10006153D01*
X34758706Y10065027D01*
X34886623Y10150498D01*
X34995406Y10259281D01*
X35022573Y10299940D01*
X36112752Y10299940D01*
X36566540Y9846152D01*
X36557000Y9798191D01*
X36557000Y9644347D01*
X36587013Y9493460D01*
X36645887Y9351327D01*
X36731358Y9223410D01*
X36840141Y9114627D01*
X36968058Y9029156D01*
X37110191Y8970282D01*
X37261078Y8940269D01*
X37414922Y8940269D01*
X37565809Y8970282D01*
X37707942Y9029156D01*
X37835859Y9114627D01*
X37944642Y9223410D01*
X38030113Y9351327D01*
X38088987Y9493460D01*
X38119000Y9644347D01*
X38119000Y9798191D01*
X38088987Y9949078D01*
X38030113Y10091211D01*
X38010047Y10121243D01*
X41979000Y10121243D01*
X41979000Y9878757D01*
X42026307Y9640931D01*
X42119102Y9416903D01*
X42253820Y9215283D01*
X42425283Y9043820D01*
X42626903Y8909102D01*
X42850931Y8816307D01*
X43088757Y8769000D01*
X43331243Y8769000D01*
X43569069Y8816307D01*
X43793097Y8909102D01*
X43994717Y9043820D01*
X44166180Y9215283D01*
X44300898Y9416903D01*
X44344909Y9523154D01*
X44353175Y9495901D01*
X44478359Y9233080D01*
X44652412Y8999731D01*
X44868645Y8804822D01*
X45118748Y8655843D01*
X45393109Y8558519D01*
X45623000Y8679186D01*
X45623000Y9873000D01*
X45877000Y9873000D01*
X45877000Y8679186D01*
X46106891Y8558519D01*
X46381252Y8655843D01*
X46631355Y8804822D01*
X46847588Y8999731D01*
X47021641Y9233080D01*
X47146825Y9495901D01*
X47191476Y9643110D01*
X47070155Y9873000D01*
X45877000Y9873000D01*
X45623000Y9873000D01*
X45603000Y9873000D01*
X45603000Y10127000D01*
X45623000Y10127000D01*
X45623000Y10147000D01*
X45877000Y10147000D01*
X45877000Y10127000D01*
X47070155Y10127000D01*
X47191476Y10356890D01*
X47146825Y10504099D01*
X47021641Y10766920D01*
X46847588Y11000269D01*
X46631355Y11195178D01*
X46381252Y11344157D01*
X46218832Y11401772D01*
X46333097Y11449102D01*
X46534717Y11583820D01*
X46706180Y11755283D01*
X46840898Y11956903D01*
X46933693Y12180931D01*
X46981000Y12418757D01*
X46981000Y12661243D01*
X46933693Y12899069D01*
X46840898Y13123097D01*
X46706180Y13324717D01*
X46534717Y13496180D01*
X46333097Y13630898D01*
X46109069Y13723693D01*
X45871243Y13771000D01*
X45628757Y13771000D01*
X45390931Y13723693D01*
X45166903Y13630898D01*
X44965283Y13496180D01*
X44793820Y13324717D01*
X44659102Y13123097D01*
X44566307Y12899069D01*
X44519000Y12661243D01*
X44519000Y12418757D01*
X44566307Y12180931D01*
X44659102Y11956903D01*
X44793820Y11755283D01*
X44965283Y11583820D01*
X45166903Y11449102D01*
X45281168Y11401772D01*
X45118748Y11344157D01*
X44868645Y11195178D01*
X44652412Y11000269D01*
X44478359Y10766920D01*
X44353175Y10504099D01*
X44344909Y10476846D01*
X44300898Y10583097D01*
X44166180Y10784717D01*
X43994717Y10956180D01*
X43793097Y11090898D01*
X43569069Y11183693D01*
X43331243Y11231000D01*
X43088757Y11231000D01*
X42850931Y11183693D01*
X42626903Y11090898D01*
X42425283Y10956180D01*
X42253820Y10784717D01*
X42119102Y10583097D01*
X42026307Y10359069D01*
X41979000Y10121243D01*
X38010047Y10121243D01*
X37944642Y10219128D01*
X37835859Y10327911D01*
X37707942Y10413382D01*
X37565809Y10472256D01*
X37414922Y10502269D01*
X37261078Y10502269D01*
X37213117Y10492729D01*
X36641303Y11064543D01*
X36626982Y11081993D01*
X36557365Y11139127D01*
X36477938Y11181581D01*
X36391756Y11207725D01*
X36324589Y11214340D01*
X36324579Y11214340D01*
X36302129Y11216551D01*
X36279679Y11214340D01*
X35022573Y11214340D01*
X34995406Y11254999D01*
X34886623Y11363782D01*
X34758706Y11449253D01*
X34616573Y11508127D01*
X34465686Y11538140D01*
X34311842Y11538140D01*
X34160955Y11508127D01*
X34018822Y11449253D01*
X33890905Y11363782D01*
X33782122Y11254999D01*
X33696651Y11127082D01*
X33637777Y10984949D01*
X33607764Y10834062D01*
X23765808Y10834062D01*
X23768000Y10845078D01*
X23768000Y10998922D01*
X23737987Y11149809D01*
X23679113Y11291942D01*
X23593642Y11419859D01*
X23520001Y11493500D01*
X23568242Y11541741D01*
X23653713Y11669658D01*
X23712587Y11811791D01*
X23742600Y11962678D01*
X23742600Y12116522D01*
X23712587Y12267409D01*
X23653713Y12409542D01*
X23568242Y12537459D01*
X23459459Y12646242D01*
X23417018Y12674600D01*
X28036559Y12674600D01*
X28810000Y11901159D01*
X28810000Y11797578D01*
X28840013Y11646691D01*
X28898887Y11504558D01*
X28984358Y11376641D01*
X29093141Y11267858D01*
X29221058Y11182387D01*
X29363191Y11123513D01*
X29514078Y11093500D01*
X29667922Y11093500D01*
X29818809Y11123513D01*
X29960942Y11182387D01*
X30088859Y11267858D01*
X30197642Y11376641D01*
X30283113Y11504558D01*
X30341987Y11646691D01*
X30372000Y11797578D01*
X30372000Y11951422D01*
X30341987Y12102309D01*
X30283113Y12244442D01*
X30197642Y12372359D01*
X30088859Y12481142D01*
X29960942Y12566613D01*
X29818809Y12625487D01*
X29667922Y12655500D01*
X29564341Y12655500D01*
X29558598Y12661243D01*
X41979000Y12661243D01*
X41979000Y12418757D01*
X42026307Y12180931D01*
X42119102Y11956903D01*
X42253820Y11755283D01*
X42425283Y11583820D01*
X42626903Y11449102D01*
X42850931Y11356307D01*
X43088757Y11309000D01*
X43331243Y11309000D01*
X43569069Y11356307D01*
X43793097Y11449102D01*
X43994717Y11583820D01*
X44166180Y11755283D01*
X44300898Y11956903D01*
X44393693Y12180931D01*
X44441000Y12418757D01*
X44441000Y12661243D01*
X44393693Y12899069D01*
X44300898Y13123097D01*
X44166180Y13324717D01*
X43994717Y13496180D01*
X43793097Y13630898D01*
X43569069Y13723693D01*
X43331243Y13771000D01*
X43088757Y13771000D01*
X42850931Y13723693D01*
X42626903Y13630898D01*
X42425283Y13496180D01*
X42253820Y13324717D01*
X42119102Y13123097D01*
X42026307Y12899069D01*
X41979000Y12661243D01*
X29558598Y12661243D01*
X28653196Y13566645D01*
X28636495Y13586995D01*
X28555275Y13653651D01*
X28462611Y13703181D01*
X28362065Y13733681D01*
X28283695Y13741400D01*
X28283687Y13741400D01*
X28257500Y13743979D01*
X28231313Y13741400D01*
X22796101Y13741400D01*
X22722859Y13814642D01*
X22594942Y13900113D01*
X22452809Y13958987D01*
X22301922Y13989000D01*
X22148078Y13989000D01*
X21997191Y13958987D01*
X21855058Y13900113D01*
X21727141Y13814642D01*
X21618358Y13705859D01*
X21532887Y13577942D01*
X21474013Y13435809D01*
X21444000Y13284922D01*
X21444000Y13131078D01*
X21474013Y12980191D01*
X21532887Y12838058D01*
X21618358Y12710141D01*
X21727141Y12601358D01*
X21855058Y12515887D01*
X21901138Y12496800D01*
X21614209Y12496800D01*
X21587042Y12537459D01*
X21478259Y12646242D01*
X21350342Y12731713D01*
X21208209Y12790587D01*
X21057322Y12820600D01*
X20903478Y12820600D01*
X20752591Y12790587D01*
X20610458Y12731713D01*
X20482541Y12646242D01*
X20373758Y12537459D01*
X20288287Y12409542D01*
X20229413Y12267409D01*
X20199400Y12116522D01*
X20199400Y11962678D01*
X20229413Y11811791D01*
X20288287Y11669658D01*
X20373758Y11541741D01*
X20482541Y11432958D01*
X20562996Y11379200D01*
X20342694Y11379200D01*
X20324550Y11470419D01*
X20265676Y11612552D01*
X20180205Y11740469D01*
X20071422Y11849252D01*
X19943505Y11934723D01*
X19801372Y11993597D01*
X19650485Y12023610D01*
X19496641Y12023610D01*
X19345754Y11993597D01*
X19203621Y11934723D01*
X19075704Y11849252D01*
X18966921Y11740469D01*
X18881450Y11612552D01*
X18822576Y11470419D01*
X18792563Y11319532D01*
X16216770Y11319532D01*
X16186113Y11393542D01*
X16100642Y11521459D01*
X15991859Y11630242D01*
X15863942Y11715713D01*
X15721809Y11774587D01*
X15570922Y11804600D01*
X15417078Y11804600D01*
X15266191Y11774587D01*
X15124058Y11715713D01*
X14996141Y11630242D01*
X14887358Y11521459D01*
X14801887Y11393542D01*
X14743013Y11251409D01*
X14713000Y11100522D01*
X14713000Y10946678D01*
X14743013Y10795791D01*
X14801887Y10653658D01*
X14887358Y10525741D01*
X14996141Y10416958D01*
X15036800Y10389790D01*
X15036801Y9010600D01*
X14959878Y9010600D01*
X14808991Y8980587D01*
X14666858Y8921713D01*
X14538941Y8836242D01*
X14430158Y8727459D01*
X14344687Y8599542D01*
X14285813Y8457409D01*
X14255800Y8306522D01*
X406000Y8306522D01*
X406000Y10564610D01*
X4124000Y10564610D01*
X4124000Y10435390D01*
X4149210Y10308652D01*
X4198660Y10189268D01*
X4270452Y10081824D01*
X4361824Y9990452D01*
X4469268Y9918660D01*
X4588652Y9869210D01*
X4715390Y9844000D01*
X4844610Y9844000D01*
X4971348Y9869210D01*
X5090732Y9918660D01*
X5198176Y9990452D01*
X5289548Y10081824D01*
X5361340Y10189268D01*
X5410790Y10308652D01*
X5436000Y10435390D01*
X5436000Y10564610D01*
X5410790Y10691348D01*
X5361340Y10810732D01*
X5289548Y10918176D01*
X5198176Y11009548D01*
X5090732Y11081340D01*
X4971348Y11130790D01*
X4844610Y11156000D01*
X4715390Y11156000D01*
X4588652Y11130790D01*
X4469268Y11081340D01*
X4361824Y11009548D01*
X4270452Y10918176D01*
X4198660Y10810732D01*
X4149210Y10691348D01*
X4124000Y10564610D01*
X406000Y10564610D01*
X406000Y14564610D01*
X4124000Y14564610D01*
X4124000Y14435390D01*
X4149210Y14308652D01*
X4198660Y14189268D01*
X4270452Y14081824D01*
X4361824Y13990452D01*
X4469268Y13918660D01*
X4588652Y13869210D01*
X4715390Y13844000D01*
X4844610Y13844000D01*
X4971348Y13869210D01*
X5090732Y13918660D01*
X5198176Y13990452D01*
X5289548Y14081824D01*
X5361340Y14189268D01*
X5410790Y14308652D01*
X5436000Y14435390D01*
X5436000Y14564610D01*
X5410790Y14691348D01*
X5361340Y14810732D01*
X5289548Y14918176D01*
X5198176Y15009548D01*
X5090732Y15081340D01*
X4971348Y15130790D01*
X4844610Y15156000D01*
X4715390Y15156000D01*
X4588652Y15130790D01*
X4469268Y15081340D01*
X4361824Y15009548D01*
X4270452Y14918176D01*
X4198660Y14810732D01*
X4149210Y14691348D01*
X4124000Y14564610D01*
X406000Y14564610D01*
X406000Y16840922D01*
X27159000Y16840922D01*
X27159000Y16687078D01*
X27189013Y16536191D01*
X27247887Y16394058D01*
X27333358Y16266141D01*
X27442141Y16157358D01*
X27570058Y16071887D01*
X27712191Y16013013D01*
X27863078Y15983000D01*
X28016922Y15983000D01*
X28167809Y16013013D01*
X28309942Y16071887D01*
X28437859Y16157358D01*
X28546642Y16266141D01*
X28573809Y16306800D01*
X32195623Y16306800D01*
X32947040Y15555382D01*
X32937500Y15507422D01*
X32937500Y15353578D01*
X32967513Y15202691D01*
X33026387Y15060558D01*
X33111858Y14932641D01*
X33220641Y14823858D01*
X33348558Y14738387D01*
X33490691Y14679513D01*
X33641578Y14649500D01*
X33795422Y14649500D01*
X33946309Y14679513D01*
X34088442Y14738387D01*
X34216359Y14823858D01*
X34325142Y14932641D01*
X34410613Y15060558D01*
X34469487Y15202691D01*
X34499500Y15353578D01*
X34499500Y15507422D01*
X34469487Y15658309D01*
X34410613Y15800442D01*
X34325142Y15928359D01*
X34323501Y15930000D01*
X41977157Y15930000D01*
X41977157Y14230000D01*
X41984513Y14155311D01*
X42006299Y14083492D01*
X42041678Y14017304D01*
X42089289Y13959289D01*
X42147304Y13911678D01*
X42213492Y13876299D01*
X42285311Y13854513D01*
X42360000Y13847157D01*
X44060000Y13847157D01*
X44134689Y13854513D01*
X44206508Y13876299D01*
X44272696Y13911678D01*
X44330711Y13959289D01*
X44378322Y14017304D01*
X44413701Y14083492D01*
X44435487Y14155311D01*
X44442843Y14230000D01*
X44442843Y15201243D01*
X44519000Y15201243D01*
X44519000Y14958757D01*
X44566307Y14720931D01*
X44659102Y14496903D01*
X44793820Y14295283D01*
X44965283Y14123820D01*
X45166903Y13989102D01*
X45390931Y13896307D01*
X45628757Y13849000D01*
X45871243Y13849000D01*
X46109069Y13896307D01*
X46333097Y13989102D01*
X46534717Y14123820D01*
X46706180Y14295283D01*
X46840898Y14496903D01*
X46933693Y14720931D01*
X46981000Y14958757D01*
X46981000Y15201243D01*
X46933693Y15439069D01*
X46840898Y15663097D01*
X46706180Y15864717D01*
X46534717Y16036180D01*
X46333097Y16170898D01*
X46109069Y16263693D01*
X45871243Y16311000D01*
X45628757Y16311000D01*
X45390931Y16263693D01*
X45166903Y16170898D01*
X44965283Y16036180D01*
X44793820Y15864717D01*
X44659102Y15663097D01*
X44566307Y15439069D01*
X44519000Y15201243D01*
X44442843Y15201243D01*
X44442843Y15930000D01*
X44435487Y16004689D01*
X44413701Y16076508D01*
X44378322Y16142696D01*
X44330711Y16200711D01*
X44272696Y16248322D01*
X44206508Y16283701D01*
X44134689Y16305487D01*
X44060000Y16312843D01*
X42360000Y16312843D01*
X42285311Y16305487D01*
X42213492Y16283701D01*
X42147304Y16248322D01*
X42089289Y16200711D01*
X42041678Y16142696D01*
X42006299Y16076508D01*
X41984513Y16004689D01*
X41977157Y15930000D01*
X34323501Y15930000D01*
X34216359Y16037142D01*
X34088442Y16122613D01*
X33946309Y16181487D01*
X33795422Y16211500D01*
X33641578Y16211500D01*
X33593618Y16201960D01*
X32724174Y17071403D01*
X32709853Y17088853D01*
X32640236Y17145987D01*
X32560809Y17188441D01*
X32474627Y17214585D01*
X32407460Y17221200D01*
X32407450Y17221200D01*
X32385000Y17223411D01*
X32362550Y17221200D01*
X28573809Y17221200D01*
X28546642Y17261859D01*
X28437859Y17370642D01*
X28309942Y17456113D01*
X28167809Y17514987D01*
X28016922Y17545000D01*
X27863078Y17545000D01*
X27712191Y17514987D01*
X27570058Y17456113D01*
X27442141Y17370642D01*
X27333358Y17261859D01*
X27247887Y17133942D01*
X27189013Y16991809D01*
X27159000Y16840922D01*
X406000Y16840922D01*
X406000Y18999922D01*
X8236000Y18999922D01*
X8236000Y18846078D01*
X8266013Y18695191D01*
X8324887Y18553058D01*
X8410358Y18425141D01*
X8519141Y18316358D01*
X8647058Y18230887D01*
X8789191Y18172013D01*
X8940078Y18142000D01*
X9093922Y18142000D01*
X9244809Y18172013D01*
X9386942Y18230887D01*
X9514859Y18316358D01*
X9588101Y18389600D01*
X10133813Y18389600D01*
X10160000Y18387021D01*
X10186187Y18389600D01*
X10186195Y18389600D01*
X10264565Y18397319D01*
X10365111Y18427819D01*
X10457775Y18477349D01*
X10538995Y18544005D01*
X10555696Y18564355D01*
X11022341Y19031000D01*
X11125922Y19031000D01*
X11276809Y19061013D01*
X11418942Y19119887D01*
X11546859Y19205358D01*
X11655642Y19314141D01*
X11741113Y19442058D01*
X11799987Y19584191D01*
X11830000Y19735078D01*
X11830000Y19888922D01*
X11799987Y20039809D01*
X11741113Y20181942D01*
X11655642Y20309859D01*
X11546859Y20418642D01*
X11418942Y20504113D01*
X11276809Y20562987D01*
X11125922Y20593000D01*
X10972078Y20593000D01*
X10821191Y20562987D01*
X10679058Y20504113D01*
X10551141Y20418642D01*
X10442358Y20309859D01*
X10356887Y20181942D01*
X10298013Y20039809D01*
X10268000Y19888922D01*
X10268000Y19785341D01*
X9939059Y19456400D01*
X9588101Y19456400D01*
X9514859Y19529642D01*
X9386942Y19615113D01*
X9244809Y19673987D01*
X9093922Y19704000D01*
X8940078Y19704000D01*
X8789191Y19673987D01*
X8647058Y19615113D01*
X8519141Y19529642D01*
X8410358Y19420859D01*
X8324887Y19292942D01*
X8266013Y19150809D01*
X8236000Y18999922D01*
X406000Y18999922D01*
X406000Y22695111D01*
X519000Y22695111D01*
X519000Y22304889D01*
X595129Y21922164D01*
X744461Y21561645D01*
X961257Y21237186D01*
X1237186Y20961257D01*
X1561645Y20744461D01*
X1922164Y20595129D01*
X2304889Y20519000D01*
X2695111Y20519000D01*
X3077836Y20595129D01*
X3438355Y20744461D01*
X3762814Y20961257D01*
X4038743Y21237186D01*
X4255539Y21561645D01*
X4404871Y21922164D01*
X4405061Y21923124D01*
X17828874Y21923124D01*
X17908790Y21715471D01*
X18027682Y21527399D01*
X18045447Y21508711D01*
X18040157Y21455000D01*
X18040157Y20455000D01*
X18047513Y20380311D01*
X18069299Y20308492D01*
X18104678Y20242304D01*
X18152289Y20184289D01*
X18210304Y20136678D01*
X18276492Y20101299D01*
X18348311Y20079513D01*
X18423000Y20072157D01*
X18750390Y20072157D01*
X18738887Y20054942D01*
X18680013Y19912809D01*
X18650000Y19761922D01*
X18650000Y19608078D01*
X18680013Y19457191D01*
X18738887Y19315058D01*
X18824358Y19187141D01*
X18933141Y19078358D01*
X19061058Y18992887D01*
X19203191Y18934013D01*
X19354078Y18904000D01*
X19507922Y18904000D01*
X19658809Y18934013D01*
X19800942Y18992887D01*
X19928859Y19078358D01*
X20037642Y19187141D01*
X20123113Y19315058D01*
X20181987Y19457191D01*
X20203628Y19565990D01*
X20212490Y19552728D01*
X20321273Y19443945D01*
X20449190Y19358474D01*
X20591323Y19299600D01*
X20742210Y19269587D01*
X20896054Y19269587D01*
X21046941Y19299600D01*
X21189074Y19358474D01*
X21316991Y19443945D01*
X21425774Y19552728D01*
X21511245Y19680645D01*
X21570119Y19822778D01*
X21600132Y19973665D01*
X21600132Y20084017D01*
X21719978Y20107856D01*
X21880310Y20174268D01*
X22024605Y20270682D01*
X22098000Y20344077D01*
X22171395Y20270682D01*
X22315690Y20174268D01*
X22476022Y20107856D01*
X22646229Y20074000D01*
X22819771Y20074000D01*
X22989978Y20107856D01*
X23150310Y20174268D01*
X23294605Y20270682D01*
X23368000Y20344077D01*
X23441395Y20270682D01*
X23585690Y20174268D01*
X23746022Y20107856D01*
X23916229Y20074000D01*
X24089771Y20074000D01*
X24259978Y20107856D01*
X24420310Y20174268D01*
X24564605Y20270682D01*
X24687318Y20393395D01*
X24783732Y20537690D01*
X24850144Y20698022D01*
X24884000Y20868229D01*
X24884000Y21041771D01*
X24850144Y21211978D01*
X24783732Y21372310D01*
X24770176Y21392598D01*
X24898318Y21527399D01*
X25017210Y21715471D01*
X25097126Y21923124D01*
X24972129Y22098000D01*
X24130000Y22098000D01*
X24130000Y22078000D01*
X23876000Y22078000D01*
X23876000Y22098000D01*
X23856000Y22098000D01*
X23856000Y22352000D01*
X23876000Y22352000D01*
X23876000Y23192954D01*
X24130000Y23192954D01*
X24130000Y22352000D01*
X24972129Y22352000D01*
X25097126Y22526876D01*
X25017210Y22734529D01*
X24898318Y22922601D01*
X24745020Y23083865D01*
X24563206Y23212123D01*
X24359864Y23302446D01*
X24304874Y23319119D01*
X24130000Y23192954D01*
X23876000Y23192954D01*
X23701126Y23319119D01*
X23646136Y23302446D01*
X23442794Y23212123D01*
X23260980Y23083865D01*
X23172569Y22990859D01*
X23150310Y23005732D01*
X22989978Y23072144D01*
X22819771Y23106000D01*
X22646229Y23106000D01*
X22476022Y23072144D01*
X22315690Y23005732D01*
X22171395Y22909318D01*
X22098000Y22835923D01*
X22024605Y22909318D01*
X21880310Y23005732D01*
X21719978Y23072144D01*
X21549771Y23106000D01*
X21376229Y23106000D01*
X21206022Y23072144D01*
X21045690Y23005732D01*
X20901395Y22909318D01*
X20828000Y22835923D01*
X20754605Y22909318D01*
X20610310Y23005732D01*
X20449978Y23072144D01*
X20279771Y23106000D01*
X20106229Y23106000D01*
X19936022Y23072144D01*
X19775690Y23005732D01*
X19753431Y22990859D01*
X19665020Y23083865D01*
X19483206Y23212123D01*
X19279864Y23302446D01*
X19224874Y23319119D01*
X19050000Y23192954D01*
X19050000Y22352000D01*
X19070000Y22352000D01*
X19070000Y22098000D01*
X19050000Y22098000D01*
X19050000Y22078000D01*
X18796000Y22078000D01*
X18796000Y22098000D01*
X17953871Y22098000D01*
X17828874Y21923124D01*
X4405061Y21923124D01*
X4481000Y22304889D01*
X4481000Y22695111D01*
X4404871Y23077836D01*
X4303385Y23322846D01*
X7669000Y23322846D01*
X7669000Y23159154D01*
X7700935Y22998606D01*
X7763577Y22847374D01*
X7854520Y22711268D01*
X7970268Y22595520D01*
X8106374Y22504577D01*
X8257606Y22441935D01*
X8418154Y22410000D01*
X8581846Y22410000D01*
X8742394Y22441935D01*
X8893626Y22504577D01*
X9029732Y22595520D01*
X9145480Y22711268D01*
X9236423Y22847374D01*
X9299065Y22998606D01*
X9331000Y23159154D01*
X9331000Y23322846D01*
X10669000Y23322846D01*
X10669000Y23159154D01*
X10700935Y22998606D01*
X10763577Y22847374D01*
X10854520Y22711268D01*
X10970268Y22595520D01*
X11106374Y22504577D01*
X11257606Y22441935D01*
X11418154Y22410000D01*
X11581846Y22410000D01*
X11742394Y22441935D01*
X11893626Y22504577D01*
X11926998Y22526876D01*
X17828874Y22526876D01*
X17953871Y22352000D01*
X18796000Y22352000D01*
X18796000Y23192954D01*
X18621126Y23319119D01*
X18566136Y23302446D01*
X18362794Y23212123D01*
X18180980Y23083865D01*
X18027682Y22922601D01*
X17908790Y22734529D01*
X17828874Y22526876D01*
X11926998Y22526876D01*
X12029732Y22595520D01*
X12145480Y22711268D01*
X12236423Y22847374D01*
X12299065Y22998606D01*
X12331000Y23159154D01*
X12331000Y23322846D01*
X35669000Y23322846D01*
X35669000Y23159154D01*
X35700935Y22998606D01*
X35763577Y22847374D01*
X35854520Y22711268D01*
X35970268Y22595520D01*
X36106374Y22504577D01*
X36257606Y22441935D01*
X36418154Y22410000D01*
X36581846Y22410000D01*
X36742394Y22441935D01*
X36893626Y22504577D01*
X37029732Y22595520D01*
X37145480Y22711268D01*
X37236423Y22847374D01*
X37299065Y22998606D01*
X37331000Y23159154D01*
X37331000Y23322846D01*
X38669000Y23322846D01*
X38669000Y23159154D01*
X38700935Y22998606D01*
X38763577Y22847374D01*
X38854520Y22711268D01*
X38970268Y22595520D01*
X39106374Y22504577D01*
X39257606Y22441935D01*
X39418154Y22410000D01*
X39581846Y22410000D01*
X39742394Y22441935D01*
X39893626Y22504577D01*
X40029732Y22595520D01*
X40145480Y22711268D01*
X40236423Y22847374D01*
X40299065Y22998606D01*
X40331000Y23159154D01*
X40331000Y23322846D01*
X40299065Y23483394D01*
X40236423Y23634626D01*
X40145480Y23770732D01*
X40029732Y23886480D01*
X39893626Y23977423D01*
X39742394Y24040065D01*
X39581846Y24072000D01*
X39418154Y24072000D01*
X39257606Y24040065D01*
X39106374Y23977423D01*
X38970268Y23886480D01*
X38854520Y23770732D01*
X38763577Y23634626D01*
X38700935Y23483394D01*
X38669000Y23322846D01*
X37331000Y23322846D01*
X37299065Y23483394D01*
X37236423Y23634626D01*
X37145480Y23770732D01*
X37029732Y23886480D01*
X36893626Y23977423D01*
X36742394Y24040065D01*
X36581846Y24072000D01*
X36418154Y24072000D01*
X36257606Y24040065D01*
X36106374Y23977423D01*
X35970268Y23886480D01*
X35854520Y23770732D01*
X35763577Y23634626D01*
X35700935Y23483394D01*
X35669000Y23322846D01*
X12331000Y23322846D01*
X12299065Y23483394D01*
X12236423Y23634626D01*
X12145480Y23770732D01*
X12029732Y23886480D01*
X11893626Y23977423D01*
X11742394Y24040065D01*
X11581846Y24072000D01*
X11418154Y24072000D01*
X11257606Y24040065D01*
X11106374Y23977423D01*
X10970268Y23886480D01*
X10854520Y23770732D01*
X10763577Y23634626D01*
X10700935Y23483394D01*
X10669000Y23322846D01*
X9331000Y23322846D01*
X9299065Y23483394D01*
X9236423Y23634626D01*
X9145480Y23770732D01*
X9029732Y23886480D01*
X8893626Y23977423D01*
X8742394Y24040065D01*
X8581846Y24072000D01*
X8418154Y24072000D01*
X8257606Y24040065D01*
X8106374Y23977423D01*
X7970268Y23886480D01*
X7854520Y23770732D01*
X7763577Y23634626D01*
X7700935Y23483394D01*
X7669000Y23322846D01*
X4303385Y23322846D01*
X4255539Y23438355D01*
X4038743Y23762814D01*
X3762814Y24038743D01*
X3438355Y24255539D01*
X3077836Y24404871D01*
X2695111Y24481000D01*
X2304889Y24481000D01*
X1922164Y24404871D01*
X1561645Y24255539D01*
X1237186Y24038743D01*
X961257Y23762814D01*
X744461Y23438355D01*
X595129Y23077836D01*
X519000Y22695111D01*
X406000Y22695111D01*
X406000Y22980146D01*
X438267Y23309229D01*
X528075Y23606688D01*
X673945Y23881028D01*
X870325Y24121813D01*
X1109736Y24319873D01*
X1383053Y24467654D01*
X1679872Y24559535D01*
X2007782Y24594000D01*
X45980146Y24594000D01*
X46309229Y24561733D01*
%TA.AperFunction,Conductor*%
D18*
G36*
X46309229Y24561733D02*
G01*
X46606688Y24471925D01*
X46881028Y24326055D01*
X47121813Y24129675D01*
X47319873Y23890264D01*
X47467654Y23616947D01*
X47559535Y23320128D01*
X47594001Y22992208D01*
X47594000Y2019854D01*
X47561733Y1690770D01*
X47471926Y1393316D01*
X47326056Y1118975D01*
X47129675Y878187D01*
X46890265Y680129D01*
X46616948Y532346D01*
X46320128Y440465D01*
X45992218Y406000D01*
X2019854Y406000D01*
X1690770Y438267D01*
X1393316Y528074D01*
X1118975Y673944D01*
X878187Y870325D01*
X680129Y1109735D01*
X532346Y1383052D01*
X440465Y1679872D01*
X406000Y2007782D01*
X406000Y3100000D01*
X27267157Y3100000D01*
X27267157Y1400000D01*
X27274513Y1325311D01*
X27296299Y1253492D01*
X27331678Y1187304D01*
X27379289Y1129289D01*
X27437304Y1081678D01*
X27503492Y1046299D01*
X27575311Y1024513D01*
X27650000Y1017157D01*
X29350000Y1017157D01*
X29424689Y1024513D01*
X29496508Y1046299D01*
X29562696Y1081678D01*
X29620711Y1129289D01*
X29668322Y1187304D01*
X29703701Y1253492D01*
X29725487Y1325311D01*
X29732843Y1400000D01*
X29732843Y2371243D01*
X29809000Y2371243D01*
X29809000Y2128757D01*
X29856307Y1890931D01*
X29949102Y1666903D01*
X30083820Y1465283D01*
X30255283Y1293820D01*
X30456903Y1159102D01*
X30680931Y1066307D01*
X30918757Y1019000D01*
X31161243Y1019000D01*
X31399069Y1066307D01*
X31623097Y1159102D01*
X31824717Y1293820D01*
X31996180Y1465283D01*
X32130898Y1666903D01*
X32178228Y1781168D01*
X32235843Y1618748D01*
X32384822Y1368645D01*
X32579731Y1152412D01*
X32813080Y978359D01*
X33075901Y853175D01*
X33223110Y808524D01*
X33453000Y929845D01*
X33453000Y2123000D01*
X33707000Y2123000D01*
X33707000Y929845D01*
X33936890Y808524D01*
X34084099Y853175D01*
X34346920Y978359D01*
X34580269Y1152412D01*
X34775178Y1368645D01*
X34924157Y1618748D01*
X35021481Y1893109D01*
X34900814Y2123000D01*
X33707000Y2123000D01*
X33453000Y2123000D01*
X33433000Y2123000D01*
X33433000Y2377000D01*
X33453000Y2377000D01*
X33453000Y3570155D01*
X33707000Y3570155D01*
X33707000Y2377000D01*
X34900814Y2377000D01*
X35021481Y2606891D01*
X34990187Y2695111D01*
X43519000Y2695111D01*
X43519000Y2304889D01*
X43595129Y1922164D01*
X43744461Y1561645D01*
X43961257Y1237186D01*
X44237186Y961257D01*
X44561645Y744461D01*
X44922164Y595129D01*
X45304889Y519000D01*
X45695111Y519000D01*
X46077836Y595129D01*
X46438355Y744461D01*
X46762814Y961257D01*
X47038743Y1237186D01*
X47255539Y1561645D01*
X47404871Y1922164D01*
X47481000Y2304889D01*
X47481000Y2695111D01*
X47404871Y3077836D01*
X47255539Y3438355D01*
X47038743Y3762814D01*
X46762814Y4038743D01*
X46438355Y4255539D01*
X46077836Y4404871D01*
X45695111Y4481000D01*
X45304889Y4481000D01*
X44922164Y4404871D01*
X44561645Y4255539D01*
X44237186Y4038743D01*
X43961257Y3762814D01*
X43744461Y3438355D01*
X43595129Y3077836D01*
X43519000Y2695111D01*
X34990187Y2695111D01*
X34924157Y2881252D01*
X34775178Y3131355D01*
X34580269Y3347588D01*
X34346920Y3521641D01*
X34084099Y3646825D01*
X33936890Y3691476D01*
X33707000Y3570155D01*
X33453000Y3570155D01*
X33223110Y3691476D01*
X33075901Y3646825D01*
X32813080Y3521641D01*
X32579731Y3347588D01*
X32384822Y3131355D01*
X32235843Y2881252D01*
X32178228Y2718832D01*
X32130898Y2833097D01*
X31996180Y3034717D01*
X31824717Y3206180D01*
X31623097Y3340898D01*
X31399069Y3433693D01*
X31161243Y3481000D01*
X30918757Y3481000D01*
X30680931Y3433693D01*
X30456903Y3340898D01*
X30255283Y3206180D01*
X30083820Y3034717D01*
X29949102Y2833097D01*
X29856307Y2609069D01*
X29809000Y2371243D01*
X29732843Y2371243D01*
X29732843Y3100000D01*
X29725487Y3174689D01*
X29703701Y3246508D01*
X29668322Y3312696D01*
X29620711Y3370711D01*
X29562696Y3418322D01*
X29496508Y3453701D01*
X29424689Y3475487D01*
X29350000Y3482843D01*
X27650000Y3482843D01*
X27575311Y3475487D01*
X27503492Y3453701D01*
X27437304Y3418322D01*
X27379289Y3370711D01*
X27331678Y3312696D01*
X27296299Y3246508D01*
X27274513Y3174689D01*
X27267157Y3100000D01*
X406000Y3100000D01*
X406000Y8306522D01*
X14255800Y8306522D01*
X14255800Y8152678D01*
X14285813Y8001791D01*
X14344687Y7859658D01*
X14430158Y7731741D01*
X14538941Y7622958D01*
X14666858Y7537487D01*
X14808991Y7478613D01*
X14959878Y7448600D01*
X15113722Y7448600D01*
X15264609Y7478613D01*
X15406742Y7537487D01*
X15534659Y7622958D01*
X15640656Y7728955D01*
X15649358Y7715931D01*
X15758141Y7607148D01*
X15886058Y7521677D01*
X16028191Y7462803D01*
X16179078Y7432790D01*
X16332922Y7432790D01*
X16483809Y7462803D01*
X16625942Y7521677D01*
X16753859Y7607148D01*
X16862642Y7715931D01*
X16948113Y7843848D01*
X17006987Y7985981D01*
X17037000Y8136868D01*
X17037000Y8290712D01*
X17006987Y8441599D01*
X16973509Y8522422D01*
X20618500Y8522422D01*
X20618500Y8368578D01*
X20648513Y8217691D01*
X20707387Y8075558D01*
X20792858Y7947641D01*
X20901641Y7838858D01*
X21029558Y7753387D01*
X21171691Y7694513D01*
X21322578Y7664500D01*
X21476422Y7664500D01*
X21627309Y7694513D01*
X21769442Y7753387D01*
X21897359Y7838858D01*
X22006142Y7947641D01*
X22033309Y7988300D01*
X24067623Y7988300D01*
X24501540Y7554383D01*
X24492000Y7506422D01*
X24492000Y7352578D01*
X24522013Y7201691D01*
X24580887Y7059558D01*
X24666358Y6931641D01*
X24775141Y6822858D01*
X24903058Y6737387D01*
X25045191Y6678513D01*
X25196078Y6648500D01*
X25349922Y6648500D01*
X25500809Y6678513D01*
X25642942Y6737387D01*
X25770859Y6822858D01*
X25879642Y6931641D01*
X25965113Y7059558D01*
X26023987Y7201691D01*
X26054000Y7352578D01*
X26054000Y7506422D01*
X26023987Y7657309D01*
X25965113Y7799442D01*
X25879642Y7927359D01*
X25770859Y8036142D01*
X25642942Y8121613D01*
X25500809Y8180487D01*
X25349922Y8210500D01*
X25196078Y8210500D01*
X25148117Y8200960D01*
X24596174Y8752903D01*
X24581853Y8770353D01*
X24512236Y8827487D01*
X24432809Y8869941D01*
X24346627Y8896085D01*
X24279460Y8902700D01*
X24279450Y8902700D01*
X24257000Y8904911D01*
X24234550Y8902700D01*
X22033309Y8902700D01*
X22006142Y8943359D01*
X21897359Y9052142D01*
X21769442Y9137613D01*
X21627309Y9196487D01*
X21476422Y9226500D01*
X21322578Y9226500D01*
X21171691Y9196487D01*
X21029558Y9137613D01*
X20901641Y9052142D01*
X20792858Y8943359D01*
X20707387Y8815442D01*
X20648513Y8673309D01*
X20618500Y8522422D01*
X16973509Y8522422D01*
X16948113Y8583732D01*
X16862642Y8711649D01*
X16789400Y8784891D01*
X16789400Y9679637D01*
X16880859Y9740748D01*
X16989642Y9849531D01*
X17075113Y9977448D01*
X17133987Y10119581D01*
X17164000Y10270468D01*
X17164000Y10424312D01*
X17133987Y10575199D01*
X17075113Y10717332D01*
X16989642Y10845249D01*
X16880859Y10954032D01*
X16752942Y11039503D01*
X16610809Y11098377D01*
X16459922Y11128390D01*
X16306078Y11128390D01*
X16270851Y11121383D01*
X16244987Y11251409D01*
X16216770Y11319532D01*
X18792563Y11319532D01*
X18792563Y11165688D01*
X18822576Y11014801D01*
X18881450Y10872668D01*
X18966921Y10744751D01*
X19075704Y10635968D01*
X19203621Y10550497D01*
X19345754Y10491623D01*
X19496641Y10461610D01*
X19650485Y10461610D01*
X19763056Y10484001D01*
X19804546Y10471415D01*
X19871713Y10464800D01*
X19871722Y10464800D01*
X19894172Y10462589D01*
X19916622Y10464800D01*
X22353191Y10464800D01*
X22380358Y10424141D01*
X22489141Y10315358D01*
X22617058Y10229887D01*
X22759191Y10171013D01*
X22910078Y10141000D01*
X23063922Y10141000D01*
X23214809Y10171013D01*
X23356942Y10229887D01*
X23484859Y10315358D01*
X23593642Y10424141D01*
X23679113Y10552058D01*
X23737987Y10694191D01*
X23765808Y10834062D01*
X33607764Y10834062D01*
X33607764Y10680218D01*
X33637777Y10529331D01*
X33696651Y10387198D01*
X33782122Y10259281D01*
X33890905Y10150498D01*
X34018822Y10065027D01*
X34160955Y10006153D01*
X34311842Y9976140D01*
X34465686Y9976140D01*
X34616573Y10006153D01*
X34758706Y10065027D01*
X34886623Y10150498D01*
X34995406Y10259281D01*
X35022573Y10299940D01*
X36112752Y10299940D01*
X36566540Y9846152D01*
X36557000Y9798191D01*
X36557000Y9644347D01*
X36587013Y9493460D01*
X36645887Y9351327D01*
X36731358Y9223410D01*
X36840141Y9114627D01*
X36968058Y9029156D01*
X37110191Y8970282D01*
X37261078Y8940269D01*
X37414922Y8940269D01*
X37565809Y8970282D01*
X37707942Y9029156D01*
X37835859Y9114627D01*
X37944642Y9223410D01*
X38030113Y9351327D01*
X38088987Y9493460D01*
X38119000Y9644347D01*
X38119000Y9798191D01*
X38088987Y9949078D01*
X38030113Y10091211D01*
X38010047Y10121243D01*
X41979000Y10121243D01*
X41979000Y9878757D01*
X42026307Y9640931D01*
X42119102Y9416903D01*
X42253820Y9215283D01*
X42425283Y9043820D01*
X42626903Y8909102D01*
X42850931Y8816307D01*
X43088757Y8769000D01*
X43331243Y8769000D01*
X43569069Y8816307D01*
X43793097Y8909102D01*
X43994717Y9043820D01*
X44166180Y9215283D01*
X44300898Y9416903D01*
X44344909Y9523154D01*
X44353175Y9495901D01*
X44478359Y9233080D01*
X44652412Y8999731D01*
X44868645Y8804822D01*
X45118748Y8655843D01*
X45393109Y8558519D01*
X45623000Y8679186D01*
X45623000Y9873000D01*
X45877000Y9873000D01*
X45877000Y8679186D01*
X46106891Y8558519D01*
X46381252Y8655843D01*
X46631355Y8804822D01*
X46847588Y8999731D01*
X47021641Y9233080D01*
X47146825Y9495901D01*
X47191476Y9643110D01*
X47070155Y9873000D01*
X45877000Y9873000D01*
X45623000Y9873000D01*
X45603000Y9873000D01*
X45603000Y10127000D01*
X45623000Y10127000D01*
X45623000Y10147000D01*
X45877000Y10147000D01*
X45877000Y10127000D01*
X47070155Y10127000D01*
X47191476Y10356890D01*
X47146825Y10504099D01*
X47021641Y10766920D01*
X46847588Y11000269D01*
X46631355Y11195178D01*
X46381252Y11344157D01*
X46218832Y11401772D01*
X46333097Y11449102D01*
X46534717Y11583820D01*
X46706180Y11755283D01*
X46840898Y11956903D01*
X46933693Y12180931D01*
X46981000Y12418757D01*
X46981000Y12661243D01*
X46933693Y12899069D01*
X46840898Y13123097D01*
X46706180Y13324717D01*
X46534717Y13496180D01*
X46333097Y13630898D01*
X46109069Y13723693D01*
X45871243Y13771000D01*
X45628757Y13771000D01*
X45390931Y13723693D01*
X45166903Y13630898D01*
X44965283Y13496180D01*
X44793820Y13324717D01*
X44659102Y13123097D01*
X44566307Y12899069D01*
X44519000Y12661243D01*
X44519000Y12418757D01*
X44566307Y12180931D01*
X44659102Y11956903D01*
X44793820Y11755283D01*
X44965283Y11583820D01*
X45166903Y11449102D01*
X45281168Y11401772D01*
X45118748Y11344157D01*
X44868645Y11195178D01*
X44652412Y11000269D01*
X44478359Y10766920D01*
X44353175Y10504099D01*
X44344909Y10476846D01*
X44300898Y10583097D01*
X44166180Y10784717D01*
X43994717Y10956180D01*
X43793097Y11090898D01*
X43569069Y11183693D01*
X43331243Y11231000D01*
X43088757Y11231000D01*
X42850931Y11183693D01*
X42626903Y11090898D01*
X42425283Y10956180D01*
X42253820Y10784717D01*
X42119102Y10583097D01*
X42026307Y10359069D01*
X41979000Y10121243D01*
X38010047Y10121243D01*
X37944642Y10219128D01*
X37835859Y10327911D01*
X37707942Y10413382D01*
X37565809Y10472256D01*
X37414922Y10502269D01*
X37261078Y10502269D01*
X37213117Y10492729D01*
X36641303Y11064543D01*
X36626982Y11081993D01*
X36557365Y11139127D01*
X36477938Y11181581D01*
X36391756Y11207725D01*
X36324589Y11214340D01*
X36324579Y11214340D01*
X36302129Y11216551D01*
X36279679Y11214340D01*
X35022573Y11214340D01*
X34995406Y11254999D01*
X34886623Y11363782D01*
X34758706Y11449253D01*
X34616573Y11508127D01*
X34465686Y11538140D01*
X34311842Y11538140D01*
X34160955Y11508127D01*
X34018822Y11449253D01*
X33890905Y11363782D01*
X33782122Y11254999D01*
X33696651Y11127082D01*
X33637777Y10984949D01*
X33607764Y10834062D01*
X23765808Y10834062D01*
X23768000Y10845078D01*
X23768000Y10998922D01*
X23737987Y11149809D01*
X23679113Y11291942D01*
X23593642Y11419859D01*
X23520001Y11493500D01*
X23568242Y11541741D01*
X23653713Y11669658D01*
X23712587Y11811791D01*
X23742600Y11962678D01*
X23742600Y12116522D01*
X23712587Y12267409D01*
X23653713Y12409542D01*
X23568242Y12537459D01*
X23459459Y12646242D01*
X23417018Y12674600D01*
X28036559Y12674600D01*
X28810000Y11901159D01*
X28810000Y11797578D01*
X28840013Y11646691D01*
X28898887Y11504558D01*
X28984358Y11376641D01*
X29093141Y11267858D01*
X29221058Y11182387D01*
X29363191Y11123513D01*
X29514078Y11093500D01*
X29667922Y11093500D01*
X29818809Y11123513D01*
X29960942Y11182387D01*
X30088859Y11267858D01*
X30197642Y11376641D01*
X30283113Y11504558D01*
X30341987Y11646691D01*
X30372000Y11797578D01*
X30372000Y11951422D01*
X30341987Y12102309D01*
X30283113Y12244442D01*
X30197642Y12372359D01*
X30088859Y12481142D01*
X29960942Y12566613D01*
X29818809Y12625487D01*
X29667922Y12655500D01*
X29564341Y12655500D01*
X29558598Y12661243D01*
X41979000Y12661243D01*
X41979000Y12418757D01*
X42026307Y12180931D01*
X42119102Y11956903D01*
X42253820Y11755283D01*
X42425283Y11583820D01*
X42626903Y11449102D01*
X42850931Y11356307D01*
X43088757Y11309000D01*
X43331243Y11309000D01*
X43569069Y11356307D01*
X43793097Y11449102D01*
X43994717Y11583820D01*
X44166180Y11755283D01*
X44300898Y11956903D01*
X44393693Y12180931D01*
X44441000Y12418757D01*
X44441000Y12661243D01*
X44393693Y12899069D01*
X44300898Y13123097D01*
X44166180Y13324717D01*
X43994717Y13496180D01*
X43793097Y13630898D01*
X43569069Y13723693D01*
X43331243Y13771000D01*
X43088757Y13771000D01*
X42850931Y13723693D01*
X42626903Y13630898D01*
X42425283Y13496180D01*
X42253820Y13324717D01*
X42119102Y13123097D01*
X42026307Y12899069D01*
X41979000Y12661243D01*
X29558598Y12661243D01*
X28653196Y13566645D01*
X28636495Y13586995D01*
X28555275Y13653651D01*
X28462611Y13703181D01*
X28362065Y13733681D01*
X28283695Y13741400D01*
X28283687Y13741400D01*
X28257500Y13743979D01*
X28231313Y13741400D01*
X22796101Y13741400D01*
X22722859Y13814642D01*
X22594942Y13900113D01*
X22452809Y13958987D01*
X22301922Y13989000D01*
X22148078Y13989000D01*
X21997191Y13958987D01*
X21855058Y13900113D01*
X21727141Y13814642D01*
X21618358Y13705859D01*
X21532887Y13577942D01*
X21474013Y13435809D01*
X21444000Y13284922D01*
X21444000Y13131078D01*
X21474013Y12980191D01*
X21532887Y12838058D01*
X21618358Y12710141D01*
X21727141Y12601358D01*
X21855058Y12515887D01*
X21901138Y12496800D01*
X21614209Y12496800D01*
X21587042Y12537459D01*
X21478259Y12646242D01*
X21350342Y12731713D01*
X21208209Y12790587D01*
X21057322Y12820600D01*
X20903478Y12820600D01*
X20752591Y12790587D01*
X20610458Y12731713D01*
X20482541Y12646242D01*
X20373758Y12537459D01*
X20288287Y12409542D01*
X20229413Y12267409D01*
X20199400Y12116522D01*
X20199400Y11962678D01*
X20229413Y11811791D01*
X20288287Y11669658D01*
X20373758Y11541741D01*
X20482541Y11432958D01*
X20562996Y11379200D01*
X20342694Y11379200D01*
X20324550Y11470419D01*
X20265676Y11612552D01*
X20180205Y11740469D01*
X20071422Y11849252D01*
X19943505Y11934723D01*
X19801372Y11993597D01*
X19650485Y12023610D01*
X19496641Y12023610D01*
X19345754Y11993597D01*
X19203621Y11934723D01*
X19075704Y11849252D01*
X18966921Y11740469D01*
X18881450Y11612552D01*
X18822576Y11470419D01*
X18792563Y11319532D01*
X16216770Y11319532D01*
X16186113Y11393542D01*
X16100642Y11521459D01*
X15991859Y11630242D01*
X15863942Y11715713D01*
X15721809Y11774587D01*
X15570922Y11804600D01*
X15417078Y11804600D01*
X15266191Y11774587D01*
X15124058Y11715713D01*
X14996141Y11630242D01*
X14887358Y11521459D01*
X14801887Y11393542D01*
X14743013Y11251409D01*
X14713000Y11100522D01*
X14713000Y10946678D01*
X14743013Y10795791D01*
X14801887Y10653658D01*
X14887358Y10525741D01*
X14996141Y10416958D01*
X15036800Y10389790D01*
X15036801Y9010600D01*
X14959878Y9010600D01*
X14808991Y8980587D01*
X14666858Y8921713D01*
X14538941Y8836242D01*
X14430158Y8727459D01*
X14344687Y8599542D01*
X14285813Y8457409D01*
X14255800Y8306522D01*
X406000Y8306522D01*
X406000Y10564610D01*
X4124000Y10564610D01*
X4124000Y10435390D01*
X4149210Y10308652D01*
X4198660Y10189268D01*
X4270452Y10081824D01*
X4361824Y9990452D01*
X4469268Y9918660D01*
X4588652Y9869210D01*
X4715390Y9844000D01*
X4844610Y9844000D01*
X4971348Y9869210D01*
X5090732Y9918660D01*
X5198176Y9990452D01*
X5289548Y10081824D01*
X5361340Y10189268D01*
X5410790Y10308652D01*
X5436000Y10435390D01*
X5436000Y10564610D01*
X5410790Y10691348D01*
X5361340Y10810732D01*
X5289548Y10918176D01*
X5198176Y11009548D01*
X5090732Y11081340D01*
X4971348Y11130790D01*
X4844610Y11156000D01*
X4715390Y11156000D01*
X4588652Y11130790D01*
X4469268Y11081340D01*
X4361824Y11009548D01*
X4270452Y10918176D01*
X4198660Y10810732D01*
X4149210Y10691348D01*
X4124000Y10564610D01*
X406000Y10564610D01*
X406000Y14564610D01*
X4124000Y14564610D01*
X4124000Y14435390D01*
X4149210Y14308652D01*
X4198660Y14189268D01*
X4270452Y14081824D01*
X4361824Y13990452D01*
X4469268Y13918660D01*
X4588652Y13869210D01*
X4715390Y13844000D01*
X4844610Y13844000D01*
X4971348Y13869210D01*
X5090732Y13918660D01*
X5198176Y13990452D01*
X5289548Y14081824D01*
X5361340Y14189268D01*
X5410790Y14308652D01*
X5436000Y14435390D01*
X5436000Y14564610D01*
X5410790Y14691348D01*
X5361340Y14810732D01*
X5289548Y14918176D01*
X5198176Y15009548D01*
X5090732Y15081340D01*
X4971348Y15130790D01*
X4844610Y15156000D01*
X4715390Y15156000D01*
X4588652Y15130790D01*
X4469268Y15081340D01*
X4361824Y15009548D01*
X4270452Y14918176D01*
X4198660Y14810732D01*
X4149210Y14691348D01*
X4124000Y14564610D01*
X406000Y14564610D01*
X406000Y16840922D01*
X27159000Y16840922D01*
X27159000Y16687078D01*
X27189013Y16536191D01*
X27247887Y16394058D01*
X27333358Y16266141D01*
X27442141Y16157358D01*
X27570058Y16071887D01*
X27712191Y16013013D01*
X27863078Y15983000D01*
X28016922Y15983000D01*
X28167809Y16013013D01*
X28309942Y16071887D01*
X28437859Y16157358D01*
X28546642Y16266141D01*
X28573809Y16306800D01*
X32195623Y16306800D01*
X32947040Y15555382D01*
X32937500Y15507422D01*
X32937500Y15353578D01*
X32967513Y15202691D01*
X33026387Y15060558D01*
X33111858Y14932641D01*
X33220641Y14823858D01*
X33348558Y14738387D01*
X33490691Y14679513D01*
X33641578Y14649500D01*
X33795422Y14649500D01*
X33946309Y14679513D01*
X34088442Y14738387D01*
X34216359Y14823858D01*
X34325142Y14932641D01*
X34410613Y15060558D01*
X34469487Y15202691D01*
X34499500Y15353578D01*
X34499500Y15507422D01*
X34469487Y15658309D01*
X34410613Y15800442D01*
X34325142Y15928359D01*
X34323501Y15930000D01*
X41977157Y15930000D01*
X41977157Y14230000D01*
X41984513Y14155311D01*
X42006299Y14083492D01*
X42041678Y14017304D01*
X42089289Y13959289D01*
X42147304Y13911678D01*
X42213492Y13876299D01*
X42285311Y13854513D01*
X42360000Y13847157D01*
X44060000Y13847157D01*
X44134689Y13854513D01*
X44206508Y13876299D01*
X44272696Y13911678D01*
X44330711Y13959289D01*
X44378322Y14017304D01*
X44413701Y14083492D01*
X44435487Y14155311D01*
X44442843Y14230000D01*
X44442843Y15201243D01*
X44519000Y15201243D01*
X44519000Y14958757D01*
X44566307Y14720931D01*
X44659102Y14496903D01*
X44793820Y14295283D01*
X44965283Y14123820D01*
X45166903Y13989102D01*
X45390931Y13896307D01*
X45628757Y13849000D01*
X45871243Y13849000D01*
X46109069Y13896307D01*
X46333097Y13989102D01*
X46534717Y14123820D01*
X46706180Y14295283D01*
X46840898Y14496903D01*
X46933693Y14720931D01*
X46981000Y14958757D01*
X46981000Y15201243D01*
X46933693Y15439069D01*
X46840898Y15663097D01*
X46706180Y15864717D01*
X46534717Y16036180D01*
X46333097Y16170898D01*
X46109069Y16263693D01*
X45871243Y16311000D01*
X45628757Y16311000D01*
X45390931Y16263693D01*
X45166903Y16170898D01*
X44965283Y16036180D01*
X44793820Y15864717D01*
X44659102Y15663097D01*
X44566307Y15439069D01*
X44519000Y15201243D01*
X44442843Y15201243D01*
X44442843Y15930000D01*
X44435487Y16004689D01*
X44413701Y16076508D01*
X44378322Y16142696D01*
X44330711Y16200711D01*
X44272696Y16248322D01*
X44206508Y16283701D01*
X44134689Y16305487D01*
X44060000Y16312843D01*
X42360000Y16312843D01*
X42285311Y16305487D01*
X42213492Y16283701D01*
X42147304Y16248322D01*
X42089289Y16200711D01*
X42041678Y16142696D01*
X42006299Y16076508D01*
X41984513Y16004689D01*
X41977157Y15930000D01*
X34323501Y15930000D01*
X34216359Y16037142D01*
X34088442Y16122613D01*
X33946309Y16181487D01*
X33795422Y16211500D01*
X33641578Y16211500D01*
X33593618Y16201960D01*
X32724174Y17071403D01*
X32709853Y17088853D01*
X32640236Y17145987D01*
X32560809Y17188441D01*
X32474627Y17214585D01*
X32407460Y17221200D01*
X32407450Y17221200D01*
X32385000Y17223411D01*
X32362550Y17221200D01*
X28573809Y17221200D01*
X28546642Y17261859D01*
X28437859Y17370642D01*
X28309942Y17456113D01*
X28167809Y17514987D01*
X28016922Y17545000D01*
X27863078Y17545000D01*
X27712191Y17514987D01*
X27570058Y17456113D01*
X27442141Y17370642D01*
X27333358Y17261859D01*
X27247887Y17133942D01*
X27189013Y16991809D01*
X27159000Y16840922D01*
X406000Y16840922D01*
X406000Y18999922D01*
X8236000Y18999922D01*
X8236000Y18846078D01*
X8266013Y18695191D01*
X8324887Y18553058D01*
X8410358Y18425141D01*
X8519141Y18316358D01*
X8647058Y18230887D01*
X8789191Y18172013D01*
X8940078Y18142000D01*
X9093922Y18142000D01*
X9244809Y18172013D01*
X9386942Y18230887D01*
X9514859Y18316358D01*
X9588101Y18389600D01*
X10133813Y18389600D01*
X10160000Y18387021D01*
X10186187Y18389600D01*
X10186195Y18389600D01*
X10264565Y18397319D01*
X10365111Y18427819D01*
X10457775Y18477349D01*
X10538995Y18544005D01*
X10555696Y18564355D01*
X11022341Y19031000D01*
X11125922Y19031000D01*
X11276809Y19061013D01*
X11418942Y19119887D01*
X11546859Y19205358D01*
X11655642Y19314141D01*
X11741113Y19442058D01*
X11799987Y19584191D01*
X11830000Y19735078D01*
X11830000Y19888922D01*
X11799987Y20039809D01*
X11741113Y20181942D01*
X11655642Y20309859D01*
X11546859Y20418642D01*
X11418942Y20504113D01*
X11276809Y20562987D01*
X11125922Y20593000D01*
X10972078Y20593000D01*
X10821191Y20562987D01*
X10679058Y20504113D01*
X10551141Y20418642D01*
X10442358Y20309859D01*
X10356887Y20181942D01*
X10298013Y20039809D01*
X10268000Y19888922D01*
X10268000Y19785341D01*
X9939059Y19456400D01*
X9588101Y19456400D01*
X9514859Y19529642D01*
X9386942Y19615113D01*
X9244809Y19673987D01*
X9093922Y19704000D01*
X8940078Y19704000D01*
X8789191Y19673987D01*
X8647058Y19615113D01*
X8519141Y19529642D01*
X8410358Y19420859D01*
X8324887Y19292942D01*
X8266013Y19150809D01*
X8236000Y18999922D01*
X406000Y18999922D01*
X406000Y22695111D01*
X519000Y22695111D01*
X519000Y22304889D01*
X595129Y21922164D01*
X744461Y21561645D01*
X961257Y21237186D01*
X1237186Y20961257D01*
X1561645Y20744461D01*
X1922164Y20595129D01*
X2304889Y20519000D01*
X2695111Y20519000D01*
X3077836Y20595129D01*
X3438355Y20744461D01*
X3762814Y20961257D01*
X4038743Y21237186D01*
X4255539Y21561645D01*
X4404871Y21922164D01*
X4405061Y21923124D01*
X17828874Y21923124D01*
X17908790Y21715471D01*
X18027682Y21527399D01*
X18045447Y21508711D01*
X18040157Y21455000D01*
X18040157Y20455000D01*
X18047513Y20380311D01*
X18069299Y20308492D01*
X18104678Y20242304D01*
X18152289Y20184289D01*
X18210304Y20136678D01*
X18276492Y20101299D01*
X18348311Y20079513D01*
X18423000Y20072157D01*
X18750390Y20072157D01*
X18738887Y20054942D01*
X18680013Y19912809D01*
X18650000Y19761922D01*
X18650000Y19608078D01*
X18680013Y19457191D01*
X18738887Y19315058D01*
X18824358Y19187141D01*
X18933141Y19078358D01*
X19061058Y18992887D01*
X19203191Y18934013D01*
X19354078Y18904000D01*
X19507922Y18904000D01*
X19658809Y18934013D01*
X19800942Y18992887D01*
X19928859Y19078358D01*
X20037642Y19187141D01*
X20123113Y19315058D01*
X20181987Y19457191D01*
X20203628Y19565990D01*
X20212490Y19552728D01*
X20321273Y19443945D01*
X20449190Y19358474D01*
X20591323Y19299600D01*
X20742210Y19269587D01*
X20896054Y19269587D01*
X21046941Y19299600D01*
X21189074Y19358474D01*
X21316991Y19443945D01*
X21425774Y19552728D01*
X21511245Y19680645D01*
X21570119Y19822778D01*
X21600132Y19973665D01*
X21600132Y20084017D01*
X21719978Y20107856D01*
X21880310Y20174268D01*
X22024605Y20270682D01*
X22098000Y20344077D01*
X22171395Y20270682D01*
X22315690Y20174268D01*
X22476022Y20107856D01*
X22646229Y20074000D01*
X22819771Y20074000D01*
X22989978Y20107856D01*
X23150310Y20174268D01*
X23294605Y20270682D01*
X23368000Y20344077D01*
X23441395Y20270682D01*
X23585690Y20174268D01*
X23746022Y20107856D01*
X23916229Y20074000D01*
X24089771Y20074000D01*
X24259978Y20107856D01*
X24420310Y20174268D01*
X24564605Y20270682D01*
X24687318Y20393395D01*
X24783732Y20537690D01*
X24850144Y20698022D01*
X24884000Y20868229D01*
X24884000Y21041771D01*
X24850144Y21211978D01*
X24783732Y21372310D01*
X24770176Y21392598D01*
X24898318Y21527399D01*
X25017210Y21715471D01*
X25097126Y21923124D01*
X24972129Y22098000D01*
X24130000Y22098000D01*
X24130000Y22078000D01*
X23876000Y22078000D01*
X23876000Y22098000D01*
X23856000Y22098000D01*
X23856000Y22352000D01*
X23876000Y22352000D01*
X23876000Y23192954D01*
X24130000Y23192954D01*
X24130000Y22352000D01*
X24972129Y22352000D01*
X25097126Y22526876D01*
X25017210Y22734529D01*
X24898318Y22922601D01*
X24745020Y23083865D01*
X24563206Y23212123D01*
X24359864Y23302446D01*
X24304874Y23319119D01*
X24130000Y23192954D01*
X23876000Y23192954D01*
X23701126Y23319119D01*
X23646136Y23302446D01*
X23442794Y23212123D01*
X23260980Y23083865D01*
X23172569Y22990859D01*
X23150310Y23005732D01*
X22989978Y23072144D01*
X22819771Y23106000D01*
X22646229Y23106000D01*
X22476022Y23072144D01*
X22315690Y23005732D01*
X22171395Y22909318D01*
X22098000Y22835923D01*
X22024605Y22909318D01*
X21880310Y23005732D01*
X21719978Y23072144D01*
X21549771Y23106000D01*
X21376229Y23106000D01*
X21206022Y23072144D01*
X21045690Y23005732D01*
X20901395Y22909318D01*
X20828000Y22835923D01*
X20754605Y22909318D01*
X20610310Y23005732D01*
X20449978Y23072144D01*
X20279771Y23106000D01*
X20106229Y23106000D01*
X19936022Y23072144D01*
X19775690Y23005732D01*
X19753431Y22990859D01*
X19665020Y23083865D01*
X19483206Y23212123D01*
X19279864Y23302446D01*
X19224874Y23319119D01*
X19050000Y23192954D01*
X19050000Y22352000D01*
X19070000Y22352000D01*
X19070000Y22098000D01*
X19050000Y22098000D01*
X19050000Y22078000D01*
X18796000Y22078000D01*
X18796000Y22098000D01*
X17953871Y22098000D01*
X17828874Y21923124D01*
X4405061Y21923124D01*
X4481000Y22304889D01*
X4481000Y22695111D01*
X4404871Y23077836D01*
X4303385Y23322846D01*
X7669000Y23322846D01*
X7669000Y23159154D01*
X7700935Y22998606D01*
X7763577Y22847374D01*
X7854520Y22711268D01*
X7970268Y22595520D01*
X8106374Y22504577D01*
X8257606Y22441935D01*
X8418154Y22410000D01*
X8581846Y22410000D01*
X8742394Y22441935D01*
X8893626Y22504577D01*
X9029732Y22595520D01*
X9145480Y22711268D01*
X9236423Y22847374D01*
X9299065Y22998606D01*
X9331000Y23159154D01*
X9331000Y23322846D01*
X10669000Y23322846D01*
X10669000Y23159154D01*
X10700935Y22998606D01*
X10763577Y22847374D01*
X10854520Y22711268D01*
X10970268Y22595520D01*
X11106374Y22504577D01*
X11257606Y22441935D01*
X11418154Y22410000D01*
X11581846Y22410000D01*
X11742394Y22441935D01*
X11893626Y22504577D01*
X11926998Y22526876D01*
X17828874Y22526876D01*
X17953871Y22352000D01*
X18796000Y22352000D01*
X18796000Y23192954D01*
X18621126Y23319119D01*
X18566136Y23302446D01*
X18362794Y23212123D01*
X18180980Y23083865D01*
X18027682Y22922601D01*
X17908790Y22734529D01*
X17828874Y22526876D01*
X11926998Y22526876D01*
X12029732Y22595520D01*
X12145480Y22711268D01*
X12236423Y22847374D01*
X12299065Y22998606D01*
X12331000Y23159154D01*
X12331000Y23322846D01*
X35669000Y23322846D01*
X35669000Y23159154D01*
X35700935Y22998606D01*
X35763577Y22847374D01*
X35854520Y22711268D01*
X35970268Y22595520D01*
X36106374Y22504577D01*
X36257606Y22441935D01*
X36418154Y22410000D01*
X36581846Y22410000D01*
X36742394Y22441935D01*
X36893626Y22504577D01*
X37029732Y22595520D01*
X37145480Y22711268D01*
X37236423Y22847374D01*
X37299065Y22998606D01*
X37331000Y23159154D01*
X37331000Y23322846D01*
X38669000Y23322846D01*
X38669000Y23159154D01*
X38700935Y22998606D01*
X38763577Y22847374D01*
X38854520Y22711268D01*
X38970268Y22595520D01*
X39106374Y22504577D01*
X39257606Y22441935D01*
X39418154Y22410000D01*
X39581846Y22410000D01*
X39742394Y22441935D01*
X39893626Y22504577D01*
X40029732Y22595520D01*
X40145480Y22711268D01*
X40236423Y22847374D01*
X40299065Y22998606D01*
X40331000Y23159154D01*
X40331000Y23322846D01*
X40299065Y23483394D01*
X40236423Y23634626D01*
X40145480Y23770732D01*
X40029732Y23886480D01*
X39893626Y23977423D01*
X39742394Y24040065D01*
X39581846Y24072000D01*
X39418154Y24072000D01*
X39257606Y24040065D01*
X39106374Y23977423D01*
X38970268Y23886480D01*
X38854520Y23770732D01*
X38763577Y23634626D01*
X38700935Y23483394D01*
X38669000Y23322846D01*
X37331000Y23322846D01*
X37299065Y23483394D01*
X37236423Y23634626D01*
X37145480Y23770732D01*
X37029732Y23886480D01*
X36893626Y23977423D01*
X36742394Y24040065D01*
X36581846Y24072000D01*
X36418154Y24072000D01*
X36257606Y24040065D01*
X36106374Y23977423D01*
X35970268Y23886480D01*
X35854520Y23770732D01*
X35763577Y23634626D01*
X35700935Y23483394D01*
X35669000Y23322846D01*
X12331000Y23322846D01*
X12299065Y23483394D01*
X12236423Y23634626D01*
X12145480Y23770732D01*
X12029732Y23886480D01*
X11893626Y23977423D01*
X11742394Y24040065D01*
X11581846Y24072000D01*
X11418154Y24072000D01*
X11257606Y24040065D01*
X11106374Y23977423D01*
X10970268Y23886480D01*
X10854520Y23770732D01*
X10763577Y23634626D01*
X10700935Y23483394D01*
X10669000Y23322846D01*
X9331000Y23322846D01*
X9299065Y23483394D01*
X9236423Y23634626D01*
X9145480Y23770732D01*
X9029732Y23886480D01*
X8893626Y23977423D01*
X8742394Y24040065D01*
X8581846Y24072000D01*
X8418154Y24072000D01*
X8257606Y24040065D01*
X8106374Y23977423D01*
X7970268Y23886480D01*
X7854520Y23770732D01*
X7763577Y23634626D01*
X7700935Y23483394D01*
X7669000Y23322846D01*
X4303385Y23322846D01*
X4255539Y23438355D01*
X4038743Y23762814D01*
X3762814Y24038743D01*
X3438355Y24255539D01*
X3077836Y24404871D01*
X2695111Y24481000D01*
X2304889Y24481000D01*
X1922164Y24404871D01*
X1561645Y24255539D01*
X1237186Y24038743D01*
X961257Y23762814D01*
X744461Y23438355D01*
X595129Y23077836D01*
X519000Y22695111D01*
X406000Y22695111D01*
X406000Y22980146D01*
X438267Y23309229D01*
X528075Y23606688D01*
X673945Y23881028D01*
X870325Y24121813D01*
X1109736Y24319873D01*
X1383053Y24467654D01*
X1679872Y24559535D01*
X2007782Y24594000D01*
X45980146Y24594000D01*
X46309229Y24561733D01*
G37*
%TD.AperFunction*%
%TD*%
M02*
